M48
;Layer_Color=9474304
;FILE_FORMAT=4:3
METRIC,LZ
;TYPE=PLATED
T1F00S00C0.300
T2F00S00C0.711
T4F00S00C0.890
T5F00S00C0.900
T7F00S00C1.448
T8F00S00C1.600
T9F00S00C2.000
T10F00S00C2.800
;TYPE=NON_PLATED
T11F00S00C1.700
T12F00S00C3.251
%
T01
X0060239Y002794
X0061379Y0053174
X0057645Y0056908
X0057061Y0060185
X005839Y006025
X0059435Y006148
X0060972Y0063233
X0056896Y0064008
X00564Y006496
X0055054Y0065874
X0052895Y0066179
X0048034Y0065814
X0047898Y0060896
X0046534
X0051534Y0061745
X0055232Y0063233
X0041452Y0059575
X0046034Y0050533
X0014973Y0056502
X001348Y0059799
X0043118Y0073571
X0042354Y007451
X0046224
Y0073571
X00453Y0075907
X004784
X0048764Y006871
X0051304Y006937
T02
X0015Y002
X0025
X007Y001
X008
X0085Y002
X0095
X009Y003
X008
X007
X0075Y004
X0085
X0095
X009Y005
X008
X007
X0095Y006
X0052193Y0059535
X0047797Y0055535
X0035Y006
Y004
X0045
X005Y003
X004
X003
X0065Y004
X0025
X0015
X002Y003
X001
Y005
X0015Y006
X0025
X002Y007
X001Y009
X003
X0035Y008
X004Y007
X003
X0065Y008
X006Y009
X007
X008
X009
X0095Y008
X0085
X0075
T04
X0012573Y0014833
X0015113
X005842Y0014815
X006096
T05
X0089662Y006604
X0018288Y0057531
Y0054991
Y0052451
Y0049911
Y0047371
Y0044831
X0039624Y0081026
X0042164
X0044704
X0047244
X0049784
X0052324
X0054864
X0057404
X0089662Y008128
Y008382
Y007874
Y00762
Y007366
Y007112
Y006858
T07
X0024054Y0023714
X003396
Y0005934
X0080061Y0005872
Y0023652
X0070155
T08
X0087249Y0047752
X0045593Y002794
X0014478Y0034417
X0004826Y0064008
Y0072408
X0023566Y0093345
X0070866Y0093218
T09
X0007493Y0009753
X0017653
X005334Y0009735
X00635
T10
X0003Y0003
X0097
X0003Y0097
X0097
T11
X0043937Y0004191
Y0011191
X0089662Y0011156
Y0004156
T12
X002921Y0005934
Y0018634
Y0023714
X0075311Y0023652
Y0018572
Y0005872
M30
