%TF.GenerationSoftware,Altium Limited,Altium Designer,22.7.1 (60)*%
G04 Layer_Color=255*
%FSLAX43Y43*%
%MOMM*%
%TF.SameCoordinates,58151787-F571-4420-9806-9522EC8286B3*%
%TF.FilePolarity,Positive*%
%TF.FileFunction,Pads,Bot*%
%TF.Part,Single*%
G01*
G75*
%TA.AperFunction,ComponentPad*%
%ADD30R,1.300X3.550*%
%ADD31C,2.100*%
%ADD32R,3.550X1.300*%
%ADD33R,1.550X4.100*%
%TA.AperFunction,ViaPad*%
%ADD34C,1.524*%
%TA.AperFunction,ComponentPad*%
%ADD35C,3.251*%
%ADD36C,2.172*%
%ADD37C,1.700*%
%ADD38R,1.500X1.500*%
%ADD39C,1.500*%
%ADD40R,1.500X1.500*%
%ADD41C,3.000*%
%ADD42C,1.398*%
%ADD43R,1.398X1.398*%
D30*
X8382Y84863D02*
D03*
D31*
X4826Y72408D02*
D03*
Y64008D02*
D03*
X45593Y27940D02*
D03*
X14478Y34417D02*
D03*
X87249Y47752D02*
D03*
X70866Y93218D02*
D03*
X23566Y93345D02*
D03*
D32*
X11632Y80063D02*
D03*
D33*
X14632Y84863D02*
D03*
D34*
X97000Y3000D02*
D03*
X3000D02*
D03*
X97000Y97000D02*
D03*
X3000D02*
D03*
D35*
X29210Y5934D02*
D03*
Y18634D02*
D03*
Y23714D02*
D03*
X75311Y23652D02*
D03*
Y18572D02*
D03*
Y5872D02*
D03*
D36*
X33960Y5934D02*
D03*
Y23714D02*
D03*
X24054D02*
D03*
X70155Y23652D02*
D03*
X80061D02*
D03*
Y5872D02*
D03*
D37*
X43937Y4191D02*
D03*
Y11191D02*
D03*
X89662Y11156D02*
D03*
Y4156D02*
D03*
D38*
X57404Y81026D02*
D03*
D39*
X54864D02*
D03*
X52324D02*
D03*
X49784D02*
D03*
X47244D02*
D03*
X44704D02*
D03*
X42164D02*
D03*
X39624D02*
D03*
X18288Y44831D02*
D03*
Y47371D02*
D03*
Y49911D02*
D03*
Y52451D02*
D03*
Y54991D02*
D03*
X89662Y83820D02*
D03*
Y81280D02*
D03*
Y78740D02*
D03*
Y76200D02*
D03*
Y73660D02*
D03*
Y71120D02*
D03*
Y68580D02*
D03*
D40*
X18288Y57531D02*
D03*
X89662Y66040D02*
D03*
D41*
X63500Y9735D02*
D03*
X53340D02*
D03*
X17653Y9753D02*
D03*
X7493D02*
D03*
D42*
X60960Y14815D02*
D03*
X15113Y14833D02*
D03*
D43*
X58420Y14815D02*
D03*
X12573Y14833D02*
D03*
%TF.MD5,a2cd8998d4899fc14faacb562296af08*%
M02*
