%TF.GenerationSoftware,Altium Limited,Altium Designer,22.7.1 (60)*%
G04 Layer_Physical_Order=1*
G04 Layer_Color=255*
%FSLAX43Y43*%
%MOMM*%
%TF.SameCoordinates,58151787-F571-4420-9806-9522EC8286B3*%
%TF.FilePolarity,Positive*%
%TF.FileFunction,Copper,L1,Top,Signal*%
%TF.Part,Single*%
G01*
G75*
%TA.AperFunction,SMDPad,CuDef*%
%ADD10R,0.355X1.353*%
%ADD11R,1.000X1.800*%
%ADD12R,1.006X1.308*%
%ADD13R,1.550X1.250*%
%ADD14R,2.800X2.200*%
%ADD15R,2.800X2.800*%
%ADD16R,3.800X2.030*%
%ADD17R,0.930X0.910*%
%ADD18R,3.099X3.099*%
%ADD19R,0.300X1.500*%
%ADD20R,1.500X0.300*%
%ADD21R,2.000X5.500*%
%ADD22R,1.308X1.006*%
%ADD23R,1.250X1.550*%
%ADD24R,1.300X1.550*%
G04:AMPARAMS|DCode=25|XSize=1.58mm|YSize=0.6mm|CornerRadius=0.075mm|HoleSize=0mm|Usage=FLASHONLY|Rotation=90.000|XOffset=0mm|YOffset=0mm|HoleType=Round|Shape=RoundedRectangle|*
%AMROUNDEDRECTD25*
21,1,1.580,0.450,0,0,90.0*
21,1,1.430,0.600,0,0,90.0*
1,1,0.150,0.225,0.715*
1,1,0.150,0.225,-0.715*
1,1,0.150,-0.225,-0.715*
1,1,0.150,-0.225,0.715*
%
%ADD25ROUNDEDRECTD25*%
%ADD26R,2.030X3.800*%
G04:AMPARAMS|DCode=27|XSize=0.55mm|YSize=0.8mm|CornerRadius=0.05mm|HoleSize=0mm|Usage=FLASHONLY|Rotation=180.000|XOffset=0mm|YOffset=0mm|HoleType=Round|Shape=RoundedRectangle|*
%AMROUNDEDRECTD27*
21,1,0.550,0.701,0,0,180.0*
21,1,0.451,0.800,0,0,180.0*
1,1,0.099,-0.226,0.351*
1,1,0.099,0.226,0.351*
1,1,0.099,0.226,-0.351*
1,1,0.099,-0.226,-0.351*
%
%ADD27ROUNDEDRECTD27*%
%TA.AperFunction,Conductor*%
%ADD28C,0.254*%
%ADD29C,0.200*%
%TA.AperFunction,ComponentPad*%
%ADD30R,1.300X3.550*%
%ADD31C,2.100*%
%ADD32R,3.550X1.300*%
%ADD33R,1.550X4.100*%
%TA.AperFunction,ViaPad*%
%ADD34C,1.524*%
%TA.AperFunction,ComponentPad*%
%ADD35C,3.251*%
%ADD36C,2.172*%
%ADD37C,1.700*%
%ADD38R,1.500X1.500*%
%ADD39C,1.500*%
%ADD40R,1.500X1.500*%
%ADD41C,3.000*%
%ADD42C,1.398*%
%ADD43R,1.398X1.398*%
%TA.AperFunction,ViaPad*%
%ADD44C,1.270*%
%ADD45C,0.650*%
G36*
X99745Y255D02*
X255D01*
Y99745D01*
X99745D01*
Y255D01*
D02*
G37*
%LPC*%
G36*
X97158Y98600D02*
X97100D01*
Y97100D01*
X98600D01*
Y97158D01*
X98539Y97467D01*
X98418Y97758D01*
X98243Y98020D01*
X98020Y98243D01*
X97758Y98418D01*
X97467Y98539D01*
X97158Y98600D01*
D02*
G37*
G36*
X96900D02*
X96842D01*
X96533Y98539D01*
X96242Y98418D01*
X95980Y98243D01*
X95757Y98020D01*
X95582Y97758D01*
X95461Y97467D01*
X95400Y97158D01*
Y97100D01*
X96900D01*
Y98600D01*
D02*
G37*
G36*
X3158D02*
X3100D01*
Y97100D01*
X4600D01*
Y97158D01*
X4539Y97467D01*
X4418Y97758D01*
X4243Y98020D01*
X4020Y98243D01*
X3758Y98418D01*
X3467Y98539D01*
X3158Y98600D01*
D02*
G37*
G36*
X2900D02*
X2842D01*
X2533Y98539D01*
X2242Y98418D01*
X1980Y98243D01*
X1757Y98020D01*
X1582Y97758D01*
X1461Y97467D01*
X1400Y97158D01*
Y97100D01*
X2900D01*
Y98600D01*
D02*
G37*
G36*
X98600Y96900D02*
X97100D01*
Y95400D01*
X97158D01*
X97467Y95461D01*
X97758Y95582D01*
X98020Y95757D01*
X98243Y95980D01*
X98418Y96242D01*
X98539Y96533D01*
X98600Y96842D01*
Y96900D01*
D02*
G37*
G36*
X96900D02*
X95400D01*
Y96842D01*
X95461Y96533D01*
X95582Y96242D01*
X95757Y95980D01*
X95980Y95757D01*
X96242Y95582D01*
X96533Y95461D01*
X96842Y95400D01*
X96900D01*
Y96900D01*
D02*
G37*
G36*
X4600D02*
X3100D01*
Y95400D01*
X3158D01*
X3467Y95461D01*
X3758Y95582D01*
X4020Y95757D01*
X4243Y95980D01*
X4418Y96242D01*
X4539Y96533D01*
X4600Y96842D01*
Y96900D01*
D02*
G37*
G36*
X2900D02*
X1400D01*
Y96842D01*
X1461Y96533D01*
X1582Y96242D01*
X1757Y95980D01*
X1980Y95757D01*
X2242Y95582D01*
X2533Y95461D01*
X2842Y95400D01*
X2900D01*
Y96900D01*
D02*
G37*
G36*
X58020Y94201D02*
X56788D01*
Y93851D01*
X55480D01*
Y94201D01*
X54248D01*
Y93851D01*
X52940D01*
Y94201D01*
X51708D01*
Y93851D01*
X50400D01*
Y94201D01*
X49168D01*
Y93851D01*
X47860D01*
Y94201D01*
X46628D01*
Y93851D01*
X45320D01*
Y94201D01*
X44088D01*
Y93851D01*
X42780D01*
Y94201D01*
X41548D01*
Y93851D01*
X40240D01*
Y94201D01*
X39008D01*
Y93351D01*
X25117Y79460D01*
X24990Y79513D01*
Y81053D01*
X23341D01*
Y79404D01*
X24881D01*
X24934Y79277D01*
X24713Y79056D01*
X22643D01*
Y79105D01*
X22366D01*
Y78228D01*
Y77352D01*
X22643D01*
Y77401D01*
X23310D01*
Y74846D01*
X22923Y74846D01*
X22816Y74895D01*
X22805Y74895D01*
X22213D01*
Y74041D01*
Y73187D01*
X22805D01*
X22816Y73187D01*
X22845Y73200D01*
X22895Y73182D01*
X22928Y73036D01*
X22556Y72664D01*
X18706D01*
Y73184D01*
X16854D01*
Y71632D01*
X18706D01*
Y72152D01*
X22662D01*
X22662Y72152D01*
X22760Y72172D01*
X22843Y72227D01*
X23747Y73131D01*
X23747Y73131D01*
X23802Y73214D01*
X23807Y73236D01*
X24220D01*
Y74846D01*
X23822D01*
Y77401D01*
X25844D01*
Y79056D01*
X25603D01*
X25554Y79173D01*
X38891Y92510D01*
X39008Y92461D01*
Y91469D01*
X39368D01*
Y87154D01*
X38698D01*
Y85602D01*
X40550D01*
Y87154D01*
X39880D01*
Y91469D01*
X40240D01*
Y92681D01*
X39228D01*
X39179Y92798D01*
X39370Y92989D01*
X40240D01*
Y93339D01*
X41548D01*
Y92989D01*
X42780D01*
Y93339D01*
X44088D01*
Y92989D01*
X45320D01*
Y93339D01*
X46628D01*
Y92989D01*
X47860D01*
Y93339D01*
X49168D01*
Y92989D01*
X50400D01*
Y93339D01*
X51708D01*
Y92989D01*
X52940D01*
Y93339D01*
X54248D01*
Y92989D01*
X55480D01*
Y93339D01*
X56788D01*
Y92989D01*
X57195D01*
X57223Y92948D01*
X57248Y92922D01*
X57248Y92922D01*
X57331Y92867D01*
X57429Y92847D01*
X57429Y92847D01*
X57825D01*
X57852Y92808D01*
X57785Y92681D01*
X56788D01*
Y91469D01*
X57148D01*
Y87154D01*
X56478D01*
Y85602D01*
X58278D01*
Y85104D01*
X56478D01*
Y83552D01*
X57148D01*
Y81927D01*
X56503D01*
Y80125D01*
X58278D01*
Y76648D01*
X55716Y74086D01*
X48211D01*
X48113Y74067D01*
X48030Y74011D01*
X48030Y74011D01*
X47921Y73903D01*
X47810Y73947D01*
X47797Y74069D01*
X48885Y75157D01*
X54522D01*
X54522Y75157D01*
X54620Y75176D01*
X54703Y75232D01*
X55045Y75574D01*
X55100Y75657D01*
X55120Y75755D01*
X55120Y75755D01*
Y80162D01*
X55212Y80186D01*
X55417Y80305D01*
X55585Y80473D01*
X55704Y80678D01*
X55765Y80907D01*
Y81145D01*
X55704Y81374D01*
X55585Y81579D01*
X55417Y81747D01*
X55212Y81866D01*
X55120Y81890D01*
Y83552D01*
X55790D01*
Y85104D01*
X53938D01*
Y83552D01*
X54608D01*
Y81890D01*
X54516Y81866D01*
X54311Y81747D01*
X54143Y81579D01*
X54024Y81374D01*
X53963Y81145D01*
Y80907D01*
X54024Y80678D01*
X54143Y80473D01*
X54311Y80305D01*
X54516Y80186D01*
X54608Y80162D01*
Y78603D01*
X54544Y78503D01*
X54481Y78503D01*
X53944D01*
Y77403D01*
Y76303D01*
X54481D01*
X54544Y76303D01*
X54608Y76203D01*
Y75861D01*
X54416Y75669D01*
X51577D01*
X51567Y75678D01*
X51514Y75796D01*
X51540Y75835D01*
X51560Y75933D01*
X51560Y75933D01*
Y76352D01*
X51955D01*
Y78454D01*
X50653D01*
Y76352D01*
X51048D01*
Y76163D01*
X48363D01*
X48355Y76176D01*
X48423Y76303D01*
X48664D01*
Y77303D01*
X48064D01*
Y76444D01*
X47958Y76374D01*
X47935Y76383D01*
X47746D01*
X47627Y76334D01*
X47500Y76406D01*
Y80162D01*
X47592Y80186D01*
X47797Y80305D01*
X47965Y80473D01*
X48084Y80678D01*
X48145Y80907D01*
Y81145D01*
X48084Y81374D01*
X47965Y81579D01*
X47797Y81747D01*
X47592Y81866D01*
X47500Y81890D01*
Y83552D01*
X48170D01*
Y85104D01*
X46318D01*
Y83552D01*
X46988D01*
Y81890D01*
X46896Y81866D01*
X46691Y81747D01*
X46523Y81579D01*
X46404Y81374D01*
X46343Y81145D01*
Y80907D01*
X46404Y80678D01*
X46523Y80473D01*
X46691Y80305D01*
X46896Y80186D01*
X46988Y80162D01*
Y78488D01*
X46875Y78454D01*
Y78454D01*
X45573D01*
Y76447D01*
X45446Y76362D01*
X45395Y76383D01*
X45206D01*
X45087Y76334D01*
X44960Y76406D01*
Y80162D01*
X45052Y80186D01*
X45257Y80305D01*
X45425Y80473D01*
X45544Y80678D01*
X45605Y80907D01*
Y81145D01*
X45544Y81374D01*
X45425Y81579D01*
X45257Y81747D01*
X45052Y81866D01*
X44960Y81890D01*
Y83552D01*
X45630D01*
Y85104D01*
X43778D01*
Y83552D01*
X44448D01*
Y81890D01*
X44356Y81866D01*
X44151Y81747D01*
X43983Y81579D01*
X43864Y81374D01*
X43803Y81145D01*
Y80907D01*
X43864Y80678D01*
X43983Y80473D01*
X44151Y80305D01*
X44356Y80186D01*
X44448Y80162D01*
Y79270D01*
X44331Y79221D01*
X42956Y80596D01*
X43004Y80678D01*
X43065Y80907D01*
Y81145D01*
X43004Y81374D01*
X42885Y81579D01*
X42717Y81747D01*
X42512Y81866D01*
X42420Y81890D01*
Y83552D01*
X43090D01*
Y85104D01*
X41238D01*
Y83552D01*
X41908D01*
Y81890D01*
X41816Y81866D01*
X41611Y81747D01*
X41443Y81579D01*
X41324Y81374D01*
X41263Y81145D01*
Y80907D01*
X41324Y80678D01*
X41443Y80473D01*
X41611Y80305D01*
X41816Y80186D01*
X42045Y80125D01*
X42283D01*
X42512Y80186D01*
X42594Y80234D01*
X44097Y78732D01*
Y77081D01*
X43979Y77033D01*
X40416Y80596D01*
X40464Y80678D01*
X40525Y80907D01*
Y81145D01*
X40464Y81374D01*
X40345Y81579D01*
X40177Y81747D01*
X39972Y81866D01*
X39880Y81890D01*
Y83552D01*
X40550D01*
Y85104D01*
X38698D01*
Y83552D01*
X39368D01*
Y81890D01*
X39276Y81866D01*
X39071Y81747D01*
X38903Y81579D01*
X38784Y81374D01*
X38723Y81145D01*
Y80907D01*
X38784Y80678D01*
X38903Y80473D01*
X39071Y80305D01*
X39276Y80186D01*
X39505Y80125D01*
X39743D01*
X39972Y80186D01*
X40054Y80234D01*
X43745Y76543D01*
Y73092D01*
X42754Y72101D01*
X42637Y72150D01*
Y72728D01*
X43009Y73100D01*
X43023Y73095D01*
X43212D01*
X43387Y73167D01*
X43521Y73301D01*
X43594Y73476D01*
Y73665D01*
X43521Y73840D01*
X43387Y73974D01*
X43212Y74047D01*
X43023D01*
X42848Y73974D01*
X42714Y73840D01*
X42642Y73665D01*
Y73476D01*
X42647Y73462D01*
X42403Y73218D01*
X42286Y73267D01*
Y74034D01*
X42449D01*
X42624Y74107D01*
X42758Y74241D01*
X42830Y74416D01*
Y74605D01*
X42758Y74780D01*
X42624Y74914D01*
X42449Y74986D01*
X42259D01*
X42084Y74914D01*
X41950Y74780D01*
X41878Y74605D01*
Y74416D01*
X41884Y74402D01*
X41849Y74367D01*
X41793Y74284D01*
X41774Y74186D01*
X41774Y74186D01*
Y60093D01*
X41647Y60010D01*
X41547Y60051D01*
X41358D01*
X41183Y59979D01*
X41049Y59845D01*
X40976Y59670D01*
Y59481D01*
X41049Y59306D01*
X41183Y59172D01*
X41358Y59099D01*
X41547D01*
X41561Y59105D01*
X41748Y58918D01*
X41695Y58791D01*
X26273D01*
X26175Y58771D01*
X26092Y58716D01*
X26092Y58716D01*
X26073Y58697D01*
X22333D01*
Y57787D01*
X19189D01*
Y58432D01*
X17387D01*
Y56992D01*
X12138Y51743D01*
X12098Y51683D01*
X11393D01*
Y50131D01*
X13245D01*
Y51683D01*
X12968D01*
X12919Y51800D01*
X17749Y56630D01*
X19189D01*
Y57275D01*
X22333D01*
Y56365D01*
X26435D01*
Y58279D01*
X39167D01*
X39278Y58240D01*
X39278Y58152D01*
Y57638D01*
X40132D01*
X40986D01*
X40986Y58240D01*
X41097Y58279D01*
X43183D01*
Y57885D01*
X43134D01*
Y57635D01*
X45034D01*
Y57680D01*
X45097Y57779D01*
X45195Y57799D01*
X45278Y57854D01*
X45481Y58057D01*
X45481Y58057D01*
X45537Y58140D01*
X45556Y58238D01*
X45556Y58238D01*
Y71032D01*
X45573Y71152D01*
X46721D01*
Y67279D01*
X45853Y66411D01*
X45798Y66328D01*
X45778Y66230D01*
X45778Y66230D01*
Y64386D01*
X45733D01*
Y62584D01*
X46278D01*
Y61305D01*
X46264Y61300D01*
X46130Y61166D01*
X46058Y60991D01*
Y60801D01*
X46130Y60626D01*
X46264Y60492D01*
X46439Y60420D01*
X46629D01*
X46804Y60492D01*
X46938Y60626D01*
X47010Y60801D01*
Y60991D01*
X46938Y61166D01*
X46804Y61300D01*
X46790Y61305D01*
Y61462D01*
X46917Y61515D01*
X47427Y61004D01*
X47422Y60991D01*
Y60801D01*
X47494Y60626D01*
X47628Y60492D01*
X47803Y60420D01*
X47992D01*
X48167Y60492D01*
X48301Y60626D01*
X48374Y60801D01*
Y60991D01*
X48301Y61166D01*
X48167Y61300D01*
X47992Y61372D01*
X47803D01*
X47789Y61366D01*
X47290Y61866D01*
Y62584D01*
X49278D01*
Y57291D01*
X45034D01*
Y57435D01*
X43134D01*
Y57291D01*
X42560D01*
X42560Y57291D01*
X42462Y57271D01*
X42379Y57216D01*
X42379Y57216D01*
X41504Y56341D01*
X40937D01*
X40937Y56728D01*
X40986Y56835D01*
X40986Y56846D01*
Y57438D01*
X40132D01*
X39278D01*
Y56846D01*
X39278Y56835D01*
X39327Y56728D01*
X39327Y56708D01*
Y56341D01*
X37375D01*
Y56861D01*
X35523D01*
Y56341D01*
X35308D01*
X35308Y56341D01*
X35210Y56321D01*
X35127Y56266D01*
X35127Y56266D01*
X34679Y55818D01*
X32986D01*
X32931Y55884D01*
Y56135D01*
X32451D01*
Y56235D01*
D01*
Y56135D01*
X31971D01*
Y55884D01*
X31916Y55818D01*
X18859D01*
X18761Y55798D01*
X18729Y55777D01*
X18636Y55831D01*
X18407Y55892D01*
X18169D01*
X17940Y55831D01*
X17735Y55712D01*
X17567Y55544D01*
X17448Y55339D01*
X17387Y55110D01*
Y54872D01*
X17448Y54643D01*
X17567Y54438D01*
X17735Y54270D01*
X17940Y54151D01*
X18169Y54090D01*
X18407D01*
X18636Y54151D01*
X18841Y54270D01*
X19009Y54438D01*
X19128Y54643D01*
X19189Y54872D01*
Y55110D01*
X19163Y55205D01*
X19241Y55306D01*
X24415D01*
X24428Y55179D01*
X24349Y55163D01*
X24266Y55108D01*
X24266Y55108D01*
X20595Y51437D01*
X18665D01*
X18648Y51564D01*
X18655Y51566D01*
X18871Y51691D01*
X19048Y51868D01*
X19173Y52084D01*
X19238Y52326D01*
Y52351D01*
X18288D01*
X17338D01*
Y52326D01*
X17403Y52084D01*
X17528Y51868D01*
X17705Y51691D01*
X17921Y51566D01*
X17928Y51564D01*
X17911Y51437D01*
X17526D01*
X17526Y51437D01*
X17428Y51417D01*
X17345Y51362D01*
X17345Y51362D01*
X16456Y50473D01*
X16401Y50390D01*
X16381Y50292D01*
X16381Y50292D01*
Y46863D01*
X16381Y46863D01*
X16401Y46765D01*
X16456Y46682D01*
X17231Y45907D01*
X17314Y45851D01*
X17412Y45832D01*
X17412Y45832D01*
X18051D01*
X18068Y45705D01*
X17940Y45671D01*
X17735Y45552D01*
X17567Y45384D01*
X17448Y45179D01*
X17387Y44950D01*
Y44712D01*
X17448Y44483D01*
X17567Y44278D01*
X17735Y44110D01*
X17940Y43991D01*
X18169Y43930D01*
X18407D01*
X18636Y43991D01*
X18841Y44110D01*
X19009Y44278D01*
X19128Y44483D01*
X19189Y44712D01*
Y44950D01*
X19128Y45179D01*
X19009Y45384D01*
X18841Y45552D01*
X18636Y45671D01*
X18508Y45705D01*
X18525Y45832D01*
X33180D01*
X39114Y39898D01*
Y38116D01*
X38204D01*
Y34014D01*
X40536D01*
Y35809D01*
X44788D01*
Y35411D01*
X46398D01*
Y35809D01*
X48482D01*
Y35139D01*
X50034D01*
Y36991D01*
X48482D01*
Y36321D01*
X46398D01*
X46398Y36708D01*
X46447Y36815D01*
X46447Y36826D01*
Y37417D01*
X45593D01*
X44739D01*
Y36826D01*
X44739Y36815D01*
X44788Y36708D01*
X44788Y36688D01*
Y36321D01*
X40536D01*
Y38116D01*
X39626D01*
Y40004D01*
X39606Y40102D01*
X39551Y40185D01*
X39551Y40185D01*
X33467Y46269D01*
X33384Y46324D01*
X33286Y46344D01*
X33286Y46344D01*
X26435D01*
Y48537D01*
X22333D01*
Y47627D01*
X19152D01*
X19128Y47719D01*
X19009Y47924D01*
X18841Y48092D01*
X18636Y48211D01*
X18407Y48272D01*
X18169D01*
X17940Y48211D01*
X17735Y48092D01*
X17567Y47924D01*
X17448Y47719D01*
X17387Y47490D01*
Y47252D01*
X17448Y47023D01*
X17567Y46818D01*
X17735Y46650D01*
X17940Y46531D01*
X18169Y46470D01*
X18168Y46344D01*
X17518D01*
X16893Y46969D01*
Y50186D01*
X17632Y50925D01*
X18101D01*
X18117Y50798D01*
X17940Y50751D01*
X17735Y50632D01*
X17567Y50464D01*
X17448Y50259D01*
X17387Y50030D01*
Y49792D01*
X17448Y49563D01*
X17567Y49358D01*
X17735Y49190D01*
X17940Y49071D01*
X18169Y49010D01*
X18407D01*
X18636Y49071D01*
X18841Y49190D01*
X19009Y49358D01*
X19128Y49563D01*
X19152Y49655D01*
X22333D01*
Y48745D01*
X26435D01*
Y49655D01*
X35154D01*
X35154Y49655D01*
X35252Y49675D01*
X35335Y49730D01*
X38447Y52842D01*
X45733D01*
Y51184D01*
X45778D01*
Y50942D01*
X45764Y50936D01*
X45630Y50802D01*
X45558Y50627D01*
Y50438D01*
X45630Y50263D01*
X45764Y50129D01*
X45939Y50057D01*
X46129D01*
X46304Y50129D01*
X46438Y50263D01*
X46510Y50438D01*
Y50627D01*
X46438Y50802D01*
X46304Y50936D01*
X46290Y50942D01*
Y51184D01*
X46778D01*
Y49192D01*
X46380D01*
Y47582D01*
X47677Y47582D01*
X47784Y47533D01*
X47795Y47533D01*
X48386D01*
Y48387D01*
Y49241D01*
X47795D01*
X47784Y49241D01*
X47677Y49192D01*
X47657Y49192D01*
X47290D01*
Y51135D01*
X47434D01*
Y52085D01*
X47634D01*
Y51135D01*
X47884D01*
Y51184D01*
X49684D01*
Y51135D01*
X49934D01*
Y52085D01*
X50134D01*
Y51135D01*
X50278D01*
Y49491D01*
X50278Y49491D01*
X50298Y49393D01*
X50314Y49368D01*
X50246Y49241D01*
X50134D01*
Y48387D01*
Y47533D01*
X50737D01*
Y47533D01*
X50844Y47582D01*
X51905D01*
X54591Y44788D01*
Y43264D01*
X54989D01*
Y42344D01*
X54932Y42333D01*
X54857Y42283D01*
X54807Y42208D01*
X54790Y42120D01*
Y40690D01*
X54807Y40602D01*
X54857Y40527D01*
X54932Y40477D01*
X54989Y40466D01*
Y39937D01*
X54989Y39937D01*
X55009Y39839D01*
X55064Y39756D01*
X56393Y38427D01*
X56393Y38427D01*
X56476Y38372D01*
X56574Y38352D01*
X56574Y38352D01*
X62356D01*
X65403Y35305D01*
Y33565D01*
X64883D01*
Y31713D01*
X66435D01*
Y33565D01*
X65915D01*
Y35411D01*
X65895Y35509D01*
X65840Y35592D01*
X65840Y35592D01*
X62643Y38789D01*
X62560Y38844D01*
X62462Y38864D01*
X62462Y38864D01*
X56680D01*
X55501Y40043D01*
Y40466D01*
X55558Y40477D01*
X55633Y40527D01*
X55683Y40602D01*
X55700Y40690D01*
Y42120D01*
X55683Y42208D01*
X55633Y42283D01*
X55558Y42333D01*
X55501Y42344D01*
Y43264D01*
X55888Y43264D01*
X55995Y43215D01*
X56006Y43215D01*
X56597D01*
Y44069D01*
Y44923D01*
X56006D01*
X55995Y44923D01*
X55888Y44874D01*
X55868Y44874D01*
X55218D01*
X52140Y48076D01*
Y49192D01*
X51195D01*
X50790Y49597D01*
Y51184D01*
X53835D01*
Y52986D01*
X50790D01*
Y54059D01*
X51010Y54279D01*
X54583D01*
Y53734D01*
X56385D01*
Y54234D01*
Y55234D01*
Y56193D01*
X56488Y56242D01*
X56512Y56243D01*
X56754Y56001D01*
X56754Y56001D01*
X56837Y55946D01*
X56935Y55926D01*
X57873D01*
X57873Y55926D01*
X57971Y55946D01*
X58054Y56001D01*
X58332Y56279D01*
X59337D01*
Y55881D01*
X60948D01*
Y56279D01*
X70061D01*
Y55881D01*
X71671D01*
X71671Y57178D01*
X71720Y57285D01*
X71720Y57296D01*
Y57888D01*
X70866D01*
X70012D01*
Y57296D01*
X70012Y57285D01*
X70061Y57178D01*
X70061Y57158D01*
Y56791D01*
X60948D01*
X60948Y57178D01*
X60997Y57285D01*
X60997Y57296D01*
Y57888D01*
X60143D01*
X59288D01*
Y57296D01*
X59288Y57285D01*
X59337Y57178D01*
X59337Y57158D01*
Y56791D01*
X58238D01*
X58223Y56794D01*
X58121Y56900D01*
Y57003D01*
X58048Y57178D01*
X57914Y57312D01*
X57739Y57384D01*
X57550D01*
X57375Y57312D01*
X57241Y57178D01*
X57236Y57164D01*
X56709D01*
X56657Y57216D01*
X56574Y57271D01*
X56476Y57291D01*
X56385Y57371D01*
Y57685D01*
X56434D01*
Y57935D01*
X55484D01*
Y58135D01*
X56434D01*
Y58279D01*
X58764D01*
X58764Y58279D01*
X58861Y58299D01*
X58944Y58354D01*
X59161Y58571D01*
X59288Y58518D01*
Y58088D01*
X60043D01*
Y58690D01*
X59460D01*
X59408Y58817D01*
X59616Y59026D01*
X59672Y59109D01*
X59691Y59207D01*
X59691Y59207D01*
Y61071D01*
X59705Y61077D01*
X59839Y61211D01*
X59911Y61386D01*
Y61575D01*
X59839Y61750D01*
X59705Y61884D01*
X59530Y61956D01*
X59341D01*
X59166Y61884D01*
X59032Y61750D01*
X58959Y61575D01*
Y61386D01*
X58966Y61370D01*
X58858Y61298D01*
X58304Y61853D01*
Y64849D01*
X58284Y64947D01*
X58229Y65030D01*
X58229Y65030D01*
X57203Y66055D01*
X57120Y66111D01*
X57022Y66130D01*
X57022Y66130D01*
X55463D01*
X55458Y66144D01*
X55324Y66278D01*
X55149Y66350D01*
X54959D01*
X54784Y66278D01*
X54650Y66144D01*
X54578Y65969D01*
Y65780D01*
X54650Y65605D01*
X54784Y65471D01*
X54959Y65398D01*
X55149D01*
X55324Y65471D01*
X55458Y65605D01*
X55463Y65618D01*
X56916D01*
X57792Y64743D01*
Y61747D01*
X57792Y61747D01*
X57811Y61649D01*
X57867Y61566D01*
X58628Y60804D01*
X58556Y60697D01*
X58485Y60726D01*
X58296D01*
X58121Y60654D01*
X57987Y60520D01*
X57914Y60345D01*
Y60155D01*
X57920Y60142D01*
X57622Y59843D01*
X57567Y59852D01*
X57496Y59993D01*
X57537Y60090D01*
Y60279D01*
X57464Y60454D01*
X57330Y60588D01*
X57155Y60661D01*
X57055D01*
X57002Y60788D01*
X57077Y60862D01*
X57132Y60945D01*
X57151Y61043D01*
X57151Y61043D01*
Y63598D01*
X57165Y63604D01*
X57299Y63738D01*
X57372Y63913D01*
Y64102D01*
X57299Y64277D01*
X57165Y64411D01*
X56990Y64484D01*
X56801D01*
X56737Y64457D01*
X56736Y64457D01*
X56670Y64556D01*
X56677Y64564D01*
X56804Y64690D01*
X56876Y64865D01*
Y65055D01*
X56804Y65230D01*
X56670Y65364D01*
X56495Y65436D01*
X56306D01*
X56131Y65364D01*
X55997Y65230D01*
X55991Y65216D01*
X52473D01*
X52421Y65343D01*
X52787Y65709D01*
X52800Y65703D01*
X52990D01*
X53165Y65776D01*
X53299Y65910D01*
X53371Y66085D01*
Y66274D01*
X53299Y66449D01*
X53165Y66583D01*
X52990Y66655D01*
X52800D01*
X52625Y66583D01*
X52491Y66449D01*
X52419Y66274D01*
Y66085D01*
X52425Y66071D01*
X52311Y65957D01*
X52193Y66005D01*
Y66448D01*
X51490D01*
Y66548D01*
X51390D01*
Y67402D01*
X50788D01*
Y67402D01*
X50692Y67353D01*
X49384D01*
Y65743D01*
X49778D01*
Y64834D01*
X49651Y64781D01*
X48942Y65490D01*
Y66492D01*
X48923Y66590D01*
X48867Y66673D01*
X48867Y66673D01*
X48249Y67291D01*
Y68386D01*
X48304Y68413D01*
X48376Y68425D01*
X48494Y68306D01*
X48669Y68234D01*
X48859D01*
X49034Y68306D01*
X49168Y68440D01*
X49240Y68615D01*
Y68805D01*
X49168Y68980D01*
X49047Y69100D01*
Y71152D01*
X49415D01*
Y72853D01*
X49659Y73098D01*
X50653D01*
Y71152D01*
X51048D01*
Y69780D01*
X51034Y69774D01*
X50900Y69640D01*
X50828Y69465D01*
Y69276D01*
X50900Y69101D01*
X51034Y68967D01*
X51209Y68894D01*
X51399D01*
X51574Y68967D01*
X51708Y69101D01*
X51780Y69276D01*
Y69465D01*
X51708Y69640D01*
X51574Y69774D01*
X51560Y69780D01*
Y71152D01*
X51955D01*
Y73098D01*
X52949D01*
X53193Y72853D01*
Y71152D01*
X54495D01*
Y73254D01*
X53594D01*
X53391Y73457D01*
X53439Y73575D01*
X55822D01*
X55822Y73575D01*
X55920Y73594D01*
X56003Y73649D01*
X58715Y76361D01*
X58715Y76361D01*
X58770Y76444D01*
X58790Y76542D01*
X58790Y76542D01*
Y92582D01*
X58790Y92582D01*
X58770Y92680D01*
X58715Y92763D01*
X58715Y92763D01*
X58194Y93284D01*
X58111Y93340D01*
X58020Y93358D01*
Y94201D01*
D02*
G37*
G36*
X23731Y94595D02*
X23666D01*
Y93445D01*
X24816D01*
Y93510D01*
X24731Y93827D01*
X24566Y94113D01*
X24334Y94345D01*
X24049Y94510D01*
X23731Y94595D01*
D02*
G37*
G36*
X23466D02*
X23401D01*
X23084Y94510D01*
X22799Y94345D01*
X22566Y94113D01*
X22401Y93827D01*
X22316Y93510D01*
Y93445D01*
X23466D01*
Y94595D01*
D02*
G37*
G36*
X71031Y94468D02*
X70966D01*
Y93318D01*
X72116D01*
Y93383D01*
X72031Y93700D01*
X71866Y93986D01*
X71634Y94218D01*
X71348Y94383D01*
X71031Y94468D01*
D02*
G37*
G36*
X70766D02*
X70701D01*
X70384Y94383D01*
X70098Y94218D01*
X69866Y93986D01*
X69701Y93700D01*
X69616Y93383D01*
Y93318D01*
X70766D01*
Y94468D01*
D02*
G37*
G36*
X24816Y93245D02*
X23666D01*
Y92095D01*
X23731D01*
X24049Y92180D01*
X24334Y92345D01*
X24566Y92577D01*
X24731Y92863D01*
X24816Y93180D01*
Y93245D01*
D02*
G37*
G36*
X23466D02*
X22316D01*
Y93180D01*
X22401Y92863D01*
X22566Y92577D01*
X22799Y92345D01*
X23084Y92180D01*
X23401Y92095D01*
X23466D01*
Y93245D01*
D02*
G37*
G36*
X72116Y93118D02*
X70966D01*
Y91968D01*
X71031D01*
X71348Y92053D01*
X71634Y92218D01*
X71866Y92450D01*
X72031Y92736D01*
X72116Y93053D01*
Y93118D01*
D02*
G37*
G36*
X70766D02*
X69616D01*
Y93053D01*
X69701Y92736D01*
X69866Y92450D01*
X70098Y92218D01*
X70384Y92053D01*
X70701Y91968D01*
X70766D01*
Y93118D01*
D02*
G37*
G36*
X90110Y90835D02*
X90100D01*
Y90100D01*
X90835D01*
Y90110D01*
X90778Y90322D01*
X90668Y90513D01*
X90513Y90668D01*
X90322Y90778D01*
X90110Y90835D01*
D02*
G37*
G36*
X89900D02*
X89890D01*
X89678Y90778D01*
X89487Y90668D01*
X89332Y90513D01*
X89222Y90322D01*
X89165Y90110D01*
Y90100D01*
X89900D01*
Y90835D01*
D02*
G37*
G36*
X80110D02*
X80100D01*
Y90100D01*
X80835D01*
Y90110D01*
X80778Y90322D01*
X80668Y90513D01*
X80513Y90668D01*
X80322Y90778D01*
X80110Y90835D01*
D02*
G37*
G36*
X79900D02*
X79890D01*
X79678Y90778D01*
X79487Y90668D01*
X79332Y90513D01*
X79222Y90322D01*
X79165Y90110D01*
Y90100D01*
X79900D01*
Y90835D01*
D02*
G37*
G36*
X70110D02*
X70100D01*
Y90100D01*
X70835D01*
Y90110D01*
X70778Y90322D01*
X70668Y90513D01*
X70513Y90668D01*
X70322Y90778D01*
X70110Y90835D01*
D02*
G37*
G36*
X69900D02*
X69890D01*
X69678Y90778D01*
X69487Y90668D01*
X69332Y90513D01*
X69222Y90322D01*
X69165Y90110D01*
Y90100D01*
X69900D01*
Y90835D01*
D02*
G37*
G36*
X60110D02*
X60100D01*
Y90100D01*
X60835D01*
Y90110D01*
X60778Y90322D01*
X60668Y90513D01*
X60513Y90668D01*
X60322Y90778D01*
X60110Y90835D01*
D02*
G37*
G36*
X59900D02*
X59890D01*
X59678Y90778D01*
X59487Y90668D01*
X59332Y90513D01*
X59222Y90322D01*
X59165Y90110D01*
Y90100D01*
X59900D01*
Y90835D01*
D02*
G37*
G36*
X30110D02*
X30100D01*
Y90100D01*
X30835D01*
Y90110D01*
X30778Y90322D01*
X30668Y90513D01*
X30513Y90668D01*
X30322Y90778D01*
X30110Y90835D01*
D02*
G37*
G36*
X29900D02*
X29890D01*
X29678Y90778D01*
X29487Y90668D01*
X29332Y90513D01*
X29222Y90322D01*
X29165Y90110D01*
Y90100D01*
X29900D01*
Y90835D01*
D02*
G37*
G36*
X10110D02*
X10100D01*
Y90100D01*
X10835D01*
Y90110D01*
X10778Y90322D01*
X10668Y90513D01*
X10513Y90668D01*
X10322Y90778D01*
X10110Y90835D01*
D02*
G37*
G36*
X9900D02*
X9890D01*
X9678Y90778D01*
X9487Y90668D01*
X9332Y90513D01*
X9222Y90322D01*
X9165Y90110D01*
Y90100D01*
X9900D01*
Y90835D01*
D02*
G37*
G36*
X90835Y89900D02*
X90100D01*
Y89165D01*
X90110D01*
X90322Y89222D01*
X90513Y89332D01*
X90668Y89487D01*
X90778Y89678D01*
X90835Y89890D01*
Y89900D01*
D02*
G37*
G36*
X89900D02*
X89165D01*
Y89890D01*
X89222Y89678D01*
X89332Y89487D01*
X89487Y89332D01*
X89678Y89222D01*
X89890Y89165D01*
X89900D01*
Y89900D01*
D02*
G37*
G36*
X80835D02*
X80100D01*
Y89165D01*
X80110D01*
X80322Y89222D01*
X80513Y89332D01*
X80668Y89487D01*
X80778Y89678D01*
X80835Y89890D01*
Y89900D01*
D02*
G37*
G36*
X79900D02*
X79165D01*
Y89890D01*
X79222Y89678D01*
X79332Y89487D01*
X79487Y89332D01*
X79678Y89222D01*
X79890Y89165D01*
X79900D01*
Y89900D01*
D02*
G37*
G36*
X70835D02*
X70100D01*
Y89165D01*
X70110D01*
X70322Y89222D01*
X70513Y89332D01*
X70668Y89487D01*
X70778Y89678D01*
X70835Y89890D01*
Y89900D01*
D02*
G37*
G36*
X69900D02*
X69165D01*
Y89890D01*
X69222Y89678D01*
X69332Y89487D01*
X69487Y89332D01*
X69678Y89222D01*
X69890Y89165D01*
X69900D01*
Y89900D01*
D02*
G37*
G36*
X60835D02*
X60100D01*
Y89165D01*
X60110D01*
X60322Y89222D01*
X60513Y89332D01*
X60668Y89487D01*
X60778Y89678D01*
X60835Y89890D01*
Y89900D01*
D02*
G37*
G36*
X59900D02*
X59165D01*
Y89890D01*
X59222Y89678D01*
X59332Y89487D01*
X59487Y89332D01*
X59678Y89222D01*
X59890Y89165D01*
X59900D01*
Y89900D01*
D02*
G37*
G36*
X30835D02*
X30100D01*
Y89165D01*
X30110D01*
X30322Y89222D01*
X30513Y89332D01*
X30668Y89487D01*
X30778Y89678D01*
X30835Y89890D01*
Y89900D01*
D02*
G37*
G36*
X29900D02*
X29165D01*
Y89890D01*
X29222Y89678D01*
X29332Y89487D01*
X29487Y89332D01*
X29678Y89222D01*
X29890Y89165D01*
X29900D01*
Y89900D01*
D02*
G37*
G36*
X10835D02*
X10100D01*
Y89165D01*
X10110D01*
X10322Y89222D01*
X10513Y89332D01*
X10668Y89487D01*
X10778Y89678D01*
X10835Y89890D01*
Y89900D01*
D02*
G37*
G36*
X9900D02*
X9165D01*
Y89890D01*
X9222Y89678D01*
X9332Y89487D01*
X9487Y89332D01*
X9678Y89222D01*
X9890Y89165D01*
X9900D01*
Y89900D01*
D02*
G37*
G36*
X21362Y88675D02*
X9222D01*
X9113Y88654D01*
X9021Y88592D01*
X8182Y87753D01*
X8120Y87661D01*
X8099Y87552D01*
Y86789D01*
X7581D01*
Y83338D01*
X4626Y80382D01*
X4564Y80290D01*
X4543Y80182D01*
Y73575D01*
X4362Y73527D01*
X4089Y73369D01*
X3865Y73145D01*
X3707Y72872D01*
X3625Y72566D01*
Y72250D01*
X3707Y71944D01*
X3865Y71671D01*
X4089Y71447D01*
X4362Y71289D01*
X4668Y71207D01*
X4984D01*
X5290Y71289D01*
X5563Y71447D01*
X5787Y71671D01*
X5945Y71944D01*
X5993Y72125D01*
X12663D01*
Y71632D01*
X14515D01*
Y73184D01*
X12663D01*
Y72691D01*
X5993D01*
X5945Y72872D01*
X5787Y73145D01*
X5563Y73369D01*
X5290Y73527D01*
X5109Y73575D01*
Y80065D01*
X7982Y82937D01*
X9183D01*
Y86789D01*
X8665D01*
Y87435D01*
X9339Y88109D01*
X21245D01*
X21333Y88021D01*
Y87273D01*
X21243Y87183D01*
X20973Y87183D01*
X20866Y87232D01*
X20855Y87232D01*
X20264D01*
Y86378D01*
Y85524D01*
X20855D01*
X20866Y85524D01*
X20973Y85573D01*
X20993Y85573D01*
X21333D01*
Y84905D01*
X20638D01*
Y83250D01*
X25844D01*
Y84905D01*
X23199D01*
Y85078D01*
X23178Y85186D01*
X23116Y85278D01*
X22344Y86051D01*
X22270Y86101D01*
Y87183D01*
X21899D01*
Y88138D01*
X21878Y88246D01*
X21816Y88338D01*
X21562Y88592D01*
X21470Y88654D01*
X21362Y88675D01*
D02*
G37*
G36*
X20064Y87232D02*
X19461D01*
Y86478D01*
X20064D01*
Y87232D01*
D02*
G37*
G36*
X55480Y92681D02*
X54248D01*
Y91469D01*
X54608D01*
Y87154D01*
X53938D01*
Y85602D01*
X55790D01*
Y87154D01*
X55120D01*
Y91469D01*
X55480D01*
Y92681D01*
D02*
G37*
G36*
X52940D02*
X51708D01*
Y91469D01*
X52068D01*
Y87154D01*
X51398D01*
Y85602D01*
X53250D01*
Y87154D01*
X52580D01*
Y91469D01*
X52940D01*
Y92681D01*
D02*
G37*
G36*
X50400D02*
X49168D01*
Y91469D01*
X49528D01*
Y87154D01*
X48858D01*
Y85602D01*
X50710D01*
Y87154D01*
X50040D01*
Y91469D01*
X50400D01*
Y92681D01*
D02*
G37*
G36*
X47860D02*
X46628D01*
Y91469D01*
X46988D01*
Y87154D01*
X46318D01*
Y85602D01*
X48170D01*
Y87154D01*
X47500D01*
Y91469D01*
X47860D01*
Y92681D01*
D02*
G37*
G36*
X45320D02*
X44088D01*
Y91469D01*
X44448D01*
Y87154D01*
X43778D01*
Y85602D01*
X45630D01*
Y87154D01*
X44960D01*
Y91469D01*
X45320D01*
Y92681D01*
D02*
G37*
G36*
X42780D02*
X41548D01*
Y91469D01*
X41908D01*
Y87154D01*
X41238D01*
Y85602D01*
X43090D01*
Y87154D01*
X42420D01*
Y91469D01*
X42780D01*
Y92681D01*
D02*
G37*
G36*
X20064Y86278D02*
X19461D01*
Y85524D01*
X20064D01*
Y86278D01*
D02*
G37*
G36*
X15607Y87113D02*
X14732D01*
Y84963D01*
X15607D01*
Y87113D01*
D02*
G37*
G36*
X14532D02*
X13657D01*
Y84963D01*
X14532D01*
Y87113D01*
D02*
G37*
G36*
X14632Y84863D02*
D01*
D01*
D01*
D02*
G37*
G36*
X89781Y84721D02*
X89543D01*
X89314Y84660D01*
X89109Y84541D01*
X88941Y84373D01*
X88822Y84168D01*
X88761Y83939D01*
Y83701D01*
X88822Y83472D01*
X88941Y83267D01*
X89109Y83099D01*
X89314Y82980D01*
X89543Y82919D01*
X89781D01*
X90010Y82980D01*
X90215Y83099D01*
X90383Y83267D01*
X90502Y83472D01*
X90563Y83701D01*
Y83939D01*
X90502Y84168D01*
X90383Y84373D01*
X90215Y84541D01*
X90010Y84660D01*
X89781Y84721D01*
D02*
G37*
G36*
X15607Y84763D02*
X14732D01*
Y82613D01*
X15607D01*
Y84763D01*
D02*
G37*
G36*
X14532D02*
X13657D01*
Y82613D01*
X14532D01*
Y84763D01*
D02*
G37*
G36*
X24990Y82902D02*
X23341D01*
Y81253D01*
X24990D01*
Y82902D01*
D02*
G37*
G36*
X23141D02*
X21492D01*
Y81253D01*
X23141D01*
Y82902D01*
D02*
G37*
G36*
X89781Y82181D02*
X89543D01*
X89314Y82120D01*
X89109Y82001D01*
X88941Y81833D01*
X88822Y81628D01*
X88761Y81399D01*
Y81161D01*
X88822Y80932D01*
X88941Y80727D01*
X89109Y80559D01*
X89314Y80440D01*
X89543Y80379D01*
X89781D01*
X90010Y80440D01*
X90215Y80559D01*
X90383Y80727D01*
X90502Y80932D01*
X90563Y81161D01*
Y81399D01*
X90502Y81628D01*
X90383Y81833D01*
X90215Y82001D01*
X90010Y82120D01*
X89781Y82181D01*
D02*
G37*
G36*
X13607Y80913D02*
X11732D01*
Y80163D01*
X13607D01*
Y80913D01*
D02*
G37*
G36*
X11532D02*
X9657D01*
Y80163D01*
X11532D01*
Y80913D01*
D02*
G37*
G36*
X53250Y85104D02*
X51398D01*
Y83552D01*
X52068D01*
Y81890D01*
X51976Y81866D01*
X51771Y81747D01*
X51603Y81579D01*
X51484Y81374D01*
X51423Y81145D01*
Y80907D01*
X51484Y80678D01*
X51603Y80473D01*
X51771Y80305D01*
X51976Y80186D01*
X52205Y80125D01*
X52443D01*
X52672Y80186D01*
X52877Y80305D01*
X53045Y80473D01*
X53164Y80678D01*
X53225Y80907D01*
Y81145D01*
X53164Y81374D01*
X53045Y81579D01*
X52877Y81747D01*
X52672Y81866D01*
X52580Y81890D01*
Y83552D01*
X53250D01*
Y85104D01*
D02*
G37*
G36*
X50710D02*
X48858D01*
Y83552D01*
X49528D01*
Y81890D01*
X49436Y81866D01*
X49231Y81747D01*
X49063Y81579D01*
X48944Y81374D01*
X48883Y81145D01*
Y80907D01*
X48944Y80678D01*
X49063Y80473D01*
X49231Y80305D01*
X49436Y80186D01*
X49665Y80125D01*
X49903D01*
X50132Y80186D01*
X50337Y80305D01*
X50505Y80473D01*
X50624Y80678D01*
X50685Y80907D01*
Y81145D01*
X50624Y81374D01*
X50505Y81579D01*
X50337Y81747D01*
X50132Y81866D01*
X50040Y81890D01*
Y83552D01*
X50710D01*
Y85104D01*
D02*
G37*
G36*
X95110Y80835D02*
X95100D01*
Y80100D01*
X95835D01*
Y80110D01*
X95778Y80322D01*
X95668Y80513D01*
X95513Y80668D01*
X95322Y80778D01*
X95110Y80835D01*
D02*
G37*
G36*
X94900D02*
X94890D01*
X94678Y80778D01*
X94487Y80668D01*
X94332Y80513D01*
X94222Y80322D01*
X94165Y80110D01*
Y80100D01*
X94900D01*
Y80835D01*
D02*
G37*
G36*
X85110D02*
X85100D01*
Y80100D01*
X85835D01*
Y80110D01*
X85778Y80322D01*
X85668Y80513D01*
X85513Y80668D01*
X85322Y80778D01*
X85110Y80835D01*
D02*
G37*
G36*
X84900D02*
X84890D01*
X84678Y80778D01*
X84487Y80668D01*
X84332Y80513D01*
X84222Y80322D01*
X84165Y80110D01*
Y80100D01*
X84900D01*
Y80835D01*
D02*
G37*
G36*
X75110D02*
X75100D01*
Y80100D01*
X75835D01*
Y80110D01*
X75778Y80322D01*
X75668Y80513D01*
X75513Y80668D01*
X75322Y80778D01*
X75110Y80835D01*
D02*
G37*
G36*
X74900D02*
X74890D01*
X74678Y80778D01*
X74487Y80668D01*
X74332Y80513D01*
X74222Y80322D01*
X74165Y80110D01*
Y80100D01*
X74900D01*
Y80835D01*
D02*
G37*
G36*
X65110D02*
X65100D01*
Y80100D01*
X65835D01*
Y80110D01*
X65778Y80322D01*
X65668Y80513D01*
X65513Y80668D01*
X65322Y80778D01*
X65110Y80835D01*
D02*
G37*
G36*
X64900D02*
X64890D01*
X64678Y80778D01*
X64487Y80668D01*
X64332Y80513D01*
X64222Y80322D01*
X64165Y80110D01*
Y80100D01*
X64900D01*
Y80835D01*
D02*
G37*
G36*
X35110D02*
X35100D01*
Y80100D01*
X35835D01*
Y80110D01*
X35778Y80322D01*
X35668Y80513D01*
X35513Y80668D01*
X35322Y80778D01*
X35110Y80835D01*
D02*
G37*
G36*
X34900D02*
X34890D01*
X34678Y80778D01*
X34487Y80668D01*
X34332Y80513D01*
X34222Y80322D01*
X34165Y80110D01*
Y80100D01*
X34900D01*
Y80835D01*
D02*
G37*
G36*
X23141Y81053D02*
X21492D01*
Y79404D01*
X23141D01*
Y81053D01*
D02*
G37*
G36*
X13607Y79963D02*
X11732D01*
Y79213D01*
X13607D01*
Y79963D01*
D02*
G37*
G36*
X11532D02*
X9657D01*
Y79213D01*
X11532D01*
Y79963D01*
D02*
G37*
G36*
X95835Y79900D02*
X95100D01*
Y79165D01*
X95110D01*
X95322Y79222D01*
X95513Y79332D01*
X95668Y79487D01*
X95778Y79678D01*
X95835Y79890D01*
Y79900D01*
D02*
G37*
G36*
X94900D02*
X94165D01*
Y79890D01*
X94222Y79678D01*
X94332Y79487D01*
X94487Y79332D01*
X94678Y79222D01*
X94890Y79165D01*
X94900D01*
Y79900D01*
D02*
G37*
G36*
X85835D02*
X85100D01*
Y79165D01*
X85110D01*
X85322Y79222D01*
X85513Y79332D01*
X85668Y79487D01*
X85778Y79678D01*
X85835Y79890D01*
Y79900D01*
D02*
G37*
G36*
X84900D02*
X84165D01*
Y79890D01*
X84222Y79678D01*
X84332Y79487D01*
X84487Y79332D01*
X84678Y79222D01*
X84890Y79165D01*
X84900D01*
Y79900D01*
D02*
G37*
G36*
X75835D02*
X75100D01*
Y79165D01*
X75110D01*
X75322Y79222D01*
X75513Y79332D01*
X75668Y79487D01*
X75778Y79678D01*
X75835Y79890D01*
Y79900D01*
D02*
G37*
G36*
X74900D02*
X74165D01*
Y79890D01*
X74222Y79678D01*
X74332Y79487D01*
X74487Y79332D01*
X74678Y79222D01*
X74890Y79165D01*
X74900D01*
Y79900D01*
D02*
G37*
G36*
X65835D02*
X65100D01*
Y79165D01*
X65110D01*
X65322Y79222D01*
X65513Y79332D01*
X65668Y79487D01*
X65778Y79678D01*
X65835Y79890D01*
Y79900D01*
D02*
G37*
G36*
X64900D02*
X64165D01*
Y79890D01*
X64222Y79678D01*
X64332Y79487D01*
X64487Y79332D01*
X64678Y79222D01*
X64890Y79165D01*
X64900D01*
Y79900D01*
D02*
G37*
G36*
X35835D02*
X35100D01*
Y79165D01*
X35110D01*
X35322Y79222D01*
X35513Y79332D01*
X35668Y79487D01*
X35778Y79678D01*
X35835Y79890D01*
Y79900D01*
D02*
G37*
G36*
X34900D02*
X34165D01*
Y79890D01*
X34222Y79678D01*
X34332Y79487D01*
X34487Y79332D01*
X34678Y79222D01*
X34890Y79165D01*
X34900D01*
Y79900D01*
D02*
G37*
G36*
X89781Y79641D02*
X89543D01*
X89314Y79580D01*
X89109Y79461D01*
X88941Y79293D01*
X88822Y79088D01*
X88761Y78859D01*
Y78621D01*
X88822Y78392D01*
X88941Y78187D01*
X89109Y78019D01*
X89314Y77900D01*
X89543Y77839D01*
X89781D01*
X90010Y77900D01*
X90215Y78019D01*
X90383Y78187D01*
X90502Y78392D01*
X90563Y78621D01*
Y78859D01*
X90502Y79088D01*
X90383Y79293D01*
X90215Y79461D01*
X90010Y79580D01*
X89781Y79641D01*
D02*
G37*
G36*
X53744Y78503D02*
X53144D01*
Y77503D01*
X53744D01*
Y78503D01*
D02*
G37*
G36*
X49464D02*
X48864D01*
Y77503D01*
X49464D01*
Y78503D01*
D02*
G37*
G36*
X48664D02*
X48064D01*
Y77503D01*
X48664D01*
Y78503D01*
D02*
G37*
G36*
X22166Y79105D02*
X21716D01*
Y78228D01*
Y77352D01*
X22166D01*
Y78228D01*
Y79105D01*
D02*
G37*
G36*
X21516D02*
X21239D01*
Y79056D01*
X20638D01*
Y77401D01*
X21239D01*
Y77352D01*
X21516D01*
Y78228D01*
Y79105D01*
D02*
G37*
G36*
X49464Y77303D02*
X48864D01*
Y76303D01*
X49464D01*
Y77303D01*
D02*
G37*
G36*
X53744D02*
X53144D01*
Y76303D01*
X53744D01*
Y77303D01*
D02*
G37*
G36*
X89781Y77101D02*
X89543D01*
X89314Y77040D01*
X89109Y76921D01*
X88941Y76753D01*
X88822Y76548D01*
X88761Y76319D01*
Y76081D01*
X88822Y75852D01*
X88941Y75647D01*
X89109Y75479D01*
X89314Y75360D01*
X89543Y75299D01*
X89781D01*
X90010Y75360D01*
X90215Y75479D01*
X90383Y75647D01*
X90502Y75852D01*
X90563Y76081D01*
Y76319D01*
X90502Y76548D01*
X90383Y76753D01*
X90215Y76921D01*
X90010Y77040D01*
X89781Y77101D01*
D02*
G37*
G36*
X22013Y74895D02*
X21411D01*
Y74141D01*
X22013D01*
Y74895D01*
D02*
G37*
G36*
Y73941D02*
X21411D01*
Y73187D01*
X22013D01*
Y73941D01*
D02*
G37*
G36*
X89781Y74561D02*
X89543D01*
X89314Y74500D01*
X89109Y74381D01*
X88941Y74213D01*
X88822Y74008D01*
X88761Y73779D01*
Y73541D01*
X88822Y73312D01*
X88941Y73107D01*
X89109Y72939D01*
X89314Y72820D01*
X89543Y72759D01*
X89781D01*
X90010Y72820D01*
X90215Y72939D01*
X90383Y73107D01*
X90502Y73312D01*
X90563Y73541D01*
Y73779D01*
X90502Y74008D01*
X90383Y74213D01*
X90215Y74381D01*
X90010Y74500D01*
X89781Y74561D01*
D02*
G37*
G36*
Y72021D02*
X89543D01*
X89314Y71960D01*
X89109Y71841D01*
X88941Y71673D01*
X88822Y71468D01*
X88761Y71239D01*
Y71001D01*
X88822Y70772D01*
X88941Y70567D01*
X89109Y70399D01*
X89314Y70280D01*
X89543Y70219D01*
X89781D01*
X90010Y70280D01*
X90215Y70399D01*
X90383Y70567D01*
X90502Y70772D01*
X90563Y71001D01*
Y71239D01*
X90502Y71468D01*
X90383Y71673D01*
X90215Y71841D01*
X90010Y71960D01*
X89781Y72021D01*
D02*
G37*
G36*
X40110Y70835D02*
X40100D01*
Y70100D01*
X40835D01*
Y70110D01*
X40778Y70322D01*
X40668Y70513D01*
X40513Y70668D01*
X40322Y70778D01*
X40110Y70835D01*
D02*
G37*
G36*
X39900D02*
X39890D01*
X39678Y70778D01*
X39487Y70668D01*
X39332Y70513D01*
X39222Y70322D01*
X39165Y70110D01*
Y70100D01*
X39900D01*
Y70835D01*
D02*
G37*
G36*
X30110D02*
X30100D01*
Y70100D01*
X30835D01*
Y70110D01*
X30778Y70322D01*
X30668Y70513D01*
X30513Y70668D01*
X30322Y70778D01*
X30110Y70835D01*
D02*
G37*
G36*
X29900D02*
X29890D01*
X29678Y70778D01*
X29487Y70668D01*
X29332Y70513D01*
X29222Y70322D01*
X29165Y70110D01*
Y70100D01*
X29900D01*
Y70835D01*
D02*
G37*
G36*
X20110D02*
X20100D01*
Y70100D01*
X20835D01*
Y70110D01*
X20778Y70322D01*
X20668Y70513D01*
X20513Y70668D01*
X20322Y70778D01*
X20110Y70835D01*
D02*
G37*
G36*
X19900D02*
X19890D01*
X19678Y70778D01*
X19487Y70668D01*
X19332Y70513D01*
X19222Y70322D01*
X19165Y70110D01*
Y70100D01*
X19900D01*
Y70835D01*
D02*
G37*
G36*
X40835Y69900D02*
X40100D01*
Y69165D01*
X40110D01*
X40322Y69222D01*
X40513Y69332D01*
X40668Y69487D01*
X40778Y69678D01*
X40835Y69890D01*
Y69900D01*
D02*
G37*
G36*
X39900D02*
X39165D01*
Y69890D01*
X39222Y69678D01*
X39332Y69487D01*
X39487Y69332D01*
X39678Y69222D01*
X39890Y69165D01*
X39900D01*
Y69900D01*
D02*
G37*
G36*
X30835D02*
X30100D01*
Y69165D01*
X30110D01*
X30322Y69222D01*
X30513Y69332D01*
X30668Y69487D01*
X30778Y69678D01*
X30835Y69890D01*
Y69900D01*
D02*
G37*
G36*
X29900D02*
X29165D01*
Y69890D01*
X29222Y69678D01*
X29332Y69487D01*
X29487Y69332D01*
X29678Y69222D01*
X29890Y69165D01*
X29900D01*
Y69900D01*
D02*
G37*
G36*
X20835D02*
X20100D01*
Y69165D01*
X20110D01*
X20322Y69222D01*
X20513Y69332D01*
X20668Y69487D01*
X20778Y69678D01*
X20835Y69890D01*
Y69900D01*
D02*
G37*
G36*
X19900D02*
X19165D01*
Y69890D01*
X19222Y69678D01*
X19332Y69487D01*
X19487Y69332D01*
X19678Y69222D01*
X19890Y69165D01*
X19900D01*
Y69900D01*
D02*
G37*
G36*
X89781Y69481D02*
X89543D01*
X89314Y69420D01*
X89109Y69301D01*
X88941Y69133D01*
X88822Y68928D01*
X88761Y68699D01*
Y68461D01*
X88822Y68232D01*
X88941Y68027D01*
X89109Y67859D01*
X89314Y67740D01*
X89543Y67679D01*
X89781D01*
X90010Y67740D01*
X90215Y67859D01*
X90383Y68027D01*
X90502Y68232D01*
X90563Y68461D01*
Y68699D01*
X90502Y68928D01*
X90383Y69133D01*
X90215Y69301D01*
X90010Y69420D01*
X89781Y69481D01*
D02*
G37*
G36*
X52193Y67402D02*
X51590D01*
Y66648D01*
X52193D01*
Y67402D01*
D02*
G37*
G36*
X60043D02*
X59440D01*
Y66648D01*
X60043D01*
Y67402D01*
D02*
G37*
G36*
Y66448D02*
X59440D01*
Y65694D01*
X60043D01*
Y66448D01*
D02*
G37*
G36*
X18706Y71134D02*
X16854D01*
Y69582D01*
X17524D01*
Y66392D01*
X17164D01*
Y65180D01*
X18396D01*
Y66392D01*
X18036D01*
Y69582D01*
X18706D01*
Y71134D01*
D02*
G37*
G36*
X14515D02*
X12663D01*
Y69582D01*
X13333D01*
Y66392D01*
X12973D01*
Y65180D01*
X14205D01*
Y66392D01*
X13845D01*
Y69582D01*
X14515D01*
Y71134D01*
D02*
G37*
G36*
X90563Y66941D02*
X88761D01*
Y65139D01*
X90563D01*
Y66941D01*
D02*
G37*
G36*
X18445Y64921D02*
X17880D01*
Y64366D01*
X18445D01*
Y64921D01*
D02*
G37*
G36*
X14254D02*
X13689D01*
Y64366D01*
X14254D01*
Y64921D01*
D02*
G37*
G36*
X17680D02*
X17115D01*
Y64366D01*
X17680D01*
Y64921D01*
D02*
G37*
G36*
X13489D02*
X12924D01*
Y64366D01*
X13489D01*
Y64921D01*
D02*
G37*
G36*
X60845Y67402D02*
X60834Y67402D01*
X60243D01*
Y66548D01*
Y65694D01*
X60834D01*
X60845Y65694D01*
X60952Y65743D01*
X60972Y65743D01*
X61339D01*
Y65594D01*
X61339Y65594D01*
X61359Y65496D01*
X61414Y65413D01*
X62407Y64420D01*
X62407Y64420D01*
X62490Y64365D01*
X62588Y64345D01*
X62588Y64345D01*
X63873D01*
Y63957D01*
X61440D01*
X61440Y63957D01*
X61342Y63937D01*
X61259Y63882D01*
X61259Y63882D01*
X61081Y63703D01*
X61067Y63709D01*
X60878D01*
X60703Y63636D01*
X60569Y63502D01*
X60496Y63327D01*
Y63138D01*
X60569Y62963D01*
X60703Y62829D01*
X60878Y62757D01*
X61067D01*
X61242Y62829D01*
X61376Y62963D01*
X61448Y63138D01*
Y63327D01*
X61443Y63341D01*
X61546Y63445D01*
X63873D01*
Y59050D01*
X66175D01*
Y64852D01*
X64149D01*
X64124Y64857D01*
X64124Y64857D01*
X62694D01*
X61935Y65616D01*
X61988Y65743D01*
X62249D01*
Y67353D01*
X60952Y67353D01*
X60845Y67402D01*
D02*
G37*
G36*
X18445Y64166D02*
X17880D01*
Y63611D01*
X18445D01*
Y64166D01*
D02*
G37*
G36*
X17680D02*
X17115D01*
Y63611D01*
X17680D01*
Y64166D01*
D02*
G37*
G36*
X14254D02*
X13689D01*
Y63611D01*
X14254D01*
Y64166D01*
D02*
G37*
G36*
X13489D02*
X12924D01*
Y63611D01*
X13489D01*
Y64166D01*
D02*
G37*
G36*
X4984Y65209D02*
X4668D01*
X4362Y65127D01*
X4089Y64969D01*
X3865Y64745D01*
X3707Y64472D01*
X3625Y64166D01*
Y63850D01*
X3707Y63544D01*
X3865Y63271D01*
X4089Y63047D01*
X4362Y62889D01*
X4668Y62807D01*
X4984D01*
X5290Y62889D01*
X5563Y63047D01*
X5787Y63271D01*
X5945Y63544D01*
X6027Y63850D01*
Y64166D01*
X5945Y64472D01*
X5787Y64745D01*
X5563Y64969D01*
X5290Y65127D01*
X4984Y65209D01*
D02*
G37*
G36*
X95110Y60835D02*
X95100D01*
Y60100D01*
X95835D01*
Y60110D01*
X95778Y60322D01*
X95668Y60513D01*
X95513Y60668D01*
X95322Y60778D01*
X95110Y60835D01*
D02*
G37*
G36*
X94900D02*
X94890D01*
X94678Y60778D01*
X94487Y60668D01*
X94332Y60513D01*
X94222Y60322D01*
X94165Y60110D01*
Y60100D01*
X94900D01*
Y60835D01*
D02*
G37*
G36*
X35110D02*
X35100D01*
Y60100D01*
X35835D01*
Y60110D01*
X35778Y60322D01*
X35668Y60513D01*
X35513Y60668D01*
X35322Y60778D01*
X35110Y60835D01*
D02*
G37*
G36*
X34900D02*
X34890D01*
X34678Y60778D01*
X34487Y60668D01*
X34332Y60513D01*
X34222Y60322D01*
X34165Y60110D01*
Y60100D01*
X34900D01*
Y60835D01*
D02*
G37*
G36*
X25110D02*
X25100D01*
Y60100D01*
X25835D01*
Y60110D01*
X25778Y60322D01*
X25668Y60513D01*
X25513Y60668D01*
X25322Y60778D01*
X25110Y60835D01*
D02*
G37*
G36*
X24900D02*
X24890D01*
X24678Y60778D01*
X24487Y60668D01*
X24332Y60513D01*
X24222Y60322D01*
X24165Y60110D01*
Y60100D01*
X24900D01*
Y60835D01*
D02*
G37*
G36*
X15110D02*
X15100D01*
Y60100D01*
X15835D01*
Y60110D01*
X15778Y60322D01*
X15668Y60513D01*
X15513Y60668D01*
X15322Y60778D01*
X15110Y60835D01*
D02*
G37*
G36*
X14900D02*
X14890D01*
X14678Y60778D01*
X14487Y60668D01*
X14332Y60513D01*
X14222Y60322D01*
X14165Y60110D01*
Y60100D01*
X14900D01*
Y60835D01*
D02*
G37*
G36*
X95835Y59900D02*
X95100D01*
Y59165D01*
X95110D01*
X95322Y59222D01*
X95513Y59332D01*
X95668Y59487D01*
X95778Y59678D01*
X95835Y59890D01*
Y59900D01*
D02*
G37*
G36*
X94900D02*
X94165D01*
Y59890D01*
X94222Y59678D01*
X94332Y59487D01*
X94487Y59332D01*
X94678Y59222D01*
X94890Y59165D01*
X94900D01*
Y59900D01*
D02*
G37*
G36*
X35835D02*
X35100D01*
Y59165D01*
X35110D01*
X35322Y59222D01*
X35513Y59332D01*
X35668Y59487D01*
X35778Y59678D01*
X35835Y59890D01*
Y59900D01*
D02*
G37*
G36*
X34900D02*
X34165D01*
Y59890D01*
X34222Y59678D01*
X34332Y59487D01*
X34487Y59332D01*
X34678Y59222D01*
X34890Y59165D01*
X34900D01*
Y59900D01*
D02*
G37*
G36*
X25835D02*
X25100D01*
Y59165D01*
X25110D01*
X25322Y59222D01*
X25513Y59332D01*
X25668Y59487D01*
X25778Y59678D01*
X25835Y59890D01*
Y59900D01*
D02*
G37*
G36*
X24900D02*
X24165D01*
Y59890D01*
X24222Y59678D01*
X24332Y59487D01*
X24487Y59332D01*
X24678Y59222D01*
X24890Y59165D01*
X24900D01*
Y59900D01*
D02*
G37*
G36*
X15835D02*
X15100D01*
Y59165D01*
X15110D01*
X15322Y59222D01*
X15513Y59332D01*
X15668Y59487D01*
X15778Y59678D01*
X15835Y59890D01*
Y59900D01*
D02*
G37*
G36*
X14900D02*
X14165D01*
Y59890D01*
X14222Y59678D01*
X14332Y59487D01*
X14487Y59332D01*
X14678Y59222D01*
X14890Y59165D01*
X14900D01*
Y59900D01*
D02*
G37*
G36*
X71720Y58690D02*
X70966D01*
Y58088D01*
X71720D01*
Y58690D01*
D02*
G37*
G36*
X60997D02*
X60243D01*
Y58088D01*
X60997D01*
Y58690D01*
D02*
G37*
G36*
X70766D02*
X70012D01*
Y58088D01*
X70766D01*
Y58690D01*
D02*
G37*
G36*
X12206Y57733D02*
X10654D01*
Y57063D01*
X8639D01*
Y57733D01*
X7037D01*
Y55881D01*
X7582D01*
Y49783D01*
X7037D01*
Y47931D01*
X7582D01*
Y47592D01*
X6769Y46779D01*
X5834Y46779D01*
X5727Y46828D01*
X5716Y46828D01*
X5125D01*
Y45974D01*
Y45120D01*
X5716D01*
X5727Y45120D01*
X5834Y45169D01*
X5854Y45169D01*
X7131D01*
Y46417D01*
X8019Y47305D01*
X8019Y47305D01*
X8074Y47388D01*
X8094Y47486D01*
X8094Y47486D01*
Y47931D01*
X8639D01*
Y48601D01*
X11393D01*
Y48081D01*
X13245D01*
Y49633D01*
X11393D01*
Y49113D01*
X10388D01*
X10354Y49240D01*
X10513Y49332D01*
X10668Y49487D01*
X10778Y49678D01*
X10835Y49890D01*
Y49900D01*
X9165D01*
Y49890D01*
X9222Y49678D01*
X9332Y49487D01*
X9487Y49332D01*
X9647Y49240D01*
X9612Y49113D01*
X8639D01*
Y49783D01*
X8094D01*
Y55881D01*
X8639D01*
Y56551D01*
X10654D01*
Y55881D01*
X12206D01*
Y57733D01*
D02*
G37*
G36*
X4188Y57782D02*
X3438D01*
Y56907D01*
X4188D01*
Y57782D01*
D02*
G37*
G36*
X3238D02*
X2488D01*
Y56907D01*
X3238D01*
Y57782D01*
D02*
G37*
G36*
X32676Y56840D02*
X32551D01*
Y56335D01*
X32931D01*
Y56585D01*
X32912Y56683D01*
X32856Y56765D01*
X32774Y56821D01*
X32676Y56840D01*
D02*
G37*
G36*
X32351D02*
X32225D01*
X32128Y56821D01*
X32046Y56765D01*
X31990Y56683D01*
X31971Y56585D01*
Y56335D01*
X32351D01*
Y56840D01*
D02*
G37*
G36*
X13575Y60275D02*
X13385D01*
X13210Y60203D01*
X13076Y60069D01*
X13004Y59894D01*
Y59704D01*
X13076Y59529D01*
X13210Y59395D01*
X13224Y59390D01*
Y57733D01*
X12704D01*
Y55881D01*
X14256D01*
Y56551D01*
X14497D01*
Y56407D01*
X14569Y56232D01*
X14703Y56098D01*
X14878Y56026D01*
X15067D01*
X15242Y56098D01*
X15376Y56232D01*
X15449Y56407D01*
Y56596D01*
X15376Y56771D01*
X15242Y56905D01*
X15067Y56978D01*
X14878D01*
X14864Y56972D01*
X14849Y56988D01*
X14766Y57043D01*
X14668Y57063D01*
X14668Y57063D01*
X14256D01*
Y57733D01*
X13736D01*
Y59390D01*
X13750Y59395D01*
X13884Y59529D01*
X13956Y59704D01*
Y59894D01*
X13884Y60069D01*
X13750Y60203D01*
X13575Y60275D01*
D02*
G37*
G36*
X4188Y56707D02*
X3438D01*
Y55832D01*
X4188D01*
Y56707D01*
D02*
G37*
G36*
X3238D02*
X2488D01*
Y55832D01*
X3238D01*
Y56707D01*
D02*
G37*
G36*
X66175Y55352D02*
X63873D01*
Y52707D01*
X62208D01*
X61849Y53066D01*
X61855Y53080D01*
Y53269D01*
X61782Y53444D01*
X61648Y53578D01*
X61473Y53650D01*
X61284D01*
X61109Y53578D01*
X60975Y53444D01*
X60903Y53269D01*
Y53080D01*
X60975Y52905D01*
X61109Y52771D01*
X61284Y52698D01*
X61473D01*
X61487Y52704D01*
X61921Y52270D01*
X62004Y52215D01*
X62102Y52195D01*
X62102Y52195D01*
X63873D01*
Y50086D01*
X61998D01*
X61998Y50086D01*
X61973Y50081D01*
X60952Y50081D01*
X60845Y50130D01*
X60834Y50130D01*
X60243D01*
Y49276D01*
Y48422D01*
X60834D01*
X60845Y48422D01*
X60952Y48471D01*
X60972Y48471D01*
X62249D01*
Y49574D01*
X63873D01*
Y49550D01*
X66175D01*
Y55352D01*
D02*
G37*
G36*
X18413Y53401D02*
X18388D01*
Y52551D01*
X19238D01*
Y52576D01*
X19173Y52818D01*
X19048Y53034D01*
X18871Y53211D01*
X18655Y53336D01*
X18413Y53401D01*
D02*
G37*
G36*
X18188D02*
X18163D01*
X17921Y53336D01*
X17705Y53211D01*
X17528Y53034D01*
X17403Y52818D01*
X17338Y52576D01*
Y52551D01*
X18188D01*
Y53401D01*
D02*
G37*
G36*
X90110Y50835D02*
X90100D01*
Y50100D01*
X90835D01*
Y50110D01*
X90778Y50322D01*
X90668Y50513D01*
X90513Y50668D01*
X90322Y50778D01*
X90110Y50835D01*
D02*
G37*
G36*
X89900D02*
X89890D01*
X89678Y50778D01*
X89487Y50668D01*
X89332Y50513D01*
X89222Y50322D01*
X89165Y50110D01*
Y50100D01*
X89900D01*
Y50835D01*
D02*
G37*
G36*
X80110D02*
X80100D01*
Y50100D01*
X80835D01*
Y50110D01*
X80778Y50322D01*
X80668Y50513D01*
X80513Y50668D01*
X80322Y50778D01*
X80110Y50835D01*
D02*
G37*
G36*
X79900D02*
X79890D01*
X79678Y50778D01*
X79487Y50668D01*
X79332Y50513D01*
X79222Y50322D01*
X79165Y50110D01*
Y50100D01*
X79900D01*
Y50835D01*
D02*
G37*
G36*
X70110D02*
X70100D01*
Y50100D01*
X70835D01*
Y50110D01*
X70778Y50322D01*
X70668Y50513D01*
X70513Y50668D01*
X70322Y50778D01*
X70110Y50835D01*
D02*
G37*
G36*
X69900D02*
X69890D01*
X69678Y50778D01*
X69487Y50668D01*
X69332Y50513D01*
X69222Y50322D01*
X69165Y50110D01*
Y50100D01*
X69900D01*
Y50835D01*
D02*
G37*
G36*
X10110D02*
X10100D01*
Y50100D01*
X10835D01*
Y50110D01*
X10778Y50322D01*
X10668Y50513D01*
X10513Y50668D01*
X10322Y50778D01*
X10110Y50835D01*
D02*
G37*
G36*
X9900D02*
X9890D01*
X9678Y50778D01*
X9487Y50668D01*
X9332Y50513D01*
X9222Y50322D01*
X9165Y50110D01*
Y50100D01*
X9900D01*
Y50835D01*
D02*
G37*
G36*
X60043Y50130D02*
X59440D01*
Y49376D01*
X60043D01*
Y50130D01*
D02*
G37*
G36*
X90835Y49900D02*
X90100D01*
Y49165D01*
X90110D01*
X90322Y49222D01*
X90513Y49332D01*
X90668Y49487D01*
X90778Y49678D01*
X90835Y49890D01*
Y49900D01*
D02*
G37*
G36*
X89900D02*
X89165D01*
Y49890D01*
X89222Y49678D01*
X89332Y49487D01*
X89487Y49332D01*
X89678Y49222D01*
X89890Y49165D01*
X89900D01*
Y49900D01*
D02*
G37*
G36*
X80835D02*
X80100D01*
Y49165D01*
X80110D01*
X80322Y49222D01*
X80513Y49332D01*
X80668Y49487D01*
X80778Y49678D01*
X80835Y49890D01*
Y49900D01*
D02*
G37*
G36*
X79900D02*
X79165D01*
Y49890D01*
X79222Y49678D01*
X79332Y49487D01*
X79487Y49332D01*
X79678Y49222D01*
X79890Y49165D01*
X79900D01*
Y49900D01*
D02*
G37*
G36*
X70835D02*
X70100D01*
Y49165D01*
X70110D01*
X70322Y49222D01*
X70513Y49332D01*
X70668Y49487D01*
X70778Y49678D01*
X70835Y49890D01*
Y49900D01*
D02*
G37*
G36*
X69900D02*
X69165D01*
Y49890D01*
X69222Y49678D01*
X69332Y49487D01*
X69487Y49332D01*
X69678Y49222D01*
X69890Y49165D01*
X69900D01*
Y49900D01*
D02*
G37*
G36*
X4188Y49832D02*
X3438D01*
Y48957D01*
X4188D01*
Y49832D01*
D02*
G37*
G36*
X3238D02*
X2488D01*
Y48957D01*
X3238D01*
Y49832D01*
D02*
G37*
G36*
X48586Y49241D02*
Y48487D01*
X49189D01*
Y49241D01*
X48586D01*
D02*
G37*
G36*
X49934D02*
X49331D01*
Y48487D01*
X49934D01*
Y49241D01*
D02*
G37*
G36*
X60043Y49176D02*
X59440D01*
Y48422D01*
X60043D01*
Y49176D01*
D02*
G37*
G36*
X4188Y48757D02*
X3438D01*
Y47882D01*
X4188D01*
Y48757D01*
D02*
G37*
G36*
X3238D02*
X2488D01*
Y47882D01*
X3238D01*
Y48757D01*
D02*
G37*
G36*
X87414Y49002D02*
X87349D01*
Y47852D01*
X88499D01*
Y47917D01*
X88414Y48234D01*
X88249Y48520D01*
X88017Y48752D01*
X87731Y48917D01*
X87414Y49002D01*
D02*
G37*
G36*
X87149D02*
X87084D01*
X86767Y48917D01*
X86481Y48752D01*
X86249Y48520D01*
X86084Y48234D01*
X85999Y47917D01*
Y47852D01*
X87149D01*
Y49002D01*
D02*
G37*
G36*
X49934Y48287D02*
X49331D01*
Y47533D01*
X49934D01*
Y48287D01*
D02*
G37*
G36*
X49189D02*
X48586D01*
Y47533D01*
X49189D01*
Y48287D01*
D02*
G37*
G36*
X88499Y47652D02*
X87349D01*
Y46502D01*
X87414D01*
X87731Y46587D01*
X88017Y46752D01*
X88249Y46984D01*
X88414Y47270D01*
X88499Y47587D01*
Y47652D01*
D02*
G37*
G36*
X87149D02*
X85999D01*
Y47587D01*
X86084Y47270D01*
X86249Y46984D01*
X86481Y46752D01*
X86767Y46587D01*
X87084Y46502D01*
X87149D01*
Y47652D01*
D02*
G37*
G36*
X4925Y46828D02*
X4322D01*
Y46074D01*
X4925D01*
Y46828D01*
D02*
G37*
G36*
Y45874D02*
X4322D01*
Y45120D01*
X4925D01*
Y45874D01*
D02*
G37*
G36*
X56797Y44923D02*
Y44169D01*
X57400D01*
Y44923D01*
X56797D01*
D02*
G37*
G36*
X57400Y43969D02*
X56797D01*
Y43215D01*
X57400D01*
Y43969D01*
D02*
G37*
G36*
X59280Y42400D02*
X59155D01*
Y41505D01*
X59560D01*
Y42120D01*
X59539Y42227D01*
X59478Y42318D01*
X59387Y42379D01*
X59280Y42400D01*
D02*
G37*
G36*
X58010D02*
X57885D01*
Y41505D01*
X58290D01*
Y42120D01*
X58269Y42227D01*
X58208Y42318D01*
X58117Y42379D01*
X58010Y42400D01*
D02*
G37*
G36*
X58955D02*
X58830D01*
X58723Y42379D01*
X58632Y42318D01*
X58571Y42227D01*
X58550Y42120D01*
Y41505D01*
X58955D01*
Y42400D01*
D02*
G37*
G36*
X57685D02*
X57560D01*
X57453Y42379D01*
X57362Y42318D01*
X57301Y42227D01*
X57280Y42120D01*
Y41505D01*
X57685D01*
Y42400D01*
D02*
G37*
G36*
X56740Y42350D02*
X56290D01*
X56202Y42333D01*
X56127Y42283D01*
X56077Y42208D01*
X56060Y42120D01*
Y40690D01*
X56077Y40602D01*
X56127Y40527D01*
X56202Y40477D01*
X56290Y40460D01*
X56740D01*
X56828Y40477D01*
X56903Y40527D01*
X56953Y40602D01*
X56970Y40690D01*
Y42120D01*
X56953Y42208D01*
X56903Y42283D01*
X56828Y42333D01*
X56740Y42350D01*
D02*
G37*
G36*
X59560Y41305D02*
X59155D01*
Y40410D01*
X59280D01*
X59387Y40431D01*
X59478Y40492D01*
X59539Y40583D01*
X59560Y40690D01*
Y41305D01*
D02*
G37*
G36*
X58955D02*
X58550D01*
Y40690D01*
X58571Y40583D01*
X58632Y40492D01*
X58723Y40431D01*
X58830Y40410D01*
X58955D01*
Y41305D01*
D02*
G37*
G36*
X58290D02*
X57885D01*
Y40410D01*
X58010D01*
X58117Y40431D01*
X58208Y40492D01*
X58269Y40583D01*
X58290Y40690D01*
Y41305D01*
D02*
G37*
G36*
X57685D02*
X57280D01*
Y40690D01*
X57301Y40583D01*
X57362Y40492D01*
X57453Y40431D01*
X57560Y40410D01*
X57685D01*
Y41305D01*
D02*
G37*
G36*
X95110Y40835D02*
X95100D01*
Y40100D01*
X95835D01*
Y40110D01*
X95778Y40322D01*
X95668Y40513D01*
X95513Y40668D01*
X95322Y40778D01*
X95110Y40835D01*
D02*
G37*
G36*
X94900D02*
X94890D01*
X94678Y40778D01*
X94487Y40668D01*
X94332Y40513D01*
X94222Y40322D01*
X94165Y40110D01*
Y40100D01*
X94900D01*
Y40835D01*
D02*
G37*
G36*
X85110D02*
X85100D01*
Y40100D01*
X85835D01*
Y40110D01*
X85778Y40322D01*
X85668Y40513D01*
X85513Y40668D01*
X85322Y40778D01*
X85110Y40835D01*
D02*
G37*
G36*
X84900D02*
X84890D01*
X84678Y40778D01*
X84487Y40668D01*
X84332Y40513D01*
X84222Y40322D01*
X84165Y40110D01*
Y40100D01*
X84900D01*
Y40835D01*
D02*
G37*
G36*
X75110D02*
X75100D01*
Y40100D01*
X75835D01*
Y40110D01*
X75778Y40322D01*
X75668Y40513D01*
X75513Y40668D01*
X75322Y40778D01*
X75110Y40835D01*
D02*
G37*
G36*
X74900D02*
X74890D01*
X74678Y40778D01*
X74487Y40668D01*
X74332Y40513D01*
X74222Y40322D01*
X74165Y40110D01*
Y40100D01*
X74900D01*
Y40835D01*
D02*
G37*
G36*
X65110D02*
X65100D01*
Y40100D01*
X65835D01*
Y40110D01*
X65778Y40322D01*
X65668Y40513D01*
X65513Y40668D01*
X65322Y40778D01*
X65110Y40835D01*
D02*
G37*
G36*
X64900D02*
X64890D01*
X64678Y40778D01*
X64487Y40668D01*
X64332Y40513D01*
X64222Y40322D01*
X64165Y40110D01*
Y40100D01*
X64900D01*
Y40835D01*
D02*
G37*
G36*
X45110D02*
X45100D01*
Y40100D01*
X45835D01*
Y40110D01*
X45778Y40322D01*
X45668Y40513D01*
X45513Y40668D01*
X45322Y40778D01*
X45110Y40835D01*
D02*
G37*
G36*
X44900D02*
X44890D01*
X44678Y40778D01*
X44487Y40668D01*
X44332Y40513D01*
X44222Y40322D01*
X44165Y40110D01*
Y40100D01*
X44900D01*
Y40835D01*
D02*
G37*
G36*
X35110D02*
X35100D01*
Y40100D01*
X35835D01*
Y40110D01*
X35778Y40322D01*
X35668Y40513D01*
X35513Y40668D01*
X35322Y40778D01*
X35110Y40835D01*
D02*
G37*
G36*
X34900D02*
X34890D01*
X34678Y40778D01*
X34487Y40668D01*
X34332Y40513D01*
X34222Y40322D01*
X34165Y40110D01*
Y40100D01*
X34900D01*
Y40835D01*
D02*
G37*
G36*
X25110D02*
X25100D01*
Y40100D01*
X25835D01*
Y40110D01*
X25778Y40322D01*
X25668Y40513D01*
X25513Y40668D01*
X25322Y40778D01*
X25110Y40835D01*
D02*
G37*
G36*
X24900D02*
X24890D01*
X24678Y40778D01*
X24487Y40668D01*
X24332Y40513D01*
X24222Y40322D01*
X24165Y40110D01*
Y40100D01*
X24900D01*
Y40835D01*
D02*
G37*
G36*
X15110D02*
X15100D01*
Y40100D01*
X15835D01*
Y40110D01*
X15778Y40322D01*
X15668Y40513D01*
X15513Y40668D01*
X15322Y40778D01*
X15110Y40835D01*
D02*
G37*
G36*
X14900D02*
X14890D01*
X14678Y40778D01*
X14487Y40668D01*
X14332Y40513D01*
X14222Y40322D01*
X14165Y40110D01*
Y40100D01*
X14900D01*
Y40835D01*
D02*
G37*
G36*
X95835Y39900D02*
X95100D01*
Y39165D01*
X95110D01*
X95322Y39222D01*
X95513Y39332D01*
X95668Y39487D01*
X95778Y39678D01*
X95835Y39890D01*
Y39900D01*
D02*
G37*
G36*
X94900D02*
X94165D01*
Y39890D01*
X94222Y39678D01*
X94332Y39487D01*
X94487Y39332D01*
X94678Y39222D01*
X94890Y39165D01*
X94900D01*
Y39900D01*
D02*
G37*
G36*
X85835D02*
X85100D01*
Y39165D01*
X85110D01*
X85322Y39222D01*
X85513Y39332D01*
X85668Y39487D01*
X85778Y39678D01*
X85835Y39890D01*
Y39900D01*
D02*
G37*
G36*
X84900D02*
X84165D01*
Y39890D01*
X84222Y39678D01*
X84332Y39487D01*
X84487Y39332D01*
X84678Y39222D01*
X84890Y39165D01*
X84900D01*
Y39900D01*
D02*
G37*
G36*
X75835D02*
X75100D01*
Y39165D01*
X75110D01*
X75322Y39222D01*
X75513Y39332D01*
X75668Y39487D01*
X75778Y39678D01*
X75835Y39890D01*
Y39900D01*
D02*
G37*
G36*
X74900D02*
X74165D01*
Y39890D01*
X74222Y39678D01*
X74332Y39487D01*
X74487Y39332D01*
X74678Y39222D01*
X74890Y39165D01*
X74900D01*
Y39900D01*
D02*
G37*
G36*
X65835D02*
X65100D01*
Y39165D01*
X65110D01*
X65322Y39222D01*
X65513Y39332D01*
X65668Y39487D01*
X65778Y39678D01*
X65835Y39890D01*
Y39900D01*
D02*
G37*
G36*
X64900D02*
X64165D01*
Y39890D01*
X64222Y39678D01*
X64332Y39487D01*
X64487Y39332D01*
X64678Y39222D01*
X64890Y39165D01*
X64900D01*
Y39900D01*
D02*
G37*
G36*
X45835D02*
X45100D01*
Y39165D01*
X45110D01*
X45322Y39222D01*
X45513Y39332D01*
X45668Y39487D01*
X45778Y39678D01*
X45835Y39890D01*
Y39900D01*
D02*
G37*
G36*
X44900D02*
X44165D01*
Y39890D01*
X44222Y39678D01*
X44332Y39487D01*
X44487Y39332D01*
X44678Y39222D01*
X44890Y39165D01*
X44900D01*
Y39900D01*
D02*
G37*
G36*
X35835D02*
X35100D01*
Y39165D01*
X35110D01*
X35322Y39222D01*
X35513Y39332D01*
X35668Y39487D01*
X35778Y39678D01*
X35835Y39890D01*
Y39900D01*
D02*
G37*
G36*
X34900D02*
X34165D01*
Y39890D01*
X34222Y39678D01*
X34332Y39487D01*
X34487Y39332D01*
X34678Y39222D01*
X34890Y39165D01*
X34900D01*
Y39900D01*
D02*
G37*
G36*
X25835D02*
X25100D01*
Y39165D01*
X25110D01*
X25322Y39222D01*
X25513Y39332D01*
X25668Y39487D01*
X25778Y39678D01*
X25835Y39890D01*
Y39900D01*
D02*
G37*
G36*
X24900D02*
X24165D01*
Y39890D01*
X24222Y39678D01*
X24332Y39487D01*
X24487Y39332D01*
X24678Y39222D01*
X24890Y39165D01*
X24900D01*
Y39900D01*
D02*
G37*
G36*
X15835D02*
X15100D01*
Y39165D01*
X15110D01*
X15322Y39222D01*
X15513Y39332D01*
X15668Y39487D01*
X15778Y39678D01*
X15835Y39890D01*
Y39900D01*
D02*
G37*
G36*
X14900D02*
X14165D01*
Y39890D01*
X14222Y39678D01*
X14332Y39487D01*
X14487Y39332D01*
X14678Y39222D01*
X14890Y39165D01*
X14900D01*
Y39900D01*
D02*
G37*
G36*
X46447Y38220D02*
X45693D01*
Y37617D01*
X46447D01*
Y38220D01*
D02*
G37*
G36*
X45493D02*
X44739D01*
Y37617D01*
X45493D01*
Y38220D01*
D02*
G37*
G36*
X55470Y37010D02*
X55020D01*
X54932Y36993D01*
X54857Y36943D01*
X54807Y36868D01*
X54790Y36780D01*
Y36321D01*
X52084D01*
Y36991D01*
X50532D01*
Y35139D01*
X52084D01*
Y35809D01*
X54790D01*
Y35481D01*
X54284Y34976D01*
X54229Y34893D01*
X54209Y34795D01*
X54209Y34795D01*
Y33565D01*
X53689D01*
Y31713D01*
X54807D01*
Y30015D01*
X54409D01*
Y28405D01*
X55716D01*
Y30015D01*
X55318D01*
Y31891D01*
X55318Y31891D01*
X55299Y31989D01*
X55243Y32072D01*
X55243Y32072D01*
X55241Y32075D01*
Y33565D01*
X54721D01*
Y34689D01*
X55152Y35120D01*
X55470D01*
X55558Y35137D01*
X55633Y35187D01*
X55683Y35262D01*
X55700Y35350D01*
Y36780D01*
X55683Y36868D01*
X55633Y36943D01*
X55558Y36993D01*
X55470Y37010D01*
D02*
G37*
G36*
X59280Y37060D02*
X59155D01*
Y36165D01*
X59560D01*
Y36780D01*
X59539Y36887D01*
X59478Y36978D01*
X59387Y37039D01*
X59280Y37060D01*
D02*
G37*
G36*
X58955D02*
X58830D01*
X58723Y37039D01*
X58632Y36978D01*
X58571Y36887D01*
X58550Y36780D01*
Y36165D01*
X58955D01*
Y37060D01*
D02*
G37*
G36*
X59560Y35965D02*
X59155D01*
Y35070D01*
X59280D01*
X59387Y35091D01*
X59478Y35152D01*
X59539Y35243D01*
X59560Y35350D01*
Y35965D01*
D02*
G37*
G36*
X58955D02*
X58550D01*
Y35350D01*
X58571Y35243D01*
X58632Y35152D01*
X58723Y35091D01*
X58830Y35070D01*
X58955D01*
Y35965D01*
D02*
G37*
G36*
X14643Y35667D02*
X14578D01*
Y34517D01*
X15728D01*
Y34582D01*
X15643Y34899D01*
X15478Y35185D01*
X15246Y35417D01*
X14960Y35582D01*
X14643Y35667D01*
D02*
G37*
G36*
X14378D02*
X14313D01*
X13996Y35582D01*
X13710Y35417D01*
X13478Y35185D01*
X13313Y34899D01*
X13228Y34582D01*
Y34517D01*
X14378D01*
Y35667D01*
D02*
G37*
G36*
X15728Y34317D02*
X14578D01*
Y33167D01*
X14643D01*
X14960Y33252D01*
X15246Y33417D01*
X15478Y33649D01*
X15643Y33935D01*
X15728Y34252D01*
Y34317D01*
D02*
G37*
G36*
X14378D02*
X13228D01*
Y34252D01*
X13313Y33935D01*
X13478Y33649D01*
X13710Y33417D01*
X13996Y33252D01*
X14313Y33167D01*
X14378D01*
Y34317D01*
D02*
G37*
G36*
X64385Y33565D02*
X62833D01*
Y32895D01*
X62135D01*
Y33565D01*
X60583D01*
Y31713D01*
X62135D01*
Y32383D01*
X62833D01*
Y31713D01*
X64385D01*
Y33565D01*
D02*
G37*
G36*
X90110Y30835D02*
X90100D01*
Y30100D01*
X90835D01*
Y30110D01*
X90778Y30322D01*
X90668Y30513D01*
X90513Y30668D01*
X90322Y30778D01*
X90110Y30835D01*
D02*
G37*
G36*
X89900D02*
X89890D01*
X89678Y30778D01*
X89487Y30668D01*
X89332Y30513D01*
X89222Y30322D01*
X89165Y30110D01*
Y30100D01*
X89900D01*
Y30835D01*
D02*
G37*
G36*
X80110D02*
X80100D01*
Y30100D01*
X80835D01*
Y30110D01*
X80778Y30322D01*
X80668Y30513D01*
X80513Y30668D01*
X80322Y30778D01*
X80110Y30835D01*
D02*
G37*
G36*
X79900D02*
X79890D01*
X79678Y30778D01*
X79487Y30668D01*
X79332Y30513D01*
X79222Y30322D01*
X79165Y30110D01*
Y30100D01*
X79900D01*
Y30835D01*
D02*
G37*
G36*
X70110D02*
X70100D01*
Y30100D01*
X70835D01*
Y30110D01*
X70778Y30322D01*
X70668Y30513D01*
X70513Y30668D01*
X70322Y30778D01*
X70110Y30835D01*
D02*
G37*
G36*
X69900D02*
X69890D01*
X69678Y30778D01*
X69487Y30668D01*
X69332Y30513D01*
X69222Y30322D01*
X69165Y30110D01*
Y30100D01*
X69900D01*
Y30835D01*
D02*
G37*
G36*
X50110D02*
X50100D01*
Y30100D01*
X50835D01*
Y30110D01*
X50778Y30322D01*
X50668Y30513D01*
X50513Y30668D01*
X50322Y30778D01*
X50110Y30835D01*
D02*
G37*
G36*
X49900D02*
X49890D01*
X49678Y30778D01*
X49487Y30668D01*
X49332Y30513D01*
X49222Y30322D01*
X49165Y30110D01*
Y30100D01*
X49900D01*
Y30835D01*
D02*
G37*
G36*
X40110D02*
X40100D01*
Y30100D01*
X40835D01*
Y30110D01*
X40778Y30322D01*
X40668Y30513D01*
X40513Y30668D01*
X40322Y30778D01*
X40110Y30835D01*
D02*
G37*
G36*
X39900D02*
X39890D01*
X39678Y30778D01*
X39487Y30668D01*
X39332Y30513D01*
X39222Y30322D01*
X39165Y30110D01*
Y30100D01*
X39900D01*
Y30835D01*
D02*
G37*
G36*
X30110D02*
X30100D01*
Y30100D01*
X30835D01*
Y30110D01*
X30778Y30322D01*
X30668Y30513D01*
X30513Y30668D01*
X30322Y30778D01*
X30110Y30835D01*
D02*
G37*
G36*
X29900D02*
X29890D01*
X29678Y30778D01*
X29487Y30668D01*
X29332Y30513D01*
X29222Y30322D01*
X29165Y30110D01*
Y30100D01*
X29900D01*
Y30835D01*
D02*
G37*
G36*
X20110D02*
X20100D01*
Y30100D01*
X20835D01*
Y30110D01*
X20778Y30322D01*
X20668Y30513D01*
X20513Y30668D01*
X20322Y30778D01*
X20110Y30835D01*
D02*
G37*
G36*
X19900D02*
X19890D01*
X19678Y30778D01*
X19487Y30668D01*
X19332Y30513D01*
X19222Y30322D01*
X19165Y30110D01*
Y30100D01*
X19900D01*
Y30835D01*
D02*
G37*
G36*
X10110D02*
X10100D01*
Y30100D01*
X10835D01*
Y30110D01*
X10778Y30322D01*
X10668Y30513D01*
X10513Y30668D01*
X10322Y30778D01*
X10110Y30835D01*
D02*
G37*
G36*
X9900D02*
X9890D01*
X9678Y30778D01*
X9487Y30668D01*
X9332Y30513D01*
X9222Y30322D01*
X9165Y30110D01*
Y30100D01*
X9900D01*
Y30835D01*
D02*
G37*
G36*
X62184Y30185D02*
X61459D01*
Y29310D01*
X62184D01*
Y30185D01*
D02*
G37*
G36*
X61259D02*
X60534D01*
Y29310D01*
X61259D01*
Y30185D01*
D02*
G37*
G36*
X90835Y29900D02*
X90100D01*
Y29165D01*
X90110D01*
X90322Y29222D01*
X90513Y29332D01*
X90668Y29487D01*
X90778Y29678D01*
X90835Y29890D01*
Y29900D01*
D02*
G37*
G36*
X89900D02*
X89165D01*
Y29890D01*
X89222Y29678D01*
X89332Y29487D01*
X89487Y29332D01*
X89678Y29222D01*
X89890Y29165D01*
X89900D01*
Y29900D01*
D02*
G37*
G36*
X80835D02*
X80100D01*
Y29165D01*
X80110D01*
X80322Y29222D01*
X80513Y29332D01*
X80668Y29487D01*
X80778Y29678D01*
X80835Y29890D01*
Y29900D01*
D02*
G37*
G36*
X79900D02*
X79165D01*
Y29890D01*
X79222Y29678D01*
X79332Y29487D01*
X79487Y29332D01*
X79678Y29222D01*
X79890Y29165D01*
X79900D01*
Y29900D01*
D02*
G37*
G36*
X70835D02*
X70100D01*
Y29165D01*
X70110D01*
X70322Y29222D01*
X70513Y29332D01*
X70668Y29487D01*
X70778Y29678D01*
X70835Y29890D01*
Y29900D01*
D02*
G37*
G36*
X69900D02*
X69165D01*
Y29890D01*
X69222Y29678D01*
X69332Y29487D01*
X69487Y29332D01*
X69678Y29222D01*
X69890Y29165D01*
X69900D01*
Y29900D01*
D02*
G37*
G36*
X50835D02*
X50100D01*
Y29165D01*
X50110D01*
X50322Y29222D01*
X50513Y29332D01*
X50668Y29487D01*
X50778Y29678D01*
X50835Y29890D01*
Y29900D01*
D02*
G37*
G36*
X49900D02*
X49165D01*
Y29890D01*
X49222Y29678D01*
X49332Y29487D01*
X49487Y29332D01*
X49678Y29222D01*
X49890Y29165D01*
X49900D01*
Y29900D01*
D02*
G37*
G36*
X40835D02*
X40100D01*
Y29165D01*
X40110D01*
X40322Y29222D01*
X40513Y29332D01*
X40668Y29487D01*
X40778Y29678D01*
X40835Y29890D01*
Y29900D01*
D02*
G37*
G36*
X39900D02*
X39165D01*
Y29890D01*
X39222Y29678D01*
X39332Y29487D01*
X39487Y29332D01*
X39678Y29222D01*
X39890Y29165D01*
X39900D01*
Y29900D01*
D02*
G37*
G36*
X30835D02*
X30100D01*
Y29165D01*
X30110D01*
X30322Y29222D01*
X30513Y29332D01*
X30668Y29487D01*
X30778Y29678D01*
X30835Y29890D01*
Y29900D01*
D02*
G37*
G36*
X29900D02*
X29165D01*
Y29890D01*
X29222Y29678D01*
X29332Y29487D01*
X29487Y29332D01*
X29678Y29222D01*
X29890Y29165D01*
X29900D01*
Y29900D01*
D02*
G37*
G36*
X20835D02*
X20100D01*
Y29165D01*
X20110D01*
X20322Y29222D01*
X20513Y29332D01*
X20668Y29487D01*
X20778Y29678D01*
X20835Y29890D01*
Y29900D01*
D02*
G37*
G36*
X19900D02*
X19165D01*
Y29890D01*
X19222Y29678D01*
X19332Y29487D01*
X19487Y29332D01*
X19678Y29222D01*
X19890Y29165D01*
X19900D01*
Y29900D01*
D02*
G37*
G36*
X10835D02*
X10100D01*
Y29165D01*
X10110D01*
X10322Y29222D01*
X10513Y29332D01*
X10668Y29487D01*
X10778Y29678D01*
X10835Y29890D01*
Y29900D01*
D02*
G37*
G36*
X9900D02*
X9165D01*
Y29890D01*
X9222Y29678D01*
X9332Y29487D01*
X9487Y29332D01*
X9678Y29222D01*
X9890Y29165D01*
X9900D01*
Y29900D01*
D02*
G37*
G36*
X61259Y29110D02*
X60534D01*
Y28500D01*
X60428Y28430D01*
X60343Y28465D01*
X60339D01*
Y28040D01*
X60764D01*
Y28044D01*
X60729Y28129D01*
X60799Y28235D01*
X61259D01*
Y29110D01*
D02*
G37*
G36*
X62184D02*
X61459D01*
Y28235D01*
X62184D01*
Y29110D01*
D02*
G37*
G36*
X58010Y37010D02*
X57560D01*
X57472Y36993D01*
X57397Y36943D01*
X57347Y36868D01*
X57330Y36780D01*
Y35350D01*
X57347Y35262D01*
X57397Y35187D01*
X57472Y35137D01*
X57529Y35126D01*
Y34313D01*
X57529Y34313D01*
X57549Y34215D01*
X57604Y34132D01*
X58533Y33203D01*
Y31713D01*
X59053D01*
Y30136D01*
X58533D01*
Y28284D01*
X59053D01*
Y27094D01*
X58600D01*
Y25484D01*
X59896Y25484D01*
X60003Y25435D01*
X60014Y25435D01*
X60606D01*
Y26289D01*
Y27143D01*
X60014D01*
X60003Y27143D01*
X59896Y27094D01*
X59876Y27094D01*
X59565D01*
Y28240D01*
X59692Y28260D01*
X59761Y28157D01*
X59714Y28044D01*
Y28040D01*
X60139D01*
Y28465D01*
X60135D01*
X60085Y28498D01*
Y30136D01*
X59565D01*
Y31713D01*
X60085D01*
Y33565D01*
X58895D01*
X58041Y34419D01*
Y35126D01*
X58098Y35137D01*
X58173Y35187D01*
X58223Y35262D01*
X58240Y35350D01*
Y36780D01*
X58223Y36868D01*
X58173Y36943D01*
X58098Y36993D01*
X58010Y37010D01*
D02*
G37*
G36*
X45758Y29190D02*
X45693D01*
Y28040D01*
X46843D01*
Y28105D01*
X46758Y28422D01*
X46593Y28708D01*
X46361Y28940D01*
X46075Y29105D01*
X45758Y29190D01*
D02*
G37*
G36*
X45493D02*
X45428D01*
X45111Y29105D01*
X44825Y28940D01*
X44593Y28708D01*
X44428Y28422D01*
X44343Y28105D01*
Y28040D01*
X45493D01*
Y29190D01*
D02*
G37*
G36*
X60764Y27840D02*
X60339D01*
Y27415D01*
X60343D01*
X60536Y27495D01*
X60684Y27643D01*
X60764Y27836D01*
Y27840D01*
D02*
G37*
G36*
X60139D02*
X59714D01*
Y27836D01*
X59794Y27643D01*
X59942Y27495D01*
X60135Y27415D01*
X60139D01*
Y27840D01*
D02*
G37*
G36*
X46843D02*
X45693D01*
Y26690D01*
X45758D01*
X46075Y26775D01*
X46361Y26940D01*
X46593Y27172D01*
X46758Y27458D01*
X46843Y27775D01*
Y27840D01*
D02*
G37*
G36*
X45493D02*
X44343D01*
Y27775D01*
X44428Y27458D01*
X44593Y27172D01*
X44825Y26940D01*
X45111Y26775D01*
X45428Y26690D01*
X45493D01*
Y27840D01*
D02*
G37*
G36*
X60806Y27143D02*
Y26389D01*
X61409D01*
Y27143D01*
X60806D01*
D02*
G37*
G36*
X61409Y26189D02*
X60806D01*
Y25435D01*
X61409D01*
Y26189D01*
D02*
G37*
G36*
X56740Y37010D02*
X56290D01*
X56202Y36993D01*
X56127Y36943D01*
X56077Y36868D01*
X56060Y36780D01*
Y35350D01*
X56077Y35262D01*
X56127Y35187D01*
X56202Y35137D01*
X56259Y35126D01*
Y33565D01*
X55739D01*
Y31713D01*
X56259D01*
Y30015D01*
X55861D01*
Y28405D01*
X56259D01*
Y27088D01*
X55739D01*
Y25236D01*
X57291D01*
Y27088D01*
X56771D01*
Y28405D01*
X57169D01*
Y30015D01*
X56771D01*
Y31713D01*
X57291D01*
Y33565D01*
X56771D01*
Y35126D01*
X56828Y35137D01*
X56903Y35187D01*
X56953Y35262D01*
X56970Y35350D01*
Y36780D01*
X56953Y36868D01*
X56903Y36943D01*
X56828Y36993D01*
X56740Y37010D01*
D02*
G37*
G36*
X34123Y24951D02*
X33797D01*
X33482Y24866D01*
X33200Y24704D01*
X32970Y24473D01*
X32807Y24191D01*
X32723Y23877D01*
Y23551D01*
X32807Y23236D01*
X32970Y22954D01*
X33200Y22724D01*
X33482Y22561D01*
X33797Y22477D01*
X34123D01*
X34437Y22561D01*
X34719Y22724D01*
X34950Y22954D01*
X35112Y23236D01*
X35197Y23551D01*
Y23877D01*
X35112Y24191D01*
X34950Y24473D01*
X34719Y24704D01*
X34437Y24866D01*
X34123Y24951D01*
D02*
G37*
G36*
X24217D02*
X23891D01*
X23576Y24866D01*
X23294Y24704D01*
X23064Y24473D01*
X22901Y24191D01*
X22817Y23877D01*
Y23551D01*
X22901Y23236D01*
X23064Y22954D01*
X23294Y22724D01*
X23576Y22561D01*
X23891Y22477D01*
X24217D01*
X24531Y22561D01*
X24813Y22724D01*
X25044Y22954D01*
X25206Y23236D01*
X25291Y23551D01*
Y23877D01*
X25206Y24191D01*
X25044Y24473D01*
X24813Y24704D01*
X24531Y24866D01*
X24217Y24951D01*
D02*
G37*
G36*
X80224Y24889D02*
X79898D01*
X79583Y24805D01*
X79301Y24642D01*
X79071Y24412D01*
X78908Y24130D01*
X78824Y23815D01*
Y23490D01*
X78908Y23175D01*
X79071Y22893D01*
X79301Y22663D01*
X79583Y22500D01*
X79898Y22416D01*
X80224D01*
X80538Y22500D01*
X80820Y22663D01*
X81051Y22893D01*
X81213Y23175D01*
X81298Y23490D01*
Y23815D01*
X81213Y24130D01*
X81051Y24412D01*
X80820Y24642D01*
X80538Y24805D01*
X80224Y24889D01*
D02*
G37*
G36*
X70318D02*
X69992D01*
X69677Y24805D01*
X69395Y24642D01*
X69165Y24412D01*
X69002Y24130D01*
X68918Y23815D01*
Y23490D01*
X69002Y23175D01*
X69165Y22893D01*
X69395Y22663D01*
X69677Y22500D01*
X69992Y22416D01*
X70318D01*
X70632Y22500D01*
X70914Y22663D01*
X71145Y22893D01*
X71307Y23175D01*
X71392Y23490D01*
Y23815D01*
X71307Y24130D01*
X71145Y24412D01*
X70914Y24642D01*
X70632Y24805D01*
X70318Y24889D01*
D02*
G37*
G36*
X29385Y25490D02*
X29035D01*
X28692Y25422D01*
X28368Y25288D01*
X28077Y25094D01*
X27830Y24846D01*
X27636Y24555D01*
X27502Y24232D01*
X27433Y23889D01*
Y23539D01*
X27502Y23196D01*
X27636Y22872D01*
X27830Y22581D01*
X28077Y22334D01*
X28368Y22139D01*
X28692Y22005D01*
X29035Y21937D01*
X29385D01*
X29728Y22005D01*
X30052Y22139D01*
X30343Y22334D01*
X30590Y22581D01*
X30784Y22872D01*
X30918Y23196D01*
X30987Y23539D01*
Y23889D01*
X30918Y24232D01*
X30784Y24555D01*
X30590Y24846D01*
X30343Y25094D01*
X30052Y25288D01*
X29728Y25422D01*
X29385Y25490D01*
D02*
G37*
G36*
X75486Y25429D02*
X75136D01*
X74793Y25361D01*
X74469Y25227D01*
X74178Y25032D01*
X73931Y24785D01*
X73737Y24494D01*
X73603Y24171D01*
X73534Y23827D01*
Y23477D01*
X73603Y23134D01*
X73737Y22811D01*
X73931Y22520D01*
X74178Y22272D01*
X74469Y22078D01*
X74793Y21944D01*
X75136Y21876D01*
X75486D01*
X75829Y21944D01*
X76153Y22078D01*
X76444Y22272D01*
X76691Y22520D01*
X76885Y22811D01*
X77019Y23134D01*
X77088Y23477D01*
Y23827D01*
X77019Y24171D01*
X76885Y24494D01*
X76691Y24785D01*
X76444Y25032D01*
X76153Y25227D01*
X75829Y25361D01*
X75486Y25429D01*
D02*
G37*
G36*
X95110Y20835D02*
X95100D01*
Y20100D01*
X95835D01*
Y20110D01*
X95778Y20322D01*
X95668Y20513D01*
X95513Y20668D01*
X95322Y20778D01*
X95110Y20835D01*
D02*
G37*
G36*
X94900D02*
X94890D01*
X94678Y20778D01*
X94487Y20668D01*
X94332Y20513D01*
X94222Y20322D01*
X94165Y20110D01*
Y20100D01*
X94900D01*
Y20835D01*
D02*
G37*
G36*
X85110D02*
X85100D01*
Y20100D01*
X85835D01*
Y20110D01*
X85778Y20322D01*
X85668Y20513D01*
X85513Y20668D01*
X85322Y20778D01*
X85110Y20835D01*
D02*
G37*
G36*
X84900D02*
X84890D01*
X84678Y20778D01*
X84487Y20668D01*
X84332Y20513D01*
X84222Y20322D01*
X84165Y20110D01*
Y20100D01*
X84900D01*
Y20835D01*
D02*
G37*
G36*
X25110D02*
X25100D01*
Y20100D01*
X25835D01*
Y20110D01*
X25778Y20322D01*
X25668Y20513D01*
X25513Y20668D01*
X25322Y20778D01*
X25110Y20835D01*
D02*
G37*
G36*
X24900D02*
X24890D01*
X24678Y20778D01*
X24487Y20668D01*
X24332Y20513D01*
X24222Y20322D01*
X24165Y20110D01*
Y20100D01*
X24900D01*
Y20835D01*
D02*
G37*
G36*
X15110D02*
X15100D01*
Y20100D01*
X15835D01*
Y20110D01*
X15778Y20322D01*
X15668Y20513D01*
X15513Y20668D01*
X15322Y20778D01*
X15110Y20835D01*
D02*
G37*
G36*
X14900D02*
X14890D01*
X14678Y20778D01*
X14487Y20668D01*
X14332Y20513D01*
X14222Y20322D01*
X14165Y20110D01*
Y20100D01*
X14900D01*
Y20835D01*
D02*
G37*
G36*
X95835Y19900D02*
X95100D01*
Y19165D01*
X95110D01*
X95322Y19222D01*
X95513Y19332D01*
X95668Y19487D01*
X95778Y19678D01*
X95835Y19890D01*
Y19900D01*
D02*
G37*
G36*
X94900D02*
X94165D01*
Y19890D01*
X94222Y19678D01*
X94332Y19487D01*
X94487Y19332D01*
X94678Y19222D01*
X94890Y19165D01*
X94900D01*
Y19900D01*
D02*
G37*
G36*
X85835D02*
X85100D01*
Y19165D01*
X85110D01*
X85322Y19222D01*
X85513Y19332D01*
X85668Y19487D01*
X85778Y19678D01*
X85835Y19890D01*
Y19900D01*
D02*
G37*
G36*
X84900D02*
X84165D01*
Y19890D01*
X84222Y19678D01*
X84332Y19487D01*
X84487Y19332D01*
X84678Y19222D01*
X84890Y19165D01*
X84900D01*
Y19900D01*
D02*
G37*
G36*
X25835D02*
X25100D01*
Y19165D01*
X25110D01*
X25322Y19222D01*
X25513Y19332D01*
X25668Y19487D01*
X25778Y19678D01*
X25835Y19890D01*
Y19900D01*
D02*
G37*
G36*
X24900D02*
X24165D01*
Y19890D01*
X24222Y19678D01*
X24332Y19487D01*
X24487Y19332D01*
X24678Y19222D01*
X24890Y19165D01*
X24900D01*
Y19900D01*
D02*
G37*
G36*
X15835D02*
X15100D01*
Y19165D01*
X15110D01*
X15322Y19222D01*
X15513Y19332D01*
X15668Y19487D01*
X15778Y19678D01*
X15835Y19890D01*
Y19900D01*
D02*
G37*
G36*
X14900D02*
X14165D01*
Y19890D01*
X14222Y19678D01*
X14332Y19487D01*
X14487Y19332D01*
X14678Y19222D01*
X14890Y19165D01*
X14900D01*
Y19900D01*
D02*
G37*
G36*
X29385Y20410D02*
X29035D01*
X28692Y20342D01*
X28368Y20208D01*
X28077Y20014D01*
X27830Y19766D01*
X27636Y19475D01*
X27502Y19152D01*
X27433Y18809D01*
Y18459D01*
X27502Y18116D01*
X27636Y17792D01*
X27830Y17501D01*
X28077Y17254D01*
X28368Y17059D01*
X28692Y16925D01*
X29035Y16857D01*
X29385D01*
X29728Y16925D01*
X30052Y17059D01*
X30343Y17254D01*
X30590Y17501D01*
X30784Y17792D01*
X30918Y18116D01*
X30987Y18459D01*
Y18809D01*
X30918Y19152D01*
X30784Y19475D01*
X30590Y19766D01*
X30343Y20014D01*
X30052Y20208D01*
X29728Y20342D01*
X29385Y20410D01*
D02*
G37*
G36*
X75486Y20349D02*
X75136D01*
X74793Y20281D01*
X74469Y20147D01*
X74178Y19952D01*
X73931Y19705D01*
X73737Y19414D01*
X73603Y19091D01*
X73534Y18747D01*
Y18397D01*
X73603Y18054D01*
X73737Y17731D01*
X73931Y17440D01*
X74178Y17192D01*
X74469Y16998D01*
X74793Y16864D01*
X75136Y16796D01*
X75486D01*
X75829Y16864D01*
X76153Y16998D01*
X76444Y17192D01*
X76691Y17440D01*
X76885Y17731D01*
X77019Y18054D01*
X77088Y18397D01*
Y18747D01*
X77019Y19091D01*
X76885Y19414D01*
X76691Y19705D01*
X76444Y19952D01*
X76153Y20147D01*
X75829Y20281D01*
X75486Y20349D01*
D02*
G37*
G36*
X55241Y27088D02*
X53689D01*
Y25236D01*
X54209D01*
Y18770D01*
X54209Y18770D01*
X54229Y18672D01*
X54284Y18589D01*
X57570Y15303D01*
Y15071D01*
X46299D01*
X46299Y15071D01*
X46201Y15052D01*
X46118Y14996D01*
X46118Y14996D01*
X45780Y14658D01*
X45724Y14575D01*
X45705Y14477D01*
X45705Y14477D01*
Y6574D01*
X45588Y6526D01*
X45342Y6772D01*
X45259Y6827D01*
X45161Y6847D01*
X45161Y6847D01*
X34796D01*
X34719Y6924D01*
X34437Y7086D01*
X34123Y7171D01*
X33797D01*
X33482Y7086D01*
X33284Y6972D01*
X24264Y15992D01*
X24181Y16047D01*
X24083Y16067D01*
X24083Y16067D01*
X13551D01*
X13551Y16067D01*
X13453Y16047D01*
X13370Y15992D01*
X13370Y15992D01*
X13061Y15683D01*
X11723D01*
Y13983D01*
X13423D01*
Y15321D01*
X13657Y15555D01*
X14454D01*
X14506Y15428D01*
X14433Y15355D01*
X14321Y15161D01*
X14263Y14944D01*
Y14721D01*
X14321Y14505D01*
X14433Y14311D01*
X14591Y14152D01*
X14785Y14041D01*
X14857Y14021D01*
Y12293D01*
X14857Y12293D01*
X14877Y12195D01*
X14932Y12112D01*
X16318Y10726D01*
X16190Y10535D01*
X16065Y10234D01*
X16002Y9915D01*
Y9590D01*
X16065Y9271D01*
X16190Y8971D01*
X16371Y8700D01*
X16601Y8470D01*
X16871Y8290D01*
X17171Y8165D01*
X17490Y8102D01*
X17816D01*
X18135Y8165D01*
X18435Y8290D01*
X18705Y8470D01*
X18935Y8700D01*
X19116Y8971D01*
X19241Y9271D01*
X19304Y9590D01*
Y9915D01*
X19241Y10234D01*
X19116Y10535D01*
X18935Y10805D01*
X18705Y11035D01*
X18435Y11216D01*
X18135Y11340D01*
X17816Y11404D01*
X17490D01*
X17171Y11340D01*
X16871Y11216D01*
X16680Y11088D01*
X15369Y12399D01*
Y14021D01*
X15441Y14041D01*
X15635Y14152D01*
X15793Y14311D01*
X15905Y14505D01*
X15963Y14721D01*
Y14944D01*
X15905Y15161D01*
X15793Y15355D01*
X15720Y15428D01*
X15772Y15555D01*
X23977D01*
X32922Y6610D01*
X32807Y6411D01*
X32723Y6097D01*
Y5771D01*
X32807Y5456D01*
X32970Y5174D01*
X33200Y4944D01*
X33482Y4781D01*
X33797Y4697D01*
X34123D01*
X34437Y4781D01*
X34719Y4944D01*
X34950Y5174D01*
X35112Y5456D01*
X35197Y5771D01*
Y6097D01*
X35160Y6234D01*
X35237Y6335D01*
X38686D01*
Y3840D01*
X39964D01*
Y2095D01*
X39964Y2095D01*
X39984Y1997D01*
X40039Y1914D01*
X40395Y1558D01*
X40395Y1558D01*
X40478Y1503D01*
X40576Y1483D01*
X40576Y1483D01*
X84086D01*
X84086Y1483D01*
X84184Y1503D01*
X84267Y1558D01*
X86147Y3438D01*
X86202Y3521D01*
X86222Y3619D01*
X86222Y3619D01*
Y3805D01*
X87513D01*
Y6157D01*
X90889D01*
X91704Y5342D01*
Y3056D01*
X91724Y2958D01*
X91779Y2875D01*
X91811Y2853D01*
Y1805D01*
X94913D01*
Y4307D01*
X92216D01*
Y5448D01*
X92216Y5448D01*
X92197Y5546D01*
X92141Y5629D01*
X92141Y5629D01*
X91176Y6594D01*
X91093Y6649D01*
X90995Y6669D01*
X90995Y6669D01*
X84289D01*
X84289Y6669D01*
X84191Y6649D01*
X84108Y6594D01*
X84108Y6594D01*
X83643Y6128D01*
X81273D01*
X81213Y6350D01*
X81051Y6632D01*
X80820Y6862D01*
X80538Y7025D01*
X80224Y7109D01*
X79898D01*
X79583Y7025D01*
X79301Y6862D01*
X79071Y6632D01*
X78908Y6350D01*
X78824Y6035D01*
Y5710D01*
X78908Y5395D01*
X79071Y5113D01*
X79301Y4883D01*
X79583Y4720D01*
X79898Y4636D01*
X80224D01*
X80538Y4720D01*
X80820Y4883D01*
X81051Y5113D01*
X81213Y5395D01*
X81273Y5617D01*
X83749D01*
X83749Y5617D01*
X83847Y5636D01*
X83930Y5691D01*
X84284Y6046D01*
X84411Y5993D01*
Y3805D01*
X85610D01*
X85662Y3678D01*
X83980Y1995D01*
X49188D01*
Y4342D01*
X46483D01*
Y5524D01*
X46464Y5622D01*
X46408Y5705D01*
X46408Y5705D01*
X46217Y5897D01*
Y10940D01*
X49188D01*
Y12235D01*
X71569D01*
X71593Y12219D01*
X71691Y12200D01*
X71691Y12200D01*
X89222D01*
X89248Y12073D01*
X89047Y11957D01*
X88861Y11770D01*
X88729Y11542D01*
X88661Y11287D01*
Y11024D01*
X88729Y10769D01*
X88861Y10541D01*
X89047Y10355D01*
X89276Y10223D01*
X89530Y10155D01*
X89794D01*
X90048Y10223D01*
X90277Y10355D01*
X90463Y10541D01*
X90595Y10769D01*
X90663Y11024D01*
Y11287D01*
X90595Y11542D01*
X90463Y11770D01*
X90277Y11957D01*
X90076Y12073D01*
X90102Y12200D01*
X91811D01*
Y10905D01*
X94913D01*
Y14007D01*
X91811D01*
Y12712D01*
X71777D01*
X71754Y12727D01*
X71656Y12747D01*
X71656Y12747D01*
X49188D01*
Y14042D01*
X46217D01*
Y14371D01*
X46405Y14559D01*
X57570D01*
Y13965D01*
X59270D01*
Y15665D01*
X57932D01*
X54721Y18876D01*
Y25236D01*
X55241D01*
Y27088D01*
D02*
G37*
G36*
X61072Y15665D02*
X60848D01*
X60632Y15607D01*
X60438Y15495D01*
X60280Y15337D01*
X60168Y15143D01*
X60110Y14927D01*
Y14703D01*
X60168Y14487D01*
X60280Y14293D01*
X60438Y14135D01*
X60632Y14023D01*
X60848Y13965D01*
X61072D01*
X61288Y14023D01*
X61482Y14135D01*
X61640Y14293D01*
X61752Y14487D01*
X61810Y14703D01*
Y14927D01*
X61752Y15143D01*
X61640Y15337D01*
X61482Y15495D01*
X61288Y15607D01*
X61072Y15665D01*
D02*
G37*
G36*
X44068Y12192D02*
X43805D01*
X43550Y12124D01*
X43322Y11992D01*
X43136Y11806D01*
X43004Y11577D01*
X42936Y11323D01*
Y11059D01*
X43004Y10805D01*
X43136Y10576D01*
X43322Y10390D01*
X43550Y10258D01*
X43805Y10190D01*
X44068D01*
X44323Y10258D01*
X44551Y10390D01*
X44738Y10576D01*
X44869Y10805D01*
X44938Y11059D01*
Y11323D01*
X44869Y11577D01*
X44738Y11806D01*
X44551Y11992D01*
X44323Y12124D01*
X44068Y12192D01*
D02*
G37*
G36*
X80110Y10835D02*
X80100D01*
Y10100D01*
X80835D01*
Y10110D01*
X80778Y10322D01*
X80668Y10513D01*
X80513Y10668D01*
X80322Y10778D01*
X80110Y10835D01*
D02*
G37*
G36*
X79900D02*
X79890D01*
X79678Y10778D01*
X79487Y10668D01*
X79332Y10513D01*
X79222Y10322D01*
X79165Y10110D01*
Y10100D01*
X79900D01*
Y10835D01*
D02*
G37*
G36*
X70110D02*
X70100D01*
Y10100D01*
X70835D01*
Y10110D01*
X70778Y10322D01*
X70668Y10513D01*
X70513Y10668D01*
X70322Y10778D01*
X70110Y10835D01*
D02*
G37*
G36*
X69900D02*
X69890D01*
X69678Y10778D01*
X69487Y10668D01*
X69332Y10513D01*
X69222Y10322D01*
X69165Y10110D01*
Y10100D01*
X69900D01*
Y10835D01*
D02*
G37*
G36*
X80835Y9900D02*
X80100D01*
Y9165D01*
X80110D01*
X80322Y9222D01*
X80513Y9332D01*
X80668Y9487D01*
X80778Y9678D01*
X80835Y9890D01*
Y9900D01*
D02*
G37*
G36*
X79900D02*
X79165D01*
Y9890D01*
X79222Y9678D01*
X79332Y9487D01*
X79487Y9332D01*
X79678Y9222D01*
X79890Y9165D01*
X79900D01*
Y9900D01*
D02*
G37*
G36*
X70835D02*
X70100D01*
Y9165D01*
X70110D01*
X70322Y9222D01*
X70513Y9332D01*
X70668Y9487D01*
X70778Y9678D01*
X70835Y9890D01*
Y9900D01*
D02*
G37*
G36*
X69900D02*
X69165D01*
Y9890D01*
X69222Y9678D01*
X69332Y9487D01*
X69487Y9332D01*
X69678Y9222D01*
X69890Y9165D01*
X69900D01*
Y9900D01*
D02*
G37*
G36*
X7656Y11404D02*
X7330D01*
X7011Y11340D01*
X6711Y11216D01*
X6441Y11035D01*
X6211Y10805D01*
X6030Y10535D01*
X5905Y10234D01*
X5842Y9915D01*
Y9590D01*
X5905Y9271D01*
X6030Y8971D01*
X6211Y8700D01*
X6441Y8470D01*
X6711Y8290D01*
X7011Y8165D01*
X7330Y8102D01*
X7656D01*
X7975Y8165D01*
X8275Y8290D01*
X8545Y8470D01*
X8775Y8700D01*
X8956Y8971D01*
X9081Y9271D01*
X9144Y9590D01*
Y9915D01*
X9081Y10234D01*
X8956Y10535D01*
X8775Y10805D01*
X8545Y11035D01*
X8275Y11216D01*
X7975Y11340D01*
X7656Y11404D01*
D02*
G37*
G36*
X63663Y11386D02*
X63337D01*
X63018Y11323D01*
X62718Y11198D01*
X62448Y11018D01*
X62218Y10788D01*
X62037Y10517D01*
X61912Y10217D01*
X61849Y9898D01*
Y9573D01*
X61912Y9254D01*
X62037Y8953D01*
X62218Y8683D01*
X62448Y8453D01*
X62718Y8272D01*
X63018Y8148D01*
X63337Y8084D01*
X63663D01*
X63982Y8148D01*
X64282Y8272D01*
X64552Y8453D01*
X64782Y8683D01*
X64963Y8953D01*
X65088Y9254D01*
X65151Y9573D01*
Y9898D01*
X65088Y10217D01*
X64963Y10517D01*
X64782Y10788D01*
X64552Y11018D01*
X64282Y11198D01*
X63982Y11323D01*
X63663Y11386D01*
D02*
G37*
G36*
X53503D02*
X53177D01*
X52858Y11323D01*
X52558Y11198D01*
X52288Y11018D01*
X52058Y10788D01*
X51877Y10517D01*
X51752Y10217D01*
X51689Y9898D01*
Y9573D01*
X51752Y9254D01*
X51877Y8953D01*
X52058Y8683D01*
X52288Y8453D01*
X52558Y8272D01*
X52858Y8148D01*
X53177Y8084D01*
X53503D01*
X53822Y8148D01*
X54122Y8272D01*
X54392Y8453D01*
X54622Y8683D01*
X54803Y8953D01*
X54928Y9254D01*
X54991Y9573D01*
Y9898D01*
X54928Y10217D01*
X54803Y10517D01*
X54622Y10788D01*
X54392Y11018D01*
X54122Y11198D01*
X53822Y11323D01*
X53503Y11386D01*
D02*
G37*
G36*
X29385Y7710D02*
X29035D01*
X28692Y7642D01*
X28368Y7508D01*
X28077Y7314D01*
X27830Y7066D01*
X27636Y6775D01*
X27502Y6452D01*
X27433Y6109D01*
Y5759D01*
X27502Y5416D01*
X27636Y5092D01*
X27830Y4801D01*
X28077Y4554D01*
X28368Y4359D01*
X28692Y4225D01*
X29035Y4157D01*
X29385D01*
X29728Y4225D01*
X30052Y4359D01*
X30343Y4554D01*
X30590Y4801D01*
X30784Y5092D01*
X30918Y5416D01*
X30987Y5759D01*
Y6109D01*
X30918Y6452D01*
X30784Y6775D01*
X30590Y7066D01*
X30343Y7314D01*
X30052Y7508D01*
X29728Y7642D01*
X29385Y7710D01*
D02*
G37*
G36*
X75486Y7649D02*
X75136D01*
X74793Y7581D01*
X74469Y7447D01*
X74178Y7252D01*
X73931Y7005D01*
X73737Y6714D01*
X73603Y6391D01*
X73534Y6047D01*
Y5697D01*
X73603Y5354D01*
X73737Y5031D01*
X73931Y4740D01*
X74178Y4492D01*
X74469Y4298D01*
X74793Y4164D01*
X75136Y4096D01*
X75486D01*
X75829Y4164D01*
X76153Y4298D01*
X76444Y4492D01*
X76691Y4740D01*
X76885Y5031D01*
X77019Y5354D01*
X77088Y5697D01*
Y6047D01*
X77019Y6391D01*
X76885Y6714D01*
X76691Y7005D01*
X76444Y7252D01*
X76153Y7447D01*
X75829Y7581D01*
X75486Y7649D01*
D02*
G37*
G36*
X89794Y5157D02*
X89530D01*
X89276Y5088D01*
X89047Y4957D01*
X88861Y4770D01*
X88729Y4542D01*
X88661Y4287D01*
Y4024D01*
X88729Y3769D01*
X88861Y3541D01*
X89047Y3355D01*
X89276Y3223D01*
X89530Y3155D01*
X89794D01*
X90048Y3223D01*
X90277Y3355D01*
X90463Y3541D01*
X90595Y3769D01*
X90663Y4024D01*
Y4287D01*
X90595Y4542D01*
X90463Y4770D01*
X90277Y4957D01*
X90048Y5088D01*
X89794Y5157D01*
D02*
G37*
G36*
X97158Y4600D02*
X97100D01*
Y3100D01*
X98600D01*
Y3158D01*
X98539Y3467D01*
X98418Y3758D01*
X98243Y4020D01*
X98020Y4243D01*
X97758Y4418D01*
X97467Y4539D01*
X97158Y4600D01*
D02*
G37*
G36*
X96900D02*
X96842D01*
X96533Y4539D01*
X96242Y4418D01*
X95980Y4243D01*
X95757Y4020D01*
X95582Y3758D01*
X95461Y3467D01*
X95400Y3158D01*
Y3100D01*
X96900D01*
Y4600D01*
D02*
G37*
G36*
X3158D02*
X3100D01*
Y3100D01*
X4600D01*
Y3158D01*
X4539Y3467D01*
X4418Y3758D01*
X4243Y4020D01*
X4020Y4243D01*
X3758Y4418D01*
X3467Y4539D01*
X3158Y4600D01*
D02*
G37*
G36*
X2900D02*
X2842D01*
X2533Y4539D01*
X2242Y4418D01*
X1980Y4243D01*
X1757Y4020D01*
X1582Y3758D01*
X1461Y3467D01*
X1400Y3158D01*
Y3100D01*
X2900D01*
Y4600D01*
D02*
G37*
G36*
X98600Y2900D02*
X97100D01*
Y1400D01*
X97158D01*
X97467Y1461D01*
X97758Y1582D01*
X98020Y1757D01*
X98243Y1980D01*
X98418Y2242D01*
X98539Y2533D01*
X98600Y2842D01*
Y2900D01*
D02*
G37*
G36*
X96900D02*
X95400D01*
Y2842D01*
X95461Y2533D01*
X95582Y2242D01*
X95757Y1980D01*
X95980Y1757D01*
X96242Y1582D01*
X96533Y1461D01*
X96842Y1400D01*
X96900D01*
Y2900D01*
D02*
G37*
G36*
X4600D02*
X3100D01*
Y1400D01*
X3158D01*
X3467Y1461D01*
X3758Y1582D01*
X4020Y1757D01*
X4243Y1980D01*
X4418Y2242D01*
X4539Y2533D01*
X4600Y2842D01*
Y2900D01*
D02*
G37*
G36*
X2900D02*
X1400D01*
Y2842D01*
X1461Y2533D01*
X1582Y2242D01*
X1757Y1980D01*
X1980Y1757D01*
X2242Y1582D01*
X2533Y1461D01*
X2842Y1400D01*
X2900D01*
Y2900D01*
D02*
G37*
%LPD*%
G36*
X55997Y64690D02*
X56131Y64556D01*
X56306Y64484D01*
X56495D01*
X56559Y64511D01*
X56560Y64511D01*
X56626Y64411D01*
X56619Y64404D01*
X56492Y64277D01*
X56420Y64102D01*
Y63913D01*
X56492Y63738D01*
X56626Y63604D01*
X56640Y63598D01*
Y61149D01*
X56502Y61012D01*
X56385Y61060D01*
Y61836D01*
X54583D01*
Y61836D01*
X54472Y61874D01*
Y62111D01*
X55123Y62762D01*
X55137Y62757D01*
X55326D01*
X55501Y62829D01*
X55635Y62963D01*
X55708Y63138D01*
Y63327D01*
X55635Y63502D01*
X55501Y63636D01*
X55326Y63709D01*
X55137D01*
X54962Y63636D01*
X54828Y63502D01*
X54756Y63327D01*
Y63138D01*
X54761Y63124D01*
X54035Y62398D01*
X53979Y62315D01*
X53960Y62217D01*
X53960Y62217D01*
Y57975D01*
X53960Y57975D01*
X53979Y57877D01*
X54035Y57794D01*
X54475Y57354D01*
X54475Y57354D01*
X54558Y57299D01*
X54583Y57294D01*
Y56791D01*
X50707D01*
X50282Y57216D01*
X50199Y57271D01*
X50101Y57291D01*
X50101Y57291D01*
X49790D01*
Y62584D01*
X51278D01*
Y62154D01*
X51264Y62148D01*
X51130Y62014D01*
X51058Y61840D01*
Y61650D01*
X51130Y61475D01*
X51264Y61341D01*
X51439Y61269D01*
X51629D01*
X51804Y61341D01*
X51938Y61475D01*
X52010Y61650D01*
Y61840D01*
X51938Y62014D01*
X51804Y62148D01*
X51790Y62154D01*
Y62584D01*
X53835D01*
Y64386D01*
X52290D01*
Y64536D01*
X52457Y64704D01*
X55991D01*
X55997Y64690D01*
D02*
G37*
G36*
X50283Y56491D02*
X50278Y56468D01*
X50278Y56468D01*
Y54165D01*
X50278Y54165D01*
X50278Y54165D01*
Y53684D01*
X50151Y53617D01*
X50138Y53625D01*
X50040Y53644D01*
X50040Y53644D01*
X47498D01*
X47498Y53644D01*
X47400Y53625D01*
X47317Y53570D01*
X47317Y53570D01*
X46903Y53156D01*
X46844Y53163D01*
X46760Y53187D01*
X46715Y53254D01*
X46715Y53254D01*
X46690Y53279D01*
X46607Y53335D01*
X46509Y53354D01*
X46509Y53354D01*
X38341D01*
X38341Y53354D01*
X38243Y53335D01*
X38160Y53279D01*
X38160Y53279D01*
X35048Y50167D01*
X26435D01*
Y51077D01*
X22333D01*
Y50167D01*
X19152D01*
X19128Y50259D01*
X19009Y50464D01*
X18841Y50632D01*
X18636Y50751D01*
X18459Y50798D01*
X18475Y50925D01*
X20701D01*
X20701Y50925D01*
X20799Y50945D01*
X20882Y51000D01*
X24553Y54671D01*
X31113D01*
X31152Y54544D01*
X31131Y54530D01*
X31087Y54464D01*
X31071Y54386D01*
Y53685D01*
X31087Y53606D01*
X31131Y53540D01*
X31197Y53496D01*
X31275Y53480D01*
X31726D01*
X31805Y53496D01*
X31871Y53540D01*
X31915Y53606D01*
X31931Y53685D01*
Y53779D01*
X32971D01*
Y53685D01*
X32987Y53606D01*
X33031Y53540D01*
X33097Y53496D01*
X33176Y53480D01*
X33627D01*
X33705Y53496D01*
X33771Y53540D01*
X33815Y53606D01*
X33831Y53685D01*
Y53779D01*
X35523D01*
Y53259D01*
X37375D01*
Y53779D01*
X43183D01*
Y53734D01*
X44985D01*
Y54734D01*
Y55734D01*
Y56779D01*
X49464D01*
X49464Y56779D01*
X49464Y56779D01*
X49995D01*
X50283Y56491D01*
D02*
G37*
%LPC*%
G36*
X52303Y60370D02*
X52293D01*
Y59635D01*
X53028D01*
Y59645D01*
X52971Y59857D01*
X52862Y60048D01*
X52706Y60203D01*
X52516Y60313D01*
X52303Y60370D01*
D02*
G37*
G36*
X52093D02*
X52083D01*
X51871Y60313D01*
X51681Y60203D01*
X51525Y60048D01*
X51415Y59857D01*
X51358Y59645D01*
Y59635D01*
X52093D01*
Y60370D01*
D02*
G37*
G36*
X53028Y59435D02*
X52293D01*
Y58700D01*
X52303D01*
X52516Y58757D01*
X52706Y58867D01*
X52862Y59022D01*
X52971Y59213D01*
X53028Y59425D01*
Y59435D01*
D02*
G37*
G36*
X52093D02*
X51358D01*
Y59425D01*
X51415Y59213D01*
X51525Y59022D01*
X51681Y58867D01*
X51871Y58757D01*
X52083Y58700D01*
X52093D01*
Y59435D01*
D02*
G37*
G36*
X47907Y56370D02*
X47897D01*
Y55635D01*
X48632D01*
Y55645D01*
X48575Y55857D01*
X48465Y56048D01*
X48310Y56203D01*
X48119Y56313D01*
X47907Y56370D01*
D02*
G37*
G36*
X47697D02*
X47687D01*
X47475Y56313D01*
X47284Y56203D01*
X47129Y56048D01*
X47019Y55857D01*
X46962Y55645D01*
Y55635D01*
X47697D01*
Y56370D01*
D02*
G37*
G36*
X48632Y55435D02*
X47897D01*
Y54700D01*
X47907D01*
X48119Y54757D01*
X48310Y54867D01*
X48465Y55022D01*
X48575Y55213D01*
X48632Y55425D01*
Y55435D01*
D02*
G37*
G36*
X47697D02*
X46962D01*
Y55425D01*
X47019Y55213D01*
X47129Y55022D01*
X47284Y54867D01*
X47475Y54757D01*
X47687Y54700D01*
X47697D01*
Y55435D01*
D02*
G37*
%LPD*%
D10*
X24866Y84078D02*
D03*
X24216D02*
D03*
X23566D02*
D03*
X22916D02*
D03*
X21616D02*
D03*
X25516Y78228D02*
D03*
X24866D02*
D03*
X24216D02*
D03*
X23566D02*
D03*
X22916D02*
D03*
X22266D02*
D03*
X21616D02*
D03*
X20966D02*
D03*
Y84078D02*
D03*
X22266D02*
D03*
X25516D02*
D03*
D11*
X53844Y72203D02*
D03*
X48764D02*
D03*
Y77403D02*
D03*
X46224D02*
D03*
Y72203D02*
D03*
X51304D02*
D03*
Y77403D02*
D03*
X53844D02*
D03*
D12*
X21616Y86378D02*
D03*
X20164D02*
D03*
X22114Y74041D02*
D03*
X23566D02*
D03*
X51490Y66548D02*
D03*
X50038D02*
D03*
X60143D02*
D03*
X61595D02*
D03*
X60143Y49276D02*
D03*
X61595D02*
D03*
X56515Y29210D02*
D03*
X55063D02*
D03*
X59254Y26289D02*
D03*
X60706D02*
D03*
X55245Y44069D02*
D03*
X56697D02*
D03*
X48486Y48387D02*
D03*
X47034D02*
D03*
X50034D02*
D03*
X51486D02*
D03*
X5025Y45974D02*
D03*
X6477D02*
D03*
D13*
X13589Y72408D02*
D03*
X57404Y86378D02*
D03*
Y84328D02*
D03*
X54864Y86378D02*
D03*
Y84328D02*
D03*
X52324Y86378D02*
D03*
Y84328D02*
D03*
X49784Y86378D02*
D03*
Y84328D02*
D03*
X47244Y86378D02*
D03*
Y84328D02*
D03*
X44704Y86378D02*
D03*
Y84328D02*
D03*
X42164Y86378D02*
D03*
Y84328D02*
D03*
X39624Y86378D02*
D03*
Y84328D02*
D03*
X13589Y70358D02*
D03*
X17780D02*
D03*
Y72408D02*
D03*
X36449Y56085D02*
D03*
Y54035D02*
D03*
X12319Y48857D02*
D03*
Y50907D02*
D03*
D14*
X40237Y5091D02*
D03*
X47637Y3091D02*
D03*
X93362Y3056D02*
D03*
X85962Y5056D02*
D03*
D15*
X47637Y12491D02*
D03*
X93362Y12456D02*
D03*
D16*
X24384Y57531D02*
D03*
Y49911D02*
D03*
Y47371D02*
D03*
D17*
X57404Y93595D02*
D03*
Y92075D02*
D03*
X54864Y93595D02*
D03*
Y92075D02*
D03*
X52324Y93595D02*
D03*
Y92075D02*
D03*
X49784Y93595D02*
D03*
Y92075D02*
D03*
X47244Y93595D02*
D03*
Y92075D02*
D03*
X44704Y93595D02*
D03*
Y92075D02*
D03*
X42164Y93595D02*
D03*
Y92075D02*
D03*
X39624Y93595D02*
D03*
Y92075D02*
D03*
X13589Y65786D02*
D03*
Y64266D02*
D03*
X17780Y65786D02*
D03*
Y64266D02*
D03*
D18*
X23241Y81153D02*
D03*
D19*
X46034Y63485D02*
D03*
X46534D02*
D03*
X47034D02*
D03*
X47534D02*
D03*
X48034D02*
D03*
X48534D02*
D03*
X49034D02*
D03*
X49534D02*
D03*
X50034D02*
D03*
X50534D02*
D03*
X51034D02*
D03*
X51534D02*
D03*
X52034D02*
D03*
X52534D02*
D03*
X53034D02*
D03*
X53534D02*
D03*
Y52085D02*
D03*
X53034D02*
D03*
X52534D02*
D03*
X52034D02*
D03*
X51534D02*
D03*
X51034D02*
D03*
X50534D02*
D03*
X50034D02*
D03*
X49534D02*
D03*
X49034D02*
D03*
X48534D02*
D03*
X48034D02*
D03*
X47534D02*
D03*
X47034D02*
D03*
X46534D02*
D03*
X46034D02*
D03*
D20*
X55484Y61535D02*
D03*
Y61035D02*
D03*
Y60535D02*
D03*
Y60035D02*
D03*
Y59535D02*
D03*
Y59035D02*
D03*
Y58535D02*
D03*
Y58035D02*
D03*
Y57535D02*
D03*
Y57035D02*
D03*
Y56535D02*
D03*
Y56035D02*
D03*
Y55535D02*
D03*
Y55035D02*
D03*
Y54535D02*
D03*
Y54035D02*
D03*
X44084D02*
D03*
Y54535D02*
D03*
Y55035D02*
D03*
Y55535D02*
D03*
Y56035D02*
D03*
Y56535D02*
D03*
Y57035D02*
D03*
Y57535D02*
D03*
Y58035D02*
D03*
Y58535D02*
D03*
Y59035D02*
D03*
Y59535D02*
D03*
Y60035D02*
D03*
Y60535D02*
D03*
Y61035D02*
D03*
Y61535D02*
D03*
D21*
X65024Y61951D02*
D03*
Y52451D02*
D03*
D22*
X60143Y57987D02*
D03*
Y56535D02*
D03*
X70866Y57987D02*
D03*
Y56535D02*
D03*
X40132Y57538D02*
D03*
Y56085D02*
D03*
X45593Y37517D02*
D03*
Y36065D02*
D03*
D23*
X51308D02*
D03*
X49258D02*
D03*
X61359Y32639D02*
D03*
X59309D02*
D03*
X56515D02*
D03*
X54465D02*
D03*
X65659D02*
D03*
X63609D02*
D03*
X59309Y29210D02*
D03*
X61359D02*
D03*
X54465Y26162D02*
D03*
X56515D02*
D03*
X13480Y56807D02*
D03*
X11430D02*
D03*
D24*
X3338Y48857D02*
D03*
X7838D02*
D03*
X3338Y56807D02*
D03*
X7838D02*
D03*
D25*
X55245Y41405D02*
D03*
X56515D02*
D03*
X57785D02*
D03*
X59055D02*
D03*
Y36065D02*
D03*
X57785D02*
D03*
X56515D02*
D03*
X55245D02*
D03*
D26*
X39370D02*
D03*
D27*
X32451Y56235D02*
D03*
X33401Y54035D02*
D03*
X31501D02*
D03*
D28*
X48764Y72603D02*
X49542Y73381D01*
X53066D01*
X48764Y72203D02*
Y72603D01*
X53066Y73381D02*
X53844Y72603D01*
Y72203D02*
Y72603D01*
X48764Y68710D02*
Y72203D01*
X21616Y86227D02*
X21992Y85851D01*
X21616Y86227D02*
Y86378D01*
X21992Y85851D02*
X22143D01*
X22916Y85078D01*
X24216Y84078D02*
X24866D01*
X23566D02*
X24216D01*
X22916D02*
X23566D01*
X21616D02*
Y86227D01*
X22916Y84078D02*
Y85078D01*
X21616Y86378D02*
Y88138D01*
X21362Y88392D02*
X21616Y88138D01*
X9222Y88392D02*
X21362D01*
X8382Y84863D02*
Y87552D01*
X9222Y88392D01*
X4826Y80182D02*
X8382Y83738D01*
X4826Y72408D02*
Y80182D01*
X8382Y83738D02*
Y84863D01*
X4826Y72408D02*
X13589D01*
D29*
X48211Y73830D02*
X55822D01*
X50101Y57035D02*
X50601Y56535D01*
X47993Y73613D02*
X48211Y73830D01*
X55822D02*
X58534Y76542D01*
X14478Y40000D02*
Y48641D01*
X45161Y6591D02*
X45961Y5791D01*
X33960Y6591D02*
X45161D01*
X33960Y5934D02*
Y6591D01*
X49464Y57035D02*
X50101D01*
X50601Y56535D02*
X55484D01*
X50534Y56468D02*
X50601Y56535D01*
X44084Y57035D02*
X49464D01*
X49534Y57105D01*
Y63485D01*
X50534Y54165D02*
Y56468D01*
X62608Y38959D02*
X66535Y35032D01*
X65659Y32639D02*
Y35411D01*
X59055Y34648D02*
Y36065D01*
X66535Y31760D02*
Y35032D01*
X64485Y32058D02*
Y34169D01*
Y32058D02*
X64930Y31613D01*
X61382Y37272D02*
X64485Y34169D01*
X64930Y31613D02*
X66388D01*
X59055Y36065D02*
Y37155D01*
X66388Y31613D02*
X66535Y31760D01*
X56574Y38608D02*
X62462D01*
X59055Y40315D02*
Y41405D01*
X60411Y38959D02*
X62608D01*
X59055Y40315D02*
X60411Y38959D01*
X59055Y37155D02*
X59172Y37272D01*
X61382D01*
X62462Y38608D02*
X65659Y35411D01*
X55245Y39937D02*
Y41405D01*
Y39937D02*
X56574Y38608D01*
X22573Y71532D02*
X36271Y85229D01*
X17780Y72408D02*
X22662D01*
X19287Y73284D02*
X19610Y72961D01*
X21996D01*
X22114Y73078D01*
Y74041D01*
X16754Y71679D02*
X16901Y71532D01*
X16754Y71679D02*
Y73137D01*
X22662Y72408D02*
X23566Y73312D01*
X16901Y73284D02*
X19287D01*
X16901Y71532D02*
X22573D01*
X16754Y73137D02*
X16901Y73284D01*
X36271Y85229D02*
X38753D01*
X22114Y74041D02*
Y77577D01*
X22266Y77729D01*
Y78228D01*
X17790Y64266D02*
X38753Y85229D01*
X13589Y64266D02*
X17780D01*
X17790D01*
X38753Y85229D02*
X53327D01*
X23566Y73312D02*
Y74041D01*
X60143Y60072D02*
X60303Y58000D01*
X60304Y57987D01*
X51490Y67034D02*
X53560D01*
X60239Y27940D02*
X60706Y28407D01*
X44704Y61535D02*
Y81026D01*
X91960Y3056D02*
Y5448D01*
X46228Y3091D02*
Y5524D01*
X45961Y5791D02*
X46228Y5524D01*
X85966Y3619D02*
Y5056D01*
X40220Y2095D02*
Y5091D01*
X61440Y63701D02*
X65024D01*
X50534Y52895D02*
Y54165D01*
Y52085D02*
Y52895D01*
X50040Y53389D02*
X50534Y52895D01*
X51304Y69370D02*
Y72203D01*
X41452Y59575D02*
X41993Y59035D01*
X44084D01*
X60706Y26289D02*
Y28407D01*
X61359Y29060D01*
Y29210D01*
X53352Y78685D02*
Y85204D01*
X62227Y57987D02*
X70866D01*
X60143Y60072D02*
X62227Y57987D01*
X46299Y14815D02*
X58420D01*
X45961Y14477D02*
X46299Y14815D01*
X45961Y5791D02*
Y14477D01*
X46228Y3091D02*
X47637D01*
X54656Y57535D02*
X55484D01*
X54216Y57975D02*
X54656Y57535D01*
X54216Y57975D02*
Y62217D01*
X55232Y63233D01*
X60972D02*
X61440Y63701D01*
X65024Y61951D02*
Y63701D01*
X50904Y54535D02*
X55484D01*
X50534Y54165D02*
X50904Y54535D01*
X42679Y60035D02*
X44084D01*
X42381Y60333D02*
X42679Y60035D01*
X42381Y60333D02*
Y72834D01*
X43118Y73571D01*
X46224Y72203D02*
Y73571D01*
X5025Y43870D02*
Y45974D01*
Y43870D02*
X14478Y34417D01*
X5025Y45974D02*
Y46096D01*
X3338Y47782D02*
X5025Y46096D01*
X3338Y47782D02*
Y48857D01*
X14478Y34417D02*
Y40000D01*
Y48641D02*
X18288Y52451D01*
X3338Y48857D02*
Y56807D01*
Y56932D01*
X3888Y57482D01*
X4013D01*
X10797Y64266D01*
X13589D01*
X45593Y27940D02*
X50304Y32651D01*
Y47189D01*
X50034Y47459D02*
X50304Y47189D01*
X50034Y47459D02*
Y48387D01*
X48486D02*
X50034D01*
Y52085D01*
X17284Y53455D02*
X18288Y52451D01*
X17284Y53455D02*
Y55625D01*
X17653Y55994D01*
X30441D01*
X31519Y57072D01*
X32084D01*
X32451Y56705D01*
Y56235D02*
Y56705D01*
X48486Y48387D02*
Y48538D01*
X47534Y49491D02*
X48486Y48538D01*
X47534Y49491D02*
Y52085D01*
X61359Y29210D02*
Y30884D01*
X60185Y32058D02*
X61359Y30884D01*
X60185Y32058D02*
Y33518D01*
X59055Y34648D02*
X60185Y33518D01*
X32451Y56235D02*
X34844D01*
X36147Y57538D01*
X40132D01*
X48486Y48236D02*
Y48387D01*
X46147Y45896D02*
X48486Y48236D01*
X46147Y37920D02*
Y45896D01*
X45744Y37517D02*
X46147Y37920D01*
X45593Y37517D02*
X45744D01*
X57785Y41405D02*
X59055D01*
X40132Y57538D02*
X40134Y57535D01*
X44084D01*
X21616Y78228D02*
X22266D01*
X57785Y41405D02*
Y42830D01*
X56697Y43918D02*
X57785Y42830D01*
X56697Y43918D02*
Y44069D01*
X22266Y78228D02*
Y79127D01*
X21741Y79653D02*
X22266Y79127D01*
X21741Y79653D02*
X23241Y81153D01*
X53327Y85229D02*
X53352Y85204D01*
Y78685D02*
X53844Y78193D01*
Y77403D02*
Y78193D01*
X56697Y44069D02*
Y44220D01*
X60143Y47665D01*
Y49276D01*
X52673Y78574D02*
X53844Y77403D01*
X49935Y78574D02*
X52673D01*
X48764Y77403D02*
X49935Y78574D01*
X23241Y81153D02*
X24913Y82825D01*
X25590D01*
X25944Y83179D01*
Y90967D01*
X23566Y93345D02*
X25944Y90967D01*
X20164Y89943D02*
X23566Y93345D01*
X20164Y89154D02*
Y89943D01*
X60143Y49276D02*
Y55139D01*
X60540Y55537D01*
X71767D01*
X71793Y57962D01*
X70866Y57987D02*
X71793Y57962D01*
X70866Y57987D02*
X77014D01*
X87249Y47752D01*
X60095Y58035D02*
X60143Y57987D01*
X55484Y58035D02*
X60095D01*
X60143Y57987D02*
X60304D01*
X60143Y60072D02*
Y66548D01*
Y82495D01*
X70866Y93218D01*
X54046Y66548D02*
X60143D01*
X53560Y67034D02*
X54046Y66548D01*
X51490D02*
Y67034D01*
X48034Y63485D02*
Y65814D01*
X57404Y81026D02*
Y84328D01*
X47534Y63485D02*
Y64638D01*
X47183Y64989D02*
X47534Y64638D01*
X47183Y64989D02*
Y66492D01*
X47534Y66843D01*
Y74168D01*
X48779Y75413D01*
X54522D01*
X54864Y75755D01*
Y81026D01*
Y84328D01*
X47034Y61760D02*
Y63485D01*
Y61760D02*
X47898Y60896D01*
X52324Y81026D02*
Y84328D01*
X46534Y60896D02*
Y63485D01*
X49784Y81026D02*
Y84328D01*
X46034Y63485D02*
Y66230D01*
X46977Y67173D01*
Y74561D01*
X47244Y74828D01*
Y81026D01*
Y84328D01*
X44084Y61535D02*
X44704D01*
Y81026D02*
Y84328D01*
X42164Y81026D02*
Y84328D01*
Y81026D02*
X44352Y78838D01*
Y63181D02*
Y78838D01*
X43083Y61912D02*
X44352Y63181D01*
X43083Y61068D02*
Y61912D01*
Y61068D02*
X44084Y61035D01*
X39624Y81026D02*
Y84328D01*
Y81026D02*
X44001Y76649D01*
Y72986D02*
Y76649D01*
X42732Y71717D02*
X44001Y72986D01*
X42732Y60712D02*
Y71717D01*
Y60712D02*
X42909Y60535D01*
X44084D01*
X42414Y59535D02*
X44084D01*
X42030Y59919D02*
X42414Y59535D01*
X42030Y59919D02*
Y74186D01*
X42354Y74510D01*
X46224D02*
Y77403D01*
X54465Y32639D02*
Y34795D01*
X55245Y35575D01*
Y36065D01*
X51308D02*
X55245D01*
X54465Y32489D02*
Y32639D01*
Y32489D02*
X55063Y31891D01*
Y29210D02*
Y31891D01*
X56515Y26162D02*
Y29210D01*
Y32639D01*
Y36065D01*
X59309Y29210D02*
Y32639D01*
Y32789D01*
X57785Y34313D02*
X59309Y32789D01*
X57785Y34313D02*
Y36065D01*
X59309Y26344D02*
Y29210D01*
X59254Y26289D02*
X59309Y26344D01*
X6477Y45974D02*
Y46125D01*
X7838Y47486D01*
Y48857D01*
X12319D01*
X7838D02*
Y56807D01*
X11430D01*
X50034Y63485D02*
Y66544D01*
X50038Y66548D01*
X57404Y86378D02*
Y92075D01*
X13589Y65786D02*
Y70358D01*
X17780Y65786D02*
Y70358D01*
X39624Y86378D02*
Y92075D01*
X42164Y86378D02*
Y92075D01*
X44704Y86378D02*
Y92075D01*
X47244Y86378D02*
Y92075D01*
X49784Y86378D02*
Y92075D01*
X54864Y86378D02*
Y92075D01*
X52324Y86378D02*
Y92075D01*
X54465Y18770D02*
X58420Y14815D01*
X54465Y18770D02*
Y26162D01*
X24083Y15811D02*
X33960Y5934D01*
X13551Y15811D02*
X24083D01*
X12573Y14833D02*
X13551Y15811D01*
X80061Y5872D02*
X83749D01*
X84289Y6413D01*
X90995D01*
X91960Y5448D01*
Y3056D02*
X93362D01*
X15113Y12293D02*
X17653Y9753D01*
X15113Y12293D02*
Y14833D01*
X47637Y12491D02*
X71656D01*
X71691Y12456D01*
X93362D01*
X40220Y5091D02*
X40237D01*
X40220Y2095D02*
X40576Y1739D01*
X84086D01*
X85966Y3619D01*
X85962Y5056D02*
X85966D01*
X55484Y60535D02*
X56388D01*
X56896Y61043D01*
Y64008D01*
X52034Y63485D02*
Y64643D01*
X52351Y64960D01*
X56400D01*
X51534Y61745D02*
Y63485D01*
X55484Y58535D02*
X58764D01*
X59435Y59207D01*
Y61480D01*
X55484Y59035D02*
X58563D01*
X59084Y59556D01*
Y60710D01*
X58048Y61747D02*
X59084Y60710D01*
X58048Y61747D02*
Y64849D01*
X57022Y65874D02*
X58048Y64849D01*
X55054Y65874D02*
X57022D01*
X55484Y59535D02*
X57675D01*
X58390Y60250D01*
X55484Y60035D02*
X56911D01*
X57061Y60185D01*
X51034Y63485D02*
Y64318D01*
X52895Y66179D01*
X61359Y32639D02*
X63609D01*
X62102Y52451D02*
X65024D01*
X61379Y53174D02*
X62102Y52451D01*
X56603Y56908D02*
X57645D01*
X56476Y57035D02*
X56603Y56908D01*
X55484Y57035D02*
X56476D01*
X65024Y50730D02*
Y52451D01*
X64124Y49830D02*
X65024Y50730D01*
X61998Y49830D02*
X64124D01*
X61595Y49427D02*
X61998Y49830D01*
X61595Y49276D02*
Y49427D01*
Y65594D02*
Y66548D01*
Y65594D02*
X62588Y64601D01*
X64124D01*
X65024Y63701D01*
X18288Y47371D02*
X24384D01*
X46034Y50533D02*
Y52085D01*
X18288Y49911D02*
X24384D01*
X35154D01*
X38341Y53098D01*
X46509D01*
X46534Y53073D01*
Y52085D02*
Y53073D01*
X12319Y50907D02*
Y51562D01*
X18288Y57531D01*
X24384D01*
X25269D01*
X26273Y58535D01*
X44084D01*
Y58035D02*
X45097D01*
X45300Y58238D01*
Y75907D01*
X47840D02*
X51279D01*
X51304Y75933D01*
Y77403D01*
X39370Y36065D02*
X45593D01*
X49258D01*
X39370D02*
Y40004D01*
X33286Y46088D02*
X39370Y40004D01*
X17412Y46088D02*
X33286D01*
X16637Y46863D02*
X17412Y46088D01*
X16637Y46863D02*
Y50292D01*
X17526Y51181D01*
X20701D01*
X24447Y54927D01*
X41983D01*
X43091Y56035D01*
X44084D01*
X18288Y54991D02*
X18859Y55562D01*
X34785D01*
X35308Y56085D01*
X36449D01*
X40132D01*
X14668Y56807D02*
X14973Y56502D01*
X13480Y56807D02*
X14668D01*
X40132Y56085D02*
X41610D01*
X42560Y57035D01*
X44084D01*
X13480Y56807D02*
Y59799D01*
X47034Y48387D02*
Y52085D01*
X55484Y54535D02*
Y55035D01*
X47034Y52085D02*
Y52925D01*
X47498Y53389D01*
X50040D01*
X50534Y49491D02*
Y52085D01*
Y49491D02*
X51486Y48538D01*
Y48387D02*
Y48538D01*
X55484Y56535D02*
X56582D01*
X56935Y56182D01*
X57873D01*
X58226Y56535D01*
X60143D01*
X51486Y48387D02*
X55245Y44477D01*
Y44069D02*
Y44477D01*
X60143Y56535D02*
X70866D01*
X55245Y41405D02*
Y44069D01*
X49534Y63485D02*
Y64536D01*
X48686Y65384D02*
X49534Y64536D01*
X48686Y65384D02*
Y66492D01*
X47993Y67185D02*
X48686Y66492D01*
X47993Y67185D02*
Y73613D01*
X58534Y76542D02*
Y92582D01*
X58013Y93103D02*
X58534Y92582D01*
X57429Y93103D02*
X58013D01*
X57404Y93129D02*
X57429Y93103D01*
X57404Y93129D02*
Y93595D01*
X54864D02*
X57404D01*
X52324D02*
X54864D01*
X49784D02*
X52324D01*
X47244D02*
X49784D01*
X44704D02*
X47244D01*
X42164D02*
X44704D01*
X39624D02*
X42164D01*
X39614D02*
X39624D01*
X24866Y78847D02*
X39614Y93595D01*
X24866Y78228D02*
Y78847D01*
X24216Y78228D02*
X24866D01*
X23566D02*
X24216D01*
X22916D02*
X23566D01*
Y74041D02*
Y78228D01*
X31501Y54035D02*
X33401D01*
X36449D01*
X44084D01*
D30*
X8382Y84863D02*
D03*
D31*
X4826Y72408D02*
D03*
Y64008D02*
D03*
X45593Y27940D02*
D03*
X14478Y34417D02*
D03*
X87249Y47752D02*
D03*
X70866Y93218D02*
D03*
X23566Y93345D02*
D03*
D32*
X11632Y80063D02*
D03*
D33*
X14632Y84863D02*
D03*
D34*
X97000Y3000D02*
D03*
X3000D02*
D03*
X97000Y97000D02*
D03*
X3000D02*
D03*
D35*
X29210Y5934D02*
D03*
Y18634D02*
D03*
Y23714D02*
D03*
X75311Y23652D02*
D03*
Y18572D02*
D03*
Y5872D02*
D03*
D36*
X33960Y5934D02*
D03*
Y23714D02*
D03*
X24054D02*
D03*
X70155Y23652D02*
D03*
X80061D02*
D03*
Y5872D02*
D03*
D37*
X43937Y4191D02*
D03*
Y11191D02*
D03*
X89662Y11156D02*
D03*
Y4156D02*
D03*
D38*
X57404Y81026D02*
D03*
D39*
X54864D02*
D03*
X52324D02*
D03*
X49784D02*
D03*
X47244D02*
D03*
X44704D02*
D03*
X42164D02*
D03*
X39624D02*
D03*
X18288Y44831D02*
D03*
Y47371D02*
D03*
Y49911D02*
D03*
Y52451D02*
D03*
Y54991D02*
D03*
X89662Y83820D02*
D03*
Y81280D02*
D03*
Y78740D02*
D03*
Y76200D02*
D03*
Y73660D02*
D03*
Y71120D02*
D03*
Y68580D02*
D03*
D40*
X18288Y57531D02*
D03*
X89662Y66040D02*
D03*
D41*
X63500Y9735D02*
D03*
X53340D02*
D03*
X17653Y9753D02*
D03*
X7493D02*
D03*
D42*
X60960Y14815D02*
D03*
X15113Y14833D02*
D03*
D43*
X58420Y14815D02*
D03*
X12573Y14833D02*
D03*
D44*
X47797Y55535D02*
D03*
X52193Y59535D02*
D03*
X90000Y90000D02*
D03*
X95000Y80000D02*
D03*
Y60000D02*
D03*
X90000Y50000D02*
D03*
X95000Y40000D02*
D03*
X90000Y30000D02*
D03*
X95000Y20000D02*
D03*
X80000Y90000D02*
D03*
X85000Y80000D02*
D03*
X80000Y50000D02*
D03*
X85000Y40000D02*
D03*
X80000Y30000D02*
D03*
X85000Y20000D02*
D03*
X80000Y10000D02*
D03*
X70000Y90000D02*
D03*
X75000Y80000D02*
D03*
X70000Y50000D02*
D03*
X75000Y40000D02*
D03*
X70000Y30000D02*
D03*
Y10000D02*
D03*
X60000Y90000D02*
D03*
X65000Y80000D02*
D03*
Y40000D02*
D03*
X50000Y30000D02*
D03*
X40000Y70000D02*
D03*
X45000Y40000D02*
D03*
X40000Y30000D02*
D03*
X30000Y90000D02*
D03*
X35000Y80000D02*
D03*
X30000Y70000D02*
D03*
X35000Y60000D02*
D03*
Y40000D02*
D03*
X30000Y30000D02*
D03*
X20000Y70000D02*
D03*
X25000Y60000D02*
D03*
Y40000D02*
D03*
X20000Y30000D02*
D03*
X25000Y20000D02*
D03*
X10000Y90000D02*
D03*
X15000Y60000D02*
D03*
X10000Y50000D02*
D03*
X15000Y40000D02*
D03*
X10000Y30000D02*
D03*
X15000Y20000D02*
D03*
D45*
X48764Y68710D02*
D03*
X51304Y69370D02*
D03*
X41452Y59575D02*
D03*
X60239Y27940D02*
D03*
X55232Y63233D02*
D03*
X60972D02*
D03*
X43118Y73571D02*
D03*
X46224D02*
D03*
X48034Y65814D02*
D03*
X47898Y60896D02*
D03*
X46534D02*
D03*
X42354Y74510D02*
D03*
X46224D02*
D03*
X56896Y64008D02*
D03*
X56400Y64960D02*
D03*
X51534Y61745D02*
D03*
X59435Y61480D02*
D03*
X55054Y65874D02*
D03*
X58390Y60250D02*
D03*
X57061Y60185D02*
D03*
X52895Y66179D02*
D03*
X61379Y53174D02*
D03*
X57645Y56908D02*
D03*
X46034Y50533D02*
D03*
X45300Y75907D02*
D03*
X47840D02*
D03*
X14973Y56502D02*
D03*
X13480Y59799D02*
D03*
%TF.MD5,fc7daae11cf0fec16f3984f3c3f53626*%
M02*
