%TF.GenerationSoftware,Altium Limited,Altium Designer,22.7.1 (60)*%
G04 Layer_Color=8388736*
%FSLAX43Y43*%
%MOMM*%
%TF.SameCoordinates,58151787-F571-4420-9806-9522EC8286B3*%
%TF.FilePolarity,Negative*%
%TF.FileFunction,Soldermask,Top*%
%TF.Part,Single*%
G01*
G75*
%TA.AperFunction,SMDPad,CuDef*%
%ADD10R,0.355X1.353*%
%ADD11R,1.000X1.800*%
%ADD12R,1.006X1.308*%
%ADD13R,1.550X1.250*%
%ADD14R,2.800X2.200*%
%ADD15R,2.800X2.800*%
%ADD16R,3.800X2.030*%
%ADD17R,0.930X0.910*%
%ADD18R,3.099X3.099*%
%ADD19R,0.300X1.500*%
%ADD20R,1.500X0.300*%
%ADD21R,2.000X5.500*%
%ADD22R,1.308X1.006*%
%ADD23R,1.250X1.550*%
%ADD24R,1.300X1.550*%
G04:AMPARAMS|DCode=25|XSize=1.58mm|YSize=0.6mm|CornerRadius=0.075mm|HoleSize=0mm|Usage=FLASHONLY|Rotation=90.000|XOffset=0mm|YOffset=0mm|HoleType=Round|Shape=RoundedRectangle|*
%AMROUNDEDRECTD25*
21,1,1.580,0.450,0,0,90.0*
21,1,1.430,0.600,0,0,90.0*
1,1,0.150,0.225,0.715*
1,1,0.150,0.225,-0.715*
1,1,0.150,-0.225,-0.715*
1,1,0.150,-0.225,0.715*
%
%ADD25ROUNDEDRECTD25*%
%ADD26R,2.030X3.800*%
G04:AMPARAMS|DCode=27|XSize=0.55mm|YSize=0.8mm|CornerRadius=0.05mm|HoleSize=0mm|Usage=FLASHONLY|Rotation=180.000|XOffset=0mm|YOffset=0mm|HoleType=Round|Shape=RoundedRectangle|*
%AMROUNDEDRECTD27*
21,1,0.550,0.701,0,0,180.0*
21,1,0.451,0.800,0,0,180.0*
1,1,0.099,-0.226,0.351*
1,1,0.099,0.226,0.351*
1,1,0.099,0.226,-0.351*
1,1,0.099,-0.226,-0.351*
%
%ADD27ROUNDEDRECTD27*%
%TA.AperFunction,ComponentPad*%
%ADD30R,1.300X3.550*%
%ADD31C,2.100*%
%ADD32R,3.550X1.300*%
%ADD33R,1.550X4.100*%
%TA.AperFunction,ViaPad*%
%ADD34C,1.524*%
%TA.AperFunction,ComponentPad*%
%ADD35C,3.251*%
%ADD36C,2.172*%
%ADD37C,1.700*%
%ADD38R,1.500X1.500*%
%ADD39C,1.500*%
%ADD40R,1.500X1.500*%
%ADD41C,3.000*%
%ADD42C,1.398*%
%ADD43R,1.398X1.398*%
%TA.AperFunction,ViaPad*%
%ADD44C,1.270*%
%ADD45C,0.650*%
%TA.AperFunction,NonConductor*%
%ADD46C,1.880*%
D10*
X24866Y84078D02*
D03*
X24216D02*
D03*
X23566D02*
D03*
X22916D02*
D03*
X21616D02*
D03*
X25516Y78228D02*
D03*
X24866D02*
D03*
X24216D02*
D03*
X23566D02*
D03*
X22916D02*
D03*
X22266D02*
D03*
X21616D02*
D03*
X20966D02*
D03*
Y84078D02*
D03*
X22266D02*
D03*
X25516D02*
D03*
D11*
X53844Y72203D02*
D03*
X48764D02*
D03*
Y77403D02*
D03*
X46224D02*
D03*
Y72203D02*
D03*
X51304D02*
D03*
Y77403D02*
D03*
X53844D02*
D03*
D12*
X21616Y86378D02*
D03*
X20164D02*
D03*
X22114Y74041D02*
D03*
X23566D02*
D03*
X51490Y66548D02*
D03*
X50038D02*
D03*
X60143D02*
D03*
X61595D02*
D03*
X60143Y49276D02*
D03*
X61595D02*
D03*
X56515Y29210D02*
D03*
X55063D02*
D03*
X59254Y26289D02*
D03*
X60706D02*
D03*
X55245Y44069D02*
D03*
X56697D02*
D03*
X48486Y48387D02*
D03*
X47034D02*
D03*
X50034D02*
D03*
X51486D02*
D03*
X5025Y45974D02*
D03*
X6477D02*
D03*
D13*
X13589Y72408D02*
D03*
X57404Y86378D02*
D03*
Y84328D02*
D03*
X54864Y86378D02*
D03*
Y84328D02*
D03*
X52324Y86378D02*
D03*
Y84328D02*
D03*
X49784Y86378D02*
D03*
Y84328D02*
D03*
X47244Y86378D02*
D03*
Y84328D02*
D03*
X44704Y86378D02*
D03*
Y84328D02*
D03*
X42164Y86378D02*
D03*
Y84328D02*
D03*
X39624Y86378D02*
D03*
Y84328D02*
D03*
X13589Y70358D02*
D03*
X17780D02*
D03*
Y72408D02*
D03*
X36449Y56085D02*
D03*
Y54035D02*
D03*
X12319Y48857D02*
D03*
Y50907D02*
D03*
D14*
X40237Y5091D02*
D03*
X47637Y3091D02*
D03*
X93362Y3056D02*
D03*
X85962Y5056D02*
D03*
D15*
X47637Y12491D02*
D03*
X93362Y12456D02*
D03*
D16*
X24384Y57531D02*
D03*
Y49911D02*
D03*
Y47371D02*
D03*
D17*
X57404Y93595D02*
D03*
Y92075D02*
D03*
X54864Y93595D02*
D03*
Y92075D02*
D03*
X52324Y93595D02*
D03*
Y92075D02*
D03*
X49784Y93595D02*
D03*
Y92075D02*
D03*
X47244Y93595D02*
D03*
Y92075D02*
D03*
X44704Y93595D02*
D03*
Y92075D02*
D03*
X42164Y93595D02*
D03*
Y92075D02*
D03*
X39624Y93595D02*
D03*
Y92075D02*
D03*
X13589Y65786D02*
D03*
Y64266D02*
D03*
X17780Y65786D02*
D03*
Y64266D02*
D03*
D18*
X23241Y81153D02*
D03*
D19*
X46034Y63485D02*
D03*
X46534D02*
D03*
X47034D02*
D03*
X47534D02*
D03*
X48034D02*
D03*
X48534D02*
D03*
X49034D02*
D03*
X49534D02*
D03*
X50034D02*
D03*
X50534D02*
D03*
X51034D02*
D03*
X51534D02*
D03*
X52034D02*
D03*
X52534D02*
D03*
X53034D02*
D03*
X53534D02*
D03*
Y52085D02*
D03*
X53034D02*
D03*
X52534D02*
D03*
X52034D02*
D03*
X51534D02*
D03*
X51034D02*
D03*
X50534D02*
D03*
X50034D02*
D03*
X49534D02*
D03*
X49034D02*
D03*
X48534D02*
D03*
X48034D02*
D03*
X47534D02*
D03*
X47034D02*
D03*
X46534D02*
D03*
X46034D02*
D03*
D20*
X55484Y61535D02*
D03*
Y61035D02*
D03*
Y60535D02*
D03*
Y60035D02*
D03*
Y59535D02*
D03*
Y59035D02*
D03*
Y58535D02*
D03*
Y58035D02*
D03*
Y57535D02*
D03*
Y57035D02*
D03*
Y56535D02*
D03*
Y56035D02*
D03*
Y55535D02*
D03*
Y55035D02*
D03*
Y54535D02*
D03*
Y54035D02*
D03*
X44084D02*
D03*
Y54535D02*
D03*
Y55035D02*
D03*
Y55535D02*
D03*
Y56035D02*
D03*
Y56535D02*
D03*
Y57035D02*
D03*
Y57535D02*
D03*
Y58035D02*
D03*
Y58535D02*
D03*
Y59035D02*
D03*
Y59535D02*
D03*
Y60035D02*
D03*
Y60535D02*
D03*
Y61035D02*
D03*
Y61535D02*
D03*
D21*
X65024Y61951D02*
D03*
Y52451D02*
D03*
D22*
X60143Y57987D02*
D03*
Y56535D02*
D03*
X70866Y57987D02*
D03*
Y56535D02*
D03*
X40132Y57538D02*
D03*
Y56085D02*
D03*
X45593Y37517D02*
D03*
Y36065D02*
D03*
D23*
X51308D02*
D03*
X49258D02*
D03*
X61359Y32639D02*
D03*
X59309D02*
D03*
X56515D02*
D03*
X54465D02*
D03*
X65659D02*
D03*
X63609D02*
D03*
X59309Y29210D02*
D03*
X61359D02*
D03*
X54465Y26162D02*
D03*
X56515D02*
D03*
X13480Y56807D02*
D03*
X11430D02*
D03*
D24*
X3338Y48857D02*
D03*
X7838D02*
D03*
X3338Y56807D02*
D03*
X7838D02*
D03*
D25*
X55245Y41405D02*
D03*
X56515D02*
D03*
X57785D02*
D03*
X59055D02*
D03*
Y36065D02*
D03*
X57785D02*
D03*
X56515D02*
D03*
X55245D02*
D03*
D26*
X39370D02*
D03*
D27*
X32451Y56235D02*
D03*
X33401Y54035D02*
D03*
X31501D02*
D03*
D30*
X8382Y84863D02*
D03*
D31*
X4826Y72408D02*
D03*
Y64008D02*
D03*
X45593Y27940D02*
D03*
X14478Y34417D02*
D03*
X87249Y47752D02*
D03*
X70866Y93218D02*
D03*
X23566Y93345D02*
D03*
D32*
X11632Y80063D02*
D03*
D33*
X14632Y84863D02*
D03*
D34*
X97000Y3000D02*
D03*
X3000D02*
D03*
X97000Y97000D02*
D03*
X3000D02*
D03*
D35*
X29210Y5934D02*
D03*
Y18634D02*
D03*
Y23714D02*
D03*
X75311Y23652D02*
D03*
Y18572D02*
D03*
Y5872D02*
D03*
D36*
X33960Y5934D02*
D03*
Y23714D02*
D03*
X24054D02*
D03*
X70155Y23652D02*
D03*
X80061D02*
D03*
Y5872D02*
D03*
D37*
X43937Y4191D02*
D03*
Y11191D02*
D03*
X89662Y11156D02*
D03*
Y4156D02*
D03*
D38*
X57404Y81026D02*
D03*
D39*
X54864D02*
D03*
X52324D02*
D03*
X49784D02*
D03*
X47244D02*
D03*
X44704D02*
D03*
X42164D02*
D03*
X39624D02*
D03*
X18288Y44831D02*
D03*
Y47371D02*
D03*
Y49911D02*
D03*
Y52451D02*
D03*
Y54991D02*
D03*
X89662Y83820D02*
D03*
Y81280D02*
D03*
Y78740D02*
D03*
Y76200D02*
D03*
Y73660D02*
D03*
Y71120D02*
D03*
Y68580D02*
D03*
D40*
X18288Y57531D02*
D03*
X89662Y66040D02*
D03*
D41*
X63500Y9735D02*
D03*
X53340D02*
D03*
X17653Y9753D02*
D03*
X7493D02*
D03*
D42*
X60960Y14815D02*
D03*
X15113Y14833D02*
D03*
D43*
X58420Y14815D02*
D03*
X12573Y14833D02*
D03*
D44*
X47797Y55535D02*
D03*
X52193Y59535D02*
D03*
X90000Y90000D02*
D03*
X95000Y80000D02*
D03*
Y60000D02*
D03*
X90000Y50000D02*
D03*
X95000Y40000D02*
D03*
X90000Y30000D02*
D03*
X95000Y20000D02*
D03*
X80000Y90000D02*
D03*
X85000Y80000D02*
D03*
X80000Y50000D02*
D03*
X85000Y40000D02*
D03*
X80000Y30000D02*
D03*
X85000Y20000D02*
D03*
X80000Y10000D02*
D03*
X70000Y90000D02*
D03*
X75000Y80000D02*
D03*
X70000Y50000D02*
D03*
X75000Y40000D02*
D03*
X70000Y30000D02*
D03*
Y10000D02*
D03*
X60000Y90000D02*
D03*
X65000Y80000D02*
D03*
Y40000D02*
D03*
X50000Y30000D02*
D03*
X40000Y70000D02*
D03*
X45000Y40000D02*
D03*
X40000Y30000D02*
D03*
X30000Y90000D02*
D03*
X35000Y80000D02*
D03*
X30000Y70000D02*
D03*
X35000Y60000D02*
D03*
Y40000D02*
D03*
X30000Y30000D02*
D03*
X20000Y70000D02*
D03*
X25000Y60000D02*
D03*
Y40000D02*
D03*
X20000Y30000D02*
D03*
X25000Y20000D02*
D03*
X10000Y90000D02*
D03*
X15000Y60000D02*
D03*
X10000Y50000D02*
D03*
X15000Y40000D02*
D03*
X10000Y30000D02*
D03*
X15000Y20000D02*
D03*
D45*
X48764Y68710D02*
D03*
X51304Y69370D02*
D03*
X41452Y59575D02*
D03*
X60239Y27940D02*
D03*
X55232Y63233D02*
D03*
X60972D02*
D03*
X43118Y73571D02*
D03*
X46224D02*
D03*
X48034Y65814D02*
D03*
X47898Y60896D02*
D03*
X46534D02*
D03*
X42354Y74510D02*
D03*
X46224D02*
D03*
X56896Y64008D02*
D03*
X56400Y64960D02*
D03*
X51534Y61745D02*
D03*
X59435Y61480D02*
D03*
X55054Y65874D02*
D03*
X58390Y60250D02*
D03*
X57061Y60185D02*
D03*
X52895Y66179D02*
D03*
X61379Y53174D02*
D03*
X57645Y56908D02*
D03*
X46034Y50533D02*
D03*
X45300Y75907D02*
D03*
X47840D02*
D03*
X14973Y56502D02*
D03*
X13480Y59799D02*
D03*
D46*
X30150Y23714D02*
G03*
X30150Y23714I-940J0D01*
G01*
Y18634D02*
G03*
X30150Y18634I-940J0D01*
G01*
Y5934D02*
G03*
X30150Y5934I-940J0D01*
G01*
X76251Y5872D02*
G03*
X76251Y5872I-940J0D01*
G01*
Y18572D02*
G03*
X76251Y18572I-940J0D01*
G01*
Y23652D02*
G03*
X76251Y23652I-940J0D01*
G01*
%TF.MD5,4628dd20e514485109b1a54b1104cf1a*%
M02*
