%TF.GenerationSoftware,Altium Limited,Altium Designer,23.6.0 (18)*%
G04 Layer_Color=255*
%FSLAX43Y43*%
%MOMM*%
%TF.SameCoordinates,02C31AF8-F4BC-48A1-AB84-B672334353EB*%
%TF.FilePolarity,Positive*%
%TF.FileFunction,Pads,Top*%
%TF.Part,Single*%
G01*
G75*
%TA.AperFunction,SMDPad,CuDef*%
%ADD10R,3.800X2.030*%
G04:AMPARAMS|DCode=11|XSize=1.4mm|YSize=1.2mm|CornerRadius=0.15mm|HoleSize=0mm|Usage=FLASHONLY|Rotation=180.000|XOffset=0mm|YOffset=0mm|HoleType=Round|Shape=RoundedRectangle|*
%AMROUNDEDRECTD11*
21,1,1.400,0.900,0,0,180.0*
21,1,1.100,1.200,0,0,180.0*
1,1,0.300,-0.550,0.450*
1,1,0.300,0.550,0.450*
1,1,0.300,0.550,-0.450*
1,1,0.300,-0.550,-0.450*
%
%ADD11ROUNDEDRECTD11*%
%ADD12R,1.380X2.100*%
%ADD13R,1.400X1.100*%
%ADD14R,1.100X1.400*%
%ADD15R,5.600X2.100*%
%ADD16R,0.300X1.450*%
%ADD17R,1.450X0.300*%
%ADD18R,0.572X1.574*%
G04:AMPARAMS|DCode=19|XSize=1.574mm|YSize=0.572mm|CornerRadius=0.286mm|HoleSize=0mm|Usage=FLASHONLY|Rotation=90.000|XOffset=0mm|YOffset=0mm|HoleType=Round|Shape=RoundedRectangle|*
%AMROUNDEDRECTD19*
21,1,1.574,0.000,0,0,90.0*
21,1,1.002,0.572,0,0,90.0*
1,1,0.572,0.000,0.501*
1,1,0.572,0.000,-0.501*
1,1,0.572,0.000,-0.501*
1,1,0.572,0.000,0.501*
%
%ADD19ROUNDEDRECTD19*%
%ADD20R,0.850X0.500*%
%ADD21R,1.321X2.718*%
%ADD22R,2.900X5.400*%
%ADD23R,1.725X0.450*%
G04:AMPARAMS|DCode=24|XSize=1.4mm|YSize=1.2mm|CornerRadius=0.15mm|HoleSize=0mm|Usage=FLASHONLY|Rotation=90.000|XOffset=0mm|YOffset=0mm|HoleType=Round|Shape=RoundedRectangle|*
%AMROUNDEDRECTD24*
21,1,1.400,0.900,0,0,90.0*
21,1,1.100,1.200,0,0,90.0*
1,1,0.300,0.450,0.550*
1,1,0.300,0.450,-0.550*
1,1,0.300,-0.450,-0.550*
1,1,0.300,-0.450,0.550*
%
%ADD24ROUNDEDRECTD24*%
%ADD25R,0.432X1.499*%
%ADD26R,2.500X1.000*%
%ADD27R,1.285X1.470*%
%TA.AperFunction,ComponentPad*%
%ADD30C,0.690*%
%ADD31O,2.600X1.100*%
%ADD32O,1.900X1.100*%
%TA.AperFunction,ViaPad*%
%ADD33C,4.000*%
%TA.AperFunction,ComponentPad*%
%ADD34O,3.016X1.508*%
%ADD35C,3.000*%
%ADD36C,1.398*%
%ADD37R,1.398X1.398*%
G04:AMPARAMS|DCode=38|XSize=1.5mm|YSize=1.5mm|CornerRadius=0.375mm|HoleSize=0mm|Usage=FLASHONLY|Rotation=0.000|XOffset=0mm|YOffset=0mm|HoleType=Round|Shape=RoundedRectangle|*
%AMROUNDEDRECTD38*
21,1,1.500,0.750,0,0,0.0*
21,1,0.750,1.500,0,0,0.0*
1,1,0.750,0.375,-0.375*
1,1,0.750,-0.375,-0.375*
1,1,0.750,-0.375,0.375*
1,1,0.750,0.375,0.375*
%
%ADD38ROUNDEDRECTD38*%
%ADD39C,1.500*%
%ADD40R,1.500X1.500*%
G04:AMPARAMS|DCode=41|XSize=1.6mm|YSize=1.6mm|CornerRadius=0.4mm|HoleSize=0mm|Usage=FLASHONLY|Rotation=0.000|XOffset=0mm|YOffset=0mm|HoleType=Round|Shape=RoundedRectangle|*
%AMROUNDEDRECTD41*
21,1,1.600,0.800,0,0,0.0*
21,1,0.800,1.600,0,0,0.0*
1,1,0.800,0.400,-0.400*
1,1,0.800,-0.400,-0.400*
1,1,0.800,-0.400,0.400*
1,1,0.800,0.400,0.400*
%
%ADD41ROUNDEDRECTD41*%
%ADD42C,1.600*%
%ADD43C,2.100*%
D10*
X69976Y57250D02*
D03*
X149789Y19300D02*
D03*
X116466Y34192D02*
D03*
Y26192D02*
D03*
X111868Y30392D02*
D03*
X10204Y66029D02*
D03*
X22050Y66006D02*
D03*
X16299Y66029D02*
D03*
X15089Y58296D02*
D03*
Y53669D02*
D03*
X66261Y52550D02*
D03*
X72425Y34676D02*
D03*
X92234Y12444D02*
D03*
X66261Y63276D02*
D03*
X77441Y44066D02*
D03*
Y37977D02*
D03*
X72425Y41261D02*
D03*
X149821Y37046D02*
D03*
X144587Y23202D02*
D03*
X149821Y28397D02*
D03*
X144587Y32705D02*
D03*
D11*
X3200Y47550D02*
D03*
Y45550D02*
D03*
X105558Y62838D02*
D03*
Y60838D02*
D03*
X111558Y66655D02*
D03*
Y68655D02*
D03*
X20000Y85500D02*
D03*
Y87500D02*
D03*
X6127Y65127D02*
D03*
Y63127D02*
D03*
X35000Y87500D02*
D03*
Y85500D02*
D03*
X50000Y87500D02*
D03*
Y85500D02*
D03*
X23000Y87500D02*
D03*
Y85500D02*
D03*
X38000Y87500D02*
D03*
Y85500D02*
D03*
X53000Y87500D02*
D03*
Y85500D02*
D03*
X12000Y87500D02*
D03*
Y85500D02*
D03*
X27000Y87500D02*
D03*
Y85500D02*
D03*
X42000Y87500D02*
D03*
Y85500D02*
D03*
X65000Y87500D02*
D03*
Y85500D02*
D03*
X80000Y87500D02*
D03*
Y85500D02*
D03*
X95000Y87500D02*
D03*
Y85500D02*
D03*
X68000Y87500D02*
D03*
Y85500D02*
D03*
X83000Y87500D02*
D03*
Y85500D02*
D03*
X98000Y87500D02*
D03*
Y85500D02*
D03*
X57000Y87500D02*
D03*
Y85500D02*
D03*
X72000Y87500D02*
D03*
Y85500D02*
D03*
X87000Y87500D02*
D03*
Y85500D02*
D03*
X110000Y87500D02*
D03*
Y85500D02*
D03*
X125000Y87500D02*
D03*
Y85500D02*
D03*
X140000Y87500D02*
D03*
Y85500D02*
D03*
X113000Y87500D02*
D03*
Y85500D02*
D03*
X128000Y87500D02*
D03*
Y85500D02*
D03*
X143000Y87500D02*
D03*
Y85500D02*
D03*
X102000Y87500D02*
D03*
Y85500D02*
D03*
X117000Y87500D02*
D03*
Y85500D02*
D03*
X132000Y87500D02*
D03*
Y85500D02*
D03*
X155000Y87500D02*
D03*
Y85500D02*
D03*
X158000Y87500D02*
D03*
Y85500D02*
D03*
X147000Y87500D02*
D03*
Y85500D02*
D03*
X132000Y27288D02*
D03*
Y25288D02*
D03*
D12*
X114548Y62838D02*
D03*
X114538Y53738D02*
D03*
X110058Y62838D02*
D03*
Y53738D02*
D03*
D13*
X105558Y66588D02*
D03*
Y68088D02*
D03*
X68525Y36350D02*
D03*
Y37850D02*
D03*
X9250Y52025D02*
D03*
Y53525D02*
D03*
X14834Y31247D02*
D03*
Y32747D02*
D03*
X37961Y31329D02*
D03*
Y32829D02*
D03*
X40500Y51800D02*
D03*
Y50300D02*
D03*
X21785Y57351D02*
D03*
Y58851D02*
D03*
X21785Y54575D02*
D03*
Y53075D02*
D03*
X18950Y51830D02*
D03*
Y50330D02*
D03*
X90250Y62508D02*
D03*
Y64008D02*
D03*
X86750Y62425D02*
D03*
Y63925D02*
D03*
X86250Y44250D02*
D03*
Y42750D02*
D03*
X89250Y44250D02*
D03*
Y42750D02*
D03*
X121122Y20822D02*
D03*
Y22322D02*
D03*
X124923Y20793D02*
D03*
Y22293D02*
D03*
X127126Y26822D02*
D03*
Y25322D02*
D03*
D14*
X92250Y67000D02*
D03*
X90750D02*
D03*
X69550Y67000D02*
D03*
X71050D02*
D03*
X76761Y53750D02*
D03*
X78261D02*
D03*
X50425Y36375D02*
D03*
X48925D02*
D03*
X58000Y51500D02*
D03*
X59500D02*
D03*
X96500Y53250D02*
D03*
X98000D02*
D03*
X78250Y56750D02*
D03*
X76750D02*
D03*
D15*
X76100Y67000D02*
D03*
X85600D02*
D03*
D16*
X91250Y47800D02*
D03*
X90750D02*
D03*
X90250D02*
D03*
X89750D02*
D03*
X89250D02*
D03*
X88750D02*
D03*
X88250D02*
D03*
X87750D02*
D03*
X87250D02*
D03*
X86750D02*
D03*
X86250D02*
D03*
X85750D02*
D03*
X85250D02*
D03*
X84750D02*
D03*
X84250D02*
D03*
X83750D02*
D03*
Y59200D02*
D03*
X84250D02*
D03*
X84750D02*
D03*
X85250D02*
D03*
X85750D02*
D03*
X86250D02*
D03*
X86750D02*
D03*
X87250D02*
D03*
X87750D02*
D03*
X88250D02*
D03*
X88750D02*
D03*
X89250D02*
D03*
X89750D02*
D03*
X90250D02*
D03*
X90750D02*
D03*
X91250D02*
D03*
D17*
X81800Y49750D02*
D03*
Y50250D02*
D03*
Y50750D02*
D03*
Y51250D02*
D03*
Y51750D02*
D03*
Y52250D02*
D03*
Y52750D02*
D03*
Y53250D02*
D03*
Y53750D02*
D03*
Y54250D02*
D03*
Y54750D02*
D03*
Y55250D02*
D03*
Y55750D02*
D03*
Y56250D02*
D03*
Y56750D02*
D03*
Y57250D02*
D03*
X93200D02*
D03*
Y56750D02*
D03*
Y56250D02*
D03*
Y55750D02*
D03*
Y55250D02*
D03*
Y54750D02*
D03*
Y54250D02*
D03*
Y53750D02*
D03*
Y53250D02*
D03*
Y52750D02*
D03*
Y52250D02*
D03*
Y51750D02*
D03*
Y51250D02*
D03*
Y50750D02*
D03*
Y50250D02*
D03*
Y49750D02*
D03*
D18*
X22050Y78115D02*
D03*
X157050D02*
D03*
X48050D02*
D03*
X33050D02*
D03*
X18050D02*
D03*
X41050D02*
D03*
X26050D02*
D03*
X11050D02*
D03*
X52050D02*
D03*
X37050D02*
D03*
X93050D02*
D03*
X78050D02*
D03*
X63050D02*
D03*
X86050D02*
D03*
X71050D02*
D03*
X56050D02*
D03*
X97050D02*
D03*
X82050D02*
D03*
X67050D02*
D03*
X138050D02*
D03*
X123050D02*
D03*
X108050D02*
D03*
X131050D02*
D03*
X116050D02*
D03*
X101050D02*
D03*
X142050D02*
D03*
X127050D02*
D03*
X112050D02*
D03*
X153050D02*
D03*
X146050D02*
D03*
D19*
X23950D02*
D03*
X23000Y79885D02*
D03*
X158000D02*
D03*
X158950Y78115D02*
D03*
X49000Y79885D02*
D03*
X49950Y78115D02*
D03*
X34000Y79885D02*
D03*
X34950Y78115D02*
D03*
X19000Y79885D02*
D03*
X19950Y78115D02*
D03*
X42000Y79885D02*
D03*
X42950Y78115D02*
D03*
X27000Y79885D02*
D03*
X27950Y78115D02*
D03*
X12000Y79885D02*
D03*
X12950Y78115D02*
D03*
X53000Y79885D02*
D03*
X53950Y78115D02*
D03*
X38000Y79885D02*
D03*
X38950Y78115D02*
D03*
X94000Y79885D02*
D03*
X94950Y78115D02*
D03*
X79000Y79885D02*
D03*
X79950Y78115D02*
D03*
X64000Y79885D02*
D03*
X64950Y78115D02*
D03*
X87000Y79885D02*
D03*
X87950Y78115D02*
D03*
X72000Y79885D02*
D03*
X72950Y78115D02*
D03*
X57000Y79885D02*
D03*
X57950Y78115D02*
D03*
X98000Y79885D02*
D03*
X98950Y78115D02*
D03*
X83000Y79885D02*
D03*
X83950Y78115D02*
D03*
X68000Y79885D02*
D03*
X68950Y78115D02*
D03*
X139000Y79885D02*
D03*
X139950Y78115D02*
D03*
X124000Y79885D02*
D03*
X124950Y78115D02*
D03*
X109000Y79885D02*
D03*
X109950Y78115D02*
D03*
X132000Y79885D02*
D03*
X132950Y78115D02*
D03*
X117000Y79885D02*
D03*
X117950Y78115D02*
D03*
X102000Y79885D02*
D03*
X102950Y78115D02*
D03*
X143000Y79885D02*
D03*
X143950Y78115D02*
D03*
X128000Y79885D02*
D03*
X128950Y78115D02*
D03*
X113000Y79885D02*
D03*
X113950Y78115D02*
D03*
X154000Y79885D02*
D03*
X154950Y78115D02*
D03*
X147000Y79885D02*
D03*
X147950Y78115D02*
D03*
D20*
X15125Y85500D02*
D03*
X16875D02*
D03*
Y84500D02*
D03*
X15125D02*
D03*
X30125D02*
D03*
X31875D02*
D03*
Y85500D02*
D03*
X30125D02*
D03*
X45125Y84500D02*
D03*
X46875D02*
D03*
Y85500D02*
D03*
X45125D02*
D03*
X60125Y84500D02*
D03*
X61875D02*
D03*
Y85500D02*
D03*
X60125D02*
D03*
X75125Y84500D02*
D03*
X76875D02*
D03*
Y85500D02*
D03*
X75125D02*
D03*
X90125Y84500D02*
D03*
X91875D02*
D03*
Y85500D02*
D03*
X90125D02*
D03*
X105125Y84500D02*
D03*
X106875D02*
D03*
Y85500D02*
D03*
X105125D02*
D03*
X120125Y84500D02*
D03*
X121875D02*
D03*
Y85500D02*
D03*
X120125D02*
D03*
X135125Y84500D02*
D03*
X136875D02*
D03*
Y85500D02*
D03*
X135125D02*
D03*
X150125Y84500D02*
D03*
X151875D02*
D03*
Y85500D02*
D03*
X150125D02*
D03*
D21*
X35730Y47894D02*
D03*
Y51806D02*
D03*
D22*
X54250Y36350D02*
D03*
X64150D02*
D03*
D23*
X55350Y49425D02*
D03*
Y50075D02*
D03*
Y50725D02*
D03*
Y51375D02*
D03*
Y52025D02*
D03*
Y52675D02*
D03*
Y53325D02*
D03*
Y53975D02*
D03*
Y54625D02*
D03*
Y55275D02*
D03*
Y55925D02*
D03*
Y56575D02*
D03*
Y57225D02*
D03*
Y57875D02*
D03*
X48326D02*
D03*
Y57225D02*
D03*
Y56575D02*
D03*
Y55925D02*
D03*
Y55275D02*
D03*
Y54625D02*
D03*
Y53975D02*
D03*
Y53325D02*
D03*
Y52675D02*
D03*
Y52025D02*
D03*
Y51375D02*
D03*
Y50725D02*
D03*
Y50075D02*
D03*
Y49425D02*
D03*
D24*
X43500Y55313D02*
D03*
X45500D02*
D03*
D25*
X122458Y25388D02*
D03*
X123093D02*
D03*
X123754D02*
D03*
X124389D02*
D03*
Y29757D02*
D03*
X123754D02*
D03*
X123093D02*
D03*
X122458D02*
D03*
D26*
X157230Y23190D02*
D03*
Y25730D02*
D03*
X160930Y23190D02*
D03*
Y25730D02*
D03*
Y30810D02*
D03*
X157230D02*
D03*
X160930Y28270D02*
D03*
X157230D02*
D03*
D27*
X26686Y51825D02*
D03*
X28631D02*
D03*
D30*
X4925Y58575D02*
D03*
Y57725D02*
D03*
Y56875D02*
D03*
Y56025D02*
D03*
Y55175D02*
D03*
Y54325D02*
D03*
Y53475D02*
D03*
Y52625D02*
D03*
X6275D02*
D03*
Y53475D02*
D03*
Y54325D02*
D03*
Y55175D02*
D03*
Y56025D02*
D03*
Y56875D02*
D03*
Y57725D02*
D03*
Y58575D02*
D03*
D31*
X5295Y51275D02*
D03*
Y59925D02*
D03*
D32*
X1915Y51275D02*
D03*
Y59925D02*
D03*
D33*
X17525Y10825D02*
D03*
Y94825D02*
D03*
X149525Y10825D02*
D03*
Y94825D02*
D03*
D34*
X109500Y12900D02*
D03*
Y7400D02*
D03*
X111500Y5000D02*
D03*
X64500Y12900D02*
D03*
Y7400D02*
D03*
X66500Y5000D02*
D03*
D35*
X40080Y8800D02*
D03*
X29920D02*
D03*
X137080Y8800D02*
D03*
X126920D02*
D03*
D36*
X37540Y13880D02*
D03*
X134540Y13880D02*
D03*
D37*
X35000Y13880D02*
D03*
X132000Y13880D02*
D03*
D38*
X22460Y32800D02*
D03*
D39*
X25000D02*
D03*
X27540D02*
D03*
X121067Y52173D02*
D03*
Y54713D02*
D03*
Y57253D02*
D03*
Y59793D02*
D03*
Y62333D02*
D03*
D40*
Y64873D02*
D03*
D41*
X47935Y22850D02*
D03*
D42*
X50475D02*
D03*
X53015D02*
D03*
D43*
X99199Y17673D02*
D03*
X29920Y23000D02*
D03*
X78921Y17673D02*
D03*
X5020Y31000D02*
D03*
X143786Y11008D02*
D03*
X135500Y94500D02*
D03*
X36000Y94825D02*
D03*
X20000Y23000D02*
D03*
%TF.MD5,df3133d88f2e922e8a48af5723633632*%
M02*
