%TF.GenerationSoftware,Altium Limited,Altium Designer,23.6.0 (18)*%
G04 Layer_Color=255*
%FSLAX43Y43*%
%MOMM*%
%TF.SameCoordinates,02C31AF8-F4BC-48A1-AB84-B672334353EB*%
%TF.FilePolarity,Positive*%
%TF.FileFunction,Pads,Bot*%
%TF.Part,Single*%
G01*
G75*
%TA.AperFunction,ComponentPad*%
%ADD30C,0.690*%
%ADD31O,2.600X1.100*%
%ADD32O,1.900X1.100*%
%TA.AperFunction,ViaPad*%
%ADD33C,4.000*%
%TA.AperFunction,ComponentPad*%
%ADD34O,3.016X1.508*%
%ADD35C,3.000*%
%ADD36C,1.398*%
%ADD37R,1.398X1.398*%
G04:AMPARAMS|DCode=38|XSize=1.5mm|YSize=1.5mm|CornerRadius=0.375mm|HoleSize=0mm|Usage=FLASHONLY|Rotation=0.000|XOffset=0mm|YOffset=0mm|HoleType=Round|Shape=RoundedRectangle|*
%AMROUNDEDRECTD38*
21,1,1.500,0.750,0,0,0.0*
21,1,0.750,1.500,0,0,0.0*
1,1,0.750,0.375,-0.375*
1,1,0.750,-0.375,-0.375*
1,1,0.750,-0.375,0.375*
1,1,0.750,0.375,0.375*
%
%ADD38ROUNDEDRECTD38*%
%ADD39C,1.500*%
%ADD40R,1.500X1.500*%
G04:AMPARAMS|DCode=41|XSize=1.6mm|YSize=1.6mm|CornerRadius=0.4mm|HoleSize=0mm|Usage=FLASHONLY|Rotation=0.000|XOffset=0mm|YOffset=0mm|HoleType=Round|Shape=RoundedRectangle|*
%AMROUNDEDRECTD41*
21,1,1.600,0.800,0,0,0.0*
21,1,0.800,1.600,0,0,0.0*
1,1,0.800,0.400,-0.400*
1,1,0.800,-0.400,-0.400*
1,1,0.800,-0.400,0.400*
1,1,0.800,0.400,0.400*
%
%ADD41ROUNDEDRECTD41*%
%ADD42C,1.600*%
%ADD43C,2.100*%
D30*
X4925Y58575D02*
D03*
Y57725D02*
D03*
Y56875D02*
D03*
Y56025D02*
D03*
Y55175D02*
D03*
Y54325D02*
D03*
Y53475D02*
D03*
Y52625D02*
D03*
X6275D02*
D03*
Y53475D02*
D03*
Y54325D02*
D03*
Y55175D02*
D03*
Y56025D02*
D03*
Y56875D02*
D03*
Y57725D02*
D03*
Y58575D02*
D03*
D31*
X5295Y51275D02*
D03*
Y59925D02*
D03*
D32*
X1915Y51275D02*
D03*
Y59925D02*
D03*
D33*
X17525Y10825D02*
D03*
Y94825D02*
D03*
X149525Y10825D02*
D03*
Y94825D02*
D03*
D34*
X109500Y12900D02*
D03*
Y7400D02*
D03*
X111500Y5000D02*
D03*
X64500Y12900D02*
D03*
Y7400D02*
D03*
X66500Y5000D02*
D03*
D35*
X40080Y8800D02*
D03*
X29920D02*
D03*
X137080Y8800D02*
D03*
X126920D02*
D03*
D36*
X37540Y13880D02*
D03*
X134540Y13880D02*
D03*
D37*
X35000Y13880D02*
D03*
X132000Y13880D02*
D03*
D38*
X22460Y32800D02*
D03*
D39*
X25000D02*
D03*
X27540D02*
D03*
X121067Y52173D02*
D03*
Y54713D02*
D03*
Y57253D02*
D03*
Y59793D02*
D03*
Y62333D02*
D03*
D40*
Y64873D02*
D03*
D41*
X47935Y22850D02*
D03*
D42*
X50475D02*
D03*
X53015D02*
D03*
D43*
X99199Y17673D02*
D03*
X29920Y23000D02*
D03*
X78921Y17673D02*
D03*
X5020Y31000D02*
D03*
X143786Y11008D02*
D03*
X135500Y94500D02*
D03*
X36000Y94825D02*
D03*
X20000Y23000D02*
D03*
%TF.MD5,204f2743fae97ffa6ee49652b897e551*%
M02*
