M48
;Layer_Color=9474304
;FILE_FORMAT=4:3
METRIC,LZ
;TYPE=PLATED
T1F00S00C0.300
T2F00S00C0.400
T4F00S00C0.890
T5F00S00C0.900
T6F00S00C1.000
T8F00S00C1.100
T9F00S00C1.600
T10F00S00C2.000
T11F00S00C3.200
%
T01
X0009Y0
Y00055
Y0011366
X0011687Y0014169
X0019687
X0027687
X0023687Y0022169
X0015687
X0007687
X0006Y0017228
X00005Y00195
Y0027
X0015687Y0006169
X0023687
X0023Y0
X0031687Y0006169
X0039687
X0047687
X0055687
X0062483Y0005724
X0061Y0
X0059687Y0014169
X0051687
X0052117Y0018907
X0052345Y0020326
X0053789Y0020301
X0053663Y0019008
X0055687Y0022169
X0063687
X0067286Y0019041
X0043687Y0014169
X0038175Y0016259
X0039687Y0022169
X0032142Y00216
X00445Y0
X0075
X0071687Y0006169
X0079687
X0087687
X0095687
X0103687
X01065Y0
X0092
X0091687Y0014169
X0099687
X0103687Y0022169
X0095687
X0087687
X0079687
X0071687
X0075687Y0014169
X0083687
X0067687
X0107687
X0115687
X0123687
X0129465Y0017058
X0127687Y0022169
X0135687
X0139687Y0014169
X0143687Y0006169
X0135687
X0135303Y0
X0146503
X0127687Y0006169
X0119687
X0121249Y0
X011813Y0022281
X0111687Y0022169
X0151687
X0159687
X0159835Y00161
X0155687Y0014169
X0158Y0011366
Y0005
Y0
X0151687Y0006169
X0147687Y0014169
X01665Y0019543
Y0032705
X0163687Y0030169
X0159687Y0038169
X0163687Y0046169
X01665Y00455
Y0055559
X0159687Y0054169
X0151687
X0155687Y0062169
X0163687
X0147687
Y0046169
X0155687
X0149226Y003257
X0147687Y0030169
X0139687
X0131613Y0033
X0127687Y0038169
X0135687
X0143687
X0139687Y0046169
X0131687
X0123687
X0127687Y0054169
X0135687
X0143687
X0139687Y0062169
X0131687
X0123687
X0119841Y0065322
X0117741Y0060762
X01087Y0060848
X0108431Y0057997
Y0057106
X010752Y0058051
X0107465Y0055819
X0111687Y0054169
X0110131Y0050174
Y0049087
X0110445Y0048204
X0110949Y0048691
X0109884Y0047552
X0110921Y0046187
X0108033Y0042594
X0111687Y0038169
X0119687
X0120091Y0036426
X011927Y0034126
X0107687Y0030169
X0099687
X0091687
X0092186Y0034384
X0085694Y0034862
X0081452Y003508
X0081394Y0040074
X0084215Y0038155
X0085694Y0040828
X0084177Y0044542
X0084716Y0045199
X0085292Y00458
X0085826Y0046414
X0087198Y0046053
X0087774Y0045424
Y0044182
X0088544Y0046187
X0089706Y0046541
X0090858Y0046467
X0091504Y0045993
X0090253Y0045713
X0095241Y0044074
X0098Y004275
X010148Y0039479
X0103687Y0038169
X0095687
X0095122Y005125
X0097027Y0051596
X00965Y0054669
X0096782Y0055819
X0098848Y005604
X0101554Y0055243
X0101884Y0053349
X0103462Y0050982
X0103556Y0050183
X010354Y0060515
X0099687Y0062169
X0091463Y006227
X0091875Y0063679
X0089605Y0061243
X0088397Y0061379
X0087577Y0061374
X008625Y0061059
X0088826Y0060609
X0093643Y0059246
X0094631Y0055674
X0084951Y0055351
X0083383Y0055368
X0083505Y0062595
X0083955Y0063258
X0084674Y0063679
X0075687Y0062169
X007255Y0056377
X007245Y005285
X0072054Y0051977
X0071125Y0051825
X0070344Y0051375
X006974Y005075
X0068921Y005025
X006829Y0049743
X006757Y0054607
X0074Y0053976
X0073307Y0053263
X0075641Y005312
X007675Y0052502
X0079955Y004803
X0081394Y0048949
X0081959Y004734
X0082743Y0048027
X0086858Y0050462
X0074382Y0043358
X0069418Y0043072
X0071687Y0038169
X0075687Y0030169
X0083687
X0067687
X0059687
X0051687
X0047935Y00328
X0047687Y0038169
X0039687
X0031687
X0035687Y0030169
X0043687
Y0046169
X0051687
X0053617Y0050676
X005366Y0052097
X006054Y0056437
X0063162Y00554
X0063778Y0054625
X0065047Y0054041
X0059687Y0046169
X004221Y0053286
X0040015Y0055673
X0044693Y0059253
X0044275Y0067135
X0050347Y0066665
X0054969Y0067488
X0035132Y0065866
X0030828Y0058627
X0023687Y0054169
X0018678Y0053859
X0018869Y0057534
X0019687Y0062176
X0011687
X0011185Y0058489
X0011969Y0054577
X0007482Y0054434
X00005Y0056001
X0000822Y00614
Y006445
X00005Y0047862
Y0037
X0007687Y0038169
X0015687
X0023687
X0024796Y0029203
X0019687Y0030169
X0011687
Y0046169
X0019687
X0027687
X0023687Y0070169
X0015687
X0007687
X0000829Y0068
X00009Y00725
Y0077988
X0000822Y008595
X0007687Y0086169
X00082Y0091
X0011687Y0094169
X0009Y01055
X0022554
X0027687Y0094169
X0026027Y0076559
X0022027
X0018027
X0011027
X0016005Y0082928
X0030946Y0082069
X0033027Y0076559
X0037027
X0041027
X0048027
X0052027
X0056027
X0059687Y0078169
X0063027Y0076559
X0067027
X0065429Y0070347
X0061511Y0068075
X0061208Y0082928
X0055687Y0086169
X0059687Y0094169
X0051687
X0043687
X0039687Y0086169
X0046124Y0082976
X0039687Y0070169
X0031687
X003555Y01055
X0046875
X0059
X0072
X00855
X0083687Y0094169
X0091687
X0099687
X0099Y01055
X0106076Y0083214
X0101027Y0076592
X0097027Y0076559
X0093027
X0091687Y0078169
X0090993Y0083167
X0086027Y0076559
X0082027
X0078027
X0075687Y0078169
X0076052Y0083262
X0075687Y0094169
X0067687
X0071027Y0076559
X0069189Y0071523
X0071687Y0070169
X0079687
X0087687
X0095687
X0111687
X0112027Y0076559
X0108027
X0116027
X0123027Y0076547
X0127027Y0076559
X0131027
X0130849Y0074288
X0137579Y0074097
X0138027Y0076559
X0142027
X0146027
X0145312Y0073763
X0143687Y0070169
X0135687
X0127687
X0119687
X0120968Y0083262
X0111687Y0086169
X0115687Y0094169
X0123687
X0131687
X0139687
X0136004Y0083501
X0136299Y01055
X0123554
X01115
X0107687Y0094169
X0155687
X0158Y0094952
X016Y00895
X0159687Y0086169
X01665Y0086167
Y0082743
X0163687Y0078169
X0157027Y0076559
X0153027
X0152233Y0073859
X0151687Y0070169
X0159687
X01665Y0067521
X015104Y0083167
X0147Y01055
X0158
T02
X0004925Y0052625
Y0053475
Y0054325
Y0055175
Y0056025
Y0056875
Y0057725
Y0058575
X0006275
Y0057725
Y0056875
Y0056025
Y0055175
Y0054325
Y0053475
Y0052625
T04
X0035Y001388
X003754
X0132Y001388
X013454
T05
X0121067Y0052173
Y0054713
Y0057253
Y0059793
Y0062333
Y0064873
T06
X002246Y00328
X0025
X002754
T08
X0047935Y002285
X0050475
X0053015
T09
X002Y0023
X002992
X0078921Y0017673
X0099199
X0143786Y0011008
X000502Y0031
X0036Y0094825
X01355Y00945
T10
X002992Y00088
X004008
X012692Y00088
X013708
T11
X0017525Y0010825
X0149525
X0017525Y0094825
X0149525
M30
