%TF.GenerationSoftware,Altium Limited,Altium Designer,23.6.0 (18)*%
G04 Layer_Color=65535*
%FSLAX43Y43*%
%MOMM*%
%TF.SameCoordinates,02C31AF8-F4BC-48A1-AB84-B672334353EB*%
%TF.FilePolarity,Positive*%
%TF.FileFunction,Legend,Top*%
%TF.Part,Single*%
G01*
G75*
%TA.AperFunction,NonConductor*%
%ADD46C,0.200*%
%ADD47C,0.250*%
%ADD48C,0.050*%
%ADD49C,0.100*%
%ADD50C,0.340*%
%ADD51C,0.000*%
%ADD52C,0.127*%
%ADD53C,0.152*%
%ADD54C,0.400*%
%ADD55C,0.254*%
D46*
X7715Y58575D02*
G03*
X7715Y58575I-100J0D01*
G01*
X91300Y49900D02*
G03*
X91300Y49900I-300J0D01*
G01*
X93341Y49000D02*
G03*
X93341Y49000I-141J0D01*
G01*
X35100Y15300D02*
G03*
X35100Y15300I-100J0D01*
G01*
X132100Y15300D02*
G03*
X132100Y15300I-100J0D01*
G01*
X65450Y40350D02*
G03*
X63200Y42600I-2250J0D01*
G01*
X55200D02*
G03*
X52950Y40350I0J-2250D01*
G01*
Y32350D02*
G03*
X55200Y30100I2250J0D01*
G01*
X63200D02*
G03*
X65450Y32350I0J2250D01*
G01*
X100784Y17673D02*
G03*
X100784Y17673I-1585J0D01*
G01*
X31505Y23000D02*
G03*
X31505Y23000I-1585J0D01*
G01*
X80506Y17673D02*
G03*
X80506Y17673I-1585J0D01*
G01*
X6605Y31000D02*
G03*
X6605Y31000I-1585J0D01*
G01*
X145371Y11008D02*
G03*
X145371Y11008I-1585J0D01*
G01*
X137085Y94500D02*
G03*
X137085Y94500I-1585J0D01*
G01*
X37585Y94825D02*
G03*
X37585Y94825I-1585J0D01*
G01*
X21585Y23000D02*
G03*
X21585Y23000I-1585J0D01*
G01*
X3085Y51130D02*
X3765D01*
X3085Y60070D02*
X3765D01*
X175Y51130D02*
X525D01*
X175D02*
Y60070D01*
X525D01*
X2200Y44650D02*
Y48450D01*
X4200D01*
Y44650D02*
Y48450D01*
X2200Y44650D02*
X4200D01*
X104558Y59938D02*
Y63738D01*
X106558D01*
Y59938D02*
Y63738D01*
X104558Y59938D02*
X106558D01*
X111143Y61438D02*
X113493D01*
X115448Y55138D02*
Y61438D01*
X111143Y55138D02*
X113493D01*
X109148D02*
Y61438D01*
X112558Y65755D02*
Y69555D01*
X110558Y65755D02*
X112558D01*
X110558D02*
Y69555D01*
X112558D01*
X92150Y48850D02*
Y58150D01*
X82850D02*
X92150D01*
X82850Y48850D02*
Y58150D01*
Y48850D02*
X92150D01*
X21000Y84600D02*
Y88400D01*
X19000Y84600D02*
X21000D01*
X19000D02*
Y88400D01*
X21000D01*
X24460Y79000D02*
Y79650D01*
X23730D02*
X24460D01*
X21540Y79000D02*
Y79650D01*
X22270D01*
X18950Y30250D02*
Y38750D01*
X31050Y30250D02*
Y38750D01*
X18950D02*
X31050D01*
X18950Y30250D02*
X31050D01*
X55200Y42600D02*
X63200D01*
X55200Y30100D02*
X63200D01*
X65450Y39400D02*
Y40350D01*
Y32350D02*
Y33300D01*
X52950Y32350D02*
Y33300D01*
Y39400D02*
Y40350D01*
X119797Y50903D02*
Y66143D01*
X122337Y50903D02*
Y66143D01*
X119797D02*
X122337D01*
X119797Y50903D02*
X122337D01*
X54435Y21505D02*
Y24195D01*
X46515D02*
X54435D01*
X46515Y21505D02*
Y24195D01*
Y21505D02*
X54435D01*
X49538Y48550D02*
X54138D01*
X49538D02*
Y58750D01*
X54138D01*
Y48550D02*
Y58750D01*
X54488Y48850D02*
X56213D01*
X5127Y66027D02*
X7127D01*
X5127Y62227D02*
Y66027D01*
Y62227D02*
X7127D01*
Y66027D01*
X42600Y54313D02*
Y56313D01*
Y54313D02*
X46400D01*
Y56313D01*
X42600D02*
X46400D01*
X34000Y88400D02*
X36000D01*
X34000Y84600D02*
Y88400D01*
Y84600D02*
X36000D01*
Y88400D01*
X49000D02*
X51000D01*
X49000Y84600D02*
Y88400D01*
Y84600D02*
X51000D01*
Y88400D01*
X22000D02*
X24000D01*
X22000Y84600D02*
Y88400D01*
Y84600D02*
X24000D01*
Y88400D01*
X37000D02*
X39000D01*
X37000Y84600D02*
Y88400D01*
Y84600D02*
X39000D01*
Y88400D01*
X52000D02*
X54000D01*
X52000Y84600D02*
Y88400D01*
Y84600D02*
X54000D01*
Y88400D01*
X11000D02*
X13000D01*
X11000Y84600D02*
Y88400D01*
Y84600D02*
X13000D01*
Y88400D01*
X26000D02*
X28000D01*
X26000Y84600D02*
Y88400D01*
Y84600D02*
X28000D01*
Y88400D01*
X41000D02*
X43000D01*
X41000Y84600D02*
Y88400D01*
Y84600D02*
X43000D01*
Y88400D01*
X64000D02*
X66000D01*
X64000Y84600D02*
Y88400D01*
Y84600D02*
X66000D01*
Y88400D01*
X79000D02*
X81000D01*
X79000Y84600D02*
Y88400D01*
Y84600D02*
X81000D01*
Y88400D01*
X94000D02*
X96000D01*
X94000Y84600D02*
Y88400D01*
Y84600D02*
X96000D01*
Y88400D01*
X67000D02*
X69000D01*
X67000Y84600D02*
Y88400D01*
Y84600D02*
X69000D01*
Y88400D01*
X82000D02*
X84000D01*
X82000Y84600D02*
Y88400D01*
Y84600D02*
X84000D01*
Y88400D01*
X97000D02*
X99000D01*
X97000Y84600D02*
Y88400D01*
Y84600D02*
X99000D01*
Y88400D01*
X56000D02*
X58000D01*
X56000Y84600D02*
Y88400D01*
Y84600D02*
X58000D01*
Y88400D01*
X71000D02*
X73000D01*
X71000Y84600D02*
Y88400D01*
Y84600D02*
X73000D01*
Y88400D01*
X86000D02*
X88000D01*
X86000Y84600D02*
Y88400D01*
Y84600D02*
X88000D01*
Y88400D01*
X109000D02*
X111000D01*
X109000Y84600D02*
Y88400D01*
Y84600D02*
X111000D01*
Y88400D01*
X124000D02*
X126000D01*
X124000Y84600D02*
Y88400D01*
Y84600D02*
X126000D01*
Y88400D01*
X139000D02*
X141000D01*
X139000Y84600D02*
Y88400D01*
Y84600D02*
X141000D01*
Y88400D01*
X112000D02*
X114000D01*
X112000Y84600D02*
Y88400D01*
Y84600D02*
X114000D01*
Y88400D01*
X127000D02*
X129000D01*
X127000Y84600D02*
Y88400D01*
Y84600D02*
X129000D01*
Y88400D01*
X142000D02*
X144000D01*
X142000Y84600D02*
Y88400D01*
Y84600D02*
X144000D01*
Y88400D01*
X101000D02*
X103000D01*
X101000Y84600D02*
Y88400D01*
Y84600D02*
X103000D01*
Y88400D01*
X116000D02*
X118000D01*
X116000Y84600D02*
Y88400D01*
Y84600D02*
X118000D01*
Y88400D01*
X131000D02*
X133000D01*
X131000Y84600D02*
Y88400D01*
Y84600D02*
X133000D01*
Y88400D01*
X154000D02*
X156000D01*
X154000Y84600D02*
Y88400D01*
Y84600D02*
X156000D01*
Y88400D01*
X157000D02*
X159000D01*
X157000Y84600D02*
Y88400D01*
Y84600D02*
X159000D01*
Y88400D01*
X146000D02*
X148000D01*
X146000Y84600D02*
Y88400D01*
Y84600D02*
X148000D01*
Y88400D01*
X131000Y28188D02*
X133000D01*
X131000Y24388D02*
Y28188D01*
Y24388D02*
X133000D01*
Y28188D01*
X166174Y30490D02*
X166725D01*
X166174Y31130D02*
X166725D01*
X166174Y30490D02*
Y31130D01*
Y27950D02*
X166725D01*
X166174Y28590D02*
X166725D01*
X166174Y27950D02*
Y28590D01*
Y25410D02*
X166725D01*
X166174Y26050D02*
X166725D01*
X166174Y25410D02*
Y26050D01*
Y22870D02*
X166725D01*
X166174Y23510D02*
X166725D01*
X166174Y22870D02*
Y23510D01*
X162575Y21770D02*
X166725D01*
Y32230D01*
X162575D02*
X166725D01*
X162575Y21770D02*
Y32230D01*
X26559Y52950D02*
X28759D01*
X26559Y50700D02*
X28759D01*
X156540Y79650D02*
X157270D01*
X156540Y79000D02*
Y79650D01*
X158730D02*
X159460D01*
Y79000D02*
Y79650D01*
X47540D02*
X48270D01*
X47540Y79000D02*
Y79650D01*
X49730D02*
X50460D01*
Y79000D02*
Y79650D01*
X32540D02*
X33270D01*
X32540Y79000D02*
Y79650D01*
X34730D02*
X35460D01*
Y79000D02*
Y79650D01*
X17540D02*
X18270D01*
X17540Y79000D02*
Y79650D01*
X19730D02*
X20460D01*
Y79000D02*
Y79650D01*
X40540D02*
X41270D01*
X40540Y79000D02*
Y79650D01*
X42730D02*
X43460D01*
Y79000D02*
Y79650D01*
X25540D02*
X26270D01*
X25540Y79000D02*
Y79650D01*
X27730D02*
X28460D01*
Y79000D02*
Y79650D01*
X10540D02*
X11270D01*
X10540Y79000D02*
Y79650D01*
X12730D02*
X13460D01*
Y79000D02*
Y79650D01*
X51540D02*
X52270D01*
X51540Y79000D02*
Y79650D01*
X53730D02*
X54460D01*
Y79000D02*
Y79650D01*
X36540D02*
X37270D01*
X36540Y79000D02*
Y79650D01*
X38730D02*
X39460D01*
Y79000D02*
Y79650D01*
X92540D02*
X93270D01*
X92540Y79000D02*
Y79650D01*
X94730D02*
X95460D01*
Y79000D02*
Y79650D01*
X77540D02*
X78270D01*
X77540Y79000D02*
Y79650D01*
X79730D02*
X80460D01*
Y79000D02*
Y79650D01*
X62540D02*
X63270D01*
X62540Y79000D02*
Y79650D01*
X64730D02*
X65460D01*
Y79000D02*
Y79650D01*
X85540D02*
X86270D01*
X85540Y79000D02*
Y79650D01*
X87730D02*
X88460D01*
Y79000D02*
Y79650D01*
X70540D02*
X71270D01*
X70540Y79000D02*
Y79650D01*
X72730D02*
X73460D01*
Y79000D02*
Y79650D01*
X55540D02*
X56270D01*
X55540Y79000D02*
Y79650D01*
X57730D02*
X58460D01*
Y79000D02*
Y79650D01*
X96540D02*
X97270D01*
X96540Y79000D02*
Y79650D01*
X98730D02*
X99460D01*
Y79000D02*
Y79650D01*
X81540D02*
X82270D01*
X81540Y79000D02*
Y79650D01*
X83730D02*
X84460D01*
Y79000D02*
Y79650D01*
X66540D02*
X67270D01*
X66540Y79000D02*
Y79650D01*
X68730D02*
X69460D01*
Y79000D02*
Y79650D01*
X137540D02*
X138270D01*
X137540Y79000D02*
Y79650D01*
X139730D02*
X140460D01*
Y79000D02*
Y79650D01*
X122540D02*
X123270D01*
X122540Y79000D02*
Y79650D01*
X124730D02*
X125460D01*
Y79000D02*
Y79650D01*
X107540D02*
X108270D01*
X107540Y79000D02*
Y79650D01*
X109730D02*
X110460D01*
Y79000D02*
Y79650D01*
X130540D02*
X131270D01*
X130540Y79000D02*
Y79650D01*
X132730D02*
X133460D01*
Y79000D02*
Y79650D01*
X115540D02*
X116270D01*
X115540Y79000D02*
Y79650D01*
X117730D02*
X118460D01*
Y79000D02*
Y79650D01*
X100540D02*
X101270D01*
X100540Y79000D02*
Y79650D01*
X102730D02*
X103460D01*
Y79000D02*
Y79650D01*
X141540D02*
X142270D01*
X141540Y79000D02*
Y79650D01*
X143730D02*
X144460D01*
Y79000D02*
Y79650D01*
X126540D02*
X127270D01*
X126540Y79000D02*
Y79650D01*
X128730D02*
X129460D01*
Y79000D02*
Y79650D01*
X111540D02*
X112270D01*
X111540Y79000D02*
Y79650D01*
X113730D02*
X114460D01*
Y79000D02*
Y79650D01*
X152540D02*
X153270D01*
X152540Y79000D02*
Y79650D01*
X154730D02*
X155460D01*
Y79000D02*
Y79650D01*
X145540D02*
X146270D01*
X145540Y79000D02*
Y79650D01*
X147730D02*
X148460D01*
Y79000D02*
Y79650D01*
X136531Y19883D02*
X136198D01*
X136032Y19717D01*
Y19050D01*
X136198Y18884D01*
X136531D01*
X136698Y19050D01*
Y19717D01*
X136531Y19883D01*
X137031D02*
Y19050D01*
X137198Y18884D01*
X137531D01*
X137698Y19050D01*
Y19883D01*
X138031D02*
X138697D01*
X138364D01*
Y18884D01*
X139031Y18717D02*
X139697D01*
X140697Y19883D02*
X140030D01*
Y19384D01*
X140364D01*
X140030D01*
Y18884D01*
X141030Y19883D02*
X141363D01*
X141197D01*
Y18884D01*
X141030D01*
X141363D01*
X141863Y19883D02*
Y18884D01*
X142530D01*
X142863Y19883D02*
X143529D01*
X143196D01*
Y18884D01*
X143862D02*
Y19883D01*
X144362D01*
X144529Y19717D01*
Y19384D01*
X144362Y19217D01*
X143862D01*
X144196D02*
X144529Y18884D01*
X145529Y19883D02*
X144862D01*
Y18884D01*
X145529D01*
X144862Y19384D02*
X145195D01*
X145862Y19883D02*
Y18884D01*
X146362D01*
X146528Y19050D01*
Y19717D01*
X146362Y19883D01*
X145862D01*
X144137Y37755D02*
Y36755D01*
X144637D01*
X144804Y36922D01*
Y37588D01*
X144637Y37755D01*
X144137D01*
X145137D02*
X145470D01*
X145304D01*
Y36755D01*
X145137D01*
X145470D01*
X145970D02*
Y37755D01*
X146637Y36755D01*
Y37755D01*
X134427Y23619D02*
X134260Y23785D01*
X133927D01*
X133760Y23619D01*
Y23452D01*
X133927Y23286D01*
X134260D01*
X134427Y23119D01*
Y22952D01*
X134260Y22786D01*
X133927D01*
X133760Y22952D01*
X134760Y22786D02*
Y23785D01*
X135260D01*
X135426Y23619D01*
Y23286D01*
X135260Y23119D01*
X134760D01*
X135760Y23785D02*
X136093D01*
X135926D01*
Y22786D01*
X135760D01*
X136093D01*
X137259D02*
X136593D01*
X137259Y23452D01*
Y23619D01*
X137093Y23785D01*
X136759D01*
X136593Y23619D01*
X137592Y22619D02*
X138259D01*
X139259Y23619D02*
X139092Y23785D01*
X138759D01*
X138592Y23619D01*
Y23452D01*
X138759Y23286D01*
X139092D01*
X139259Y23119D01*
Y22952D01*
X139092Y22786D01*
X138759D01*
X138592Y22952D01*
X140258Y23619D02*
X140092Y23785D01*
X139758D01*
X139592Y23619D01*
Y22952D01*
X139758Y22786D01*
X140092D01*
X140258Y22952D01*
X140591Y23785D02*
Y22786D01*
Y23119D01*
X141258Y23785D01*
X140758Y23286D01*
X141258Y22786D01*
X139241Y28814D02*
X139074Y28980D01*
X138741D01*
X138575Y28814D01*
Y28647D01*
X138741Y28480D01*
X139074D01*
X139241Y28314D01*
Y28147D01*
X139074Y27980D01*
X138741D01*
X138575Y28147D01*
X139574Y27980D02*
Y28980D01*
X140074D01*
X140241Y28814D01*
Y28480D01*
X140074Y28314D01*
X139574D01*
X140574Y28980D02*
X140907D01*
X140741D01*
Y27980D01*
X140574D01*
X140907D01*
X142074D02*
X141407D01*
X142074Y28647D01*
Y28814D01*
X141907Y28980D01*
X141574D01*
X141407Y28814D01*
X142407Y27814D02*
X143073D01*
X143406Y27980D02*
Y28980D01*
X143740Y28647D01*
X144073Y28980D01*
Y27980D01*
X144406Y28980D02*
X144739D01*
X144573D01*
Y27980D01*
X144406D01*
X144739D01*
X145906Y28814D02*
X145739Y28980D01*
X145406D01*
X145239Y28814D01*
Y28647D01*
X145406Y28480D01*
X145739D01*
X145906Y28314D01*
Y28147D01*
X145739Y27980D01*
X145406D01*
X145239Y28147D01*
X146739Y28980D02*
X146405D01*
X146239Y28814D01*
Y28147D01*
X146405Y27980D01*
X146739D01*
X146905Y28147D01*
Y28814D01*
X146739Y28980D01*
X134660Y33122D02*
X134493Y33289D01*
X134160D01*
X133994Y33122D01*
Y32955D01*
X134160Y32789D01*
X134493D01*
X134660Y32622D01*
Y32456D01*
X134493Y32289D01*
X134160D01*
X133994Y32456D01*
X134993Y32289D02*
Y33289D01*
X135493D01*
X135660Y33122D01*
Y32789D01*
X135493Y32622D01*
X134993D01*
X135993Y33289D02*
X136326D01*
X136160D01*
Y32289D01*
X135993D01*
X136326D01*
X137493D02*
X136826D01*
X137493Y32955D01*
Y33122D01*
X137326Y33289D01*
X136993D01*
X136826Y33122D01*
X137826Y32122D02*
X138492D01*
X139492Y33122D02*
X139325Y33289D01*
X138992D01*
X138825Y33122D01*
Y32955D01*
X138992Y32789D01*
X139325D01*
X139492Y32622D01*
Y32456D01*
X139325Y32289D01*
X138992D01*
X138825Y32456D01*
X140492Y33122D02*
X140325Y33289D01*
X139992D01*
X139825Y33122D01*
Y32955D01*
X139992Y32789D01*
X140325D01*
X140492Y32622D01*
Y32456D01*
X140325Y32289D01*
X139992D01*
X139825Y32456D01*
X60965Y66023D02*
X60299D01*
Y65523D01*
X60632D01*
X60299D01*
Y65023D01*
X61298Y66023D02*
X61965D01*
X61631D01*
Y65023D01*
X62298Y66023D02*
Y65023D01*
X62798D01*
X62964Y65190D01*
Y65856D01*
X62798Y66023D01*
X62298D01*
X63298D02*
X63631D01*
X63464D01*
Y65023D01*
X63298D01*
X63631D01*
X64131Y64856D02*
X64797D01*
X65130Y65023D02*
Y66023D01*
X65630D01*
X65797Y65856D01*
Y65523D01*
X65630Y65356D01*
X65130D01*
X65464D02*
X65797Y65023D01*
X66796Y65856D02*
X66630Y66023D01*
X66297D01*
X66130Y65856D01*
Y65689D01*
X66297Y65523D01*
X66630D01*
X66796Y65356D01*
Y65190D01*
X66630Y65023D01*
X66297D01*
X66130Y65190D01*
X67130Y66023D02*
X67796D01*
X67463D01*
Y65023D01*
X66992Y44833D02*
X66326D01*
Y44333D01*
X66659D01*
X66326D01*
Y43833D01*
X67325Y44833D02*
X67992D01*
X67659D01*
Y43833D01*
X68325Y44833D02*
Y43833D01*
X68825D01*
X68992Y44000D01*
Y44667D01*
X68825Y44833D01*
X68325D01*
X69325D02*
X69658D01*
X69491D01*
Y43833D01*
X69325D01*
X69658D01*
X70158Y43667D02*
X70824D01*
X71158Y44833D02*
X71824D01*
X71491D01*
Y43833D01*
X72157Y44833D02*
X72824Y43833D01*
Y44833D02*
X72157Y43833D01*
X73157Y44833D02*
Y43833D01*
X73657D01*
X73823Y44000D01*
Y44667D01*
X73657Y44833D01*
X73157D01*
X80785Y38433D02*
X80118D01*
Y37933D01*
X80452D01*
X80118D01*
Y37433D01*
X81118Y38433D02*
X81784D01*
X81451D01*
Y37433D01*
X82118Y38433D02*
Y37433D01*
X82617D01*
X82784Y37600D01*
Y38267D01*
X82617Y38433D01*
X82118D01*
X83117D02*
X83451D01*
X83284D01*
Y37433D01*
X83117D01*
X83451D01*
X83950Y37267D02*
X84617D01*
X84950Y37433D02*
Y38433D01*
X85450D01*
X85617Y38267D01*
Y37933D01*
X85450Y37767D01*
X84950D01*
X85283D02*
X85617Y37433D01*
X85950Y38433D02*
X86616Y37433D01*
Y38433D02*
X85950Y37433D01*
X86949Y38433D02*
Y37433D01*
X87449D01*
X87616Y37600D01*
Y38267D01*
X87449Y38433D01*
X86949D01*
X76086Y41845D02*
X75420D01*
Y41345D01*
X75753D01*
X75420D01*
Y40845D01*
X76419Y41845D02*
X77086D01*
X76753D01*
Y40845D01*
X77419Y41845D02*
Y40845D01*
X77919D01*
X78085Y41012D01*
Y41678D01*
X77919Y41845D01*
X77419D01*
X78419D02*
X78752D01*
X78585D01*
Y40845D01*
X78419D01*
X78752D01*
X79252Y40678D02*
X79918D01*
X80918Y41678D02*
X80751Y41845D01*
X80418D01*
X80251Y41678D01*
Y41012D01*
X80418Y40845D01*
X80751D01*
X80918Y41012D01*
X81251Y41845D02*
X81918D01*
X81584D01*
Y40845D01*
X82917Y41678D02*
X82751Y41845D01*
X82417D01*
X82251Y41678D01*
Y41511D01*
X82417Y41345D01*
X82751D01*
X82917Y41178D01*
Y41012D01*
X82751Y40845D01*
X82417D01*
X82251Y41012D01*
X75569Y34126D02*
Y34792D01*
X75902Y35125D01*
X76235Y34792D01*
Y34126D01*
Y34625D01*
X75569D01*
X76569Y35125D02*
Y34292D01*
X76735Y34126D01*
X77068D01*
X77235Y34292D01*
Y35125D01*
X77568D02*
Y34126D01*
X78068D01*
X78235Y34292D01*
Y34959D01*
X78068Y35125D01*
X77568D01*
X78568D02*
X78901D01*
X78735D01*
Y34126D01*
X78568D01*
X78901D01*
X79901Y35125D02*
X79568D01*
X79401Y34959D01*
Y34292D01*
X79568Y34126D01*
X79901D01*
X80067Y34292D01*
Y34959D01*
X79901Y35125D01*
X80401Y33959D02*
X81067D01*
X81400Y35125D02*
X81734D01*
X81567D01*
Y34126D01*
X81400D01*
X81734D01*
X82233D02*
Y35125D01*
X82900Y34126D01*
Y35125D01*
X90246Y15076D02*
X89913D01*
X90080D01*
Y14242D01*
X89913Y14076D01*
X89746D01*
X89580Y14242D01*
X90579Y14076D02*
X90913D01*
X90746D01*
Y15076D01*
X90579Y14909D01*
X91413Y14076D02*
X91746D01*
X91579D01*
Y15076D01*
X91413Y14909D01*
X66544Y59964D02*
Y59131D01*
X66710Y58964D01*
X67043D01*
X67210Y59131D01*
Y59964D01*
X68210Y59797D02*
X68043Y59964D01*
X67710D01*
X67543Y59797D01*
Y59631D01*
X67710Y59464D01*
X68043D01*
X68210Y59297D01*
Y59131D01*
X68043Y58964D01*
X67710D01*
X67543Y59131D01*
X68543Y59964D02*
Y58964D01*
X69043D01*
X69209Y59131D01*
Y59297D01*
X69043Y59464D01*
X68543D01*
X69043D01*
X69209Y59631D01*
Y59797D01*
X69043Y59964D01*
X68543D01*
X70209Y58964D02*
X69543D01*
X70209Y59631D01*
Y59797D01*
X70042Y59964D01*
X69709D01*
X69543Y59797D01*
X70542Y58797D02*
X71209D01*
X71542Y58964D02*
Y59964D01*
X72208Y58964D01*
Y59964D01*
X63208Y55229D02*
Y54396D01*
X63374Y54229D01*
X63707D01*
X63874Y54396D01*
Y55229D01*
X64874Y55062D02*
X64707Y55229D01*
X64374D01*
X64207Y55062D01*
Y54896D01*
X64374Y54729D01*
X64707D01*
X64874Y54563D01*
Y54396D01*
X64707Y54229D01*
X64374D01*
X64207Y54396D01*
X65207Y55229D02*
Y54229D01*
X65707D01*
X65873Y54396D01*
Y54563D01*
X65707Y54729D01*
X65207D01*
X65707D01*
X65873Y54896D01*
Y55062D01*
X65707Y55229D01*
X65207D01*
X66873Y54229D02*
X66207D01*
X66873Y54896D01*
Y55062D01*
X66706Y55229D01*
X66373D01*
X66207Y55062D01*
X67206Y54063D02*
X67873D01*
X68206Y54229D02*
Y55229D01*
X68706D01*
X68872Y55062D01*
Y54729D01*
X68706Y54563D01*
X68206D01*
X11843Y51960D02*
Y51127D01*
X12009Y50961D01*
X12343D01*
X12509Y51127D01*
Y51960D01*
X13509Y51794D02*
X13342Y51960D01*
X13009D01*
X12843Y51794D01*
Y51627D01*
X13009Y51460D01*
X13342D01*
X13509Y51294D01*
Y51127D01*
X13342Y50961D01*
X13009D01*
X12843Y51127D01*
X13842Y51960D02*
Y50961D01*
X14342D01*
X14509Y51127D01*
Y51294D01*
X14342Y51460D01*
X13842D01*
X14342D01*
X14509Y51627D01*
Y51794D01*
X14342Y51960D01*
X13842D01*
X14842Y50961D02*
X15175D01*
X15008D01*
Y51960D01*
X14842Y51794D01*
X15675Y50794D02*
X16341D01*
X16675Y50961D02*
Y51960D01*
X17341Y50961D01*
Y51960D01*
X6063Y68748D02*
Y67749D01*
X6730D01*
X7729Y68748D02*
X7063D01*
Y67749D01*
X7729D01*
X7063Y68248D02*
X7396D01*
X8062Y68748D02*
Y67749D01*
X8562D01*
X8729Y67915D01*
Y68582D01*
X8562Y68748D01*
X8062D01*
X9062Y68582D02*
X9229Y68748D01*
X9562D01*
X9729Y68582D01*
Y67915D01*
X9562Y67749D01*
X9229D01*
X9062Y67915D01*
Y68582D01*
X10062Y67582D02*
X10728D01*
X11061Y68748D02*
Y68582D01*
X11395Y68248D01*
X11728Y68582D01*
Y68748D01*
X11395Y68248D02*
Y67749D01*
X20939Y68854D02*
Y67855D01*
X21606D01*
X22605Y68854D02*
X21939D01*
Y67855D01*
X22605D01*
X21939Y68355D02*
X22272D01*
X22939Y68854D02*
Y67855D01*
X23438D01*
X23605Y68021D01*
Y68688D01*
X23438Y68854D01*
X22939D01*
X23938Y68688D02*
X24105Y68854D01*
X24438D01*
X24605Y68688D01*
Y68021D01*
X24438Y67855D01*
X24105D01*
X23938Y68021D01*
Y68688D01*
X24938Y67688D02*
X25604D01*
X25938Y67855D02*
Y68854D01*
X26437D01*
X26604Y68688D01*
Y68355D01*
X26437Y68188D01*
X25938D01*
X26271D02*
X26604Y67855D01*
X13467Y68877D02*
Y67877D01*
X14133D01*
X15133Y68877D02*
X14466D01*
Y67877D01*
X15133D01*
X14466Y68377D02*
X14799D01*
X15466Y68877D02*
Y67877D01*
X15966D01*
X16132Y68044D01*
Y68710D01*
X15966Y68877D01*
X15466D01*
X16466Y68710D02*
X16632Y68877D01*
X16965D01*
X17132Y68710D01*
Y68044D01*
X16965Y67877D01*
X16632D01*
X16466Y68044D01*
Y68710D01*
X17465Y67711D02*
X18132D01*
X19131Y68710D02*
X18965Y68877D01*
X18632D01*
X18465Y68710D01*
Y68044D01*
X18632Y67877D01*
X18965D01*
X19131Y68044D01*
Y68377D01*
X18798D01*
X12340Y61008D02*
Y60175D01*
X12507Y60008D01*
X12840D01*
X13007Y60175D01*
Y61008D01*
X14006Y60842D02*
X13840Y61008D01*
X13507D01*
X13340Y60842D01*
Y60675D01*
X13507Y60508D01*
X13840D01*
X14006Y60342D01*
Y60175D01*
X13840Y60008D01*
X13507D01*
X13340Y60175D01*
X14340Y61008D02*
Y60008D01*
X14840D01*
X15006Y60175D01*
Y60342D01*
X14840Y60508D01*
X14340D01*
X14840D01*
X15006Y60675D01*
Y60842D01*
X14840Y61008D01*
X14340D01*
X15339Y60008D02*
X15673D01*
X15506D01*
Y61008D01*
X15339Y60842D01*
X16172Y59842D02*
X16839D01*
X17172Y60008D02*
Y61008D01*
X17672D01*
X17839Y60842D01*
Y60508D01*
X17672Y60342D01*
X17172D01*
X98768Y34692D02*
X98602Y34858D01*
X98268D01*
X98102Y34692D01*
Y34525D01*
X98268Y34358D01*
X98602D01*
X98768Y34192D01*
Y34025D01*
X98602Y33859D01*
X98268D01*
X98102Y34025D01*
X99101Y34525D02*
Y34025D01*
X99268Y33859D01*
X99768D01*
Y33692D01*
X99601Y33525D01*
X99435D01*
X99768Y33859D02*
Y34525D01*
X100101Y33859D02*
Y34525D01*
X100601D01*
X100767Y34358D01*
Y33859D01*
X101767Y34525D02*
X101267D01*
X101101Y34358D01*
Y34025D01*
X101267Y33859D01*
X101767D01*
X102100Y34858D02*
Y33859D01*
Y34358D01*
X102267Y34525D01*
X102600D01*
X102767Y34358D01*
Y33859D01*
X103100Y34525D02*
Y33859D01*
Y34192D01*
X103267Y34358D01*
X103433Y34525D01*
X103600D01*
X104266Y33859D02*
X104600D01*
X104766Y34025D01*
Y34358D01*
X104600Y34525D01*
X104266D01*
X104100Y34358D01*
Y34025D01*
X104266Y33859D01*
X105099Y33692D02*
X105766D01*
X106099Y34858D02*
Y33859D01*
X106599D01*
X106766Y34025D01*
Y34692D01*
X106599Y34858D01*
X106099D01*
X107265Y34525D02*
X107599D01*
X107765Y34358D01*
Y33859D01*
X107265D01*
X107099Y34025D01*
X107265Y34192D01*
X107765D01*
X108265Y34692D02*
Y34525D01*
X108098D01*
X108432D01*
X108265D01*
Y34025D01*
X108432Y33859D01*
X109098Y34525D02*
X109431D01*
X109598Y34358D01*
Y33859D01*
X109098D01*
X108932Y34025D01*
X109098Y34192D01*
X109598D01*
X109931Y33692D02*
X110598D01*
X110931Y34858D02*
Y33859D01*
X111431D01*
X111597Y34025D01*
Y34692D01*
X111431Y34858D01*
X110931D01*
X111931Y33859D02*
Y34525D01*
X112264Y34858D01*
X112597Y34525D01*
Y33859D01*
Y34358D01*
X111931D01*
X113597Y34692D02*
X113430Y34858D01*
X113097D01*
X112930Y34692D01*
Y34025D01*
X113097Y33859D01*
X113430D01*
X113597Y34025D01*
X106090Y26705D02*
X105924Y26871D01*
X105590D01*
X105424Y26705D01*
Y26538D01*
X105590Y26372D01*
X105924D01*
X106090Y26205D01*
Y26038D01*
X105924Y25872D01*
X105590D01*
X105424Y26038D01*
X106423Y25872D02*
Y26871D01*
X106923D01*
X107090Y26705D01*
Y26372D01*
X106923Y26205D01*
X106423D01*
X107423Y26871D02*
X107756D01*
X107590D01*
Y25872D01*
X107423D01*
X107756D01*
X108256D02*
X108589D01*
X108423D01*
Y26871D01*
X108256Y26705D01*
X109089Y25705D02*
X109756D01*
X110755Y26705D02*
X110589Y26871D01*
X110256D01*
X110089Y26705D01*
Y26038D01*
X110256Y25872D01*
X110589D01*
X110755Y26038D01*
X111089Y26871D02*
Y25872D01*
X111755D01*
X112088Y26871D02*
Y25872D01*
Y26205D01*
X112755Y26871D01*
X112255Y26372D01*
X112755Y25872D01*
X100816Y30809D02*
X100649Y30975D01*
X100316D01*
X100149Y30809D01*
Y30642D01*
X100316Y30476D01*
X100649D01*
X100816Y30309D01*
Y30142D01*
X100649Y29976D01*
X100316D01*
X100149Y30142D01*
X101149Y29976D02*
Y30975D01*
X101649D01*
X101815Y30809D01*
Y30476D01*
X101649Y30309D01*
X101149D01*
X102149Y30975D02*
X102482D01*
X102315D01*
Y29976D01*
X102149D01*
X102482D01*
X102982D02*
X103315D01*
X103148D01*
Y30975D01*
X102982Y30809D01*
X103815Y29809D02*
X104481D01*
X104814Y29976D02*
Y30975D01*
X105148Y30642D01*
X105481Y30975D01*
Y29976D01*
X106314Y30975D02*
X105981D01*
X105814Y30809D01*
Y30142D01*
X105981Y29976D01*
X106314D01*
X106480Y30142D01*
Y30809D01*
X106314Y30975D01*
X107480Y30809D02*
X107314Y30975D01*
X106980D01*
X106814Y30809D01*
Y30642D01*
X106980Y30476D01*
X107314D01*
X107480Y30309D01*
Y30142D01*
X107314Y29976D01*
X106980D01*
X106814Y30142D01*
X107813Y30975D02*
X108147D01*
X107980D01*
Y29976D01*
X107813D01*
X108147D01*
X38833Y46183D02*
X38667Y46350D01*
X38334D01*
X38167Y46183D01*
Y45517D01*
X38334Y45350D01*
X38667D01*
X38833Y45517D01*
X39833Y46350D02*
X39500Y46183D01*
X39167Y45850D01*
Y45517D01*
X39333Y45350D01*
X39666D01*
X39833Y45517D01*
Y45683D01*
X39666Y45850D01*
X39167D01*
X95092Y60155D02*
Y59322D01*
X95259Y59155D01*
X95592D01*
X95758Y59322D01*
Y60155D01*
X96758Y59155D02*
X96092D01*
X96758Y59822D01*
Y59989D01*
X96591Y60155D01*
X96258D01*
X96092Y59989D01*
X24334Y40500D02*
Y39667D01*
X24500Y39500D01*
X24833D01*
X25000Y39667D01*
Y40500D01*
X25333Y39500D02*
X25666D01*
X25500D01*
Y40500D01*
X25333Y40333D01*
X130299Y25125D02*
X129300D01*
Y25625D01*
X129466Y25791D01*
X129800D01*
X129966Y25625D01*
Y25125D01*
Y25458D02*
X130299Y25791D01*
X129466Y26125D02*
X129300Y26291D01*
Y26624D01*
X129466Y26791D01*
X129633D01*
X129800Y26624D01*
Y26458D01*
Y26624D01*
X129966Y26791D01*
X130133D01*
X130299Y26624D01*
Y26291D01*
X130133Y26125D01*
X129300Y27791D02*
X129466Y27457D01*
X129800Y27124D01*
X130133D01*
X130299Y27291D01*
Y27624D01*
X130133Y27791D01*
X129966D01*
X129800Y27624D01*
Y27124D01*
X106058Y55505D02*
X105058D01*
Y56005D01*
X105225Y56172D01*
X105558D01*
X105725Y56005D01*
Y55505D01*
Y55839D02*
X106058Y56172D01*
X105225Y56505D02*
X105058Y56672D01*
Y57005D01*
X105225Y57172D01*
X105392D01*
X105558Y57005D01*
Y56838D01*
Y57005D01*
X105725Y57172D01*
X105891D01*
X106058Y57005D01*
Y56672D01*
X105891Y56505D01*
X105058Y58171D02*
Y57505D01*
X105558D01*
X105392Y57838D01*
Y58005D01*
X105558Y58171D01*
X105891D01*
X106058Y58005D01*
Y57671D01*
X105891Y57505D01*
X114323Y66755D02*
X113323D01*
Y67255D01*
X113490Y67422D01*
X113823D01*
X113990Y67255D01*
Y66755D01*
Y67089D02*
X114323Y67422D01*
X113490Y67755D02*
X113323Y67922D01*
Y68255D01*
X113490Y68422D01*
X113656D01*
X113823Y68255D01*
Y68088D01*
Y68255D01*
X113990Y68422D01*
X114156D01*
X114323Y68255D01*
Y67922D01*
X114156Y67755D01*
X114323Y69255D02*
X113323D01*
X113823Y68755D01*
Y69421D01*
X146500Y92333D02*
X147500D01*
Y91833D01*
X147333Y91666D01*
X147000D01*
X146833Y91833D01*
Y92333D01*
Y92000D02*
X146500Y91666D01*
X147333Y91333D02*
X147500Y91167D01*
Y90833D01*
X147333Y90667D01*
X147167D01*
X147000Y90833D01*
Y91000D01*
Y90833D01*
X146833Y90667D01*
X146667D01*
X146500Y90833D01*
Y91167D01*
X146667Y91333D01*
X147333Y90334D02*
X147500Y90167D01*
Y89834D01*
X147333Y89667D01*
X147167D01*
X147000Y89834D01*
Y90000D01*
Y89834D01*
X146833Y89667D01*
X146667D01*
X146500Y89834D01*
Y90167D01*
X146667Y90334D01*
X157500Y92333D02*
X158500D01*
Y91833D01*
X158333Y91666D01*
X158000D01*
X157833Y91833D01*
Y92333D01*
Y92000D02*
X157500Y91666D01*
X158333Y91333D02*
X158500Y91167D01*
Y90833D01*
X158333Y90667D01*
X158167D01*
X158000Y90833D01*
Y91000D01*
Y90833D01*
X157833Y90667D01*
X157667D01*
X157500Y90833D01*
Y91167D01*
X157667Y91333D01*
X157500Y89667D02*
Y90334D01*
X158167Y89667D01*
X158333D01*
X158500Y89834D01*
Y90167D01*
X158333Y90334D01*
X154450Y92166D02*
X155450D01*
Y91666D01*
X155283Y91500D01*
X154950D01*
X154783Y91666D01*
Y92166D01*
Y91833D02*
X154450Y91500D01*
X155283Y91167D02*
X155450Y91000D01*
Y90667D01*
X155283Y90500D01*
X155117D01*
X154950Y90667D01*
Y90833D01*
Y90667D01*
X154783Y90500D01*
X154617D01*
X154450Y90667D01*
Y91000D01*
X154617Y91167D01*
X154450Y90167D02*
Y89834D01*
Y90000D01*
X155450D01*
X155283Y90167D01*
X131500Y92333D02*
X132500D01*
Y91833D01*
X132333Y91666D01*
X132000D01*
X131833Y91833D01*
Y92333D01*
Y92000D02*
X131500Y91666D01*
X132333Y91333D02*
X132500Y91167D01*
Y90833D01*
X132333Y90667D01*
X132167D01*
X132000Y90833D01*
Y91000D01*
Y90833D01*
X131833Y90667D01*
X131667D01*
X131500Y90833D01*
Y91167D01*
X131667Y91333D01*
X132333Y90334D02*
X132500Y90167D01*
Y89834D01*
X132333Y89667D01*
X131667D01*
X131500Y89834D01*
Y90167D01*
X131667Y90334D01*
X132333D01*
X116500Y92333D02*
X117500D01*
Y91833D01*
X117333Y91666D01*
X117000D01*
X116833Y91833D01*
Y92333D01*
Y92000D02*
X116500Y91666D01*
Y90667D02*
Y91333D01*
X117167Y90667D01*
X117333D01*
X117500Y90833D01*
Y91167D01*
X117333Y91333D01*
X116667Y90334D02*
X116500Y90167D01*
Y89834D01*
X116667Y89667D01*
X117333D01*
X117500Y89834D01*
Y90167D01*
X117333Y90334D01*
X117167D01*
X117000Y90167D01*
Y89667D01*
X101500Y92333D02*
X102500D01*
Y91833D01*
X102333Y91666D01*
X102000D01*
X101833Y91833D01*
Y92333D01*
Y92000D02*
X101500Y91666D01*
Y90667D02*
Y91333D01*
X102167Y90667D01*
X102333D01*
X102500Y90833D01*
Y91167D01*
X102333Y91333D01*
Y90334D02*
X102500Y90167D01*
Y89834D01*
X102333Y89667D01*
X102167D01*
X102000Y89834D01*
X101833Y89667D01*
X101667D01*
X101500Y89834D01*
Y90167D01*
X101667Y90334D01*
X101833D01*
X102000Y90167D01*
X102167Y90334D01*
X102333D01*
X102000Y90167D02*
Y89834D01*
X142500Y92333D02*
X143500D01*
Y91833D01*
X143333Y91666D01*
X143000D01*
X142833Y91833D01*
Y92333D01*
Y92000D02*
X142500Y91666D01*
Y90667D02*
Y91333D01*
X143167Y90667D01*
X143333D01*
X143500Y90833D01*
Y91167D01*
X143333Y91333D01*
X143500Y90334D02*
Y89667D01*
X143333D01*
X142667Y90334D01*
X142500D01*
X127500Y92333D02*
X128500D01*
Y91833D01*
X128333Y91666D01*
X128000D01*
X127833Y91833D01*
Y92333D01*
Y92000D02*
X127500Y91666D01*
Y90667D02*
Y91333D01*
X128167Y90667D01*
X128333D01*
X128500Y90833D01*
Y91167D01*
X128333Y91333D01*
X128500Y89667D02*
X128333Y90000D01*
X128000Y90334D01*
X127667D01*
X127500Y90167D01*
Y89834D01*
X127667Y89667D01*
X127833D01*
X128000Y89834D01*
Y90334D01*
X112500Y92333D02*
X113500D01*
Y91833D01*
X113333Y91666D01*
X113000D01*
X112833Y91833D01*
Y92333D01*
Y92000D02*
X112500Y91666D01*
Y90667D02*
Y91333D01*
X113167Y90667D01*
X113333D01*
X113500Y90833D01*
Y91167D01*
X113333Y91333D01*
X113500Y89667D02*
Y90334D01*
X113000D01*
X113167Y90000D01*
Y89834D01*
X113000Y89667D01*
X112667D01*
X112500Y89834D01*
Y90167D01*
X112667Y90334D01*
X139500Y92333D02*
X140500D01*
Y91833D01*
X140333Y91666D01*
X140000D01*
X139833Y91833D01*
Y92333D01*
Y92000D02*
X139500Y91666D01*
Y90667D02*
Y91333D01*
X140167Y90667D01*
X140333D01*
X140500Y90833D01*
Y91167D01*
X140333Y91333D01*
X139500Y89834D02*
X140500D01*
X140000Y90334D01*
Y89667D01*
X124500Y92333D02*
X125500D01*
Y91833D01*
X125333Y91666D01*
X125000D01*
X124833Y91833D01*
Y92333D01*
Y92000D02*
X124500Y91666D01*
Y90667D02*
Y91333D01*
X125167Y90667D01*
X125333D01*
X125500Y90833D01*
Y91167D01*
X125333Y91333D01*
Y90334D02*
X125500Y90167D01*
Y89834D01*
X125333Y89667D01*
X125167D01*
X125000Y89834D01*
Y90000D01*
Y89834D01*
X124833Y89667D01*
X124667D01*
X124500Y89834D01*
Y90167D01*
X124667Y90334D01*
X109450Y92333D02*
X110450D01*
Y91833D01*
X110283Y91666D01*
X109950D01*
X109783Y91833D01*
Y92333D01*
Y92000D02*
X109450Y91666D01*
Y90667D02*
Y91333D01*
X110117Y90667D01*
X110283D01*
X110450Y90833D01*
Y91167D01*
X110283Y91333D01*
X109450Y89667D02*
Y90334D01*
X110117Y89667D01*
X110283D01*
X110450Y89834D01*
Y90167D01*
X110283Y90334D01*
X86500Y92166D02*
X87500D01*
Y91666D01*
X87333Y91500D01*
X87000D01*
X86833Y91666D01*
Y92166D01*
Y91833D02*
X86500Y91500D01*
Y90500D02*
Y91167D01*
X87167Y90500D01*
X87333D01*
X87500Y90667D01*
Y91000D01*
X87333Y91167D01*
X86500Y90167D02*
Y89834D01*
Y90000D01*
X87500D01*
X87333Y90167D01*
X71500Y92333D02*
X72500D01*
Y91833D01*
X72333Y91666D01*
X72000D01*
X71833Y91833D01*
Y92333D01*
Y92000D02*
X71500Y91666D01*
Y90667D02*
Y91333D01*
X72167Y90667D01*
X72333D01*
X72500Y90833D01*
Y91167D01*
X72333Y91333D01*
Y90334D02*
X72500Y90167D01*
Y89834D01*
X72333Y89667D01*
X71667D01*
X71500Y89834D01*
Y90167D01*
X71667Y90334D01*
X72333D01*
X56500Y92250D02*
X57500D01*
Y91750D01*
X57333Y91583D01*
X57000D01*
X56833Y91750D01*
Y92250D01*
Y91916D02*
X56500Y91583D01*
Y91250D02*
Y90917D01*
Y91083D01*
X57500D01*
X57333Y91250D01*
X56667Y90417D02*
X56500Y90250D01*
Y89917D01*
X56667Y89750D01*
X57333D01*
X57500Y89917D01*
Y90250D01*
X57333Y90417D01*
X57167D01*
X57000Y90250D01*
Y89750D01*
X97500Y92250D02*
X98500D01*
Y91750D01*
X98333Y91583D01*
X98000D01*
X97833Y91750D01*
Y92250D01*
Y91916D02*
X97500Y91583D01*
Y91250D02*
Y90917D01*
Y91083D01*
X98500D01*
X98333Y91250D01*
Y90417D02*
X98500Y90250D01*
Y89917D01*
X98333Y89750D01*
X98167D01*
X98000Y89917D01*
X97833Y89750D01*
X97667D01*
X97500Y89917D01*
Y90250D01*
X97667Y90417D01*
X97833D01*
X98000Y90250D01*
X98167Y90417D01*
X98333D01*
X98000Y90250D02*
Y89917D01*
X82500Y92250D02*
X83500D01*
Y91750D01*
X83333Y91583D01*
X83000D01*
X82833Y91750D01*
Y92250D01*
Y91916D02*
X82500Y91583D01*
Y91250D02*
Y90917D01*
Y91083D01*
X83500D01*
X83333Y91250D01*
X83500Y90417D02*
Y89750D01*
X83333D01*
X82667Y90417D01*
X82500D01*
X67500Y92250D02*
X68500D01*
Y91750D01*
X68333Y91583D01*
X68000D01*
X67833Y91750D01*
Y92250D01*
Y91916D02*
X67500Y91583D01*
Y91250D02*
Y90917D01*
Y91083D01*
X68500D01*
X68333Y91250D01*
X68500Y89750D02*
X68333Y90084D01*
X68000Y90417D01*
X67667D01*
X67500Y90250D01*
Y89917D01*
X67667Y89750D01*
X67833D01*
X68000Y89917D01*
Y90417D01*
X94450Y92250D02*
X95450D01*
Y91750D01*
X95283Y91583D01*
X94950D01*
X94783Y91750D01*
Y92250D01*
Y91916D02*
X94450Y91583D01*
Y91250D02*
Y90917D01*
Y91083D01*
X95450D01*
X95283Y91250D01*
X95450Y89750D02*
Y90417D01*
X94950D01*
X95117Y90084D01*
Y89917D01*
X94950Y89750D01*
X94617D01*
X94450Y89917D01*
Y90250D01*
X94617Y90417D01*
X79450Y92250D02*
X80450D01*
Y91750D01*
X80283Y91583D01*
X79950D01*
X79783Y91750D01*
Y92250D01*
Y91916D02*
X79450Y91583D01*
Y91250D02*
Y90917D01*
Y91083D01*
X80450D01*
X80283Y91250D01*
X79450Y89917D02*
X80450D01*
X79950Y90417D01*
Y89750D01*
X64450Y92250D02*
X65450D01*
Y91750D01*
X65283Y91583D01*
X64950D01*
X64783Y91750D01*
Y92250D01*
Y91916D02*
X64450Y91583D01*
Y91250D02*
Y90917D01*
Y91083D01*
X65450D01*
X65283Y91250D01*
Y90417D02*
X65450Y90250D01*
Y89917D01*
X65283Y89750D01*
X65117D01*
X64950Y89917D01*
Y90084D01*
Y89917D01*
X64783Y89750D01*
X64617D01*
X64450Y89917D01*
Y90250D01*
X64617Y90417D01*
X41500Y92250D02*
X42500D01*
Y91750D01*
X42333Y91583D01*
X42000D01*
X41833Y91750D01*
Y92250D01*
Y91916D02*
X41500Y91583D01*
Y91250D02*
Y90917D01*
Y91083D01*
X42500D01*
X42333Y91250D01*
X41500Y89750D02*
Y90417D01*
X42167Y89750D01*
X42333D01*
X42500Y89917D01*
Y90250D01*
X42333Y90417D01*
X26500Y91583D02*
X27500D01*
Y91083D01*
X27333Y90917D01*
X27000D01*
X26833Y91083D01*
Y91583D01*
Y91250D02*
X26500Y90917D01*
Y90583D02*
Y90250D01*
Y90417D01*
X27500D01*
X27333Y90583D01*
X26500Y89750D02*
Y89417D01*
Y89584D01*
X27500D01*
X27333Y89750D01*
X11500Y92250D02*
X12500D01*
Y91750D01*
X12333Y91583D01*
X12000D01*
X11833Y91750D01*
Y92250D01*
Y91916D02*
X11500Y91583D01*
Y91250D02*
Y90917D01*
Y91083D01*
X12500D01*
X12333Y91250D01*
Y90417D02*
X12500Y90250D01*
Y89917D01*
X12333Y89750D01*
X11667D01*
X11500Y89917D01*
Y90250D01*
X11667Y90417D01*
X12333D01*
X52500Y91333D02*
X53500D01*
Y90833D01*
X53333Y90667D01*
X53000D01*
X52833Y90833D01*
Y91333D01*
Y91000D02*
X52500Y90667D01*
X52667Y90333D02*
X52500Y90167D01*
Y89834D01*
X52667Y89667D01*
X53333D01*
X53500Y89834D01*
Y90167D01*
X53333Y90333D01*
X53167D01*
X53000Y90167D01*
Y89667D01*
X37500Y91333D02*
X38500D01*
Y90833D01*
X38333Y90667D01*
X38000D01*
X37833Y90833D01*
Y91333D01*
Y91000D02*
X37500Y90667D01*
X38333Y90333D02*
X38500Y90167D01*
Y89834D01*
X38333Y89667D01*
X38167D01*
X38000Y89834D01*
X37833Y89667D01*
X37667D01*
X37500Y89834D01*
Y90167D01*
X37667Y90333D01*
X37833D01*
X38000Y90167D01*
X38167Y90333D01*
X38333D01*
X38000Y90167D02*
Y89834D01*
X22500Y91333D02*
X23500D01*
Y90833D01*
X23333Y90667D01*
X23000D01*
X22833Y90833D01*
Y91333D01*
Y91000D02*
X22500Y90667D01*
X23500Y90333D02*
Y89667D01*
X23333D01*
X22667Y90333D01*
X22500D01*
X49450Y91333D02*
X50450D01*
Y90833D01*
X50283Y90667D01*
X49950D01*
X49783Y90833D01*
Y91333D01*
Y91000D02*
X49450Y90667D01*
X50450Y89667D02*
X50283Y90000D01*
X49950Y90333D01*
X49617D01*
X49450Y90167D01*
Y89834D01*
X49617Y89667D01*
X49783D01*
X49950Y89834D01*
Y90333D01*
X34500Y91333D02*
X35500D01*
Y90833D01*
X35333Y90667D01*
X35000D01*
X34833Y90833D01*
Y91333D01*
Y91000D02*
X34500Y90667D01*
X35500Y89667D02*
Y90333D01*
X35000D01*
X35167Y90000D01*
Y89834D01*
X35000Y89667D01*
X34667D01*
X34500Y89834D01*
Y90167D01*
X34667Y90333D01*
X19500Y91333D02*
X20500D01*
Y90833D01*
X20333Y90667D01*
X20000D01*
X19833Y90833D01*
Y91333D01*
Y91000D02*
X19500Y90667D01*
Y89834D02*
X20500D01*
X20000Y90333D01*
Y89667D01*
X43667Y57000D02*
Y58000D01*
X44167D01*
X44333Y57833D01*
Y57500D01*
X44167Y57333D01*
X43667D01*
X44000D02*
X44333Y57000D01*
X44667Y57833D02*
X44833Y58000D01*
X45166D01*
X45333Y57833D01*
Y57667D01*
X45166Y57500D01*
X45000D01*
X45166D01*
X45333Y57333D01*
Y57167D01*
X45166Y57000D01*
X44833D01*
X44667Y57167D01*
X3681Y42305D02*
X2681D01*
Y42804D01*
X2848Y42971D01*
X3181D01*
X3347Y42804D01*
Y42305D01*
Y42638D02*
X3681Y42971D01*
Y43971D02*
Y43304D01*
X3014Y43971D01*
X2848D01*
X2681Y43804D01*
Y43471D01*
X2848Y43304D01*
X8781Y61770D02*
X7781D01*
Y62270D01*
X7948Y62437D01*
X8281D01*
X8448Y62270D01*
Y61770D01*
Y62104D02*
X8781Y62437D01*
Y62770D02*
Y63103D01*
Y62937D01*
X7781D01*
X7948Y62770D01*
X121051Y1460D02*
Y2460D01*
X121551D01*
X121718Y2293D01*
Y1960D01*
X121551Y1793D01*
X121051D01*
X122551Y1460D02*
Y2460D01*
X122051Y1960D01*
X122717D01*
X120234Y67253D02*
Y68253D01*
X120734D01*
X120900Y68087D01*
Y67753D01*
X120734Y67587D01*
X120234D01*
X121233Y68087D02*
X121400Y68253D01*
X121733D01*
X121900Y68087D01*
Y67920D01*
X121733Y67753D01*
X121567D01*
X121733D01*
X121900Y67587D01*
Y67420D01*
X121733Y67253D01*
X121400D01*
X121233Y67420D01*
X23943Y783D02*
Y1783D01*
X24443D01*
X24610Y1616D01*
Y1283D01*
X24443Y1116D01*
X23943D01*
X25609Y783D02*
X24943D01*
X25609Y1450D01*
Y1616D01*
X25443Y1783D01*
X25109D01*
X24943Y1616D01*
X50213Y18850D02*
Y19850D01*
X50713D01*
X50879Y19684D01*
Y19350D01*
X50713Y19184D01*
X50213D01*
X51213Y18850D02*
X51546D01*
X51379D01*
Y19850D01*
X51213Y19684D01*
X53584Y45000D02*
Y44000D01*
X54250D01*
X54583D02*
X54916D01*
X54750D01*
Y45000D01*
X54583Y44833D01*
X126793Y28897D02*
X126627Y28730D01*
Y28397D01*
X126793Y28230D01*
X127460D01*
X127626Y28397D01*
Y28730D01*
X127460Y28897D01*
X127626Y29896D02*
Y29230D01*
X126960Y29896D01*
X126793D01*
X126627Y29730D01*
Y29396D01*
X126793Y29230D01*
X126627Y30896D02*
Y30229D01*
X127126D01*
X126960Y30563D01*
Y30729D01*
X127126Y30896D01*
X127460D01*
X127626Y30729D01*
Y30396D01*
X127460Y30229D01*
X124590Y17127D02*
X124423Y16960D01*
Y16627D01*
X124590Y16461D01*
X125256D01*
X125423Y16627D01*
Y16960D01*
X125256Y17127D01*
X125423Y18127D02*
Y17460D01*
X124757Y18127D01*
X124590D01*
X124423Y17960D01*
Y17627D01*
X124590Y17460D01*
X125423Y18960D02*
X124423D01*
X124923Y18460D01*
Y19126D01*
X120789Y17156D02*
X120623Y16989D01*
Y16656D01*
X120789Y16489D01*
X121456D01*
X121622Y16656D01*
Y16989D01*
X121456Y17156D01*
X121622Y18156D02*
Y17489D01*
X120956Y18156D01*
X120789D01*
X120623Y17989D01*
Y17656D01*
X120789Y17489D01*
Y18489D02*
X120623Y18655D01*
Y18989D01*
X120789Y19155D01*
X120956D01*
X121122Y18989D01*
Y18822D01*
Y18989D01*
X121289Y19155D01*
X121456D01*
X121622Y18989D01*
Y18655D01*
X121456Y18489D01*
X69478Y69933D02*
X69312Y70100D01*
X68978D01*
X68812Y69933D01*
Y69267D01*
X68978Y69100D01*
X69312D01*
X69478Y69267D01*
X70478Y69100D02*
X69811D01*
X70478Y69767D01*
Y69933D01*
X70311Y70100D01*
X69978D01*
X69811Y69933D01*
X71478Y69100D02*
X70811D01*
X71478Y69767D01*
Y69933D01*
X71311Y70100D01*
X70978D01*
X70811Y69933D01*
X94500Y67224D02*
X94334Y67391D01*
X94000D01*
X93834Y67224D01*
Y66558D01*
X94000Y66391D01*
X94334D01*
X94500Y66558D01*
X95500Y66391D02*
X94833D01*
X95500Y67058D01*
Y67224D01*
X95333Y67391D01*
X95000D01*
X94833Y67224D01*
X95833Y66391D02*
X96166D01*
X96000D01*
Y67391D01*
X95833Y67224D01*
X103222Y66746D02*
X103056Y66579D01*
Y66246D01*
X103222Y66079D01*
X103889D01*
X104056Y66246D01*
Y66579D01*
X103889Y66746D01*
X104056Y67745D02*
Y67079D01*
X103389Y67745D01*
X103222D01*
X103056Y67579D01*
Y67246D01*
X103222Y67079D01*
Y68079D02*
X103056Y68245D01*
Y68579D01*
X103222Y68745D01*
X103889D01*
X104056Y68579D01*
Y68245D01*
X103889Y68079D01*
X103222D01*
X91917Y43833D02*
X91750Y44000D01*
X91417D01*
X91250Y43833D01*
Y43167D01*
X91417Y43000D01*
X91750D01*
X91917Y43167D01*
X92250Y43000D02*
X92583D01*
X92417D01*
Y44000D01*
X92250Y43833D01*
X93083D02*
X93250Y44000D01*
X93583D01*
X93750Y43833D01*
Y43667D01*
X93583Y43500D01*
X93750Y43333D01*
Y43167D01*
X93583Y43000D01*
X93250D01*
X93083Y43167D01*
Y43333D01*
X93250Y43500D01*
X93083Y43667D01*
Y43833D01*
X93250Y43500D02*
X93583D01*
X82417Y43833D02*
X82250Y44000D01*
X81917D01*
X81750Y43833D01*
Y43167D01*
X81917Y43000D01*
X82250D01*
X82417Y43167D01*
X82750Y43000D02*
X83083D01*
X82917D01*
Y44000D01*
X82750Y43833D01*
X83583Y44000D02*
X84250D01*
Y43833D01*
X83583Y43167D01*
Y43000D01*
X72928Y54333D02*
X72761Y54500D01*
X72428D01*
X72261Y54333D01*
Y53667D01*
X72428Y53500D01*
X72761D01*
X72928Y53667D01*
X73261Y53500D02*
X73594D01*
X73427D01*
Y54500D01*
X73261Y54333D01*
X74760Y54500D02*
X74427Y54333D01*
X74094Y54000D01*
Y53667D01*
X74261Y53500D01*
X74594D01*
X74760Y53667D01*
Y53833D01*
X74594Y54000D01*
X74094D01*
X76858Y59103D02*
X76691Y59270D01*
X76358D01*
X76191Y59103D01*
Y58437D01*
X76358Y58270D01*
X76691D01*
X76858Y58437D01*
X77191Y58270D02*
X77524D01*
X77357D01*
Y59270D01*
X77191Y59103D01*
X78690Y59270D02*
X78024D01*
Y58770D01*
X78357Y58937D01*
X78524D01*
X78690Y58770D01*
Y58437D01*
X78524Y58270D01*
X78191D01*
X78024Y58437D01*
X83711Y62090D02*
X83544Y62257D01*
X83211D01*
X83044Y62090D01*
Y61424D01*
X83211Y61257D01*
X83544D01*
X83711Y61424D01*
X84044Y61257D02*
X84377D01*
X84210D01*
Y62257D01*
X84044Y62090D01*
X85377Y61257D02*
Y62257D01*
X84877Y61757D01*
X85543D01*
X92615Y62083D02*
X92449Y62250D01*
X92116D01*
X91949Y62083D01*
Y61417D01*
X92116Y61250D01*
X92449D01*
X92615Y61417D01*
X92949Y61250D02*
X93282D01*
X93115D01*
Y62250D01*
X92949Y62083D01*
X93782D02*
X93948Y62250D01*
X94281D01*
X94448Y62083D01*
Y61917D01*
X94281Y61750D01*
X94115D01*
X94281D01*
X94448Y61583D01*
Y61417D01*
X94281Y61250D01*
X93948D01*
X93782Y61417D01*
X100567Y52526D02*
X100734Y52692D01*
Y53025D01*
X100567Y53192D01*
X99901D01*
X99734Y53025D01*
Y52692D01*
X99901Y52526D01*
X99734Y52192D02*
Y51859D01*
Y52026D01*
X100734D01*
X100567Y52192D01*
X99734Y50693D02*
Y51359D01*
X100401Y50693D01*
X100567D01*
X100734Y50860D01*
Y51193D01*
X100567Y51359D01*
X58777Y54208D02*
X58611Y54374D01*
X58278D01*
X58111Y54208D01*
Y53541D01*
X58278Y53375D01*
X58611D01*
X58777Y53541D01*
X59111Y53375D02*
X59444D01*
X59277D01*
Y54374D01*
X59111Y54208D01*
X59944Y53375D02*
X60277D01*
X60110D01*
Y54374D01*
X59944Y54208D01*
X18617Y47247D02*
X18450Y47081D01*
Y46748D01*
X18617Y46581D01*
X19283D01*
X19450Y46748D01*
Y47081D01*
X19283Y47247D01*
X19450Y47581D02*
Y47914D01*
Y47747D01*
X18450D01*
X18617Y47581D01*
Y48414D02*
X18450Y48580D01*
Y48914D01*
X18617Y49080D01*
X19283D01*
X19450Y48914D01*
Y48580D01*
X19283Y48414D01*
X18617D01*
X21452Y50842D02*
X21286Y50676D01*
Y50342D01*
X21452Y50176D01*
X22119D01*
X22285Y50342D01*
Y50676D01*
X22119Y50842D01*
Y51175D02*
X22285Y51342D01*
Y51675D01*
X22119Y51842D01*
X21452D01*
X21286Y51675D01*
Y51342D01*
X21452Y51175D01*
X21619D01*
X21785Y51342D01*
Y51842D01*
X21579Y61072D02*
X21413Y60906D01*
Y60572D01*
X21579Y60406D01*
X22246D01*
X22412Y60572D01*
Y60906D01*
X22246Y61072D01*
X21579Y61405D02*
X21413Y61572D01*
Y61905D01*
X21579Y62072D01*
X21746D01*
X21912Y61905D01*
X22079Y62072D01*
X22246D01*
X22412Y61905D01*
Y61572D01*
X22246Y61405D01*
X22079D01*
X21912Y61572D01*
X21746Y61405D01*
X21579D01*
X21912Y61572D02*
Y61905D01*
X42833Y51633D02*
X42667Y51800D01*
X42334D01*
X42167Y51633D01*
Y50967D01*
X42334Y50800D01*
X42667D01*
X42833Y50967D01*
X43167Y51800D02*
X43833D01*
Y51633D01*
X43167Y50967D01*
Y50800D01*
X37922Y29575D02*
X37755Y29742D01*
X37422D01*
X37255Y29575D01*
Y28909D01*
X37422Y28742D01*
X37755D01*
X37922Y28909D01*
X38921Y29742D02*
X38255D01*
Y29242D01*
X38588Y29409D01*
X38755D01*
X38921Y29242D01*
Y28909D01*
X38755Y28742D01*
X38422D01*
X38255Y28909D01*
X12167Y32330D02*
X12000Y32496D01*
X11667D01*
X11500Y32330D01*
Y31663D01*
X11667Y31497D01*
X12000D01*
X12167Y31663D01*
X13000Y31497D02*
Y32496D01*
X12500Y31997D01*
X13167D01*
X9310Y50570D02*
X9143Y50736D01*
X8810D01*
X8644Y50570D01*
Y49903D01*
X8810Y49737D01*
X9143D01*
X9310Y49903D01*
X9643Y50570D02*
X9810Y50736D01*
X10143D01*
X10310Y50570D01*
Y50403D01*
X10143Y50236D01*
X9976D01*
X10143D01*
X10310Y50070D01*
Y49903D01*
X10143Y49737D01*
X9810D01*
X9643Y49903D01*
X68124Y34775D02*
X67957Y34942D01*
X67624D01*
X67457Y34775D01*
Y34109D01*
X67624Y33942D01*
X67957D01*
X68124Y34109D01*
X69123Y33942D02*
X68457D01*
X69123Y34609D01*
Y34775D01*
X68957Y34942D01*
X68623D01*
X68457Y34775D01*
X50183Y39050D02*
X50350Y39217D01*
Y39550D01*
X50183Y39716D01*
X49517D01*
X49350Y39550D01*
Y39217D01*
X49517Y39050D01*
X49350Y38717D02*
Y38384D01*
Y38550D01*
X50350D01*
X50183Y38717D01*
X48334Y61000D02*
Y60000D01*
X48833D01*
X49000Y60167D01*
Y60333D01*
X48833Y60500D01*
X48334D01*
X48833D01*
X49000Y60667D01*
Y60833D01*
X48833Y61000D01*
X48334D01*
X49333Y60000D02*
X49666D01*
X49500D01*
Y61000D01*
X49333Y60833D01*
X73353Y64048D02*
Y63881D01*
X73686Y63548D01*
X74019Y63881D01*
Y64048D01*
X73686Y63548D02*
Y63048D01*
X74353D02*
X74686D01*
X74519D01*
Y64048D01*
X74353Y63881D01*
X160850Y33874D02*
X161850Y34540D01*
X160850D02*
X161850Y33874D01*
Y34874D02*
Y35207D01*
Y35040D01*
X160850D01*
X161017Y34874D01*
X119711Y25075D02*
X120544D01*
X120711Y25242D01*
Y25575D01*
X120544Y25742D01*
X119711D01*
X119877Y26075D02*
X119711Y26242D01*
Y26575D01*
X119877Y26741D01*
X120044D01*
X120211Y26575D01*
Y26408D01*
Y26575D01*
X120377Y26741D01*
X120544D01*
X120711Y26575D01*
Y26242D01*
X120544Y26075D01*
X28599Y27297D02*
X29266D01*
X28932D01*
Y26297D01*
X29599D02*
Y27297D01*
X30099D01*
X30265Y27130D01*
Y26797D01*
X30099Y26630D01*
X29599D01*
X30598Y27130D02*
X30765Y27297D01*
X31098D01*
X31265Y27130D01*
Y26964D01*
X31098Y26797D01*
X31265Y26630D01*
Y26464D01*
X31098Y26297D01*
X30765D01*
X30598Y26464D01*
Y26630D01*
X30765Y26797D01*
X30598Y26964D01*
Y27130D01*
X30765Y26797D02*
X31098D01*
X18679Y27297D02*
X19346D01*
X19012D01*
Y26297D01*
X19679D02*
Y27297D01*
X20179D01*
X20345Y27130D01*
Y26797D01*
X20179Y26630D01*
X19679D01*
X20678Y27297D02*
X21345D01*
Y27130D01*
X20678Y26464D01*
Y26297D01*
X98545Y21803D02*
X98378Y21970D01*
X98045D01*
X97878Y21803D01*
Y21137D01*
X98045Y20970D01*
X98378D01*
X98545Y21137D01*
Y21470D01*
X98212D01*
X98878Y20970D02*
Y21970D01*
X99545Y20970D01*
Y21970D01*
X99878D02*
Y20970D01*
X100378D01*
X100544Y21137D01*
Y21803D01*
X100378Y21970D01*
X99878D01*
X78266Y21803D02*
X78100Y21970D01*
X77767D01*
X77600Y21803D01*
Y21137D01*
X77767Y20970D01*
X78100D01*
X78266Y21137D01*
Y21470D01*
X77933D01*
X78600Y20970D02*
Y21970D01*
X79266Y20970D01*
Y21970D01*
X79599D02*
Y20970D01*
X80099D01*
X80266Y21137D01*
Y21803D01*
X80099Y21970D01*
X79599D01*
X4366Y35130D02*
X4199Y35297D01*
X3866D01*
X3699Y35130D01*
Y34464D01*
X3866Y34297D01*
X4199D01*
X4366Y34464D01*
Y34797D01*
X4032D01*
X4699Y34297D02*
Y35297D01*
X5365Y34297D01*
Y35297D01*
X5699D02*
Y34297D01*
X6198D01*
X6365Y34464D01*
Y35130D01*
X6198Y35297D01*
X5699D01*
X142773Y14798D02*
X142606Y14965D01*
X142273D01*
X142106Y14798D01*
Y14132D01*
X142273Y13965D01*
X142606D01*
X142773Y14132D01*
Y14465D01*
X142440D01*
X143106Y13965D02*
Y14965D01*
X143773Y13965D01*
Y14965D01*
X144106D02*
Y13965D01*
X144606D01*
X144772Y14132D01*
Y14798D01*
X144606Y14965D01*
X144106D01*
X134846Y98630D02*
X134679Y98797D01*
X134346D01*
X134179Y98630D01*
Y97964D01*
X134346Y97797D01*
X134679D01*
X134846Y97964D01*
Y98297D01*
X134512D01*
X135179Y97797D02*
Y98797D01*
X135845Y97797D01*
Y98797D01*
X136178D02*
Y97797D01*
X136678D01*
X136845Y97964D01*
Y98630D01*
X136678Y98797D01*
X136178D01*
X35092Y98955D02*
X34925Y99122D01*
X34592D01*
X34425Y98955D01*
Y98289D01*
X34592Y98122D01*
X34925D01*
X35092Y98289D01*
Y98622D01*
X34758D01*
X35425Y98122D02*
Y99122D01*
X36091Y98122D01*
Y99122D01*
X36425D02*
Y98122D01*
X36924D01*
X37091Y98289D01*
Y98955D01*
X36924Y99122D01*
X36425D01*
X112176Y51836D02*
X112010Y52002D01*
X111677D01*
X111510Y51836D01*
Y51669D01*
X111677Y51502D01*
X112010D01*
X112176Y51336D01*
Y51169D01*
X112010Y51003D01*
X111677D01*
X111510Y51169D01*
X112510Y52002D02*
Y51003D01*
X112843Y51336D01*
X113176Y51003D01*
Y52002D01*
X113509Y51003D02*
X113843D01*
X113676D01*
Y52002D01*
X113509Y51836D01*
X157334Y75167D02*
Y75833D01*
X157167Y76000D01*
X156834D01*
X156667Y75833D01*
Y75167D01*
X156834Y75000D01*
X157167D01*
X157000Y75333D02*
X157334Y75000D01*
X157167D02*
X157334Y75167D01*
X157667Y75833D02*
X157833Y76000D01*
X158167D01*
X158333Y75833D01*
Y75667D01*
X158167Y75500D01*
X158000D01*
X158167D01*
X158333Y75333D01*
Y75167D01*
X158167Y75000D01*
X157833D01*
X157667Y75167D01*
X158666Y75833D02*
X158833Y76000D01*
X159166D01*
X159333Y75833D01*
Y75167D01*
X159166Y75000D01*
X158833D01*
X158666Y75167D01*
Y75833D01*
X147284Y75167D02*
Y75833D01*
X147117Y76000D01*
X146784D01*
X146617Y75833D01*
Y75167D01*
X146784Y75000D01*
X147117D01*
X146950Y75333D02*
X147284Y75000D01*
X147117D02*
X147284Y75167D01*
X148283Y75000D02*
X147617D01*
X148283Y75667D01*
Y75833D01*
X148117Y76000D01*
X147783D01*
X147617Y75833D01*
X148616Y75167D02*
X148783Y75000D01*
X149116D01*
X149283Y75167D01*
Y75833D01*
X149116Y76000D01*
X148783D01*
X148616Y75833D01*
Y75667D01*
X148783Y75500D01*
X149283D01*
X152384Y75167D02*
Y75833D01*
X152217Y76000D01*
X151884D01*
X151717Y75833D01*
Y75167D01*
X151884Y75000D01*
X152217D01*
X152050Y75333D02*
X152384Y75000D01*
X152217D02*
X152384Y75167D01*
X153383Y75000D02*
X152717D01*
X153383Y75667D01*
Y75833D01*
X153217Y76000D01*
X152883D01*
X152717Y75833D01*
X153716D02*
X153883Y76000D01*
X154216D01*
X154383Y75833D01*
Y75667D01*
X154216Y75500D01*
X154383Y75333D01*
Y75167D01*
X154216Y75000D01*
X153883D01*
X153716Y75167D01*
Y75333D01*
X153883Y75500D01*
X153716Y75667D01*
Y75833D01*
X153883Y75500D02*
X154216D01*
X142334Y75167D02*
Y75833D01*
X142167Y76000D01*
X141834D01*
X141667Y75833D01*
Y75167D01*
X141834Y75000D01*
X142167D01*
X142000Y75333D02*
X142334Y75000D01*
X142167D02*
X142334Y75167D01*
X143333Y75000D02*
X142667D01*
X143333Y75667D01*
Y75833D01*
X143167Y76000D01*
X142833D01*
X142667Y75833D01*
X143666Y76000D02*
X144333D01*
Y75833D01*
X143666Y75167D01*
Y75000D01*
X127334Y75167D02*
Y75833D01*
X127167Y76000D01*
X126834D01*
X126667Y75833D01*
Y75167D01*
X126834Y75000D01*
X127167D01*
X127000Y75333D02*
X127334Y75000D01*
X127167D02*
X127334Y75167D01*
X128333Y75000D02*
X127667D01*
X128333Y75667D01*
Y75833D01*
X128167Y76000D01*
X127833D01*
X127667Y75833D01*
X129333Y76000D02*
X129000Y75833D01*
X128666Y75500D01*
Y75167D01*
X128833Y75000D01*
X129166D01*
X129333Y75167D01*
Y75333D01*
X129166Y75500D01*
X128666D01*
X112334Y75167D02*
Y75833D01*
X112167Y76000D01*
X111834D01*
X111667Y75833D01*
Y75167D01*
X111834Y75000D01*
X112167D01*
X112000Y75333D02*
X112334Y75000D01*
X112167D02*
X112334Y75167D01*
X113333Y75000D02*
X112667D01*
X113333Y75667D01*
Y75833D01*
X113167Y76000D01*
X112833D01*
X112667Y75833D01*
X114333Y76000D02*
X113666D01*
Y75500D01*
X114000Y75667D01*
X114166D01*
X114333Y75500D01*
Y75167D01*
X114166Y75000D01*
X113833D01*
X113666Y75167D01*
X132334D02*
Y75833D01*
X132167Y76000D01*
X131834D01*
X131667Y75833D01*
Y75167D01*
X131834Y75000D01*
X132167D01*
X132000Y75333D02*
X132334Y75000D01*
X132167D02*
X132334Y75167D01*
X133333Y75000D02*
X132667D01*
X133333Y75667D01*
Y75833D01*
X133167Y76000D01*
X132833D01*
X132667Y75833D01*
X134166Y75000D02*
Y76000D01*
X133666Y75500D01*
X134333D01*
X117334Y75167D02*
Y75833D01*
X117167Y76000D01*
X116834D01*
X116667Y75833D01*
Y75167D01*
X116834Y75000D01*
X117167D01*
X117000Y75333D02*
X117334Y75000D01*
X117167D02*
X117334Y75167D01*
X118333Y75000D02*
X117667D01*
X118333Y75667D01*
Y75833D01*
X118167Y76000D01*
X117833D01*
X117667Y75833D01*
X118666D02*
X118833Y76000D01*
X119166D01*
X119333Y75833D01*
Y75667D01*
X119166Y75500D01*
X119000D01*
X119166D01*
X119333Y75333D01*
Y75167D01*
X119166Y75000D01*
X118833D01*
X118666Y75167D01*
X102334D02*
Y75833D01*
X102167Y76000D01*
X101834D01*
X101667Y75833D01*
Y75167D01*
X101834Y75000D01*
X102167D01*
X102000Y75333D02*
X102334Y75000D01*
X102167D02*
X102334Y75167D01*
X103333Y75000D02*
X102667D01*
X103333Y75667D01*
Y75833D01*
X103167Y76000D01*
X102833D01*
X102667Y75833D01*
X104333Y75000D02*
X103666D01*
X104333Y75667D01*
Y75833D01*
X104166Y76000D01*
X103833D01*
X103666Y75833D01*
X137550Y75167D02*
Y75833D01*
X137384Y76000D01*
X137050D01*
X136884Y75833D01*
Y75167D01*
X137050Y75000D01*
X137384D01*
X137217Y75333D02*
X137550Y75000D01*
X137384D02*
X137550Y75167D01*
X138550Y75000D02*
X137883D01*
X138550Y75667D01*
Y75833D01*
X138383Y76000D01*
X138050D01*
X137883Y75833D01*
X138883Y75000D02*
X139216D01*
X139050D01*
Y76000D01*
X138883Y75833D01*
X122384Y75167D02*
Y75833D01*
X122217Y76000D01*
X121884D01*
X121717Y75833D01*
Y75167D01*
X121884Y75000D01*
X122217D01*
X122050Y75333D02*
X122384Y75000D01*
X122217D02*
X122384Y75167D01*
X123383Y75000D02*
X122717D01*
X123383Y75667D01*
Y75833D01*
X123217Y76000D01*
X122883D01*
X122717Y75833D01*
X123716D02*
X123883Y76000D01*
X124216D01*
X124383Y75833D01*
Y75167D01*
X124216Y75000D01*
X123883D01*
X123716Y75167D01*
Y75833D01*
X107467Y75167D02*
Y75833D01*
X107300Y76000D01*
X106967D01*
X106800Y75833D01*
Y75167D01*
X106967Y75000D01*
X107300D01*
X107134Y75333D02*
X107467Y75000D01*
X107300D02*
X107467Y75167D01*
X107800Y75000D02*
X108133D01*
X107967D01*
Y76000D01*
X107800Y75833D01*
X108633Y75167D02*
X108800Y75000D01*
X109133D01*
X109300Y75167D01*
Y75833D01*
X109133Y76000D01*
X108800D01*
X108633Y75833D01*
Y75667D01*
X108800Y75500D01*
X109300D01*
X97417Y75167D02*
Y75833D01*
X97250Y76000D01*
X96917D01*
X96750Y75833D01*
Y75167D01*
X96917Y75000D01*
X97250D01*
X97084Y75333D02*
X97417Y75000D01*
X97250D02*
X97417Y75167D01*
X97750Y75000D02*
X98083D01*
X97917D01*
Y76000D01*
X97750Y75833D01*
X98583D02*
X98750Y76000D01*
X99083D01*
X99250Y75833D01*
Y75667D01*
X99083Y75500D01*
X99250Y75333D01*
Y75167D01*
X99083Y75000D01*
X98750D01*
X98583Y75167D01*
Y75333D01*
X98750Y75500D01*
X98583Y75667D01*
Y75833D01*
X98750Y75500D02*
X99083D01*
X82417Y75167D02*
Y75833D01*
X82250Y76000D01*
X81917D01*
X81750Y75833D01*
Y75167D01*
X81917Y75000D01*
X82250D01*
X82084Y75333D02*
X82417Y75000D01*
X82250D02*
X82417Y75167D01*
X82750Y75000D02*
X83083D01*
X82917D01*
Y76000D01*
X82750Y75833D01*
X83583Y76000D02*
X84250D01*
Y75833D01*
X83583Y75167D01*
Y75000D01*
X67417Y75167D02*
Y75833D01*
X67250Y76000D01*
X66917D01*
X66750Y75833D01*
Y75167D01*
X66917Y75000D01*
X67250D01*
X67084Y75333D02*
X67417Y75000D01*
X67250D02*
X67417Y75167D01*
X67750Y75000D02*
X68083D01*
X67917D01*
Y76000D01*
X67750Y75833D01*
X69250Y76000D02*
X68916Y75833D01*
X68583Y75500D01*
Y75167D01*
X68750Y75000D01*
X69083D01*
X69250Y75167D01*
Y75333D01*
X69083Y75500D01*
X68583D01*
X87167Y75167D02*
Y75833D01*
X87000Y76000D01*
X86667D01*
X86500Y75833D01*
Y75167D01*
X86667Y75000D01*
X87000D01*
X86834Y75333D02*
X87167Y75000D01*
X87000D02*
X87167Y75167D01*
X87500Y75000D02*
X87833D01*
X87667D01*
Y76000D01*
X87500Y75833D01*
X89000Y76000D02*
X88333D01*
Y75500D01*
X88666Y75667D01*
X88833D01*
X89000Y75500D01*
Y75167D01*
X88833Y75000D01*
X88500D01*
X88333Y75167D01*
X71917D02*
Y75833D01*
X71750Y76000D01*
X71417D01*
X71250Y75833D01*
Y75167D01*
X71417Y75000D01*
X71750D01*
X71584Y75333D02*
X71917Y75000D01*
X71750D02*
X71917Y75167D01*
X72250Y75000D02*
X72583D01*
X72417D01*
Y76000D01*
X72250Y75833D01*
X73583Y75000D02*
Y76000D01*
X73083Y75500D01*
X73750D01*
X56417Y75167D02*
Y75833D01*
X56250Y76000D01*
X55917D01*
X55750Y75833D01*
Y75167D01*
X55917Y75000D01*
X56250D01*
X56084Y75333D02*
X56417Y75000D01*
X56250D02*
X56417Y75167D01*
X56750Y75000D02*
X57083D01*
X56917D01*
Y76000D01*
X56750Y75833D01*
X57583D02*
X57750Y76000D01*
X58083D01*
X58250Y75833D01*
Y75667D01*
X58083Y75500D01*
X57916D01*
X58083D01*
X58250Y75333D01*
Y75167D01*
X58083Y75000D01*
X57750D01*
X57583Y75167D01*
X92417D02*
Y75833D01*
X92250Y76000D01*
X91917D01*
X91750Y75833D01*
Y75167D01*
X91917Y75000D01*
X92250D01*
X92084Y75333D02*
X92417Y75000D01*
X92250D02*
X92417Y75167D01*
X92750Y75000D02*
X93083D01*
X92917D01*
Y76000D01*
X92750Y75833D01*
X94250Y75000D02*
X93583D01*
X94250Y75667D01*
Y75833D01*
X94083Y76000D01*
X93750D01*
X93583Y75833D01*
X78083Y75167D02*
Y75833D01*
X77917Y76000D01*
X77584D01*
X77417Y75833D01*
Y75167D01*
X77584Y75000D01*
X77917D01*
X77750Y75333D02*
X78083Y75000D01*
X77917D02*
X78083Y75167D01*
X78417Y75000D02*
X78750D01*
X78583D01*
Y76000D01*
X78417Y75833D01*
X79250Y75000D02*
X79583D01*
X79416D01*
Y76000D01*
X79250Y75833D01*
X62917Y75167D02*
Y75833D01*
X62750Y76000D01*
X62417D01*
X62250Y75833D01*
Y75167D01*
X62417Y75000D01*
X62750D01*
X62584Y75333D02*
X62917Y75000D01*
X62750D02*
X62917Y75167D01*
X63250Y75000D02*
X63583D01*
X63417D01*
Y76000D01*
X63250Y75833D01*
X64083D02*
X64250Y76000D01*
X64583D01*
X64750Y75833D01*
Y75167D01*
X64583Y75000D01*
X64250D01*
X64083Y75167D01*
Y75833D01*
X52833Y75167D02*
Y75833D01*
X52667Y76000D01*
X52334D01*
X52167Y75833D01*
Y75167D01*
X52334Y75000D01*
X52667D01*
X52500Y75333D02*
X52833Y75000D01*
X52667D02*
X52833Y75167D01*
X53167D02*
X53333Y75000D01*
X53666D01*
X53833Y75167D01*
Y75833D01*
X53666Y76000D01*
X53333D01*
X53167Y75833D01*
Y75667D01*
X53333Y75500D01*
X53833D01*
X37833Y75167D02*
Y75833D01*
X37667Y76000D01*
X37334D01*
X37167Y75833D01*
Y75167D01*
X37334Y75000D01*
X37667D01*
X37500Y75333D02*
X37833Y75000D01*
X37667D02*
X37833Y75167D01*
X38167Y75833D02*
X38333Y76000D01*
X38666D01*
X38833Y75833D01*
Y75667D01*
X38666Y75500D01*
X38833Y75333D01*
Y75167D01*
X38666Y75000D01*
X38333D01*
X38167Y75167D01*
Y75333D01*
X38333Y75500D01*
X38167Y75667D01*
Y75833D01*
X38333Y75500D02*
X38666D01*
X22888Y75167D02*
Y75833D01*
X22722Y76000D01*
X22389D01*
X22222Y75833D01*
Y75167D01*
X22389Y75000D01*
X22722D01*
X22555Y75333D02*
X22888Y75000D01*
X22722D02*
X22888Y75167D01*
X23222Y76000D02*
X23888D01*
Y75833D01*
X23222Y75167D01*
Y75000D01*
X41833Y75167D02*
Y75833D01*
X41667Y76000D01*
X41334D01*
X41167Y75833D01*
Y75167D01*
X41334Y75000D01*
X41667D01*
X41500Y75333D02*
X41833Y75000D01*
X41667D02*
X41833Y75167D01*
X42833Y76000D02*
X42500Y75833D01*
X42167Y75500D01*
Y75167D01*
X42333Y75000D01*
X42666D01*
X42833Y75167D01*
Y75333D01*
X42666Y75500D01*
X42167D01*
X26833Y75167D02*
Y75833D01*
X26667Y76000D01*
X26334D01*
X26167Y75833D01*
Y75167D01*
X26334Y75000D01*
X26667D01*
X26500Y75333D02*
X26833Y75000D01*
X26667D02*
X26833Y75167D01*
X27833Y76000D02*
X27167D01*
Y75500D01*
X27500Y75667D01*
X27666D01*
X27833Y75500D01*
Y75167D01*
X27666Y75000D01*
X27333D01*
X27167Y75167D01*
X11833D02*
Y75833D01*
X11667Y76000D01*
X11334D01*
X11167Y75833D01*
Y75167D01*
X11334Y75000D01*
X11667D01*
X11500Y75333D02*
X11833Y75000D01*
X11667D02*
X11833Y75167D01*
X12666Y75000D02*
Y76000D01*
X12167Y75500D01*
X12833D01*
X48833Y75167D02*
Y75833D01*
X48667Y76000D01*
X48334D01*
X48167Y75833D01*
Y75167D01*
X48334Y75000D01*
X48667D01*
X48500Y75333D02*
X48833Y75000D01*
X48667D02*
X48833Y75167D01*
X49167Y75833D02*
X49333Y76000D01*
X49666D01*
X49833Y75833D01*
Y75667D01*
X49666Y75500D01*
X49500D01*
X49666D01*
X49833Y75333D01*
Y75167D01*
X49666Y75000D01*
X49333D01*
X49167Y75167D01*
X33833D02*
Y75833D01*
X33667Y76000D01*
X33334D01*
X33167Y75833D01*
Y75167D01*
X33334Y75000D01*
X33667D01*
X33500Y75333D02*
X33833Y75000D01*
X33667D02*
X33833Y75167D01*
X34833Y75000D02*
X34167D01*
X34833Y75667D01*
Y75833D01*
X34666Y76000D01*
X34333D01*
X34167Y75833D01*
X18500Y75167D02*
Y75833D01*
X18333Y76000D01*
X18000D01*
X17834Y75833D01*
Y75167D01*
X18000Y75000D01*
X18333D01*
X18167Y75333D02*
X18500Y75000D01*
X18333D02*
X18500Y75167D01*
X18833Y75000D02*
X19166D01*
X19000D01*
Y76000D01*
X18833Y75833D01*
X102392Y1589D02*
X102059D01*
X102226D01*
Y756D01*
X102059Y590D01*
X101892D01*
X101726Y756D01*
X103392Y590D02*
X102725D01*
X103392Y1256D01*
Y1423D01*
X103225Y1589D01*
X102892D01*
X102725Y1423D01*
X103725D02*
X103892Y1589D01*
X104225D01*
X104392Y1423D01*
Y1256D01*
X104225Y1090D01*
X104058D01*
X104225D01*
X104392Y923D01*
Y756D01*
X104225Y590D01*
X103892D01*
X103725Y756D01*
X8609Y57375D02*
X8275D01*
X8442D01*
Y56542D01*
X8275Y56375D01*
X8109D01*
X7942Y56542D01*
X9608Y56375D02*
X8942D01*
X9608Y57042D01*
Y57208D01*
X9442Y57375D01*
X9108D01*
X8942Y57208D01*
X10441Y56375D02*
Y57375D01*
X9941Y56875D01*
X10608D01*
X58126Y1723D02*
X57793D01*
X57960D01*
Y890D01*
X57793Y723D01*
X57626D01*
X57460Y890D01*
X58459Y723D02*
X58793D01*
X58626D01*
Y1723D01*
X58459Y1556D01*
X59292D02*
X59459Y1723D01*
X59792D01*
X59959Y1556D01*
Y1390D01*
X59792Y1223D01*
X59626D01*
X59792D01*
X59959Y1056D01*
Y890D01*
X59792Y723D01*
X59459D01*
X59292Y890D01*
X27159Y54824D02*
X26492D01*
Y54325D01*
X26826D01*
X26492D01*
Y53825D01*
X27492Y54824D02*
Y53825D01*
X27992D01*
X28158Y53991D01*
Y54158D01*
X27992Y54325D01*
X27492D01*
X27992D01*
X28158Y54491D01*
Y54658D01*
X27992Y54824D01*
X27492D01*
X28492Y53825D02*
X28825D01*
X28658D01*
Y54824D01*
X28492Y54658D01*
X149750Y82500D02*
Y81500D01*
X150250D01*
X150417Y81667D01*
Y82333D01*
X150250Y82500D01*
X149750D01*
X150750Y81500D02*
X151083D01*
X150917D01*
Y82500D01*
X150750Y82333D01*
X151583D02*
X151750Y82500D01*
X152083D01*
X152250Y82333D01*
Y81667D01*
X152083Y81500D01*
X151750D01*
X151583Y81667D01*
Y82333D01*
X135167Y82500D02*
Y81500D01*
X135667D01*
X135833Y81667D01*
Y82333D01*
X135667Y82500D01*
X135167D01*
X136167Y81667D02*
X136333Y81500D01*
X136666D01*
X136833Y81667D01*
Y82333D01*
X136666Y82500D01*
X136333D01*
X136167Y82333D01*
Y82167D01*
X136333Y82000D01*
X136833D01*
X120167Y82500D02*
Y81500D01*
X120667D01*
X120833Y81667D01*
Y82333D01*
X120667Y82500D01*
X120167D01*
X121167Y82333D02*
X121333Y82500D01*
X121666D01*
X121833Y82333D01*
Y82167D01*
X121666Y82000D01*
X121833Y81833D01*
Y81667D01*
X121666Y81500D01*
X121333D01*
X121167Y81667D01*
Y81833D01*
X121333Y82000D01*
X121167Y82167D01*
Y82333D01*
X121333Y82000D02*
X121666D01*
X105167Y82500D02*
Y81500D01*
X105667D01*
X105833Y81667D01*
Y82333D01*
X105667Y82500D01*
X105167D01*
X106167D02*
X106833D01*
Y82333D01*
X106167Y81667D01*
Y81500D01*
X90167Y82500D02*
Y81500D01*
X90667D01*
X90833Y81667D01*
Y82333D01*
X90667Y82500D01*
X90167D01*
X91833D02*
X91500Y82333D01*
X91167Y82000D01*
Y81667D01*
X91333Y81500D01*
X91666D01*
X91833Y81667D01*
Y81833D01*
X91666Y82000D01*
X91167D01*
X75167Y82500D02*
Y81500D01*
X75667D01*
X75833Y81667D01*
Y82333D01*
X75667Y82500D01*
X75167D01*
X76833D02*
X76167D01*
Y82000D01*
X76500Y82167D01*
X76666D01*
X76833Y82000D01*
Y81667D01*
X76666Y81500D01*
X76333D01*
X76167Y81667D01*
X60167Y82500D02*
Y81500D01*
X60667D01*
X60833Y81667D01*
Y82333D01*
X60667Y82500D01*
X60167D01*
X61666Y81500D02*
Y82500D01*
X61167Y82000D01*
X61833D01*
X45167Y82500D02*
Y81500D01*
X45667D01*
X45833Y81667D01*
Y82333D01*
X45667Y82500D01*
X45167D01*
X46167Y82333D02*
X46333Y82500D01*
X46666D01*
X46833Y82333D01*
Y82167D01*
X46666Y82000D01*
X46500D01*
X46666D01*
X46833Y81833D01*
Y81667D01*
X46666Y81500D01*
X46333D01*
X46167Y81667D01*
X30167Y82500D02*
Y81500D01*
X30667D01*
X30833Y81667D01*
Y82333D01*
X30667Y82500D01*
X30167D01*
X31833Y81500D02*
X31167D01*
X31833Y82167D01*
Y82333D01*
X31666Y82500D01*
X31333D01*
X31167Y82333D01*
X15334Y82500D02*
Y81500D01*
X15833D01*
X16000Y81667D01*
Y82333D01*
X15833Y82500D01*
X15334D01*
X16333Y81500D02*
X16666D01*
X16500D01*
Y82500D01*
X16333Y82333D01*
D47*
X114523Y64663D02*
G03*
X114523Y64663I-125J0D01*
G01*
X52425Y36350D02*
G03*
X52425Y36350I-125J0D01*
G01*
X46190Y22850D02*
G03*
X46190Y22850I-125J0D01*
G01*
D48*
X91224Y49900D02*
G03*
X91224Y49900I-224J0D01*
G01*
D49*
X14200Y85600D02*
G03*
X14300Y85600I50J0D01*
G01*
D02*
G03*
X14200Y85600I-50J0D01*
G01*
X29300D02*
G03*
X29200Y85600I-50J0D01*
G01*
D02*
G03*
X29300Y85600I50J0D01*
G01*
X44300D02*
G03*
X44200Y85600I-50J0D01*
G01*
D02*
G03*
X44300Y85600I50J0D01*
G01*
X59300D02*
G03*
X59200Y85600I-50J0D01*
G01*
D02*
G03*
X59300Y85600I50J0D01*
G01*
X74300D02*
G03*
X74200Y85600I-50J0D01*
G01*
D02*
G03*
X74300Y85600I50J0D01*
G01*
X89300D02*
G03*
X89200Y85600I-50J0D01*
G01*
D02*
G03*
X89300Y85600I50J0D01*
G01*
X104300D02*
G03*
X104200Y85600I-50J0D01*
G01*
D02*
G03*
X104300Y85600I50J0D01*
G01*
X119300D02*
G03*
X119200Y85600I-50J0D01*
G01*
D02*
G03*
X119300Y85600I50J0D01*
G01*
X134300D02*
G03*
X134200Y85600I-50J0D01*
G01*
D02*
G03*
X134300Y85600I50J0D01*
G01*
X149300D02*
G03*
X149200Y85600I-50J0D01*
G01*
D02*
G03*
X149300Y85600I50J0D01*
G01*
D50*
X106870Y5000D02*
G03*
X106870Y5000I-170J0D01*
G01*
X61870D02*
G03*
X61870Y5000I-170J0D01*
G01*
D51*
X121823Y27268D02*
G03*
X121823Y27877I0J305D01*
G01*
D52*
X75150Y69350D02*
X86550D01*
X75150Y64650D02*
X86550D01*
X107300Y3800D02*
X107600D01*
Y-200D02*
Y3800D01*
Y-200D02*
X113600D01*
Y3800D01*
X115500D01*
Y17800D01*
X107300D02*
X115500D01*
X107300Y3800D02*
Y17800D01*
X38560Y14620D02*
X42375D01*
X27625Y-320D02*
X42375D01*
Y14620D01*
X27625D02*
X33900D01*
X27625Y-320D02*
Y14620D01*
X135560Y14620D02*
X139375D01*
X124625Y-320D02*
X139375D01*
Y14620D01*
X124625D02*
X130900D01*
X124625Y-320D02*
Y14620D01*
X62300Y3800D02*
X62600D01*
Y-200D02*
Y3800D01*
Y-200D02*
X68600D01*
Y3800D01*
X70500D01*
Y17800D01*
X62300D02*
X70500D01*
X62300Y3800D02*
Y17800D01*
D53*
X33356Y52225D02*
X34737D01*
X36724D02*
X38105D01*
Y47475D02*
Y52225D01*
X33356Y47475D02*
X34737D01*
X33356D02*
Y52225D01*
X35349Y54282D02*
X36111D01*
X35730Y53901D02*
Y54663D01*
X36724Y47475D02*
X38105D01*
X125024Y25972D02*
Y29173D01*
X121823Y27877D02*
Y29173D01*
Y27268D02*
Y27877D01*
Y25972D02*
Y27268D01*
X157650Y32547D02*
Y31870D01*
X156973Y32547D01*
X156804D01*
X156634Y32378D01*
Y32039D01*
X156804Y31870D01*
X161350D02*
Y32209D01*
Y32039D01*
X160334D01*
X160504Y31870D01*
X156804Y21530D02*
X156634Y21699D01*
Y22038D01*
X156804Y22207D01*
X156973D01*
X157142Y22038D01*
X157311Y22207D01*
X157481D01*
X157650Y22038D01*
Y21699D01*
X157481Y21530D01*
X157311D01*
X157142Y21699D01*
X156973Y21530D01*
X156804D01*
X157142Y21699D02*
Y22038D01*
X160334Y21530D02*
Y22207D01*
X160504D01*
X161181Y21530D01*
X161350D01*
D54*
X129941Y55762D02*
Y53963D01*
X131141D01*
X132041D02*
X132641D01*
X132941Y54263D01*
Y54862D01*
X132641Y55162D01*
X132041D01*
X131741Y54862D01*
Y54263D01*
X132041Y53963D01*
X133540D02*
X134140D01*
X133840D01*
Y55162D01*
X133540D01*
X136239D02*
X135340D01*
X135040Y54862D01*
Y54263D01*
X135340Y53963D01*
X136239D01*
X138639Y55762D02*
Y53963D01*
X139538D01*
X139838Y54263D01*
Y55462D01*
X139538Y55762D01*
X138639D01*
X140738Y55162D02*
X141338D01*
X141638Y54862D01*
Y53963D01*
X140738D01*
X140438Y54263D01*
X140738Y54562D01*
X141638D01*
X142237Y55162D02*
X142837Y53963D01*
X143437Y55162D01*
X144037Y53963D02*
X144637D01*
X144337D01*
Y55162D01*
X144037D01*
X146736Y55762D02*
Y53963D01*
X145836D01*
X145536Y54263D01*
Y54862D01*
X145836Y55162D01*
X146736D01*
X149135Y55762D02*
Y53963D01*
X150335D01*
X150935Y55762D02*
Y53963D01*
X151834D01*
X152134Y54263D01*
Y55462D01*
X151834Y55762D01*
X150935D01*
X152734Y53963D02*
Y55162D01*
X153334Y55762D01*
X153934Y55162D01*
Y53963D01*
Y54862D01*
X152734D01*
X125464Y57823D02*
X124264D01*
X125464Y59023D01*
Y59323D01*
X125164Y59623D01*
X124564D01*
X124264Y59323D01*
X127263Y57823D02*
X126063D01*
X127263Y59023D01*
Y59323D01*
X126963Y59623D01*
X126363D01*
X126063Y59323D01*
X129062Y57823D02*
X127863D01*
X129062Y59023D01*
Y59323D01*
X128762Y59623D01*
X128163D01*
X127863Y59323D01*
X130862Y59623D02*
X129662D01*
Y58723D01*
X130262Y59023D01*
X130562D01*
X130862Y58723D01*
Y58123D01*
X130562Y57823D01*
X129962D01*
X129662Y58123D01*
X131462Y59623D02*
Y57823D01*
X132361D01*
X132661Y58123D01*
Y58423D01*
X132361Y58723D01*
X131462D01*
X132361D01*
X132661Y59023D01*
Y59323D01*
X132361Y59623D01*
X131462D01*
X133261Y57524D02*
X134461D01*
X135060Y59623D02*
Y58423D01*
X135660Y57823D01*
X136260Y58423D01*
Y59623D01*
X136860Y59023D02*
Y58123D01*
X137160Y57823D01*
X138059D01*
Y59023D01*
X138659Y57823D02*
Y59023D01*
X138959D01*
X139259Y58723D01*
Y57823D01*
Y58723D01*
X139559Y59023D01*
X139859Y58723D01*
Y57823D01*
X141358D02*
X140759D01*
X140459Y58123D01*
Y58723D01*
X140759Y59023D01*
X141358D01*
X141658Y58723D01*
Y58423D01*
X140459D01*
X142558Y59323D02*
Y59023D01*
X142258D01*
X142858D01*
X142558D01*
Y58123D01*
X142858Y57823D01*
X143758Y59023D02*
Y57823D01*
Y58423D01*
X144058Y58723D01*
X144357Y59023D01*
X144657D01*
X146457Y57823D02*
X145857D01*
X145557Y58123D01*
Y58723D01*
X145857Y59023D01*
X146457D01*
X146757Y58723D01*
Y58423D01*
X145557D01*
X148556Y59623D02*
X147356D01*
Y58723D01*
X147956D01*
X147356D01*
Y57823D01*
X149156Y59023D02*
Y57823D01*
Y58423D01*
X149456Y58723D01*
X149756Y59023D01*
X150056D01*
X151855Y57823D02*
X151255D01*
X150955Y58123D01*
Y58723D01*
X151255Y59023D01*
X151855D01*
X152155Y58723D01*
Y58423D01*
X150955D01*
X153954Y57224D02*
Y59023D01*
X153055D01*
X152755Y58723D01*
Y58123D01*
X153055Y57823D01*
X153954D01*
X154554Y59023D02*
Y58123D01*
X154854Y57823D01*
X155754D01*
Y59023D01*
X157253Y57823D02*
X156653D01*
X156354Y58123D01*
Y58723D01*
X156653Y59023D01*
X157253D01*
X157553Y58723D01*
Y58423D01*
X156354D01*
X158153Y57823D02*
Y59023D01*
X159053D01*
X159353Y58723D01*
Y57823D01*
X161152Y59023D02*
X160252D01*
X159952Y58723D01*
Y58123D01*
X160252Y57823D01*
X161152D01*
X161752D02*
X162352D01*
X162052D01*
Y59023D01*
X161752D01*
X164151Y57823D02*
X163551D01*
X163251Y58123D01*
Y58723D01*
X163551Y59023D01*
X164151D01*
X164451Y58723D01*
Y58423D01*
X163251D01*
X165051Y57823D02*
X165651D01*
X165351D01*
Y59623D01*
X165051D01*
D55*
X33151Y23689D02*
X33405Y23943D01*
X33913D01*
X34167Y23689D01*
Y23435D01*
X33913Y23181D01*
X33659D01*
X33913D01*
X34167Y22927D01*
Y22673D01*
X33913Y22420D01*
X33405D01*
X33151Y22673D01*
X34675Y23943D02*
Y22927D01*
X35183Y22420D01*
X35690Y22927D01*
Y23943D01*
X36198Y23689D02*
X36452Y23943D01*
X36960D01*
X37214Y23689D01*
Y23435D01*
X36960Y23181D01*
X36706D01*
X36960D01*
X37214Y22927D01*
Y22673D01*
X36960Y22420D01*
X36452D01*
X36198Y22673D01*
X15701Y23653D02*
X14686D01*
Y22891D01*
X15193Y23145D01*
X15447D01*
X15701Y22891D01*
Y22383D01*
X15447Y22130D01*
X14940D01*
X14686Y22383D01*
X16209Y23653D02*
Y22637D01*
X16717Y22130D01*
X17225Y22637D01*
Y23653D01*
X140895Y3334D02*
Y4604D01*
Y4096D01*
X140641D01*
X141148D01*
X140895D01*
Y4604D01*
X141148Y4858D01*
X141910Y3334D02*
X142418D01*
X142164D01*
Y4350D01*
X141910D01*
X143180Y3334D02*
X143688D01*
X143434D01*
Y4858D01*
X143180D01*
X144703Y4604D02*
Y4350D01*
X144449D01*
X144957D01*
X144703D01*
Y3588D01*
X144957Y3334D01*
X145719Y4350D02*
Y3334D01*
Y3842D01*
X145973Y4096D01*
X146227Y4350D01*
X146481D01*
X148004Y3334D02*
X147496D01*
X147243Y3588D01*
Y4096D01*
X147496Y4350D01*
X148004D01*
X148258Y4096D01*
Y3842D01*
X147243D01*
X149782Y4858D02*
Y3334D01*
X149020D01*
X148766Y3588D01*
Y4096D01*
X149020Y4350D01*
X149782D01*
X107704Y21067D02*
Y19544D01*
X108466D01*
X108720Y19798D01*
Y20051D01*
Y20305D01*
X108466Y20559D01*
X107704D01*
X109228D02*
Y19798D01*
X109481Y19544D01*
X110243D01*
Y19290D01*
X109989Y19036D01*
X109735D01*
X110243Y19544D02*
Y20559D01*
X110751Y19036D02*
Y20559D01*
X111513D01*
X111767Y20305D01*
Y19798D01*
X111513Y19544D01*
X110751D01*
X112528Y20559D02*
X113036D01*
X113290Y20305D01*
Y19544D01*
X112528D01*
X112275Y19798D01*
X112528Y20051D01*
X113290D01*
X113798Y19544D02*
X114560D01*
X114814Y19798D01*
X114560Y20051D01*
X114052D01*
X113798Y20305D01*
X114052Y20559D01*
X114814D01*
X115322Y19544D02*
X116083D01*
X116337Y19798D01*
X116083Y20051D01*
X115575D01*
X115322Y20305D01*
X115575Y20559D01*
X116337D01*
X152427Y19894D02*
Y19386D01*
X152681Y19132D01*
X153697D01*
X153951Y19386D01*
Y19894D01*
X153697Y20148D01*
X152681D01*
X152427Y19894D01*
X152935Y20656D02*
X153697D01*
X153951Y20910D01*
Y21672D01*
X152935D01*
X154458Y22180D02*
X152935D01*
Y22941D01*
X153189Y23195D01*
X153697D01*
X153951Y22941D01*
Y22180D01*
X152935Y23703D02*
X153697D01*
X153951Y23957D01*
Y24719D01*
X152935D01*
X152681Y25480D02*
X152935D01*
Y25227D01*
Y25734D01*
Y25480D01*
X153697D01*
X153951Y25734D01*
Y28020D02*
X152427D01*
X152935Y28527D01*
X152427Y29035D01*
X153951D01*
X152935Y29797D02*
Y30305D01*
X153189Y30559D01*
X153951D01*
Y29797D01*
X153697Y29543D01*
X153443Y29797D01*
Y30559D01*
X152681Y31321D02*
X152935D01*
Y31067D01*
Y31574D01*
Y31321D01*
X153697D01*
X153951Y31574D01*
X152935Y32336D02*
X153951D01*
X153443D01*
X153189Y32590D01*
X152935Y32844D01*
Y33098D01*
X153951Y33860D02*
Y34368D01*
Y34114D01*
X152935D01*
Y33860D01*
Y36145D02*
Y35383D01*
X153189Y35129D01*
X153697D01*
X153951Y35383D01*
Y36145D01*
Y37415D02*
Y36907D01*
X153697Y36653D01*
X153189D01*
X152935Y36907D01*
Y37415D01*
X153189Y37668D01*
X153443D01*
Y36653D01*
X141656Y6066D02*
X142164D01*
X142418Y6320D01*
Y6827D01*
X142164Y7081D01*
X141656D01*
X141402Y6827D01*
Y6320D01*
X141656Y6066D01*
X142926Y7081D02*
Y6320D01*
X143180Y6066D01*
X143942D01*
Y7081D01*
X144703Y7335D02*
Y7081D01*
X144449D01*
X144957D01*
X144703D01*
Y6320D01*
X144957Y6066D01*
X145719Y5558D02*
Y7081D01*
X146481D01*
X146735Y6827D01*
Y6320D01*
X146481Y6066D01*
X145719D01*
X147243Y7081D02*
Y6320D01*
X147496Y6066D01*
X148258D01*
Y7081D01*
X149020Y7335D02*
Y7081D01*
X148766D01*
X149274D01*
X149020D01*
Y6320D01*
X149274Y6066D01*
X107958Y22251D02*
X108466D01*
X108720Y22505D01*
Y23012D01*
X108466Y23266D01*
X107958D01*
X107704Y23012D01*
Y22505D01*
X107958Y22251D01*
X109228Y23266D02*
Y22505D01*
X109481Y22251D01*
X110243D01*
Y23266D01*
X111005Y23520D02*
Y23266D01*
X110751D01*
X111259D01*
X111005D01*
Y22505D01*
X111259Y22251D01*
X112021Y21743D02*
Y23266D01*
X112782D01*
X113036Y23012D01*
Y22505D01*
X112782Y22251D01*
X112021D01*
X113544Y23266D02*
Y22505D01*
X113798Y22251D01*
X114560D01*
Y23266D01*
X115322Y23520D02*
Y23266D01*
X115068D01*
X115575D01*
X115322D01*
Y22505D01*
X115575Y22251D01*
X43786Y26360D02*
Y24837D01*
X44548D01*
X44802Y25090D01*
Y25344D01*
X44548Y25598D01*
X43786D01*
X44548D01*
X44802Y25852D01*
Y26106D01*
X44548Y26360D01*
X43786D01*
X45309Y24837D02*
Y26360D01*
X46325Y24837D01*
Y26360D01*
X47849Y26106D02*
X47595Y26360D01*
X47087D01*
X46833Y26106D01*
Y25090D01*
X47087Y24837D01*
X47595D01*
X47849Y25090D01*
X54285Y26614D02*
X53777D01*
X54031D01*
Y25344D01*
X53777Y25091D01*
X53523D01*
X53269Y25344D01*
X54792Y25091D02*
Y26106D01*
X55300Y26614D01*
X55808Y26106D01*
Y25091D01*
Y25852D01*
X54792D01*
X57332Y26360D02*
X57078Y26614D01*
X56570D01*
X56316Y26360D01*
Y25344D01*
X56570Y25091D01*
X57078D01*
X57332Y25344D01*
X57839Y26614D02*
Y25091D01*
Y25598D01*
X58855Y26614D01*
X58093Y25852D01*
X58855Y25091D01*
X58868Y20874D02*
X59376D01*
X59122D01*
Y19350D01*
X58868D01*
X59376D01*
X60137D02*
Y20366D01*
X60899D01*
X61153Y20112D01*
Y19350D01*
X61661Y18842D02*
Y20366D01*
X62423D01*
X62677Y20112D01*
Y19604D01*
X62423Y19350D01*
X61661D01*
X63184Y20366D02*
Y19604D01*
X63438Y19350D01*
X64200D01*
Y20366D01*
X64962Y20620D02*
Y20366D01*
X64708D01*
X65216D01*
X64962D01*
Y19604D01*
X65216Y19350D01*
X67501Y18842D02*
X67755D01*
X68009Y19096D01*
Y20366D01*
X69278D02*
X69786D01*
X70040Y20112D01*
Y19350D01*
X69278D01*
X69024Y19604D01*
X69278Y19858D01*
X70040D01*
X71564Y20366D02*
X70802D01*
X70548Y20112D01*
Y19604D01*
X70802Y19350D01*
X71564D01*
X72071D02*
Y20874D01*
Y19858D02*
X72833Y20366D01*
X72071Y19858D02*
X72833Y19350D01*
X28994Y17877D02*
X29502D01*
X29248D01*
Y16353D01*
X28994D01*
X29502D01*
X30264D02*
Y17369D01*
X31025D01*
X31279Y17115D01*
Y16353D01*
X31787Y15845D02*
Y17369D01*
X32549D01*
X32803Y17115D01*
Y16607D01*
X32549Y16353D01*
X31787D01*
X33311Y17369D02*
Y16607D01*
X33565Y16353D01*
X34326D01*
Y17369D01*
X35088Y17623D02*
Y17369D01*
X34834D01*
X35342D01*
X35088D01*
Y16607D01*
X35342Y16353D01*
X37627Y17877D02*
Y16353D01*
X38389D01*
X38643Y16607D01*
Y16861D01*
X38389Y17115D01*
X37627D01*
X38389D01*
X38643Y17369D01*
Y17623D01*
X38389Y17877D01*
X37627D01*
X39151Y16353D02*
Y17877D01*
X40166Y16353D01*
Y17877D01*
X41690Y17623D02*
X41436Y17877D01*
X40928D01*
X40674Y17623D01*
Y16607D01*
X40928Y16353D01*
X41436D01*
X41690Y16607D01*
X146754Y72532D02*
Y71008D01*
X147516D01*
X147770Y71262D01*
Y72278D01*
X147516Y72532D01*
X146754D01*
X148278Y71008D02*
X148785D01*
X148531D01*
Y72532D01*
X148278Y72278D01*
X149547D02*
X149801Y72532D01*
X150309D01*
X150563Y72278D01*
Y71262D01*
X150309Y71008D01*
X149801D01*
X149547Y71262D01*
Y72278D01*
X151071Y71008D02*
X152086Y72024D01*
X153610Y71008D02*
X152594D01*
X153610Y72024D01*
Y72278D01*
X153356Y72532D01*
X152848D01*
X152594Y72278D01*
X154118D02*
X154372Y72532D01*
X154879D01*
X155133Y72278D01*
Y71262D01*
X154879Y71008D01*
X154372D01*
X154118Y71262D01*
Y72278D01*
X155641Y71008D02*
Y72532D01*
Y71516D02*
X156403Y72024D01*
X155641Y71516D02*
X156403Y71008D01*
X157165Y72532D02*
Y71008D01*
Y71770D01*
X158180D01*
Y72532D01*
Y71008D01*
X158688Y72024D02*
X159704D01*
X158688Y71008D01*
X159704D01*
X132594Y72532D02*
Y71008D01*
X133356D01*
X133610Y71262D01*
Y72278D01*
X133356Y72532D01*
X132594D01*
X134118Y71262D02*
X134371Y71008D01*
X134879D01*
X135133Y71262D01*
Y72278D01*
X134879Y72532D01*
X134371D01*
X134118Y72278D01*
Y72024D01*
X134371Y71770D01*
X135133D01*
X135641Y71008D02*
X136657Y72024D01*
X137165Y71008D02*
X137672D01*
X137418D01*
Y72532D01*
X137165Y72278D01*
X138434D02*
X138688Y72532D01*
X139196D01*
X139450Y72278D01*
Y71262D01*
X139196Y71008D01*
X138688D01*
X138434Y71262D01*
Y72278D01*
X139958Y71008D02*
Y72532D01*
Y71516D02*
X140719Y72024D01*
X139958Y71516D02*
X140719Y71008D01*
X141481Y72532D02*
Y71008D01*
Y71770D01*
X142497D01*
Y72532D01*
Y71008D01*
X143005Y72024D02*
X144020D01*
X143005Y71008D01*
X144020D01*
X117254Y72532D02*
Y71008D01*
X118016D01*
X118270Y71262D01*
Y72278D01*
X118016Y72532D01*
X117254D01*
X118778Y72278D02*
X119031Y72532D01*
X119539D01*
X119793Y72278D01*
Y72024D01*
X119539Y71770D01*
X119793Y71516D01*
Y71262D01*
X119539Y71008D01*
X119031D01*
X118778Y71262D01*
Y71516D01*
X119031Y71770D01*
X118778Y72024D01*
Y72278D01*
X119031Y71770D02*
X119539D01*
X120301Y71008D02*
X121317Y72024D01*
X122840Y72532D02*
X121825D01*
Y71770D01*
X122332Y72024D01*
X122586D01*
X122840Y71770D01*
Y71262D01*
X122586Y71008D01*
X122078D01*
X121825Y71262D01*
X123348Y71008D02*
Y72532D01*
Y71516D02*
X124110Y72024D01*
X123348Y71516D02*
X124110Y71008D01*
X124872Y72532D02*
Y71008D01*
Y71770D01*
X125887D01*
Y72532D01*
Y71008D01*
X126395Y72024D02*
X127411D01*
X126395Y71008D01*
X127411D01*
X102254Y72532D02*
Y71008D01*
X103016D01*
X103270Y71262D01*
Y72278D01*
X103016Y72532D01*
X102254D01*
X103778D02*
X104793D01*
Y72278D01*
X103778Y71262D01*
Y71008D01*
X105301D02*
X106317Y72024D01*
X107840Y71008D02*
X106825D01*
X107840Y72024D01*
Y72278D01*
X107586Y72532D01*
X107078D01*
X106825Y72278D01*
X108348Y71008D02*
Y72532D01*
Y71516D02*
X109110Y72024D01*
X108348Y71516D02*
X109110Y71008D01*
X109872Y72532D02*
Y71008D01*
Y71770D01*
X110887D01*
Y72532D01*
Y71008D01*
X111395Y72024D02*
X112411D01*
X111395Y71008D01*
X112411D01*
X86524Y72532D02*
Y71008D01*
X87286D01*
X87540Y71262D01*
Y72278D01*
X87286Y72532D01*
X86524D01*
X89063D02*
X88555Y72278D01*
X88048Y71770D01*
Y71262D01*
X88301Y71008D01*
X88809D01*
X89063Y71262D01*
Y71516D01*
X88809Y71770D01*
X88048D01*
X89571Y71008D02*
X90587Y72024D01*
X91095Y71008D02*
X91602D01*
X91348D01*
Y72532D01*
X91095Y72278D01*
X92364Y71008D02*
Y72532D01*
Y71516D02*
X93126Y72024D01*
X92364Y71516D02*
X93126Y71008D01*
X93888Y72532D02*
Y71008D01*
Y71770D01*
X94903D01*
Y72532D01*
Y71008D01*
X95411Y72024D02*
X96427D01*
X95411Y71008D01*
X96427D01*
X71992Y72532D02*
Y71008D01*
X72754D01*
X73008Y71262D01*
Y72278D01*
X72754Y72532D01*
X71992D01*
X74531D02*
X73516D01*
Y71770D01*
X74024Y72024D01*
X74278D01*
X74531Y71770D01*
Y71262D01*
X74278Y71008D01*
X73770D01*
X73516Y71262D01*
X75039Y71008D02*
X76055Y72024D01*
X77578Y72532D02*
X76563D01*
Y71770D01*
X77071Y72024D01*
X77325D01*
X77578Y71770D01*
Y71262D01*
X77325Y71008D01*
X76817D01*
X76563Y71262D01*
X78086Y72278D02*
X78340Y72532D01*
X78848D01*
X79102Y72278D01*
Y71262D01*
X78848Y71008D01*
X78340D01*
X78086Y71262D01*
Y72278D01*
X79610D02*
X79864Y72532D01*
X80372D01*
X80625Y72278D01*
Y71262D01*
X80372Y71008D01*
X79864D01*
X79610Y71262D01*
Y72278D01*
X81133Y72532D02*
Y71008D01*
Y71770D01*
X82149D01*
Y72532D01*
Y71008D01*
X82657Y72024D02*
X83672D01*
X82657Y71008D01*
X83672D01*
X56754Y72532D02*
Y71008D01*
X57516D01*
X57770Y71262D01*
Y72278D01*
X57516Y72532D01*
X56754D01*
X59039Y71008D02*
Y72532D01*
X58278Y71770D01*
X59293D01*
X59801Y71008D02*
X60817Y72024D01*
X62340Y71008D02*
X61325D01*
X62340Y72024D01*
Y72278D01*
X62086Y72532D01*
X61578D01*
X61325Y72278D01*
X62848D02*
X63102Y72532D01*
X63610D01*
X63864Y72278D01*
Y71262D01*
X63610Y71008D01*
X63102D01*
X62848Y71262D01*
Y72278D01*
X64372D02*
X64625Y72532D01*
X65133D01*
X65387Y72278D01*
Y71262D01*
X65133Y71008D01*
X64625D01*
X64372Y71262D01*
Y72278D01*
X65895Y72532D02*
Y71008D01*
Y71770D01*
X66911D01*
Y72532D01*
Y71008D01*
X67419Y72024D02*
X68434D01*
X67419Y71008D01*
X68434D01*
X41782Y72532D02*
Y71008D01*
X42544D01*
X42798Y71262D01*
Y72278D01*
X42544Y72532D01*
X41782D01*
X43306Y72278D02*
X43560Y72532D01*
X44067D01*
X44321Y72278D01*
Y72024D01*
X44067Y71770D01*
X43813D01*
X44067D01*
X44321Y71516D01*
Y71262D01*
X44067Y71008D01*
X43560D01*
X43306Y71262D01*
X44829Y71008D02*
X45845Y72024D01*
X46353Y71008D02*
X46860D01*
X46607D01*
Y72532D01*
X46353Y72278D01*
X47622D02*
X47876Y72532D01*
X48384D01*
X48638Y72278D01*
Y71262D01*
X48384Y71008D01*
X47876D01*
X47622Y71262D01*
Y72278D01*
X49146D02*
X49400Y72532D01*
X49907D01*
X50161Y72278D01*
Y71262D01*
X49907Y71008D01*
X49400D01*
X49146Y71262D01*
Y72278D01*
X50669Y72532D02*
Y71008D01*
Y71770D01*
X51685D01*
Y72532D01*
Y71008D01*
X52193Y72024D02*
X53208D01*
X52193Y71008D01*
X53208D01*
X26754Y72532D02*
Y71008D01*
X27516D01*
X27770Y71262D01*
Y72278D01*
X27516Y72532D01*
X26754D01*
X29293Y71008D02*
X28278D01*
X29293Y72024D01*
Y72278D01*
X29039Y72532D01*
X28531D01*
X28278Y72278D01*
X29801Y71008D02*
X30817Y72024D01*
X32340Y72532D02*
X31325D01*
Y71770D01*
X31832Y72024D01*
X32086D01*
X32340Y71770D01*
Y71262D01*
X32086Y71008D01*
X31578D01*
X31325Y71262D01*
X32848Y72278D02*
X33102Y72532D01*
X33610D01*
X33864Y72278D01*
Y71262D01*
X33610Y71008D01*
X33102D01*
X32848Y71262D01*
Y72278D01*
X34372Y72532D02*
Y71008D01*
Y71770D01*
X35387D01*
Y72532D01*
Y71008D01*
X35895Y72024D02*
X36911D01*
X35895Y71008D01*
X36911D01*
X10254Y72532D02*
Y71008D01*
X11016D01*
X11270Y71262D01*
Y72278D01*
X11016Y72532D01*
X10254D01*
X11778Y71008D02*
X12285D01*
X12031D01*
Y72532D01*
X11778Y72278D01*
X13047Y71008D02*
X14063Y72024D01*
X15586Y71008D02*
X14571D01*
X15586Y72024D01*
Y72278D01*
X15332Y72532D01*
X14825D01*
X14571Y72278D01*
X16094D02*
X16348Y72532D01*
X16856D01*
X17110Y72278D01*
Y71262D01*
X16856Y71008D01*
X16348D01*
X16094Y71262D01*
Y72278D01*
X17618Y72532D02*
Y71008D01*
Y71770D01*
X18633D01*
Y72532D01*
Y71008D01*
X19141Y72024D02*
X20157D01*
X19141Y71008D01*
X20157D01*
%TF.MD5,a597794837c07e69984728088c98ec5d*%
M02*
