%TF.GenerationSoftware,Altium Limited,Altium Designer,23.6.0 (18)*%
G04 Layer_Physical_Order=2*
G04 Layer_Color=16711680*
%FSLAX43Y43*%
%MOMM*%
%TF.SameCoordinates,02C31AF8-F4BC-48A1-AB84-B672334353EB*%
%TF.FilePolarity,Positive*%
%TF.FileFunction,Copper,L2,Bot,Signal*%
%TF.Part,Single*%
G01*
G75*
%TA.AperFunction,Conductor*%
%ADD28C,0.200*%
%TA.AperFunction,ComponentPad*%
%ADD30C,0.690*%
%ADD31O,2.600X1.100*%
%ADD32O,1.900X1.100*%
%TA.AperFunction,ViaPad*%
%ADD33C,4.000*%
%TA.AperFunction,ComponentPad*%
%ADD34O,3.016X1.508*%
%ADD35C,3.000*%
%ADD36C,1.398*%
%ADD37R,1.398X1.398*%
G04:AMPARAMS|DCode=38|XSize=1.5mm|YSize=1.5mm|CornerRadius=0.375mm|HoleSize=0mm|Usage=FLASHONLY|Rotation=0.000|XOffset=0mm|YOffset=0mm|HoleType=Round|Shape=RoundedRectangle|*
%AMROUNDEDRECTD38*
21,1,1.500,0.750,0,0,0.0*
21,1,0.750,1.500,0,0,0.0*
1,1,0.750,0.375,-0.375*
1,1,0.750,-0.375,-0.375*
1,1,0.750,-0.375,0.375*
1,1,0.750,0.375,0.375*
%
%ADD38ROUNDEDRECTD38*%
%ADD39C,1.500*%
%ADD40R,1.500X1.500*%
G04:AMPARAMS|DCode=41|XSize=1.6mm|YSize=1.6mm|CornerRadius=0.4mm|HoleSize=0mm|Usage=FLASHONLY|Rotation=0.000|XOffset=0mm|YOffset=0mm|HoleType=Round|Shape=RoundedRectangle|*
%AMROUNDEDRECTD41*
21,1,1.600,0.800,0,0,0.0*
21,1,0.800,1.600,0,0,0.0*
1,1,0.800,0.400,-0.400*
1,1,0.800,-0.400,-0.400*
1,1,0.800,-0.400,0.400*
1,1,0.800,0.400,0.400*
%
%ADD41ROUNDEDRECTD41*%
%ADD42C,1.600*%
%ADD43C,2.100*%
%TA.AperFunction,ViaPad*%
%ADD44C,0.650*%
%TA.AperFunction,Conductor*%
%ADD45C,0.280*%
G36*
X158753Y95107D02*
X158753Y95104D01*
X158753Y95101D01*
X158763Y94706D01*
X158765Y94696D01*
X158764Y94687D01*
X158841Y93900D01*
X158845Y93888D01*
X158845Y93876D01*
X158998Y93100D01*
X159003Y93088D01*
X159004Y93076D01*
X159233Y92319D01*
X159239Y92308D01*
X159242Y92296D01*
X159543Y91565D01*
X159550Y91554D01*
X159554Y91542D01*
X159925Y90845D01*
X159933Y90835D01*
X159938Y90823D01*
X160376Y90165D01*
X160385Y90156D01*
X160391Y90145D01*
X160891Y89533D01*
X160901Y89525D01*
X160908Y89514D01*
X161466Y88954D01*
X161476Y88947D01*
X161484Y88937D01*
X162094Y88434D01*
X162105Y88428D01*
X162114Y88419D01*
X162770Y87978D01*
X162781Y87973D01*
X162791Y87965D01*
X163487Y87590D01*
X163499Y87586D01*
X163510Y87579D01*
X164239Y87274D01*
X164251Y87272D01*
X164262Y87266D01*
X165018Y87033D01*
X165030Y87032D01*
X165042Y87027D01*
X165817Y86869D01*
X165829Y86869D01*
X165841Y86866D01*
X166628Y86785D01*
X166637Y86785D01*
X166646Y86783D01*
X167000Y86773D01*
Y18859D01*
X166646Y18849D01*
X166637Y18847D01*
X166628Y18848D01*
X165841Y18767D01*
X165829Y18763D01*
X165817Y18763D01*
X165042Y18605D01*
X165030Y18601D01*
X165018Y18599D01*
X164262Y18367D01*
X164251Y18361D01*
X164239Y18358D01*
X163510Y18053D01*
X163499Y18046D01*
X163487Y18042D01*
X162791Y17667D01*
X162781Y17659D01*
X162770Y17655D01*
X162114Y17213D01*
X162105Y17204D01*
X162094Y17198D01*
X161484Y16695D01*
X161476Y16685D01*
X161466Y16678D01*
X160908Y16118D01*
X160901Y16108D01*
X160891Y16100D01*
X160391Y15487D01*
X160385Y15476D01*
X160376Y15467D01*
X159938Y14809D01*
X159933Y14798D01*
X159925Y14788D01*
X159554Y14090D01*
X159550Y14078D01*
X159543Y14067D01*
X159242Y13337D01*
X159239Y13324D01*
X159233Y13313D01*
X159004Y12556D01*
X159003Y12544D01*
X158998Y12532D01*
X158845Y11757D01*
X158845Y11744D01*
X158841Y11732D01*
X158764Y10945D01*
X158765Y10936D01*
X158763Y10927D01*
X158753Y10531D01*
X158753Y10528D01*
X158753Y10525D01*
Y-394D01*
X158752Y-400D01*
X158725Y-492D01*
X158633Y-519D01*
X158627Y-519D01*
X8418D01*
X8412Y-519D01*
X8320Y-492D01*
X8293Y-400D01*
X8292Y-394D01*
Y10525D01*
X8292Y10528D01*
X8292Y10531D01*
X8282Y10928D01*
X8280Y10937D01*
X8281Y10947D01*
X8203Y11736D01*
X8200Y11748D01*
Y11761D01*
X8045Y12538D01*
X8040Y12550D01*
X8039Y12563D01*
X7809Y13322D01*
X7803Y13333D01*
X7800Y13345D01*
X7497Y14078D01*
X7490Y14088D01*
X7486Y14100D01*
X7112Y14800D01*
X7104Y14810D01*
X7100Y14821D01*
X6659Y15481D01*
X6650Y15489D01*
X6644Y15501D01*
X6141Y16114D01*
X6131Y16122D01*
X6124Y16132D01*
X5563Y16693D01*
X5553Y16700D01*
X5545Y16710D01*
X4932Y17213D01*
X4921Y17219D01*
X4912Y17228D01*
X4252Y17668D01*
X4241Y17673D01*
X4231Y17681D01*
X3532Y18055D01*
X3520Y18059D01*
X3509Y18066D01*
X2776Y18369D01*
X2764Y18372D01*
X2753Y18378D01*
X1994Y18608D01*
X1981Y18609D01*
X1970Y18614D01*
X1192Y18769D01*
X1179D01*
X1167Y18772D01*
X378Y18850D01*
X369Y18849D01*
X359Y18851D01*
X0Y18860D01*
Y86772D01*
X359Y86781D01*
X369Y86783D01*
X378Y86782D01*
X1167Y86860D01*
X1179Y86864D01*
X1192D01*
X1970Y87019D01*
X1981Y87023D01*
X1994Y87025D01*
X2753Y87255D01*
X2764Y87261D01*
X2776Y87263D01*
X3509Y87567D01*
X3520Y87574D01*
X3532Y87577D01*
X4231Y87951D01*
X4241Y87959D01*
X4252Y87964D01*
X4912Y88405D01*
X4921Y88414D01*
X4932Y88420D01*
X5545Y88923D01*
X5553Y88932D01*
X5563Y88939D01*
X6124Y89500D01*
X6131Y89511D01*
X6141Y89519D01*
X6644Y90132D01*
X6650Y90143D01*
X6659Y90152D01*
X7100Y90811D01*
X7104Y90823D01*
X7112Y90833D01*
X7486Y91532D01*
X7490Y91544D01*
X7497Y91555D01*
X7800Y92287D01*
X7803Y92300D01*
X7809Y92311D01*
X8039Y93070D01*
X8040Y93082D01*
X8045Y93094D01*
X8200Y93872D01*
Y93884D01*
X8203Y93897D01*
X8281Y94686D01*
X8280Y94695D01*
X8282Y94704D01*
X8292Y95101D01*
X8292Y95104D01*
X8292Y95107D01*
Y106000D01*
X158753D01*
Y95107D01*
D02*
G37*
%LPC*%
G36*
X149747Y97079D02*
X149652D01*
Y94952D01*
X151779D01*
Y95047D01*
X151692Y95482D01*
X151522Y95893D01*
X151276Y96262D01*
X150962Y96576D01*
X150593Y96822D01*
X150182Y96992D01*
X149747Y97079D01*
D02*
G37*
G36*
X149398D02*
X149303D01*
X148868Y96992D01*
X148457Y96822D01*
X148088Y96576D01*
X147774Y96262D01*
X147528Y95893D01*
X147358Y95482D01*
X147271Y95047D01*
Y94952D01*
X149398D01*
Y97079D01*
D02*
G37*
G36*
X36172Y96129D02*
X36127D01*
Y94952D01*
X37304D01*
Y94997D01*
X37215Y95328D01*
X37043Y95626D01*
X36801Y95868D01*
X36503Y96040D01*
X36172Y96129D01*
D02*
G37*
G36*
X35873D02*
X35828D01*
X35497Y96040D01*
X35199Y95868D01*
X34957Y95626D01*
X34785Y95328D01*
X34696Y94997D01*
Y94952D01*
X35873D01*
Y96129D01*
D02*
G37*
G36*
X17747Y97079D02*
X17652D01*
Y94952D01*
X19779D01*
Y95047D01*
X19692Y95482D01*
X19522Y95893D01*
X19276Y96262D01*
X18962Y96576D01*
X18593Y96822D01*
X18182Y96992D01*
X17747Y97079D01*
D02*
G37*
G36*
X17398D02*
X17303D01*
X16868Y96992D01*
X16457Y96822D01*
X16088Y96576D01*
X15774Y96262D01*
X15528Y95893D01*
X15358Y95482D01*
X15271Y95047D01*
Y94952D01*
X17398D01*
Y97079D01*
D02*
G37*
G36*
X135672Y95804D02*
X135627D01*
Y94627D01*
X136804D01*
Y94672D01*
X136715Y95003D01*
X136543Y95301D01*
X136301Y95543D01*
X136003Y95715D01*
X135672Y95804D01*
D02*
G37*
G36*
X135373D02*
X135328D01*
X134997Y95715D01*
X134699Y95543D01*
X134457Y95301D01*
X134285Y95003D01*
X134196Y94672D01*
Y94627D01*
X135373D01*
Y95804D01*
D02*
G37*
G36*
X37304Y94698D02*
X36127D01*
Y93521D01*
X36172D01*
X36503Y93610D01*
X36801Y93782D01*
X37043Y94024D01*
X37215Y94322D01*
X37304Y94653D01*
Y94698D01*
D02*
G37*
G36*
X35873D02*
X34696D01*
Y94653D01*
X34785Y94322D01*
X34957Y94024D01*
X35199Y93782D01*
X35497Y93610D01*
X35828Y93521D01*
X35873D01*
Y94698D01*
D02*
G37*
G36*
X136804Y94373D02*
X135627D01*
Y93196D01*
X135672D01*
X136003Y93285D01*
X136301Y93457D01*
X136543Y93699D01*
X136715Y93997D01*
X136804Y94328D01*
Y94373D01*
D02*
G37*
G36*
X135373D02*
X134196D01*
Y94328D01*
X134285Y93997D01*
X134457Y93699D01*
X134699Y93457D01*
X134997Y93285D01*
X135328Y93196D01*
X135373D01*
Y94373D01*
D02*
G37*
G36*
X151779Y94698D02*
X149652D01*
Y92571D01*
X149747D01*
X150182Y92658D01*
X150593Y92828D01*
X150962Y93074D01*
X151276Y93388D01*
X151522Y93757D01*
X151692Y94168D01*
X151779Y94603D01*
Y94698D01*
D02*
G37*
G36*
X149398D02*
X147271D01*
Y94603D01*
X147358Y94168D01*
X147528Y93757D01*
X147774Y93388D01*
X148088Y93074D01*
X148457Y92828D01*
X148868Y92658D01*
X149303Y92571D01*
X149398D01*
Y94698D01*
D02*
G37*
G36*
X19779D02*
X17652D01*
Y92571D01*
X17747D01*
X18182Y92658D01*
X18593Y92828D01*
X18962Y93074D01*
X19276Y93388D01*
X19522Y93757D01*
X19692Y94168D01*
X19779Y94603D01*
Y94698D01*
D02*
G37*
G36*
X17398D02*
X15271D01*
Y94603D01*
X15358Y94168D01*
X15528Y93757D01*
X15774Y93388D01*
X16088Y93074D01*
X16457Y92828D01*
X16868Y92658D01*
X17303Y92571D01*
X17398D01*
Y94698D01*
D02*
G37*
G36*
X101122Y77068D02*
X100933D01*
X100758Y76995D01*
X100624Y76861D01*
X100605Y76815D01*
X98848D01*
X98848Y76815D01*
X98750Y76795D01*
X98667Y76740D01*
X98667Y76740D01*
X97336Y75409D01*
X97238Y75490D01*
X97264Y75529D01*
X97283Y75627D01*
X97283Y75627D01*
Y76150D01*
X97297Y76155D01*
X97431Y76289D01*
X97503Y76464D01*
Y76653D01*
X97431Y76828D01*
X97297Y76962D01*
X97122Y77035D01*
X96933D01*
X96758Y76962D01*
X96624Y76828D01*
X96551Y76653D01*
Y76464D01*
X96624Y76289D01*
X96758Y76155D01*
X96771Y76150D01*
Y75733D01*
X86819Y65781D01*
X86764Y65697D01*
X86744Y65600D01*
X86744Y65600D01*
Y62115D01*
X86209Y61580D01*
X86179Y61535D01*
X86155D01*
X85980Y61463D01*
X85846Y61329D01*
X85774Y61154D01*
Y60965D01*
X85846Y60790D01*
X85980Y60656D01*
X86155Y60583D01*
X86345D01*
X86520Y60656D01*
X86654Y60790D01*
X86726Y60965D01*
Y61154D01*
X86662Y61309D01*
X87082Y61729D01*
X87174Y61644D01*
X87101Y61469D01*
Y61279D01*
X87174Y61104D01*
X87307Y60970D01*
X87482Y60898D01*
X87672D01*
X87847Y60970D01*
X87907Y61030D01*
X87985Y61101D01*
X88072Y61030D01*
X88128Y60975D01*
X88303Y60903D01*
X88380Y60776D01*
X88350Y60704D01*
Y60515D01*
X88422Y60340D01*
X88556Y60206D01*
X88731Y60133D01*
X88921D01*
X89096Y60206D01*
X89230Y60340D01*
X89302Y60515D01*
Y60704D01*
X89230Y60879D01*
X89154Y60959D01*
X89210Y61042D01*
X89229Y61140D01*
X89229Y61140D01*
Y61617D01*
X89229Y61617D01*
X89210Y61715D01*
X89154Y61798D01*
X89154Y61798D01*
X89006Y61947D01*
Y64056D01*
X100003Y75053D01*
X104719D01*
X104758Y74926D01*
X104751Y74922D01*
X104751Y74922D01*
X92066Y62237D01*
X91939Y62289D01*
Y62365D01*
X91866Y62540D01*
X91733Y62674D01*
X91719Y62680D01*
Y63101D01*
X91821Y63203D01*
X91970D01*
X92145Y63276D01*
X92279Y63409D01*
X92351Y63584D01*
Y63774D01*
X92279Y63949D01*
X92145Y64083D01*
X91970Y64155D01*
X91780D01*
X91605Y64083D01*
X91471Y63949D01*
X91399Y63774D01*
Y63584D01*
X91422Y63528D01*
X91282Y63388D01*
X91227Y63305D01*
X91207Y63207D01*
X91207Y63207D01*
Y62680D01*
X91193Y62674D01*
X91059Y62540D01*
X90987Y62365D01*
Y62176D01*
X91059Y62001D01*
X91193Y61867D01*
X91368Y61794D01*
X91444D01*
X91497Y61667D01*
X87593Y57764D01*
X87538Y57681D01*
X87519Y57583D01*
X87519Y57583D01*
Y48571D01*
X87392Y48518D01*
X78283Y57626D01*
Y76150D01*
X78297Y76155D01*
X78431Y76289D01*
X78503Y76464D01*
Y76653D01*
X78431Y76828D01*
X78297Y76962D01*
X78122Y77035D01*
X77933D01*
X77758Y76962D01*
X77624Y76828D01*
X77551Y76653D01*
Y76464D01*
X77624Y76289D01*
X77758Y76155D01*
X77771Y76150D01*
Y57647D01*
X77644Y57595D01*
X71283Y63956D01*
Y76150D01*
X71297Y76155D01*
X71431Y76289D01*
X71503Y76464D01*
Y76653D01*
X71431Y76828D01*
X71297Y76962D01*
X71122Y77035D01*
X70933D01*
X70758Y76962D01*
X70624Y76828D01*
X70551Y76653D01*
Y76464D01*
X70624Y76289D01*
X70758Y76155D01*
X70771Y76150D01*
Y63999D01*
X70644Y63946D01*
X67283Y67307D01*
Y76150D01*
X67297Y76155D01*
X67431Y76289D01*
X67503Y76464D01*
Y76653D01*
X67431Y76828D01*
X67297Y76962D01*
X67122Y77035D01*
X66933D01*
X66758Y76962D01*
X66624Y76828D01*
X66551Y76653D01*
Y76464D01*
X66624Y76289D01*
X66758Y76155D01*
X66771Y76150D01*
Y67201D01*
X66771Y67201D01*
X66775Y67185D01*
X66658Y67123D01*
X63283Y70497D01*
Y76150D01*
X63297Y76155D01*
X63431Y76289D01*
X63503Y76464D01*
Y76653D01*
X63431Y76828D01*
X63297Y76962D01*
X63122Y77035D01*
X62933D01*
X62758Y76962D01*
X62624Y76828D01*
X62551Y76653D01*
Y76464D01*
X62624Y76289D01*
X62758Y76155D01*
X62771Y76150D01*
Y70391D01*
X62771Y70391D01*
X62791Y70293D01*
X62846Y70210D01*
X67170Y65887D01*
X67167Y65865D01*
X67113Y65764D01*
X60439D01*
X56283Y69920D01*
Y76150D01*
X56297Y76155D01*
X56431Y76289D01*
X56503Y76464D01*
Y76653D01*
X56431Y76828D01*
X56297Y76962D01*
X56122Y77035D01*
X55933D01*
X55758Y76962D01*
X55624Y76828D01*
X55551Y76653D01*
Y76464D01*
X55624Y76289D01*
X55758Y76155D01*
X55771Y76150D01*
Y69814D01*
X55771Y69814D01*
X55791Y69716D01*
X55846Y69633D01*
X60067Y65412D01*
X60014Y65285D01*
X54276D01*
X52283Y67279D01*
Y76150D01*
X52297Y76155D01*
X52431Y76289D01*
X52503Y76464D01*
Y76653D01*
X52431Y76828D01*
X52297Y76962D01*
X52122Y77035D01*
X51933D01*
X51758Y76962D01*
X51624Y76828D01*
X51551Y76653D01*
Y76464D01*
X51624Y76289D01*
X51758Y76155D01*
X51771Y76150D01*
Y67173D01*
X51771Y67173D01*
X51791Y67075D01*
X51846Y66992D01*
X53786Y65052D01*
X53738Y64934D01*
X49854D01*
X48283Y66506D01*
Y76150D01*
X48297Y76155D01*
X48431Y76289D01*
X48503Y76464D01*
Y76653D01*
X48431Y76828D01*
X48297Y76962D01*
X48122Y77035D01*
X47933D01*
X47758Y76962D01*
X47624Y76828D01*
X47551Y76653D01*
Y76464D01*
X47624Y76289D01*
X47758Y76155D01*
X47771Y76150D01*
Y66400D01*
X47771Y66400D01*
X47791Y66302D01*
X47846Y66219D01*
X49375Y64690D01*
X49326Y64573D01*
X42847D01*
X41283Y66136D01*
Y76150D01*
X41297Y76155D01*
X41431Y76289D01*
X41503Y76464D01*
Y76653D01*
X41431Y76828D01*
X41297Y76962D01*
X41122Y77035D01*
X40933D01*
X40758Y76962D01*
X40624Y76828D01*
X40551Y76653D01*
Y76464D01*
X40624Y76289D01*
X40758Y76155D01*
X40771Y76150D01*
Y66030D01*
X40771Y66030D01*
X40791Y65932D01*
X40846Y65849D01*
X42436Y64260D01*
X42387Y64142D01*
X38755D01*
X37283Y65614D01*
Y76150D01*
X37297Y76155D01*
X37431Y76289D01*
X37503Y76464D01*
Y76653D01*
X37431Y76828D01*
X37297Y76962D01*
X37122Y77035D01*
X36933D01*
X36758Y76962D01*
X36624Y76828D01*
X36551Y76653D01*
Y76464D01*
X36624Y76289D01*
X36758Y76155D01*
X36771Y76150D01*
Y65508D01*
X36771Y65508D01*
X36791Y65410D01*
X36846Y65327D01*
X38265Y63909D01*
X38216Y63791D01*
X35077D01*
X33283Y65585D01*
Y76150D01*
X33297Y76155D01*
X33431Y76289D01*
X33503Y76464D01*
Y76653D01*
X33431Y76828D01*
X33297Y76962D01*
X33122Y77035D01*
X32933D01*
X32758Y76962D01*
X32624Y76828D01*
X32551Y76653D01*
Y76464D01*
X32624Y76289D01*
X32758Y76155D01*
X32771Y76150D01*
Y65479D01*
X32771Y65479D01*
X32791Y65381D01*
X32846Y65298D01*
X34632Y63513D01*
X34583Y63395D01*
X28584D01*
X26283Y65696D01*
Y76150D01*
X26297Y76155D01*
X26431Y76289D01*
X26503Y76464D01*
Y76653D01*
X26431Y76828D01*
X26297Y76962D01*
X26122Y77035D01*
X25933D01*
X25758Y76962D01*
X25624Y76828D01*
X25551Y76653D01*
Y76464D01*
X25624Y76289D01*
X25758Y76155D01*
X25771Y76150D01*
Y65590D01*
X25771Y65590D01*
X25791Y65492D01*
X25846Y65409D01*
X28100Y63156D01*
X28051Y63039D01*
X26369D01*
X22283Y67124D01*
Y76150D01*
X22297Y76155D01*
X22431Y76289D01*
X22503Y76464D01*
Y76653D01*
X22431Y76828D01*
X22297Y76962D01*
X22122Y77035D01*
X21933D01*
X21758Y76962D01*
X21624Y76828D01*
X21551Y76653D01*
Y76464D01*
X21624Y76289D01*
X21758Y76155D01*
X21771Y76150D01*
Y67018D01*
X21771Y67018D01*
X21791Y66920D01*
X21846Y66837D01*
X25810Y62874D01*
X25765Y62739D01*
X25713Y62732D01*
X18283Y70161D01*
Y76150D01*
X18297Y76155D01*
X18431Y76289D01*
X18503Y76464D01*
Y76653D01*
X18431Y76828D01*
X18297Y76962D01*
X18122Y77035D01*
X17933D01*
X17758Y76962D01*
X17624Y76828D01*
X17551Y76653D01*
Y76464D01*
X17624Y76289D01*
X17758Y76155D01*
X17771Y76150D01*
Y70343D01*
X17654Y70294D01*
X11498Y76450D01*
X11503Y76464D01*
Y76653D01*
X11431Y76828D01*
X11297Y76962D01*
X11122Y77035D01*
X10933D01*
X10758Y76962D01*
X10624Y76828D01*
X10551Y76653D01*
Y76464D01*
X10624Y76289D01*
X10758Y76155D01*
X10933Y76083D01*
X11122D01*
X11136Y76088D01*
X25381Y61843D01*
X25363Y61764D01*
X25332Y61716D01*
X4009D01*
X4009Y61716D01*
X3896Y61694D01*
X3800Y61629D01*
X2946Y60776D01*
X2882Y60680D01*
X2879Y60666D01*
X2739Y60613D01*
X2720Y60627D01*
X2525Y60708D01*
X2315Y60736D01*
X2042D01*
Y59925D01*
Y59114D01*
X2315D01*
X2525Y59142D01*
X2720Y59223D01*
X2745Y59242D01*
X2859Y59186D01*
Y56152D01*
X2859Y56152D01*
X2882Y56039D01*
X2946Y55942D01*
X3879Y55009D01*
X3879Y55009D01*
X3976Y54945D01*
X4089Y54922D01*
X4089Y54922D01*
X4493D01*
X4505Y54894D01*
X4566Y54833D01*
X4640Y54750D01*
X4566Y54667D01*
X4505Y54606D01*
X4429Y54424D01*
Y54226D01*
X4505Y54044D01*
X4566Y53983D01*
X4640Y53900D01*
X4566Y53817D01*
X4505Y53756D01*
X4429Y53574D01*
Y53376D01*
X4505Y53194D01*
X4576Y53123D01*
X4417Y52964D01*
X4329Y52752D01*
X4925D01*
X5521D01*
X5433Y52964D01*
X5274Y53123D01*
X5346Y53194D01*
X5421Y53376D01*
Y53574D01*
X5346Y53756D01*
X5284Y53817D01*
X5210Y53900D01*
X5284Y53983D01*
X5346Y54044D01*
X5421Y54226D01*
Y54424D01*
X5346Y54606D01*
X5284Y54667D01*
X5210Y54750D01*
X5284Y54833D01*
X5346Y54894D01*
X5421Y55076D01*
Y55274D01*
X5346Y55456D01*
X5284Y55517D01*
X5210Y55600D01*
X5284Y55683D01*
X5346Y55744D01*
X5421Y55926D01*
Y56124D01*
X5346Y56306D01*
X5284Y56367D01*
X5210Y56450D01*
X5284Y56533D01*
X5346Y56594D01*
X5421Y56776D01*
Y56974D01*
X5346Y57156D01*
X5284Y57217D01*
X5210Y57300D01*
X5284Y57383D01*
X5346Y57444D01*
X5421Y57626D01*
Y57824D01*
X5346Y58006D01*
X5274Y58077D01*
X5433Y58236D01*
X5521Y58448D01*
X4925D01*
Y58702D01*
X5521D01*
X5433Y58914D01*
X5360Y58987D01*
X5413Y59114D01*
X5787D01*
X5840Y58987D01*
X5767Y58914D01*
X5679Y58702D01*
X6275D01*
X6871D01*
X6783Y58914D01*
X6614Y59083D01*
X6523Y59121D01*
X6506Y59265D01*
X6618Y59352D01*
X6747Y59520D01*
X6828Y59715D01*
X6839Y59798D01*
X5295D01*
Y60052D01*
X6839D01*
X6828Y60135D01*
X6747Y60330D01*
X6643Y60466D01*
X6690Y60593D01*
X58459D01*
X62898Y56154D01*
Y55806D01*
X62892Y55804D01*
X62758Y55670D01*
X62686Y55495D01*
Y55306D01*
X62758Y55131D01*
X62892Y54997D01*
X63067Y54924D01*
X63256D01*
X63345Y54823D01*
X63302Y54720D01*
Y54530D01*
X63374Y54355D01*
X63508Y54221D01*
X63683Y54149D01*
X63872D01*
X64047Y54221D01*
X64181Y54355D01*
X64254Y54530D01*
Y54720D01*
X64181Y54895D01*
X64074Y55001D01*
Y56444D01*
X64074Y56444D01*
X64052Y56557D01*
X63987Y56653D01*
X63987Y56653D01*
X59020Y61621D01*
X59023Y61656D01*
X59062Y61748D01*
X60987D01*
X68014Y54722D01*
Y50139D01*
X67887Y50012D01*
X67814Y49837D01*
Y49648D01*
X67887Y49473D01*
X68021Y49339D01*
X68196Y49267D01*
X68385D01*
X68560Y49339D01*
X68694Y49473D01*
X68766Y49648D01*
Y49734D01*
X68826Y49774D01*
X69015D01*
X69190Y49846D01*
X69324Y49980D01*
X69397Y50155D01*
Y50250D01*
X69403Y50258D01*
X69524Y50324D01*
X69646Y50274D01*
X69835D01*
X70010Y50346D01*
X70144Y50480D01*
X70216Y50655D01*
Y50782D01*
X70237Y50854D01*
X70331Y50899D01*
X70439D01*
X70614Y50971D01*
X70748Y51105D01*
X70820Y51280D01*
Y51298D01*
X70947Y51383D01*
X71031Y51349D01*
X71220D01*
X71395Y51421D01*
X71529Y51555D01*
X71558Y51624D01*
X71706Y51651D01*
X71784Y51574D01*
X71959Y51501D01*
X72148D01*
X72323Y51574D01*
X72457Y51708D01*
X72530Y51883D01*
Y52072D01*
X72457Y52247D01*
X72510Y52374D01*
X72545D01*
X72720Y52446D01*
X72854Y52580D01*
X72926Y52755D01*
Y52791D01*
X72984Y52826D01*
X73053Y52853D01*
X73212Y52787D01*
X73402D01*
X73576Y52859D01*
X73710Y52993D01*
X73783Y53168D01*
Y53358D01*
X73755Y53425D01*
X73852Y53522D01*
X73905Y53500D01*
X74094D01*
X74269Y53572D01*
X74403Y53706D01*
X74476Y53881D01*
Y54071D01*
X74403Y54246D01*
X74269Y54380D01*
X74094Y54452D01*
X73905D01*
X73730Y54380D01*
X73706Y54355D01*
X62937Y65125D01*
X62989Y65252D01*
X67046D01*
X83884Y48414D01*
Y44922D01*
X83774Y44811D01*
X83701Y44636D01*
Y44447D01*
X83774Y44272D01*
X83908Y44138D01*
X84082Y44066D01*
X84272D01*
X84447Y44138D01*
X84581Y44272D01*
X84653Y44447D01*
Y44606D01*
X84653Y44636D01*
X84755Y44723D01*
X84811D01*
X84986Y44795D01*
X85119Y44929D01*
X85192Y45104D01*
Y45207D01*
X85196Y45295D01*
X85309Y45324D01*
X85387D01*
X85562Y45396D01*
X85695Y45530D01*
X85768Y45705D01*
Y45895D01*
X85797Y45938D01*
X85921D01*
X86096Y46010D01*
X86230Y46144D01*
X86302Y46319D01*
Y46508D01*
X86230Y46683D01*
X86096Y46817D01*
X86054Y46834D01*
Y48952D01*
X86181Y49004D01*
X87006Y48179D01*
Y46488D01*
X86929Y46456D01*
X86795Y46322D01*
X86722Y46147D01*
Y45958D01*
X86795Y45783D01*
X86929Y45649D01*
X87104Y45577D01*
X87185D01*
X87296Y45520D01*
X87298Y45459D01*
Y45330D01*
X87371Y45155D01*
X87505Y45021D01*
X87680Y44948D01*
X87869D01*
X88044Y45021D01*
X88178Y45155D01*
X88250Y45330D01*
Y45519D01*
X88178Y45694D01*
X88112Y45760D01*
X88111Y45764D01*
X88111Y45767D01*
X88255Y45802D01*
X88274Y45783D01*
X88449Y45711D01*
X88639D01*
X88814Y45783D01*
X88948Y45917D01*
X89020Y46092D01*
Y46282D01*
X88948Y46457D01*
X88814Y46590D01*
X88639Y46663D01*
X88449D01*
X88383Y46771D01*
Y47337D01*
X88500Y47385D01*
X89236Y46650D01*
X89230Y46636D01*
Y46447D01*
X89303Y46272D01*
X89436Y46138D01*
X89611Y46065D01*
X89757D01*
X89779Y46046D01*
X89830Y45965D01*
X89835Y45948D01*
X89777Y45808D01*
Y45618D01*
X89849Y45443D01*
X89983Y45309D01*
X90158Y45237D01*
X90348D01*
X90522Y45309D01*
X90656Y45443D01*
X90729Y45618D01*
Y45808D01*
X90699Y45880D01*
X90724Y45924D01*
X90791Y45991D01*
X90953D01*
X90960Y45986D01*
X91033Y45887D01*
X91101Y45724D01*
X91235Y45590D01*
X91333Y45549D01*
X91364Y45400D01*
X90401Y44438D01*
X88184D01*
X88178Y44451D01*
X88044Y44585D01*
X87869Y44658D01*
X87680D01*
X87505Y44585D01*
X87371Y44451D01*
X87298Y44276D01*
Y44087D01*
X87371Y43912D01*
X87505Y43778D01*
X87519Y43773D01*
Y39647D01*
X83379D01*
X77006Y46020D01*
Y52093D01*
X77020Y52099D01*
X77154Y52233D01*
X77226Y52408D01*
Y52597D01*
X77154Y52772D01*
X77020Y52906D01*
X76845Y52978D01*
X76655D01*
X76480Y52906D01*
X76346Y52772D01*
X76274Y52597D01*
Y52408D01*
X76346Y52233D01*
X76480Y52099D01*
X76494Y52093D01*
Y45914D01*
X76494Y45914D01*
X76514Y45816D01*
X76569Y45733D01*
X81704Y40598D01*
X81632Y40490D01*
X81489Y40550D01*
X81300D01*
X81125Y40477D01*
X80991Y40343D01*
X80918Y40168D01*
Y39979D01*
X80991Y39804D01*
X81125Y39670D01*
X81167Y39652D01*
Y35468D01*
X81049Y35349D01*
X80976Y35174D01*
Y34985D01*
X81049Y34810D01*
X81183Y34676D01*
X81358Y34604D01*
X81547D01*
X81722Y34676D01*
X81856Y34810D01*
X81928Y34985D01*
Y35174D01*
X81856Y35349D01*
X81722Y35483D01*
X81679Y35501D01*
Y39685D01*
X81798Y39804D01*
X81870Y39979D01*
Y40168D01*
X81811Y40311D01*
X81919Y40383D01*
X83092Y39210D01*
X83092Y39210D01*
X83175Y39154D01*
X83273Y39135D01*
X83273Y39135D01*
X87519D01*
Y33056D01*
X48344D01*
X48338Y33070D01*
X48205Y33204D01*
X48030Y33276D01*
X47840D01*
X47665Y33204D01*
X47531Y33070D01*
X47459Y32895D01*
Y32705D01*
X47531Y32530D01*
X47665Y32396D01*
X47840Y32324D01*
X48030D01*
X48205Y32396D01*
X48338Y32530D01*
X48344Y32544D01*
X107504D01*
X117659Y22389D01*
X117654Y22375D01*
Y22186D01*
X117726Y22011D01*
X117860Y21877D01*
X118035Y21805D01*
X118224D01*
X118399Y21877D01*
X118533Y22011D01*
X118606Y22186D01*
Y22375D01*
X118533Y22550D01*
X118399Y22684D01*
X118224Y22757D01*
X118035D01*
X118021Y22751D01*
X107791Y32981D01*
X107708Y33036D01*
X107610Y33056D01*
X107610Y33056D01*
X88030D01*
Y39391D01*
Y43773D01*
X88044Y43778D01*
X88178Y43912D01*
X88184Y43926D01*
X90507D01*
X90507Y43926D01*
X90605Y43945D01*
X90688Y44001D01*
X93824Y47136D01*
X93824Y47136D01*
X93879Y47220D01*
X93899Y47317D01*
Y54467D01*
X96068D01*
X96096Y54399D01*
X96230Y54265D01*
X96405Y54193D01*
X96595D01*
X96770Y54265D01*
X96903Y54399D01*
X96976Y54574D01*
Y54763D01*
X96903Y54938D01*
X96770Y55072D01*
X96595Y55145D01*
X96405D01*
X96230Y55072D01*
X96137Y54979D01*
X93899D01*
Y58837D01*
X93913Y58843D01*
X94047Y58976D01*
X94119Y59151D01*
Y59341D01*
X94047Y59516D01*
X93913Y59650D01*
X93801Y59696D01*
X93765Y59839D01*
X94257Y60331D01*
X94370Y60274D01*
X94375Y60269D01*
Y56083D01*
X94361Y56078D01*
X94227Y55944D01*
X94155Y55769D01*
Y55579D01*
X94227Y55404D01*
X94361Y55270D01*
X94536Y55198D01*
X94725D01*
X94900Y55270D01*
X95034Y55404D01*
X95107Y55579D01*
Y55769D01*
X95034Y55944D01*
X94900Y56078D01*
X94887Y56083D01*
Y60165D01*
X106953Y72232D01*
X116258D01*
X116306Y72114D01*
X103359Y59167D01*
X103304Y59084D01*
X103284Y58986D01*
X103284Y58986D01*
Y51423D01*
X103193Y51385D01*
X103059Y51251D01*
X102986Y51077D01*
Y50887D01*
X103059Y50712D01*
X103146Y50625D01*
X103163Y50463D01*
X103152Y50452D01*
X103111Y50354D01*
X102962Y50323D01*
X99104Y54182D01*
Y55631D01*
X99118Y55636D01*
X99252Y55770D01*
X99324Y55945D01*
Y56135D01*
X99252Y56309D01*
X99118Y56443D01*
X98943Y56516D01*
X98753D01*
X98578Y56443D01*
X98445Y56309D01*
X98372Y56135D01*
Y55945D01*
X98445Y55770D01*
X98578Y55636D01*
X98592Y55631D01*
Y54363D01*
X98475Y54314D01*
X97201Y55588D01*
X97258Y55724D01*
Y55914D01*
X97185Y56089D01*
X97052Y56222D01*
X96877Y56295D01*
X96687D01*
X96512Y56222D01*
X96378Y56089D01*
X96306Y55914D01*
Y55724D01*
X96378Y55549D01*
X96512Y55415D01*
X96687Y55343D01*
X96734D01*
X96756Y55309D01*
X103890Y48175D01*
X103838Y48048D01*
X100937D01*
X97498Y51488D01*
X97503Y51501D01*
Y51691D01*
X97431Y51866D01*
X97297Y52000D01*
X97122Y52072D01*
X96933D01*
X96758Y52000D01*
X96624Y51866D01*
X96551Y51691D01*
Y51501D01*
X96624Y51327D01*
X96758Y51193D01*
X96933Y51120D01*
X97122D01*
X97136Y51126D01*
X100650Y47611D01*
X100650Y47611D01*
X100733Y47556D01*
X100831Y47536D01*
X109408D01*
Y47457D01*
X109481Y47282D01*
X109615Y47148D01*
X109790Y47076D01*
X109979D01*
X110154Y47148D01*
X110288Y47282D01*
X110360Y47457D01*
Y47647D01*
X110288Y47821D01*
X110154Y47955D01*
X109979Y48028D01*
X109790D01*
X109717Y47998D01*
X109607Y48057D01*
X109585Y48180D01*
X110022Y48617D01*
X110036Y48611D01*
X110225D01*
X110400Y48684D01*
X110534Y48818D01*
X110607Y48993D01*
Y49182D01*
X110534Y49357D01*
X110400Y49491D01*
X110225Y49563D01*
X110036D01*
X109861Y49491D01*
X109727Y49357D01*
X109655Y49182D01*
Y48993D01*
X109660Y48979D01*
X109251Y48570D01*
X104691D01*
X104643Y48688D01*
X105873Y49918D01*
X109721D01*
X109727Y49904D01*
X109861Y49771D01*
X110036Y49698D01*
X110225D01*
X110400Y49771D01*
X110534Y49904D01*
X110607Y50079D01*
Y50269D01*
X110534Y50444D01*
X110400Y50578D01*
X110225Y50650D01*
X110036D01*
X109861Y50578D01*
X109727Y50444D01*
X109721Y50430D01*
X105767D01*
X105767Y50430D01*
X105669Y50411D01*
X105586Y50355D01*
X105586Y50355D01*
X104258Y49027D01*
X103696Y49589D01*
X103727Y49738D01*
X103825Y49779D01*
X103959Y49913D01*
X104032Y50088D01*
Y50277D01*
X104026Y50291D01*
X104219Y50484D01*
X104219Y50484D01*
X104275Y50567D01*
X104294Y50665D01*
X104294Y50665D01*
Y58644D01*
X116967Y71317D01*
X152042D01*
X152042Y71317D01*
X152140Y71337D01*
X152223Y71392D01*
X156919Y76088D01*
X156933Y76083D01*
X157122D01*
X157297Y76155D01*
X157431Y76289D01*
X157503Y76464D01*
Y76653D01*
X157431Y76828D01*
X157297Y76962D01*
X157122Y77035D01*
X156933D01*
X156758Y76962D01*
X156624Y76828D01*
X156551Y76653D01*
Y76464D01*
X156557Y76450D01*
X151936Y71829D01*
X148839D01*
X148787Y71956D01*
X152919Y76088D01*
X152933Y76083D01*
X153122D01*
X153297Y76155D01*
X153431Y76289D01*
X153503Y76464D01*
Y76653D01*
X153431Y76828D01*
X153297Y76962D01*
X153122Y77035D01*
X152933D01*
X152758Y76962D01*
X152624Y76828D01*
X152551Y76653D01*
Y76464D01*
X152557Y76450D01*
X148432Y72325D01*
X139136D01*
X139087Y72442D01*
X142948Y76303D01*
X145618D01*
X145624Y76289D01*
X145758Y76155D01*
X145933Y76083D01*
X146122D01*
X146297Y76155D01*
X146431Y76289D01*
X146503Y76464D01*
Y76653D01*
X146431Y76828D01*
X146297Y76962D01*
X146122Y77035D01*
X145933D01*
X145758Y76962D01*
X145624Y76828D01*
X145618Y76815D01*
X142842D01*
X142744Y76795D01*
X142661Y76740D01*
X142661Y76740D01*
X142621Y76699D01*
X142472Y76730D01*
X142431Y76828D01*
X142297Y76962D01*
X142122Y77035D01*
X141933D01*
X141758Y76962D01*
X141624Y76828D01*
X141551Y76653D01*
Y76464D01*
X141557Y76450D01*
X138253Y73147D01*
X135143D01*
X135095Y73264D01*
X137919Y76088D01*
X137933Y76083D01*
X138122D01*
X138297Y76155D01*
X138431Y76289D01*
X138503Y76464D01*
Y76653D01*
X138431Y76828D01*
X138297Y76962D01*
X138122Y77035D01*
X137933D01*
X137758Y76962D01*
X137624Y76828D01*
X137551Y76653D01*
Y76464D01*
X137557Y76450D01*
X134604Y73498D01*
X125322D01*
X125270Y73625D01*
X127948Y76303D01*
X130618D01*
X130624Y76289D01*
X130758Y76155D01*
X130933Y76083D01*
X131122D01*
X131297Y76155D01*
X131431Y76289D01*
X131503Y76464D01*
Y76653D01*
X131431Y76828D01*
X131297Y76962D01*
X131122Y77035D01*
X130933D01*
X130758Y76962D01*
X130624Y76828D01*
X130618Y76815D01*
X127842D01*
X127842Y76815D01*
X127744Y76795D01*
X127661Y76740D01*
X127621Y76699D01*
X127472Y76730D01*
X127431Y76828D01*
X127297Y76962D01*
X127122Y77035D01*
X126933D01*
X126758Y76962D01*
X126624Y76828D01*
X126551Y76653D01*
Y76464D01*
X126557Y76450D01*
X124401Y74294D01*
X121302D01*
X121254Y74412D01*
X122919Y76077D01*
X122933Y76071D01*
X123122D01*
X123297Y76144D01*
X123431Y76278D01*
X123503Y76453D01*
Y76642D01*
X123431Y76817D01*
X123297Y76951D01*
X123122Y77023D01*
X122933D01*
X122758Y76951D01*
X122624Y76817D01*
X122551Y76642D01*
Y76453D01*
X122557Y76439D01*
X120763Y74645D01*
X114642D01*
X114593Y74763D01*
X115919Y76088D01*
X115933Y76083D01*
X116122D01*
X116297Y76155D01*
X116431Y76289D01*
X116503Y76464D01*
Y76653D01*
X116431Y76828D01*
X116297Y76962D01*
X116122Y77035D01*
X115933D01*
X115758Y76962D01*
X115624Y76828D01*
X115551Y76653D01*
Y76464D01*
X115557Y76450D01*
X114103Y74996D01*
X110990D01*
X110952Y75123D01*
X110958Y75128D01*
X111919Y76088D01*
X111933Y76083D01*
X112122D01*
X112297Y76155D01*
X112431Y76289D01*
X112503Y76464D01*
Y76653D01*
X112431Y76828D01*
X112297Y76962D01*
X112122Y77035D01*
X111933D01*
X111758Y76962D01*
X111624Y76828D01*
X111551Y76653D01*
Y76464D01*
X111557Y76450D01*
X110671Y75565D01*
X107556D01*
X107504Y75692D01*
X107906Y76094D01*
X107933Y76083D01*
X108122D01*
X108297Y76155D01*
X108431Y76289D01*
X108503Y76464D01*
Y76653D01*
X108431Y76828D01*
X108297Y76962D01*
X108122Y77035D01*
X107933D01*
X107758Y76962D01*
X107624Y76828D01*
X107551Y76653D01*
Y76464D01*
X107551Y76464D01*
X107166Y76078D01*
X101353D01*
X101330Y76124D01*
X101314Y76205D01*
X101431Y76322D01*
X101503Y76497D01*
Y76686D01*
X101431Y76861D01*
X101297Y76995D01*
X101122Y77068D01*
D02*
G37*
G36*
X93122Y77035D02*
X92933D01*
X92758Y76962D01*
X92624Y76828D01*
X92551Y76653D01*
Y76464D01*
X92557Y76450D01*
X84493Y68386D01*
X84438Y68303D01*
X84418Y68205D01*
X84418Y68205D01*
Y64103D01*
X84321Y64029D01*
X84211Y64076D01*
Y74381D01*
X85919Y76088D01*
X85933Y76083D01*
X86122D01*
X86297Y76155D01*
X86431Y76289D01*
X86503Y76464D01*
Y76653D01*
X86431Y76828D01*
X86297Y76962D01*
X86122Y77035D01*
X85933D01*
X85758Y76962D01*
X85624Y76828D01*
X85551Y76653D01*
Y76464D01*
X85557Y76450D01*
X83774Y74668D01*
X83719Y74585D01*
X83699Y74487D01*
X83699Y74487D01*
Y63667D01*
X83686Y63661D01*
X83552Y63528D01*
X83479Y63353D01*
Y63163D01*
X83478Y63161D01*
X83372Y63090D01*
X82283Y64179D01*
Y76150D01*
X82297Y76155D01*
X82431Y76289D01*
X82503Y76464D01*
Y76653D01*
X82431Y76828D01*
X82297Y76962D01*
X82122Y77035D01*
X81933D01*
X81758Y76962D01*
X81624Y76828D01*
X81551Y76653D01*
Y76464D01*
X81624Y76289D01*
X81758Y76155D01*
X81771Y76150D01*
Y64073D01*
X81771Y64073D01*
X81791Y63975D01*
X81846Y63892D01*
X83035Y62704D01*
X83029Y62690D01*
Y62501D01*
X83102Y62326D01*
X83236Y62192D01*
X83411Y62119D01*
X83600D01*
X83775Y62192D01*
X83909Y62326D01*
X83981Y62501D01*
Y62690D01*
X84043Y62782D01*
X84050D01*
X84225Y62854D01*
X84359Y62988D01*
X84428Y63156D01*
X84542Y63219D01*
X84579Y63203D01*
X84769D01*
X84944Y63276D01*
X85078Y63409D01*
X85150Y63584D01*
Y63774D01*
X85078Y63949D01*
X84944Y64083D01*
X84930Y64088D01*
Y68099D01*
X92919Y76088D01*
X92933Y76083D01*
X93122D01*
X93297Y76155D01*
X93431Y76289D01*
X93503Y76464D01*
Y76653D01*
X93431Y76828D01*
X93297Y76962D01*
X93122Y77035D01*
D02*
G37*
G36*
X121968Y65774D02*
X120166D01*
Y65002D01*
X117527D01*
X117527Y65002D01*
X117429Y64983D01*
X117346Y64927D01*
X117346Y64927D01*
X116250Y63831D01*
X116194Y63748D01*
X116175Y63650D01*
X116175Y63650D01*
Y62222D01*
X115057Y61104D01*
X109110D01*
X109104Y61117D01*
X108970Y61251D01*
X108795Y61324D01*
X108606D01*
X108431Y61251D01*
X108297Y61117D01*
X108224Y60942D01*
Y60753D01*
X108297Y60578D01*
X108431Y60444D01*
X108606Y60372D01*
X108795D01*
X108970Y60444D01*
X109104Y60578D01*
X109110Y60592D01*
X115163D01*
X115163Y60592D01*
X115261Y60611D01*
X115344Y60667D01*
X116612Y61935D01*
X116612Y61935D01*
X116667Y62018D01*
X116687Y62116D01*
X116687Y62116D01*
Y63544D01*
X117633Y64490D01*
X120166D01*
Y63972D01*
X121968D01*
Y65774D01*
D02*
G37*
G36*
X121185Y63234D02*
X120948D01*
X120719Y63173D01*
X120514Y63054D01*
X120346Y62887D01*
X120227Y62681D01*
X120166Y62452D01*
Y62215D01*
X120227Y61986D01*
X120346Y61780D01*
X120514Y61612D01*
X120719Y61494D01*
X120948Y61432D01*
X121185D01*
X121415Y61494D01*
X121620Y61612D01*
X121788Y61780D01*
X121906Y61986D01*
X121968Y62215D01*
Y62452D01*
X121906Y62681D01*
X121788Y62887D01*
X121620Y63054D01*
X121415Y63173D01*
X121185Y63234D01*
D02*
G37*
G36*
X1788Y60736D02*
X1515D01*
X1305Y60708D01*
X1110Y60627D01*
X942Y60498D01*
X813Y60330D01*
X732Y60135D01*
X721Y60052D01*
X1788D01*
Y60736D01*
D02*
G37*
G36*
X103635Y60991D02*
X103446D01*
X103271Y60918D01*
X103137Y60784D01*
X103064Y60609D01*
Y60482D01*
X101373Y58791D01*
X101318Y58708D01*
X101298Y58610D01*
X101298Y58610D01*
Y55652D01*
X101285Y55646D01*
X101151Y55513D01*
X101078Y55338D01*
Y55148D01*
X101151Y54973D01*
X101285Y54839D01*
X101460Y54767D01*
X101649D01*
X101824Y54839D01*
X101958Y54973D01*
X102030Y55148D01*
Y55338D01*
X101958Y55513D01*
X101824Y55646D01*
X101810Y55652D01*
Y58504D01*
X103374Y60068D01*
X103446Y60039D01*
X103635D01*
X103810Y60111D01*
X103944Y60245D01*
X104016Y60420D01*
Y60609D01*
X103944Y60784D01*
X103810Y60918D01*
X103635Y60991D01*
D02*
G37*
G36*
X121199Y60797D02*
X121194D01*
Y59920D01*
X122071D01*
Y59925D01*
X122002Y60181D01*
X121870Y60410D01*
X121683Y60597D01*
X121454Y60729D01*
X121199Y60797D01*
D02*
G37*
G36*
X120940D02*
X120935D01*
X120679Y60729D01*
X120450Y60597D01*
X120263Y60410D01*
X120131Y60181D01*
X120063Y59925D01*
Y59920D01*
X120940D01*
Y60797D01*
D02*
G37*
G36*
X1788Y59798D02*
X721D01*
X732Y59715D01*
X813Y59520D01*
X942Y59352D01*
X1110Y59223D01*
X1305Y59142D01*
X1515Y59114D01*
X1788D01*
Y59798D01*
D02*
G37*
G36*
X122071Y59666D02*
X121194D01*
Y58789D01*
X121199D01*
X121454Y58858D01*
X121683Y58990D01*
X121870Y59177D01*
X122002Y59406D01*
X122071Y59661D01*
Y59666D01*
D02*
G37*
G36*
X120940D02*
X120063D01*
Y59661D01*
X120131Y59406D01*
X120263Y59177D01*
X120450Y58990D01*
X120679Y58858D01*
X120935Y58789D01*
X120940D01*
Y59666D01*
D02*
G37*
G36*
X107614Y58527D02*
X107425D01*
X107250Y58454D01*
X107116Y58320D01*
X107044Y58145D01*
Y57956D01*
X107116Y57781D01*
X107209Y57688D01*
Y56228D01*
X107196Y56222D01*
X107062Y56089D01*
X106989Y55914D01*
Y55724D01*
X107062Y55549D01*
X107196Y55415D01*
X107371Y55343D01*
X107560D01*
X107735Y55415D01*
X107869Y55549D01*
X107941Y55724D01*
Y55914D01*
X107869Y56089D01*
X107735Y56222D01*
X107721Y56228D01*
Y57619D01*
X107789Y57647D01*
X107884Y57742D01*
X108023Y57727D01*
X108031Y57723D01*
X108123Y57631D01*
X108148Y57551D01*
X108123Y57471D01*
X108027Y57375D01*
X107955Y57201D01*
Y57011D01*
X108027Y56836D01*
X108161Y56702D01*
X108336Y56630D01*
X108526D01*
X108700Y56702D01*
X108834Y56836D01*
X108907Y57011D01*
Y57201D01*
X108901Y57214D01*
X109050Y57363D01*
X115392D01*
X118350Y54405D01*
X118350Y54405D01*
X118433Y54350D01*
X118531Y54330D01*
X118531Y54330D01*
X120247D01*
X120346Y54160D01*
X120514Y53992D01*
X120719Y53874D01*
X120948Y53812D01*
X121185D01*
X121415Y53874D01*
X121620Y53992D01*
X121788Y54160D01*
X121906Y54366D01*
X121968Y54595D01*
Y54832D01*
X121906Y55061D01*
X121788Y55266D01*
X121620Y55434D01*
X121415Y55553D01*
X121185Y55614D01*
X120948D01*
X120719Y55553D01*
X120514Y55434D01*
X120346Y55266D01*
X120227Y55061D01*
X120169Y54842D01*
X118637D01*
X115856Y57623D01*
X115905Y57741D01*
X117555D01*
X118350Y56945D01*
X118350Y56945D01*
X118433Y56890D01*
X118531Y56870D01*
X118531Y56870D01*
X120247D01*
X120346Y56700D01*
X120514Y56532D01*
X120719Y56414D01*
X120948Y56352D01*
X121185D01*
X121415Y56414D01*
X121620Y56532D01*
X121788Y56700D01*
X121906Y56905D01*
X121968Y57135D01*
Y57372D01*
X121906Y57601D01*
X121788Y57806D01*
X121620Y57974D01*
X121415Y58093D01*
X121185Y58154D01*
X120948D01*
X120719Y58093D01*
X120514Y57974D01*
X120346Y57806D01*
X120227Y57601D01*
X120169Y57382D01*
X118637D01*
X117842Y58178D01*
X117759Y58233D01*
X117661Y58252D01*
X117661Y58252D01*
X108840D01*
X108834Y58266D01*
X108700Y58400D01*
X108526Y58473D01*
X108336D01*
X108161Y58400D01*
X108067Y58306D01*
X107927Y58320D01*
X107919Y58324D01*
X107789Y58454D01*
X107614Y58527D01*
D02*
G37*
G36*
X6871Y58448D02*
X6275D01*
X5679D01*
X5767Y58236D01*
X5926Y58077D01*
X5855Y58006D01*
X5779Y57824D01*
Y57626D01*
X5855Y57444D01*
X5916Y57383D01*
X5990Y57300D01*
X5916Y57217D01*
X5855Y57156D01*
X5779Y56974D01*
Y56776D01*
X5855Y56594D01*
X5916Y56533D01*
X5990Y56450D01*
X5916Y56367D01*
X5855Y56306D01*
X5779Y56124D01*
Y55926D01*
X5855Y55744D01*
X5916Y55683D01*
X5990Y55600D01*
X5916Y55517D01*
X5855Y55456D01*
X5779Y55274D01*
Y55076D01*
X5855Y54894D01*
X5916Y54833D01*
X5990Y54750D01*
X5916Y54667D01*
X5855Y54606D01*
X5779Y54424D01*
Y54226D01*
X5855Y54044D01*
X5916Y53983D01*
X5990Y53900D01*
X5916Y53817D01*
X5855Y53756D01*
X5779Y53574D01*
Y53376D01*
X5855Y53194D01*
X5926Y53123D01*
X5767Y52964D01*
X5679Y52752D01*
X6275D01*
X6871D01*
X6783Y52964D01*
X6624Y53123D01*
X6696Y53194D01*
X6771Y53376D01*
Y53574D01*
X6696Y53756D01*
X6634Y53817D01*
X6560Y53900D01*
X6634Y53983D01*
X6696Y54044D01*
X6771Y54226D01*
Y54424D01*
X6696Y54606D01*
X6634Y54667D01*
X6560Y54750D01*
X6634Y54833D01*
X6696Y54894D01*
X6771Y55076D01*
Y55274D01*
X6696Y55456D01*
X6634Y55517D01*
X6560Y55600D01*
X6634Y55683D01*
X6696Y55744D01*
X6771Y55926D01*
Y56124D01*
X6696Y56306D01*
X6634Y56367D01*
X6560Y56450D01*
X6634Y56533D01*
X6696Y56594D01*
X6771Y56776D01*
Y56974D01*
X6696Y57156D01*
X6634Y57217D01*
X6560Y57300D01*
X6634Y57383D01*
X6696Y57444D01*
X6771Y57626D01*
Y57824D01*
X6696Y58006D01*
X6624Y58077D01*
X6783Y58236D01*
X6871Y58448D01*
D02*
G37*
G36*
Y52498D02*
X6275D01*
X5679D01*
X5767Y52286D01*
X5840Y52213D01*
X5787Y52086D01*
X5413D01*
X5360Y52213D01*
X5433Y52286D01*
X5521Y52498D01*
X4925D01*
X4329D01*
X4417Y52286D01*
X4495Y52208D01*
X4450Y52073D01*
X4335Y52058D01*
X4140Y51977D01*
X3972Y51848D01*
X3843Y51680D01*
X3762Y51485D01*
X3751Y51402D01*
X6839D01*
X6828Y51485D01*
X6747Y51680D01*
X6618Y51848D01*
X6506Y51935D01*
X6523Y52079D01*
X6614Y52117D01*
X6783Y52286D01*
X6871Y52498D01*
D02*
G37*
G36*
X2315Y52086D02*
X2042D01*
Y51402D01*
X3109D01*
X3098Y51485D01*
X3017Y51680D01*
X2888Y51848D01*
X2720Y51977D01*
X2525Y52058D01*
X2315Y52086D01*
D02*
G37*
G36*
X1788D02*
X1515D01*
X1305Y52058D01*
X1110Y51977D01*
X942Y51848D01*
X813Y51680D01*
X732Y51485D01*
X721Y51402D01*
X1788D01*
Y52086D01*
D02*
G37*
G36*
X121185Y53074D02*
X120948D01*
X120719Y53013D01*
X120514Y52894D01*
X120346Y52727D01*
X120227Y52521D01*
X120166Y52292D01*
Y52055D01*
X120227Y51826D01*
X120346Y51620D01*
X120514Y51452D01*
X120719Y51334D01*
X120948Y51272D01*
X121185D01*
X121415Y51334D01*
X121620Y51452D01*
X121788Y51620D01*
X121906Y51826D01*
X121968Y52055D01*
Y52292D01*
X121906Y52521D01*
X121788Y52727D01*
X121620Y52894D01*
X121415Y53013D01*
X121185Y53074D01*
D02*
G37*
G36*
X6839Y51148D02*
X5422D01*
Y50464D01*
X6045D01*
X6255Y50492D01*
X6450Y50573D01*
X6618Y50702D01*
X6747Y50870D01*
X6828Y51065D01*
X6839Y51148D01*
D02*
G37*
G36*
X5168D02*
X3751D01*
X3762Y51065D01*
X3843Y50870D01*
X3972Y50702D01*
X4140Y50573D01*
X4335Y50492D01*
X4545Y50464D01*
X5168D01*
Y51148D01*
D02*
G37*
G36*
X3109D02*
X2042D01*
Y50464D01*
X2315D01*
X2525Y50492D01*
X2720Y50573D01*
X2888Y50702D01*
X3017Y50870D01*
X3098Y51065D01*
X3109Y51148D01*
D02*
G37*
G36*
X1788D02*
X721D01*
X732Y51065D01*
X813Y50870D01*
X942Y50702D01*
X1110Y50573D01*
X1305Y50492D01*
X1515Y50464D01*
X1788D01*
Y51148D01*
D02*
G37*
G36*
X80050Y48506D02*
X79861D01*
X79686Y48434D01*
X79552Y48300D01*
X79479Y48125D01*
Y47935D01*
X79552Y47760D01*
X79686Y47626D01*
X79861Y47554D01*
X80050D01*
X80225Y47626D01*
X80359Y47760D01*
X80364Y47774D01*
X82333D01*
X82340Y47757D01*
X82474Y47623D01*
X82649Y47551D01*
X82838D01*
X83013Y47623D01*
X83147Y47757D01*
X83219Y47932D01*
Y48121D01*
X83147Y48296D01*
X83013Y48430D01*
X82838Y48503D01*
X82649D01*
X82474Y48430D01*
X82340Y48296D01*
X82335Y48286D01*
X80364D01*
X80359Y48300D01*
X80225Y48434D01*
X80050Y48506D01*
D02*
G37*
G36*
X95217Y51726D02*
X95027D01*
X94852Y51654D01*
X94718Y51520D01*
X94646Y51345D01*
Y51155D01*
X94718Y50980D01*
X94852Y50846D01*
X95027Y50774D01*
X95170D01*
X99938Y46006D01*
X99938Y46006D01*
X100021Y45950D01*
X100119Y45931D01*
X100119Y45931D01*
X110512D01*
X110518Y45917D01*
X110652Y45783D01*
X110827Y45711D01*
X111016D01*
X111191Y45783D01*
X111325Y45917D01*
X111397Y46092D01*
Y46282D01*
X111325Y46457D01*
X111191Y46590D01*
X111016Y46663D01*
X110827D01*
X110652Y46590D01*
X110518Y46457D01*
X110512Y46443D01*
X100225D01*
X95573Y51095D01*
X95598Y51155D01*
Y51345D01*
X95525Y51520D01*
X95392Y51654D01*
X95217Y51726D01*
D02*
G37*
G36*
X98095Y43226D02*
X97905D01*
X97730Y43154D01*
X97596Y43020D01*
X97524Y42845D01*
Y42655D01*
X97596Y42480D01*
X97730Y42346D01*
X97905Y42274D01*
X98095D01*
X98256Y42341D01*
X101010Y39587D01*
X101004Y39574D01*
Y39384D01*
X101077Y39209D01*
X101211Y39075D01*
X101385Y39003D01*
X101575D01*
X101750Y39075D01*
X101884Y39209D01*
X101956Y39384D01*
Y39574D01*
X101884Y39749D01*
X101750Y39882D01*
X101575Y39955D01*
X101385D01*
X101372Y39949D01*
X98476Y42845D01*
X98404Y43020D01*
X98270Y43154D01*
X98095Y43226D01*
D02*
G37*
G36*
X120186Y36902D02*
X119997D01*
X119822Y36829D01*
X119688Y36696D01*
X119615Y36521D01*
Y36331D01*
X119621Y36318D01*
X119089Y35785D01*
X119033Y35702D01*
X119014Y35604D01*
X119014Y35604D01*
Y34535D01*
X119000Y34530D01*
X118866Y34396D01*
X118794Y34221D01*
Y34031D01*
X118866Y33857D01*
X119000Y33723D01*
X119175Y33650D01*
X119365D01*
X119539Y33723D01*
X119673Y33857D01*
X119746Y34031D01*
Y34221D01*
X119673Y34396D01*
X119539Y34530D01*
X119526Y34535D01*
Y35498D01*
X119983Y35956D01*
X119997Y35950D01*
X120186D01*
X120361Y36022D01*
X120495Y36156D01*
X120567Y36331D01*
Y36521D01*
X120495Y36696D01*
X120361Y36829D01*
X120186Y36902D01*
D02*
G37*
G36*
X25132Y33804D02*
X25127D01*
Y32927D01*
X26004D01*
Y32932D01*
X25936Y33188D01*
X25803Y33416D01*
X25616Y33603D01*
X25388Y33736D01*
X25132Y33804D01*
D02*
G37*
G36*
X24873D02*
X24868D01*
X24612Y33736D01*
X24384Y33603D01*
X24197Y33416D01*
X24064Y33188D01*
X23996Y32932D01*
Y32927D01*
X24873D01*
Y33804D01*
D02*
G37*
G36*
X27659Y33701D02*
X27421D01*
X27192Y33640D01*
X26987Y33521D01*
X26819Y33353D01*
X26700Y33148D01*
X26639Y32919D01*
Y32681D01*
X26700Y32452D01*
X26819Y32247D01*
X26987Y32079D01*
X27192Y31960D01*
X27421Y31899D01*
X27659D01*
X27888Y31960D01*
X28093Y32079D01*
X28261Y32247D01*
X28380Y32452D01*
X28441Y32681D01*
Y32919D01*
X28380Y33148D01*
X28261Y33353D01*
X28093Y33521D01*
X27888Y33640D01*
X27659Y33701D01*
D02*
G37*
G36*
X22835Y33711D02*
X22085D01*
X21880Y33670D01*
X21706Y33554D01*
X21590Y33380D01*
X21549Y33175D01*
Y32425D01*
X21590Y32220D01*
X21706Y32046D01*
X21880Y31930D01*
X22085Y31889D01*
X22835D01*
X23040Y31930D01*
X23214Y32046D01*
X23330Y32220D01*
X23371Y32425D01*
Y33175D01*
X23330Y33380D01*
X23214Y33554D01*
X23040Y33670D01*
X22835Y33711D01*
D02*
G37*
G36*
X26004Y32673D02*
X25127D01*
Y31796D01*
X25132D01*
X25388Y31864D01*
X25616Y31997D01*
X25803Y32184D01*
X25936Y32412D01*
X26004Y32668D01*
Y32673D01*
D02*
G37*
G36*
X24873D02*
X23996D01*
Y32668D01*
X24064Y32412D01*
X24197Y32184D01*
X24384Y31997D01*
X24612Y31864D01*
X24868Y31796D01*
X24873D01*
Y32673D01*
D02*
G37*
G36*
X5192Y32304D02*
X5147D01*
Y31127D01*
X6324D01*
Y31172D01*
X6235Y31503D01*
X6063Y31801D01*
X5821Y32043D01*
X5523Y32215D01*
X5192Y32304D01*
D02*
G37*
G36*
X4893D02*
X4848D01*
X4517Y32215D01*
X4219Y32043D01*
X3977Y31801D01*
X3805Y31503D01*
X3716Y31172D01*
Y31127D01*
X4893D01*
Y32304D01*
D02*
G37*
G36*
X6324Y30873D02*
X5147D01*
Y29696D01*
X5192D01*
X5523Y29785D01*
X5821Y29957D01*
X6063Y30199D01*
X6235Y30497D01*
X6324Y30828D01*
Y30873D01*
D02*
G37*
G36*
X4893D02*
X3716D01*
Y30828D01*
X3805Y30497D01*
X3977Y30199D01*
X4219Y29957D01*
X4517Y29785D01*
X4848Y29696D01*
X4893D01*
Y30873D01*
D02*
G37*
G36*
X50600Y23801D02*
X50350D01*
X50108Y23736D01*
X49891Y23611D01*
X49714Y23434D01*
X49589Y23217D01*
X49524Y22975D01*
Y22725D01*
X49589Y22483D01*
X49714Y22266D01*
X49891Y22089D01*
X50108Y21964D01*
X50350Y21899D01*
X50600D01*
X50842Y21964D01*
X51059Y22089D01*
X51236Y22266D01*
X51361Y22483D01*
X51426Y22725D01*
Y22975D01*
X51361Y23217D01*
X51236Y23434D01*
X51059Y23611D01*
X50842Y23736D01*
X50600Y23801D01*
D02*
G37*
G36*
X48335Y23812D02*
X47535D01*
X47320Y23769D01*
X47138Y23647D01*
X47016Y23465D01*
X46973Y23250D01*
Y22450D01*
X47016Y22235D01*
X47138Y22053D01*
X47320Y21931D01*
X47535Y21888D01*
X48335D01*
X48550Y21931D01*
X48732Y22053D01*
X48854Y22235D01*
X48897Y22450D01*
Y23250D01*
X48854Y23465D01*
X48732Y23647D01*
X48550Y23769D01*
X48335Y23812D01*
D02*
G37*
G36*
X30078Y24201D02*
X29762D01*
X29456Y24119D01*
X29183Y23961D01*
X28959Y23737D01*
X28801Y23464D01*
X28719Y23158D01*
Y22842D01*
X28801Y22536D01*
X28959Y22263D01*
X29183Y22039D01*
X29456Y21881D01*
X29762Y21799D01*
X30078D01*
X30384Y21881D01*
X30657Y22039D01*
X30881Y22263D01*
X31039Y22536D01*
X31121Y22842D01*
Y23158D01*
X31039Y23464D01*
X30881Y23737D01*
X30657Y23961D01*
X30384Y24119D01*
X30078Y24201D01*
D02*
G37*
G36*
X20158D02*
X19842D01*
X19536Y24119D01*
X19263Y23961D01*
X19039Y23737D01*
X18881Y23464D01*
X18799Y23158D01*
Y22842D01*
X18881Y22536D01*
X19039Y22263D01*
X19263Y22039D01*
X19536Y21881D01*
X19842Y21799D01*
X20158D01*
X20464Y21881D01*
X20737Y22039D01*
X20961Y22263D01*
X21119Y22536D01*
X21201Y22842D01*
Y23158D01*
X21119Y23464D01*
X20961Y23737D01*
X20737Y23961D01*
X20464Y24119D01*
X20158Y24201D01*
D02*
G37*
G36*
X99371Y18977D02*
X99326D01*
Y17800D01*
X100503D01*
Y17844D01*
X100414Y18176D01*
X100243Y18473D01*
X100000Y18716D01*
X99703Y18888D01*
X99371Y18977D01*
D02*
G37*
G36*
X99072D02*
X99028D01*
X98696Y18888D01*
X98399Y18716D01*
X98156Y18473D01*
X97984Y18176D01*
X97895Y17844D01*
Y17800D01*
X99072D01*
Y18977D01*
D02*
G37*
G36*
X79092D02*
X79048D01*
Y17800D01*
X80225D01*
Y17844D01*
X80136Y18176D01*
X79964Y18473D01*
X79721Y18716D01*
X79424Y18888D01*
X79092Y18977D01*
D02*
G37*
G36*
X78794D02*
X78749D01*
X78417Y18888D01*
X78120Y18716D01*
X77877Y18473D01*
X77706Y18176D01*
X77617Y17844D01*
Y17800D01*
X78794D01*
Y18977D01*
D02*
G37*
G36*
X100503Y17546D02*
X99326D01*
Y16369D01*
X99371D01*
X99703Y16458D01*
X100000Y16629D01*
X100243Y16872D01*
X100414Y17169D01*
X100503Y17501D01*
Y17546D01*
D02*
G37*
G36*
X99072D02*
X97895D01*
Y17501D01*
X97984Y17169D01*
X98156Y16872D01*
X98399Y16629D01*
X98696Y16458D01*
X99028Y16369D01*
X99072D01*
Y17546D01*
D02*
G37*
G36*
X80225D02*
X79048D01*
Y16369D01*
X79092D01*
X79424Y16458D01*
X79721Y16629D01*
X79964Y16872D01*
X80136Y17169D01*
X80225Y17501D01*
Y17546D01*
D02*
G37*
G36*
X78794D02*
X77617D01*
Y17501D01*
X77706Y17169D01*
X77877Y16872D01*
X78120Y16629D01*
X78417Y16458D01*
X78749Y16369D01*
X78794D01*
Y17546D01*
D02*
G37*
G36*
X134667Y14833D02*
Y14007D01*
X135493D01*
X135428Y14248D01*
X135303Y14465D01*
X135125Y14643D01*
X134908Y14768D01*
X134667Y14833D01*
D02*
G37*
G36*
X134413D02*
X134172Y14768D01*
X133955Y14643D01*
X133777Y14465D01*
X133652Y14248D01*
X133587Y14007D01*
X134413D01*
Y14833D01*
D02*
G37*
G36*
X35953Y14833D02*
X35127D01*
Y14007D01*
X35953D01*
Y14833D01*
D02*
G37*
G36*
X34873D02*
X34047D01*
Y14007D01*
X34873D01*
Y14833D01*
D02*
G37*
G36*
X132850Y14730D02*
X131150D01*
Y13030D01*
X132850D01*
Y14730D01*
D02*
G37*
G36*
X37652Y14730D02*
X37428D01*
X37212Y14672D01*
X37018Y14560D01*
X36860Y14402D01*
X36748Y14208D01*
X36690Y13992D01*
Y13768D01*
X36748Y13552D01*
X36860Y13358D01*
X37018Y13200D01*
X37212Y13088D01*
X37428Y13030D01*
X37652D01*
X37868Y13088D01*
X38062Y13200D01*
X38220Y13358D01*
X38332Y13552D01*
X38390Y13768D01*
Y13992D01*
X38332Y14208D01*
X38220Y14402D01*
X38062Y14560D01*
X37868Y14672D01*
X37652Y14730D01*
D02*
G37*
G36*
X135493Y13753D02*
X134667D01*
Y12927D01*
X134908Y12992D01*
X135125Y13117D01*
X135303Y13295D01*
X135428Y13512D01*
X135493Y13753D01*
D02*
G37*
G36*
X134413D02*
X133587D01*
X133652Y13512D01*
X133777Y13295D01*
X133955Y13117D01*
X134172Y12992D01*
X134413Y12927D01*
Y13753D01*
D02*
G37*
G36*
X35953Y13753D02*
X35127D01*
Y12927D01*
X35953D01*
Y13753D01*
D02*
G37*
G36*
X34873D02*
X34047D01*
Y12927D01*
X34873D01*
Y13753D01*
D02*
G37*
G36*
X110254Y13813D02*
X108746D01*
X108510Y13782D01*
X108290Y13691D01*
X108101Y13545D01*
X107955Y13356D01*
X107864Y13136D01*
X107833Y12900D01*
X107864Y12664D01*
X107955Y12444D01*
X108101Y12255D01*
X108290Y12109D01*
X108510Y12018D01*
X108746Y11987D01*
X110254D01*
X110490Y12018D01*
X110710Y12109D01*
X110899Y12255D01*
X111045Y12444D01*
X111136Y12664D01*
X111167Y12900D01*
X111136Y13136D01*
X111045Y13356D01*
X110899Y13545D01*
X110710Y13691D01*
X110490Y13782D01*
X110254Y13813D01*
D02*
G37*
G36*
X65254D02*
X63746D01*
X63510Y13782D01*
X63290Y13691D01*
X63101Y13545D01*
X62955Y13356D01*
X62864Y13136D01*
X62833Y12900D01*
X62864Y12664D01*
X62955Y12444D01*
X63101Y12255D01*
X63290Y12109D01*
X63510Y12018D01*
X63746Y11987D01*
X65254D01*
X65490Y12018D01*
X65710Y12109D01*
X65899Y12255D01*
X66045Y12444D01*
X66136Y12664D01*
X66167Y12900D01*
X66136Y13136D01*
X66045Y13356D01*
X65899Y13545D01*
X65710Y13691D01*
X65490Y13782D01*
X65254Y13813D01*
D02*
G37*
G36*
X143958Y12312D02*
X143913D01*
Y11135D01*
X145090D01*
Y11179D01*
X145001Y11511D01*
X144830Y11808D01*
X144587Y12051D01*
X144290Y12223D01*
X143958Y12312D01*
D02*
G37*
G36*
X143659D02*
X143615D01*
X143283Y12223D01*
X142986Y12051D01*
X142743Y11808D01*
X142571Y11511D01*
X142482Y11179D01*
Y11135D01*
X143659D01*
Y12312D01*
D02*
G37*
G36*
X149747Y13079D02*
X149652D01*
Y10952D01*
X151779D01*
Y11047D01*
X151692Y11482D01*
X151522Y11893D01*
X151276Y12262D01*
X150962Y12576D01*
X150593Y12822D01*
X150182Y12992D01*
X149747Y13079D01*
D02*
G37*
G36*
X149398D02*
X149303D01*
X148868Y12992D01*
X148457Y12822D01*
X148088Y12576D01*
X147774Y12262D01*
X147528Y11893D01*
X147358Y11482D01*
X147271Y11047D01*
Y10952D01*
X149398D01*
Y13079D01*
D02*
G37*
G36*
X17747D02*
X17652D01*
Y10952D01*
X19779D01*
Y11047D01*
X19692Y11482D01*
X19522Y11893D01*
X19276Y12262D01*
X18962Y12576D01*
X18593Y12822D01*
X18182Y12992D01*
X17747Y13079D01*
D02*
G37*
G36*
X17398D02*
X17303D01*
X16868Y12992D01*
X16457Y12822D01*
X16088Y12576D01*
X15774Y12262D01*
X15528Y11893D01*
X15358Y11482D01*
X15271Y11047D01*
Y10952D01*
X17398D01*
Y13079D01*
D02*
G37*
G36*
X145090Y10881D02*
X143913D01*
Y9704D01*
X143958D01*
X144290Y9792D01*
X144587Y9964D01*
X144830Y10207D01*
X145001Y10504D01*
X145090Y10836D01*
Y10881D01*
D02*
G37*
G36*
X143659D02*
X142482D01*
Y10836D01*
X142571Y10504D01*
X142743Y10207D01*
X142986Y9964D01*
X143283Y9792D01*
X143615Y9704D01*
X143659D01*
Y10881D01*
D02*
G37*
G36*
X151779Y10698D02*
X149652D01*
Y8571D01*
X149747D01*
X150182Y8658D01*
X150593Y8828D01*
X150962Y9074D01*
X151276Y9388D01*
X151522Y9757D01*
X151692Y10168D01*
X151779Y10603D01*
Y10698D01*
D02*
G37*
G36*
X149398D02*
X147271D01*
Y10603D01*
X147358Y10168D01*
X147528Y9757D01*
X147774Y9388D01*
X148088Y9074D01*
X148457Y8828D01*
X148868Y8658D01*
X149303Y8571D01*
X149398D01*
Y10698D01*
D02*
G37*
G36*
X19779D02*
X17652D01*
Y8571D01*
X17747D01*
X18182Y8658D01*
X18593Y8828D01*
X18962Y9074D01*
X19276Y9388D01*
X19522Y9757D01*
X19692Y10168D01*
X19779Y10603D01*
Y10698D01*
D02*
G37*
G36*
X17398D02*
X15271D01*
Y10603D01*
X15358Y10168D01*
X15528Y9757D01*
X15774Y9388D01*
X16088Y9074D01*
X16457Y8828D01*
X16868Y8658D01*
X17303Y8571D01*
X17398D01*
Y10698D01*
D02*
G37*
G36*
X110254Y8417D02*
X109627D01*
Y7527D01*
X111254D01*
X111236Y7663D01*
X111134Y7908D01*
X110973Y8119D01*
X110762Y8280D01*
X110517Y8382D01*
X110254Y8417D01*
D02*
G37*
G36*
X65254D02*
X64627D01*
Y7527D01*
X66254D01*
X66236Y7663D01*
X66134Y7908D01*
X65973Y8119D01*
X65762Y8280D01*
X65517Y8382D01*
X65254Y8417D01*
D02*
G37*
G36*
X64373D02*
X63746D01*
X63483Y8382D01*
X63238Y8280D01*
X63027Y8119D01*
X62866Y7908D01*
X62764Y7663D01*
X62746Y7527D01*
X64373D01*
Y8417D01*
D02*
G37*
G36*
X109373D02*
X108746D01*
X108483Y8382D01*
X108238Y8280D01*
X108027Y8119D01*
X107866Y7908D01*
X107764Y7663D01*
X107746Y7527D01*
X109373D01*
Y8417D01*
D02*
G37*
G36*
X137243Y10451D02*
X136917D01*
X136598Y10388D01*
X136298Y10263D01*
X136028Y10082D01*
X135798Y9852D01*
X135617Y9582D01*
X135492Y9282D01*
X135429Y8963D01*
Y8637D01*
X135492Y8318D01*
X135617Y8018D01*
X135798Y7748D01*
X136028Y7518D01*
X136298Y7337D01*
X136598Y7212D01*
X136917Y7149D01*
X137243D01*
X137562Y7212D01*
X137862Y7337D01*
X138132Y7518D01*
X138362Y7748D01*
X138543Y8018D01*
X138668Y8318D01*
X138731Y8637D01*
Y8963D01*
X138668Y9282D01*
X138543Y9582D01*
X138362Y9852D01*
X138132Y10082D01*
X137862Y10263D01*
X137562Y10388D01*
X137243Y10451D01*
D02*
G37*
G36*
X127083D02*
X126757D01*
X126438Y10388D01*
X126138Y10263D01*
X125868Y10082D01*
X125638Y9852D01*
X125457Y9582D01*
X125332Y9282D01*
X125269Y8963D01*
Y8637D01*
X125332Y8318D01*
X125457Y8018D01*
X125638Y7748D01*
X125868Y7518D01*
X126138Y7337D01*
X126438Y7212D01*
X126757Y7149D01*
X127083D01*
X127402Y7212D01*
X127702Y7337D01*
X127972Y7518D01*
X128202Y7748D01*
X128383Y8018D01*
X128508Y8318D01*
X128571Y8637D01*
Y8963D01*
X128508Y9282D01*
X128383Y9582D01*
X128202Y9852D01*
X127972Y10082D01*
X127702Y10263D01*
X127402Y10388D01*
X127083Y10451D01*
D02*
G37*
G36*
X40243Y10451D02*
X39917D01*
X39598Y10388D01*
X39298Y10263D01*
X39028Y10082D01*
X38798Y9852D01*
X38617Y9582D01*
X38492Y9282D01*
X38429Y8963D01*
Y8637D01*
X38492Y8318D01*
X38617Y8018D01*
X38798Y7748D01*
X39028Y7518D01*
X39298Y7337D01*
X39598Y7212D01*
X39917Y7149D01*
X40243D01*
X40562Y7212D01*
X40862Y7337D01*
X41132Y7518D01*
X41362Y7748D01*
X41543Y8018D01*
X41668Y8318D01*
X41731Y8637D01*
Y8963D01*
X41668Y9282D01*
X41543Y9582D01*
X41362Y9852D01*
X41132Y10082D01*
X40862Y10263D01*
X40562Y10388D01*
X40243Y10451D01*
D02*
G37*
G36*
X30083D02*
X29757D01*
X29438Y10388D01*
X29138Y10263D01*
X28868Y10082D01*
X28638Y9852D01*
X28457Y9582D01*
X28332Y9282D01*
X28269Y8963D01*
Y8637D01*
X28332Y8318D01*
X28457Y8018D01*
X28638Y7748D01*
X28868Y7518D01*
X29138Y7337D01*
X29438Y7212D01*
X29757Y7149D01*
X30083D01*
X30402Y7212D01*
X30702Y7337D01*
X30972Y7518D01*
X31202Y7748D01*
X31383Y8018D01*
X31508Y8318D01*
X31571Y8637D01*
Y8963D01*
X31508Y9282D01*
X31383Y9582D01*
X31202Y9852D01*
X30972Y10082D01*
X30702Y10263D01*
X30402Y10388D01*
X30083Y10451D01*
D02*
G37*
G36*
X111254Y7273D02*
X109627D01*
Y6383D01*
X110254D01*
X110517Y6418D01*
X110762Y6520D01*
X110973Y6681D01*
X111134Y6892D01*
X111236Y7137D01*
X111254Y7273D01*
D02*
G37*
G36*
X109373D02*
X107746D01*
X107764Y7137D01*
X107866Y6892D01*
X108027Y6681D01*
X108238Y6520D01*
X108483Y6418D01*
X108746Y6383D01*
X109373D01*
Y7273D01*
D02*
G37*
G36*
X66254D02*
X64627D01*
Y6383D01*
X65254D01*
X65517Y6418D01*
X65762Y6520D01*
X65973Y6681D01*
X66134Y6892D01*
X66236Y7137D01*
X66254Y7273D01*
D02*
G37*
G36*
X64373D02*
X62746D01*
X62764Y7137D01*
X62866Y6892D01*
X63027Y6681D01*
X63238Y6520D01*
X63483Y6418D01*
X63746Y6383D01*
X64373D01*
Y7273D01*
D02*
G37*
G36*
X112254Y5913D02*
X110746D01*
X110510Y5882D01*
X110290Y5791D01*
X110101Y5645D01*
X109955Y5456D01*
X109864Y5236D01*
X109833Y5000D01*
X109864Y4764D01*
X109955Y4544D01*
X110101Y4355D01*
X110290Y4209D01*
X110510Y4118D01*
X110746Y4087D01*
X112254D01*
X112490Y4118D01*
X112710Y4209D01*
X112899Y4355D01*
X113045Y4544D01*
X113136Y4764D01*
X113167Y5000D01*
X113136Y5236D01*
X113045Y5456D01*
X112899Y5645D01*
X112710Y5791D01*
X112490Y5882D01*
X112254Y5913D01*
D02*
G37*
G36*
X53140Y23801D02*
X52890D01*
X52648Y23736D01*
X52431Y23611D01*
X52254Y23434D01*
X52129Y23217D01*
X52064Y22975D01*
Y22725D01*
X52129Y22483D01*
X52254Y22266D01*
X52431Y22089D01*
X52648Y21964D01*
X52759Y21934D01*
Y14044D01*
X52759Y14044D01*
X52778Y13946D01*
X52834Y13863D01*
X54215Y12483D01*
X54215Y12483D01*
X61878Y4819D01*
X61878Y4819D01*
X61961Y4764D01*
X62059Y4744D01*
X62059Y4744D01*
X64872D01*
X64955Y4544D01*
X65101Y4355D01*
X65290Y4209D01*
X65510Y4118D01*
X65746Y4087D01*
X67254D01*
X67490Y4118D01*
X67710Y4209D01*
X67899Y4355D01*
X68045Y4544D01*
X68136Y4764D01*
X68167Y5000D01*
X68136Y5236D01*
X68045Y5456D01*
X67899Y5645D01*
X67710Y5791D01*
X67490Y5882D01*
X67254Y5913D01*
X65746D01*
X65510Y5882D01*
X65290Y5791D01*
X65101Y5645D01*
X64955Y5456D01*
X64872Y5256D01*
X62165D01*
X54576Y12845D01*
X54576Y12845D01*
X53271Y14150D01*
Y21934D01*
X53382Y21964D01*
X53599Y22089D01*
X53776Y22266D01*
X53901Y22483D01*
X53966Y22725D01*
Y22975D01*
X53901Y23217D01*
X53776Y23434D01*
X53599Y23611D01*
X53382Y23736D01*
X53140Y23801D01*
D02*
G37*
%LPD*%
D28*
X72054Y51977D02*
Y52099D01*
X71704Y52449D02*
X72054Y52099D01*
X71704Y52449D02*
Y53876D01*
X61308Y62783D02*
X69693Y54397D01*
X61447Y63139D02*
X70344Y54242D01*
X69693Y50797D02*
X69740Y50750D01*
X70344Y51375D02*
Y54242D01*
X69693Y50797D02*
Y54397D01*
X68864Y50307D02*
Y54730D01*
X68270Y49763D02*
Y54828D01*
X68864Y50307D02*
X68921Y50250D01*
X68270Y49763D02*
X68290Y49743D01*
X84140Y44579D02*
Y48520D01*
X84674Y45241D02*
Y48744D01*
X84140Y44579D02*
X84177Y44542D01*
X84674Y45241D02*
X84716Y45199D01*
X85798Y46441D02*
Y49079D01*
X85250Y45842D02*
X85292Y45800D01*
X85250Y45842D02*
Y48979D01*
X85798Y46441D02*
X85826Y46414D01*
X87262Y46116D02*
Y48285D01*
X67027Y67201D02*
X85250Y48979D01*
X87774Y45424D02*
Y57583D01*
X87198Y46053D02*
X87262Y46116D01*
X88127Y46604D02*
X88544Y46187D01*
X87774Y57583D02*
X104932Y74741D01*
X88127Y46604D02*
Y57161D01*
X90253Y45713D02*
X90282Y45742D01*
Y48818D01*
X91434Y46064D02*
Y46705D01*
X90507Y44182D02*
X93643Y47317D01*
X90987Y47152D02*
X91434Y46705D01*
X90772Y46553D02*
Y46871D01*
Y46553D02*
X90858Y46467D01*
X93643Y47317D02*
Y54723D01*
X91434Y46064D02*
X91504Y45993D01*
X87774Y44182D02*
X90507D01*
X88478Y47770D02*
X89706Y46541D01*
X90636Y47007D02*
X90772Y46871D01*
X90987Y47152D02*
Y57423D01*
X90636Y47007D02*
Y57672D01*
X90203Y48896D02*
Y57735D01*
X106156Y73688D01*
X90203Y48896D02*
X90282Y48818D01*
X90636Y57672D02*
X106206Y73242D01*
X61162Y62432D02*
X68864Y54730D01*
X71027Y52044D02*
Y54056D01*
X25582Y62004D02*
X61093D01*
X26263Y62783D02*
X61308D01*
X61693Y63886D02*
X71704Y53876D01*
X28478Y63139D02*
X61447D01*
X38649Y63886D02*
X61693D01*
X25651Y62432D02*
X61162D01*
X72425Y52850D02*
Y53651D01*
X61894Y64679D02*
X73308Y53264D01*
X42741Y64317D02*
X61759D01*
X61093Y62004D02*
X68270Y54828D01*
X49748Y64679D02*
X61894D01*
X61548Y63535D02*
X71027Y54056D01*
X61759Y64317D02*
X72425Y53651D01*
X34971Y63535D02*
X61548D01*
X62670Y65030D02*
X73874Y53826D01*
X73925D01*
X120940Y54586D02*
X121067Y54713D01*
X118531Y54586D02*
X120940D01*
Y57126D02*
X121067Y57253D01*
X118531Y57126D02*
X120940D01*
Y64746D02*
X121067Y64873D01*
X117527Y64746D02*
X120940D01*
X54395Y12664D02*
X62059Y5000D01*
X53015Y14044D02*
X54395Y12664D01*
X62059Y5000D02*
X66500D01*
X53015Y14044D02*
Y22850D01*
X60333Y65508D02*
X67152D01*
X56027Y69814D02*
X60333Y65508D01*
X67152D02*
X84140Y48520D01*
X54170Y65030D02*
X62670D01*
X88836Y60619D02*
Y61003D01*
X88826Y60609D02*
X88836Y60619D01*
X87577Y65288D02*
X98848Y76559D01*
X87577Y61374D02*
Y65288D01*
X116431Y62116D02*
Y63650D01*
X117527Y64746D01*
X115163Y60848D02*
X116431Y62116D01*
X108431Y57106D02*
X108944Y57619D01*
X115498D02*
X118531Y54586D01*
X108944Y57619D02*
X115498D01*
X117661Y57997D02*
X118531Y57126D01*
X108431Y57997D02*
X117661D01*
X107465D02*
X107520Y58051D01*
X107465Y55819D02*
Y57997D01*
X108700Y60848D02*
X115163D01*
X101554Y58610D02*
X103459Y60515D01*
X103540D01*
X101554Y55243D02*
Y58610D01*
X106206Y73242D02*
X134710D01*
X138027Y76559D01*
X90987Y57423D02*
X106455Y72891D01*
X138359D01*
X142027Y76559D01*
X119270Y35604D02*
X120091Y36426D01*
X71027Y63850D02*
Y76559D01*
Y63850D02*
X85798Y49079D01*
X67027Y67201D02*
Y76559D01*
X78027Y57520D02*
Y76559D01*
Y57520D02*
X87262Y48285D01*
X84674Y68205D02*
X93027Y76559D01*
X84674Y63679D02*
Y68205D01*
X88750Y64162D02*
X99897Y75309D01*
X88750Y61841D02*
Y64162D01*
X99897Y75309D02*
X110777D01*
X119270Y34126D02*
Y35604D01*
X81394Y40074D02*
X81423Y40045D01*
Y35109D02*
Y40045D01*
Y35109D02*
X81452Y35080D01*
X83273Y39391D02*
X87774D01*
X76750Y45914D02*
X83273Y39391D01*
X76750Y45914D02*
Y52502D01*
X52027Y67173D02*
Y76559D01*
X48027Y66400D02*
X49748Y64679D01*
X52027Y67173D02*
X54170Y65030D01*
X33027Y65479D02*
X34971Y63535D01*
X56027Y69814D02*
Y76559D01*
X48027Y66400D02*
Y76559D01*
X37027Y65508D02*
X38649Y63886D01*
X41027Y66030D02*
X42741Y64317D01*
X93643Y54723D02*
Y59246D01*
X87774Y32800D02*
X107610D01*
X93643Y54723D02*
X96446D01*
X87774Y32800D02*
Y39391D01*
Y44182D01*
X96446Y54723D02*
X96500Y54669D01*
X107610Y32800D02*
X118130Y22281D01*
X47935Y32800D02*
X87774D01*
X88397Y65041D02*
X99179Y75822D01*
X107272D02*
X108009Y76559D01*
X99179Y75822D02*
X107272D01*
X98848Y76559D02*
X100995D01*
X101027Y76592D01*
X110777Y75309D02*
X112027Y76559D01*
X104038Y58750D02*
X116861Y71573D01*
X152042D02*
X157027Y76559D01*
X116861Y71573D02*
X152042D01*
X116623Y72069D02*
X148538D01*
X103540Y58986D02*
X116623Y72069D01*
X148538D02*
X153027Y76559D01*
X97027Y51596D02*
X100831Y47792D01*
X109783Y47552D02*
X109884D01*
X109542Y47792D02*
X109783Y47552D01*
X100831Y47792D02*
X109542D01*
X87000Y62009D02*
Y65600D01*
X97027Y75627D01*
Y76559D01*
X94631Y55674D02*
Y60271D01*
X106847Y72487D02*
X138771D01*
X94631Y60271D02*
X106847Y72487D01*
X83955Y74487D02*
X86027Y76559D01*
X83955Y63258D02*
Y74487D01*
X86250Y61181D02*
X86390Y61321D01*
X86250Y61059D02*
Y61181D01*
X86390Y61321D02*
Y61399D01*
X87000Y62009D01*
X95122Y51184D02*
X100119Y46187D01*
X95122Y51184D02*
Y51250D01*
X63027Y70391D02*
X84674Y48744D01*
X96782Y55697D02*
Y55819D01*
Y55697D02*
X96937Y55542D01*
Y55490D02*
Y55542D01*
Y55490D02*
X104113Y48314D01*
X104038Y50665D02*
Y58750D01*
X103556Y50183D02*
X104038Y50665D01*
X104176Y48748D02*
X104341D01*
X98848Y54076D02*
X104176Y48748D01*
X98848Y54076D02*
Y56040D01*
X104341Y48748D02*
X105767Y50174D01*
X104113Y48314D02*
X109357D01*
X110131Y49087D01*
X105767Y50174D02*
X110131D01*
X103540Y51060D02*
Y58986D01*
X103462Y50982D02*
X103540Y51060D01*
X100119Y46187D02*
X110921D01*
X98187Y42772D02*
X101480Y39479D01*
X98022Y42772D02*
X98187D01*
X98000Y42750D02*
X98022Y42772D01*
X91875Y63619D02*
Y63679D01*
X91463Y63207D02*
X91875Y63619D01*
X91463Y62270D02*
Y63207D01*
X79955Y48030D02*
X82740D01*
X82743Y48027D01*
X88836Y61003D02*
X88973Y61140D01*
Y61617D01*
X88750Y61841D02*
X88973Y61617D01*
X88397Y61379D02*
Y65041D01*
X108009Y76559D02*
X108027D01*
X88478Y56781D02*
X105736Y74039D01*
X88127Y57161D02*
X105356Y74390D01*
X88478Y47770D02*
Y56781D01*
X63027Y70391D02*
Y76559D01*
X106156Y73688D02*
X124971D01*
X105356Y74390D02*
X120869D01*
X105736Y74039D02*
X124507D01*
X104932Y74741D02*
X114209D01*
X138771Y72487D02*
X142842Y76559D01*
X127842D02*
X131027D01*
X124971Y73688D02*
X127842Y76559D01*
X142842D02*
X146027D01*
X114209Y74741D02*
X116027Y76559D01*
X120869Y74390D02*
X123027Y76547D01*
X124507Y74039D02*
X127027Y76559D01*
X82027Y64073D02*
X83505Y62595D01*
X82027Y64073D02*
Y76559D01*
X41027Y66030D02*
Y76559D01*
X37027Y65508D02*
Y76559D01*
X71027Y52044D02*
X71125Y51946D01*
Y51825D02*
Y51946D01*
X33027Y65479D02*
Y76559D01*
X22027Y67018D02*
X26263Y62783D01*
X18027Y70055D02*
X25651Y62432D01*
X26027Y65590D02*
X28478Y63139D01*
X26027Y65590D02*
Y76559D01*
X11027D02*
X25582Y62004D01*
X22027Y67018D02*
Y76559D01*
X18027Y70055D02*
Y76559D01*
D30*
X4925Y58575D02*
D03*
Y57725D02*
D03*
Y56875D02*
D03*
Y56025D02*
D03*
Y55175D02*
D03*
Y54325D02*
D03*
Y53475D02*
D03*
Y52625D02*
D03*
X6275D02*
D03*
Y53475D02*
D03*
Y54325D02*
D03*
Y55175D02*
D03*
Y56025D02*
D03*
Y56875D02*
D03*
Y57725D02*
D03*
Y58575D02*
D03*
D31*
X5295Y51275D02*
D03*
Y59925D02*
D03*
D32*
X1915Y51275D02*
D03*
Y59925D02*
D03*
D33*
X17525Y10825D02*
D03*
Y94825D02*
D03*
X149525Y10825D02*
D03*
Y94825D02*
D03*
D34*
X109500Y12900D02*
D03*
Y7400D02*
D03*
X111500Y5000D02*
D03*
X64500Y12900D02*
D03*
Y7400D02*
D03*
X66500Y5000D02*
D03*
D35*
X40080Y8800D02*
D03*
X29920D02*
D03*
X137080Y8800D02*
D03*
X126920D02*
D03*
D36*
X37540Y13880D02*
D03*
X134540Y13880D02*
D03*
D37*
X35000Y13880D02*
D03*
X132000Y13880D02*
D03*
D38*
X22460Y32800D02*
D03*
D39*
X25000D02*
D03*
X27540D02*
D03*
X121067Y52173D02*
D03*
Y54713D02*
D03*
Y57253D02*
D03*
Y59793D02*
D03*
Y62333D02*
D03*
D40*
Y64873D02*
D03*
D41*
X47935Y22850D02*
D03*
D42*
X50475D02*
D03*
X53015D02*
D03*
D43*
X99199Y17673D02*
D03*
X29920Y23000D02*
D03*
X78921Y17673D02*
D03*
X5020Y31000D02*
D03*
X143786Y11008D02*
D03*
X135500Y94500D02*
D03*
X36000Y94825D02*
D03*
X20000Y23000D02*
D03*
D44*
X117741Y60762D02*
D03*
X32142Y21600D02*
D03*
X67286Y19041D02*
D03*
X38175Y16259D02*
D03*
X62483Y5724D02*
D03*
X52117Y18907D02*
D03*
X53789Y20301D02*
D03*
X52345Y20326D02*
D03*
X53663Y19008D02*
D03*
X24796Y29203D02*
D03*
X30828Y58627D02*
D03*
X35132Y65866D02*
D03*
X19687Y62176D02*
D03*
X11687D02*
D03*
X11969Y54577D02*
D03*
X7482Y54434D02*
D03*
X86858Y50462D02*
D03*
X84951Y55351D02*
D03*
X83383Y55368D02*
D03*
X89605Y61243D02*
D03*
X131613Y33000D02*
D03*
X149226Y32570D02*
D03*
X129465Y17058D02*
D03*
X85694Y40828D02*
D03*
X92186Y34384D02*
D03*
X85694Y34862D02*
D03*
X84215Y38155D02*
D03*
X74382Y43358D02*
D03*
X69418Y43072D02*
D03*
X60540Y56437D02*
D03*
X44693Y59253D02*
D03*
X40015Y55673D02*
D03*
X42210Y53286D02*
D03*
X11185Y58489D02*
D03*
X18869Y57534D02*
D03*
X18678Y53859D02*
D03*
X95241Y44074D02*
D03*
X108033Y42594D02*
D03*
X151040Y83167D02*
D03*
X152233Y73859D02*
D03*
X137579Y74097D02*
D03*
X145312Y73763D02*
D03*
X130849Y74288D02*
D03*
X136004Y83501D02*
D03*
X120968Y83262D02*
D03*
X106076Y83214D02*
D03*
X90993Y83167D02*
D03*
X76052Y83262D02*
D03*
X16005Y82928D02*
D03*
X61208Y82928D02*
D03*
X46124Y82976D02*
D03*
X30946Y82069D02*
D03*
X44275Y67135D02*
D03*
X50347Y66665D02*
D03*
X54969Y67488D02*
D03*
X61511Y68075D02*
D03*
X65429Y70347D02*
D03*
X69189Y71523D02*
D03*
X159687Y86169D02*
D03*
X163687Y78169D02*
D03*
X159687Y70169D02*
D03*
X163687Y62169D02*
D03*
X159687Y54169D02*
D03*
X163687Y46169D02*
D03*
X159687Y38169D02*
D03*
X163687Y30169D02*
D03*
X159687Y22169D02*
D03*
X155687Y94169D02*
D03*
X151687Y70169D02*
D03*
X155687Y62169D02*
D03*
X151687Y54169D02*
D03*
X155687Y46169D02*
D03*
X151687Y22169D02*
D03*
X155687Y14169D02*
D03*
X151687Y6169D02*
D03*
X143687Y70169D02*
D03*
X147687Y62169D02*
D03*
X143687Y54169D02*
D03*
X147687Y46169D02*
D03*
X143687Y38169D02*
D03*
X147687Y30169D02*
D03*
Y14169D02*
D03*
X143687Y6169D02*
D03*
X139687Y94169D02*
D03*
X135687Y70169D02*
D03*
X139687Y62169D02*
D03*
X135687Y54169D02*
D03*
X139687Y46169D02*
D03*
X135687Y38169D02*
D03*
X139687Y30169D02*
D03*
X135687Y22169D02*
D03*
X139687Y14169D02*
D03*
X135687Y6169D02*
D03*
X131687Y94169D02*
D03*
X127687Y70169D02*
D03*
X131687Y62169D02*
D03*
X127687Y54169D02*
D03*
X131687Y46169D02*
D03*
X127687Y38169D02*
D03*
Y22169D02*
D03*
Y6169D02*
D03*
X123687Y94169D02*
D03*
X119687Y70169D02*
D03*
X123687Y62169D02*
D03*
Y46169D02*
D03*
X119687Y38169D02*
D03*
X123687Y14169D02*
D03*
X119687Y6169D02*
D03*
X115687Y94169D02*
D03*
X111687Y86169D02*
D03*
Y70169D02*
D03*
Y54169D02*
D03*
Y38169D02*
D03*
Y22169D02*
D03*
X115687Y14169D02*
D03*
X107687Y94169D02*
D03*
X103687Y38169D02*
D03*
X107687Y30169D02*
D03*
X103687Y22169D02*
D03*
X107687Y14169D02*
D03*
X103687Y6169D02*
D03*
X99687Y94169D02*
D03*
X95687Y70169D02*
D03*
X99687Y62169D02*
D03*
X95687Y38169D02*
D03*
X99687Y30169D02*
D03*
X95687Y22169D02*
D03*
X99687Y14169D02*
D03*
X95687Y6169D02*
D03*
X91687Y94169D02*
D03*
Y78169D02*
D03*
X87687Y70169D02*
D03*
X91687Y30169D02*
D03*
X87687Y22169D02*
D03*
X91687Y14169D02*
D03*
X87687Y6169D02*
D03*
X83687Y94169D02*
D03*
X79687Y70169D02*
D03*
X83687Y30169D02*
D03*
X79687Y22169D02*
D03*
X83687Y14169D02*
D03*
X79687Y6169D02*
D03*
X75687Y94169D02*
D03*
Y78169D02*
D03*
X71687Y70169D02*
D03*
X75687Y62169D02*
D03*
X71687Y38169D02*
D03*
X75687Y30169D02*
D03*
X71687Y22169D02*
D03*
X75687Y14169D02*
D03*
X71687Y6169D02*
D03*
X67687Y94169D02*
D03*
Y30169D02*
D03*
X63687Y22169D02*
D03*
X67687Y14169D02*
D03*
X59687Y94169D02*
D03*
X55687Y86169D02*
D03*
X59687Y78169D02*
D03*
Y46169D02*
D03*
Y30169D02*
D03*
X55687Y22169D02*
D03*
X59687Y14169D02*
D03*
X55687Y6169D02*
D03*
X51687Y94169D02*
D03*
Y46169D02*
D03*
X47687Y38169D02*
D03*
X51687Y30169D02*
D03*
Y14169D02*
D03*
X47687Y6169D02*
D03*
X43687Y94169D02*
D03*
X39687Y86169D02*
D03*
Y70169D02*
D03*
X43687Y46169D02*
D03*
X39687Y38169D02*
D03*
X43687Y30169D02*
D03*
X39687Y22169D02*
D03*
X43687Y14169D02*
D03*
X39687Y6169D02*
D03*
X31687Y70169D02*
D03*
Y38169D02*
D03*
X35687Y30169D02*
D03*
X31687Y6169D02*
D03*
X27687Y94169D02*
D03*
X23687Y70169D02*
D03*
Y54169D02*
D03*
X27687Y46169D02*
D03*
X23687Y38169D02*
D03*
Y22169D02*
D03*
X27687Y14169D02*
D03*
X23687Y6169D02*
D03*
X15687Y70169D02*
D03*
X19687Y46169D02*
D03*
X15687Y38169D02*
D03*
X19687Y30169D02*
D03*
X15687Y22169D02*
D03*
X19687Y14169D02*
D03*
X15687Y6169D02*
D03*
X11687Y94169D02*
D03*
X7687Y86169D02*
D03*
Y70169D02*
D03*
X11687Y46169D02*
D03*
X7687Y38169D02*
D03*
X11687Y30169D02*
D03*
X7687Y22169D02*
D03*
X11687Y14169D02*
D03*
X63162Y55400D02*
D03*
X65047Y54041D02*
D03*
X70344Y51375D02*
D03*
X69740Y50750D02*
D03*
X68290Y49743D02*
D03*
X68921Y50250D02*
D03*
X72054Y51977D02*
D03*
X76750Y52502D02*
D03*
X81959Y47340D02*
D03*
X82743Y48027D02*
D03*
X84716Y45199D02*
D03*
X84177Y44542D02*
D03*
X85826Y46414D02*
D03*
X85292Y45800D02*
D03*
X87774Y45424D02*
D03*
X87198Y46053D02*
D03*
X89706Y46541D02*
D03*
X88544Y46187D02*
D03*
X90253Y45713D02*
D03*
X91504Y45993D02*
D03*
X90858Y46467D02*
D03*
X67570Y54607D02*
D03*
X74000Y53976D02*
D03*
X53660Y52097D02*
D03*
X53617Y50676D02*
D03*
X63778Y54625D02*
D03*
X47935Y32800D02*
D03*
X500Y19500D02*
D03*
X6000Y17228D02*
D03*
X9000Y11366D02*
D03*
Y5500D02*
D03*
Y0D02*
D03*
X23000D02*
D03*
X119841Y65322D02*
D03*
X72550Y56377D02*
D03*
X88826Y60609D02*
D03*
X108431Y57997D02*
D03*
X107520Y58051D02*
D03*
X108700Y60848D02*
D03*
X108431Y57106D02*
D03*
X103540Y60515D02*
D03*
X101554Y55243D02*
D03*
X110949Y48691D02*
D03*
X120091Y36426D02*
D03*
X119270Y34126D02*
D03*
X81394Y40074D02*
D03*
X73307Y53263D02*
D03*
X96500Y54669D02*
D03*
X87774Y44182D02*
D03*
X118130Y22281D02*
D03*
X93643Y59246D02*
D03*
X101027Y76592D02*
D03*
X110445Y48204D02*
D03*
X81394Y48949D02*
D03*
X500Y56001D02*
D03*
Y47862D02*
D03*
Y37000D02*
D03*
Y27000D02*
D03*
X44500Y0D02*
D03*
X61000D02*
D03*
X75000D02*
D03*
X92000D02*
D03*
X106500D02*
D03*
X121249D02*
D03*
X135303D02*
D03*
X146503D02*
D03*
X158000D02*
D03*
Y5000D02*
D03*
Y11366D02*
D03*
X159835Y16100D02*
D03*
X166500Y19543D02*
D03*
Y32705D02*
D03*
Y45500D02*
D03*
Y55559D02*
D03*
Y67521D02*
D03*
Y82743D02*
D03*
Y86167D02*
D03*
X160000Y89500D02*
D03*
X158000Y94952D02*
D03*
Y105500D02*
D03*
X147000D02*
D03*
X136299D02*
D03*
X123554D02*
D03*
X111500D02*
D03*
X99000D02*
D03*
X85500D02*
D03*
X72000D02*
D03*
X59000D02*
D03*
X46875D02*
D03*
X35550D02*
D03*
X22554D02*
D03*
X9000D02*
D03*
X8200Y91000D02*
D03*
X822Y85950D02*
D03*
X900Y77988D02*
D03*
Y72500D02*
D03*
X829Y68000D02*
D03*
X822Y64450D02*
D03*
Y61400D02*
D03*
X101884Y53349D02*
D03*
X86250Y61059D02*
D03*
X75641Y53120D02*
D03*
X95122Y51250D02*
D03*
X94631Y55674D02*
D03*
X98848Y56040D02*
D03*
X103556Y50183D02*
D03*
X103462Y50982D02*
D03*
X110131Y50174D02*
D03*
X96782Y55819D02*
D03*
X110131Y49087D02*
D03*
X97027Y51596D02*
D03*
X109884Y47552D02*
D03*
X110921Y46187D02*
D03*
X107465Y55819D02*
D03*
X98000Y42750D02*
D03*
X101480Y39479D02*
D03*
X81452Y35080D02*
D03*
X91463Y62270D02*
D03*
X91875Y63679D02*
D03*
X79955Y48030D02*
D03*
X88397Y61379D02*
D03*
X87577Y61374D02*
D03*
X131027Y76559D02*
D03*
X108027D02*
D03*
X84674Y63679D02*
D03*
X83505Y62595D02*
D03*
X83955Y63258D02*
D03*
X72450Y52850D02*
D03*
X71125Y51825D02*
D03*
X157027Y76559D02*
D03*
X153027D02*
D03*
X146027D02*
D03*
X142027D02*
D03*
X138027D02*
D03*
X127027D02*
D03*
X123027Y76547D02*
D03*
X116027Y76559D02*
D03*
X112027D02*
D03*
X97027D02*
D03*
X93027D02*
D03*
X86027D02*
D03*
X82027D02*
D03*
X78027D02*
D03*
X71027D02*
D03*
X67027D02*
D03*
X63027D02*
D03*
X56027D02*
D03*
X52027D02*
D03*
X48027D02*
D03*
X41027D02*
D03*
X37027D02*
D03*
X33027D02*
D03*
X26027D02*
D03*
X22027D02*
D03*
X18027D02*
D03*
X11027D02*
D03*
D45*
X63162Y55400D02*
X63195Y55433D01*
X58802Y61419D02*
X63778Y56444D01*
X58582Y60889D02*
X63195Y56277D01*
Y55433D02*
Y56277D01*
X63778Y54625D02*
Y56444D01*
X3686Y56372D02*
X4309Y55749D01*
X4541D01*
X4817Y56025D01*
X3156Y56152D02*
X4089Y55219D01*
X4881D02*
X4925Y55175D01*
X3156Y56152D02*
Y60566D01*
X4089Y55219D02*
X4881D01*
X4229Y60889D02*
X58582D01*
X4817Y56025D02*
X4925D01*
X4009Y61419D02*
X58802D01*
X3686Y56372D02*
Y60347D01*
X4229Y60889D01*
X3156Y60566D02*
X4009Y61419D01*
%TF.MD5,b6d3bd89a6cb12864f96a7d1f7a19baf*%
M02*
