%TF.GenerationSoftware,Altium Limited,Altium Designer,23.6.0 (18)*%
G04 Layer_Color=32768*
%FSLAX43Y43*%
%MOMM*%
%TF.SameCoordinates,02C31AF8-F4BC-48A1-AB84-B672334353EB*%
%TF.FilePolarity,Positive*%
%TF.FileFunction,Other,Outline*%
%TF.Part,Single*%
G01*
G75*
%TA.AperFunction,NonConductor*%
%ADD56C,0.500*%
D56*
X8291Y106156D02*
G03*
X8291Y106156I-3J0D01*
G01*
X167092Y86776D02*
G03*
X167092Y86776I-3J0D01*
G01*
D02*
G03*
X167092Y86776I-3J0D01*
G01*
X8291Y106156D02*
G03*
X8291Y106156I-3J0D01*
G01*
X8291Y-524D02*
G03*
X8291Y-524I-3J0D01*
G01*
X8291D02*
G03*
X8291Y-524I-3J0D01*
G01*
X158760D02*
G03*
X158760Y-524I-3J0D01*
G01*
X167092Y18856D02*
G03*
X167092Y18856I-3J0D01*
G01*
X8288Y10525D02*
G03*
X-44Y18856I-8331J0D01*
G01*
X158757Y95107D02*
G03*
X167088Y86776I8331J0D01*
G01*
X-44D02*
G03*
X8288Y95107I0J8331D01*
G01*
X167088Y18856D02*
G03*
X158757Y10525I0J-8331D01*
G01*
X8288Y-524D02*
X158757D01*
X8288Y106156D02*
X158757D01*
X8288Y-524D02*
Y10525D01*
X158757Y95107D02*
Y106156D01*
X-44Y18856D02*
Y86776D01*
X167088Y18856D02*
Y86776D01*
X8288Y95107D02*
Y106156D01*
X158757Y-524D02*
Y10525D01*
%TF.MD5,4e8854c95facd2449c7a7586a347a76b*%
M02*
